<svg xmlns="http://www.w3.org/2000/svg" viewBox="0 0 498.35 498.52"><defs><style>.cls-1{fill:#0d2636;}</style></defs><g id="Layer_2" data-name="Layer 2"><g id="Layer_1-2" data-name="Layer 1"><g id="_8-Email" data-name=" 8-Email"><polygon class="cls-1" points="205.65 237.21 104.2 338.73 104.2 158.8 205.65 237.21"/><path class="cls-1" d="M384.73,347.89H113.62L216.26,245.25l28.83,22.32a6.6,6.6,0,0,0,8,0l29-22.32Z"/><polygon class="cls-1" points="394.2 158.8 394.2 338.73 292.75 237.21 394.2 158.8"/><polygon class="cls-1" points="383.22 150.89 249.18 254.52 115.13 150.89 383.22 150.89"/></g><path class="cls-1" d="M249.17,498.52c-138.6.7-252.3-114.5-249.1-255.1,3-134,114.1-245,252.4-243.4,136.6,1.6,249.4,115.4,245.8,256C494.87,389.42,384.87,499.12,249.17,498.52Zm-218.8-249c1.1,125.3,102.4,221.6,222.2,219.8,116.2-1.8,215.2-96.4,215.3-220,0-125.2-102.1-222-222.2-220C129.27,31.22,31.17,126,30.37,249.52Z"/></g></g></svg>