<svg xmlns="http://www.w3.org/2000/svg" viewBox="0 0 498.35 498.52"><defs><style>.cls-1{fill:#0d2636;}</style></defs><g id="Layer_2" data-name="Layer 2"><g id="Layer_1-2" data-name="Layer 1"><path class="cls-1" d="M249.17,498.52c-138.6.7-252.3-114.5-249.1-255.1,3-134,114.1-245,252.4-243.4,136.6,1.6,249.4,115.4,245.8,256C494.87,389.42,384.87,499.12,249.17,498.52Zm-218.8-249c1.1,125.3,102.4,221.6,222.2,219.8,116.2-1.8,215.2-96.4,215.3-220,0-125.2-102.1-222-222.2-220C129.27,31.22,31.17,126,30.37,249.52Z"/><path class="cls-1" d="M316.77,366.92v-6.1c0-26.7.1-53.3-.1-80a57.8,57.8,0,0,0-1.5-13.8c-3.6-14.8-15.6-22.2-32.9-20.8-12.8,1-24.3,12.4-25.2,25.6-.6,8-.4,16-.5,24-.1,21.7,0,43.3,0,65V367h-48.1V210.62h47.7v19.8a34.52,34.52,0,0,0,3.4-4.2c21.6-32.4,80.2-28.9,97.6,9.3a82.06,82.06,0,0,1,7.8,33.3c.3,32.1.2,64.3.2,96.5a7.39,7.39,0,0,1-.3,1.8C349.07,366.92,333.17,366.92,316.77,366.92Z"/><path class="cls-1" d="M177.67,367.12H130V211.52h47.7Z"/><path class="cls-1" d="M152.37,180.32c-14.3-.1-24.3-10.5-24.2-24.9s10.5-24.3,25.4-24.2c14.2.1,24.5,10.6,24.3,24.9C177.87,170.32,167.17,180.42,152.37,180.32Z"/></g></g></svg>