<svg xmlns="http://www.w3.org/2000/svg" viewBox="0 0 508.05 512"><defs><style>.cls-1{fill:#0d2636;fill-rule:evenodd;}</style></defs><g id="Layer_2" data-name="Layer 2"><g id="Layer_1-2" data-name="Layer 1"><g id="Page-1"><path id="whatsup" class="cls-1" d="M258.64,0C120.89,0,9.22,111.66,9.22,249.41A248.25,248.25,0,0,0,45,378.19L0,512l138.09-44.21a248.32,248.32,0,0,0,120.55,31c137.74,0,249.41-111.66,249.41-249.4S396.38,0,258.64,0Zm0,459.09a208.49,208.49,0,0,1-115.37-34.68L62.69,450.22l26.19-77.88A208.55,208.55,0,0,1,49,249.4C49,133.78,143,39.72,258.64,39.72S468.33,133.78,468.33,249.4,374.26,459.09,258.64,459.09Zm-58.5-312.84c-4-9.74-7.13-10.07-13.37-10.37-2.14-.1-4.46-.2-7-.2-8,0-16.38,2.37-21.4,7.51-6.12,6.25-21.4,20.9-21.4,51s21.9,59.15,25,63.23,42.73,66.71,104.44,92.28c48.17,19.95,62.48,18.18,73.47,15.77,16-3.49,36.07-15.26,41.16-29.53s5.1-26.52,3.57-29.06-5.6-4.08-11.72-7.15-36.17-17.84-41.78-19.88-10.78-1.41-15.09,4.55c-6,8.23-11.67,16.69-16.41,21.71-3.72,3.94-9.71,4.49-14.85,2.3-6.77-2.88-25.82-9.52-49.17-30.34-18.17-16.2-30.45-36.22-34-42.34s-.32-9.76,2.43-13.09c3.14-3.8,6-6.52,9.08-10.09s4.77-5.47,6.81-9.56.66-8.28-.87-11.34S205.22,158.49,200.14,146.25Z"/></g></g></g></svg>