<svg xmlns="http://www.w3.org/2000/svg" viewBox="0 0 480.33 583.29"><defs><style>.cls-1{fill:#0e0c0b;}.cls-2{fill:#f28170;}</style></defs><g id="Layer_2" data-name="Layer 2"><g id="Layer_1-2" data-name="Layer 1"><path class="cls-1" d="M239.93,1.86H465.82c10.29,0,13.44,3.14,13.45,13.38-3.29,33.32,6.88,71.65-4.49,102.57q-81.3,83.7-162.37,167.58c-7.58,7.83-10.88,17.25-10.87,28.08-1.69,88.23,3.39,178-1.8,265.48-3.87,5.27-10.54,5.85-15.61,1.07-29.5-27.94-59.24-55.64-88.54-83.79-42.32-38.5,5.65-172-29.37-212.21Q87,202.55,7.92,120.87C2.81,115.62.42,110.3.53,102.82c.39-29.31.15-58.64.16-88C-14-13,211.86,8,239.93,1.86Zm41.63,548.2c0-36.35,0-71.49.06-106.62,0-3.09-1.25-3.5-3.86-3.48-13.12-2.65-45.4,8.06-47.8-9.94,2.93-18,33.55-7.49,46.8-9.93,4.13.11,4.89-1.31,4.87-5.08.43-37.9-1.1-76.35.4-114.09,3.19-11.36,8.22-22,16.9-30.56C348.83,218.14,401.15,167.18,449.44,114H29.73c37.39,50.72,172.19,149.68,168.86,203.21,4.72,40.11-13.27,142.37,12.79,166.62C235.1,506,257.28,527.19,281.56,550.06ZM239.77,93.41c71.43.1,142.87-.21,214.3.12,10.34.16,2.78-14.18,5.3-20.49.36-4.31-.77-5.59-5.32-5.55-142.4,4.31-296.74-7.6-433.41,4.09,2.16,6.64-4.94,22,5.32,21.94Q132.87,93.28,239.77,93.41Zm.39-45.79q107.91,0,215.83,0c7.48-1,1.19-16.19,3.34-21.92,1.35-8.34-36.28-1.92-43.39-3.84q-196.1,0-392.2,0c-7,1-.88,14.88-3.14,20.17-.35,4.63,1.17,5.71,5.72,5.7Q133.24,47.5,240.16,47.62Z"/><path class="cls-2" d="M281.56,550.06c-24.28-22.87-46.46-44-70.17-66.28-26-24.11-8.1-126.7-12.82-166.62C201.85,263.5,67.21,164.79,29.73,114H449.44c-48.3,53.24-100.61,104.19-150.51,156.41-8.68,8.6-13.71,19.2-16.9,30.56-1.5,37.75,0,76.19-.4,114.09,0,3.77-.74,5.19-4.87,5.08C263.45,422.6,233,411.91,230,430c2.34,18.08,34.74,7.25,47.8,10,2.61,0,3.87.38,3.86,3.47C281.52,478.57,281.56,513.71,281.56,550.06Z"/><path class="cls-2" d="M239.77,93.41q-106.9,0-213.81.11c-10.54.09-2.89-15.3-5.32-21.93,136.73-11.7,291,.21,433.41-4.11,10.37-.23,2.82,14.2,5.3,20.53.32,4.22-.7,5.56-5.28,5.52C382.64,93.2,311.2,93.51,239.77,93.41Z"/><path class="cls-2" d="M240.16,47.62q-106.92,0-213.84.1c-4.55,0-6.07-1.07-5.71-5.7,2-5.26-3.53-19.26,3.13-20.17q196.08.11,392.2,0c7.73,1.88,44.53-4.45,43.39,3.84C457.54,31.08,463,47.28,456,47.64Q348.1,47.55,240.16,47.62Z"/></g></g></svg>