<svg xmlns="http://www.w3.org/2000/svg" viewBox="0 0 145.25 50.38"><defs><style>.cls-1{fill:#f15a22;}.cls-2{fill:#231f20;}.cls-3{fill:#fff;}</style></defs><g id="Layer_2" data-name="Layer 2"><g id="Layer_1-2" data-name="Layer 1"><rect class="cls-1" width="145.25" height="50.38"/><path class="cls-2" d="M12.08,38.45v4.19h-1V38.45H9.78v-.82h3.56v.82Zm5.42,4.19V40.47H15.38v2.17h-1v-5h1v2H17.5v-2h1v5Zm2.42,0v-5h2.73v.81H20.89V39.7h1.67v.79H20.89v1.36h1.76v.82ZM28,42.7a2.14,2.14,0,0,1-2.32-2,1.77,1.77,0,0,1,0-.46,2.4,2.4,0,0,1,2.06-2.7,2.26,2.26,0,0,1,.45,0,3.86,3.86,0,0,1,1.06.14l-.11.87a3.46,3.46,0,0,0-1-.15c-.93,0-1.39.71-1.39,1.68s.45,1.7,1.46,1.7a2.66,2.66,0,0,0,1-.2l.11.86A4.31,4.31,0,0,1,28,42.7Zm4.49,0c-1.53,0-2.28-1-2.28-2.53a2.45,2.45,0,0,1,2.24-2.65h.21C34,37.52,35,38.32,35,40a2.47,2.47,0,0,1-2.24,2.65Zm.08-4.31c-.69,0-1.33.55-1.33,1.68s.42,1.75,1.32,1.75c.65,0,1.35-.5,1.35-1.71s-.48-1.69-1.34-1.69Zm3.54,4.25v-5h1V41.8h1.62v.84Zm3.59,0v-5h1V41.8h1.62v.84Zm3.59,0v-5H46v.81H44.25V39.7h1.67v.79H44.25v1.36H46v.82Zm7.87-3.94a3.41,3.41,0,0,0-1.33-.25,1.6,1.6,0,0,0-1.71,1.49,2.18,2.18,0,0,0,0,.25,1.5,1.5,0,0,0,1.29,1.68h.31a2.28,2.28,0,0,0,.63-.09V40h1v2.39a4.84,4.84,0,0,1-1.72.31,2.3,2.3,0,0,1-2.52-2.07,1.78,1.78,0,0,1,0-.4,2.58,2.58,0,0,1,2.46-2.71,1.93,1.93,0,0,1,.34,0,4.58,4.58,0,0,1,1.42.22Zm1.57,3.94v-5h2.72v.81H53.71V39.7h1.66v.79H53.71v1.36h1.75v.82Zm8.1.06c-1.53,0-2.28-1-2.28-2.53a2.44,2.44,0,0,1,2.25-2.62H61c1.33,0,2.27.8,2.27,2.52A2.46,2.46,0,0,1,61,42.69Zm.08-4.31c-.69,0-1.33.55-1.33,1.68s.41,1.75,1.31,1.75c.66,0,1.35-.5,1.35-1.71s-.47-1.69-1.33-1.69Zm4.48.06V39.7H67v.79H65.39V42.6h-1v-5h2.68v.82Zm8,4.19V40.47H71.28v2.17h-1v-5h1v2h2.13v-2h1v5Zm2.41,0v-5h1v5Zm6.24-3.94a3.41,3.41,0,0,0-1.33-.25A1.6,1.6,0,0,0,79,39.94a2.18,2.18,0,0,0,0,.25,1.5,1.5,0,0,0,1.29,1.68h.3a2.35,2.35,0,0,0,.64-.09V40h1v2.39a5,5,0,0,1-1.71.31A2.32,2.32,0,0,1,78,40.65a2.67,2.67,0,0,1,0-.4,2.6,2.6,0,0,1,2.48-2.71h.33a4.58,4.58,0,0,1,1.42.22Zm4.68,3.94V40.47H84.62v2.17h-1v-5h1v2h2.12v-2h1v5Zm2.42,0v-5h2.72v.81H90.12V39.7h1.67v.79H90.12v1.36h1.76v.82Zm6.46,0-1.4-2.07v2.07h-1v-5h1.44c1.11,0,1.82.39,1.82,1.41a1.42,1.42,0,0,1-1.28,1.4l.41.55,1.2,1.68Zm-1.05-4.25h-.38v1.45h.35c.57,0,.93-.29.93-.76S95.18,38.39,94.57,38.39Zm5.29,4.25v-5h1V41.8h1.62v.84Zm3.59,0v-5h2.73v.81h-1.76V39.7h1.67v.79h-1.67v1.36h1.76v.82Zm7.12,0-.35-1h-1.89l-.35,1h-1l1.75-5h1.09l1.79,5Zm-1.07-3.1a6,6,0,0,1-.23-.8c-.06.26-.14.55-.23.84l-.45,1.27H110Zm5.51,3.1-1.39-2.07v2.07h-1v-5h1.44c1.11,0,1.82.39,1.82,1.41a1.41,1.41,0,0,1-1.27,1.4c.14.18.28.38.4.55l1.21,1.68Zm-1-4.25h-.38v1.45H114c.58,0,.93-.29.93-.76s-.38-.69-1-.69Zm6.08,4.25-1.47-2.53c-.2-.35-.38-.72-.54-1.08v3.61h-.93v-5h1.25L119.8,40c.23.39.43.8.61,1.18,0-.5,0-1.39,0-2V37.63h.94v5Zm2.69,0v-5h1v5Zm5.32,0-1.47-2.53a7.77,7.77,0,0,1-.54-1.08v3.61h-.94v-5h1.26L127.8,40c.23.39.44.8.62,1.18,0-.5,0-1.39,0-2V37.63h.93v5Zm6.51-3.94a3.41,3.41,0,0,0-1.33-.25A1.61,1.61,0,0,0,131.57,40a1.85,1.85,0,0,0,0,.23,1.5,1.5,0,0,0,1.29,1.68h.31a2.35,2.35,0,0,0,.64-.09V40h1v2.39a5,5,0,0,1-1.71.31,2.3,2.3,0,0,1-2.53-2,2,2,0,0,1,0-.42,2.6,2.6,0,0,1,2.49-2.71h.31a4.58,4.58,0,0,1,1.42.22Zm1.7,4c-.36,0-.55-.17-.55-.51s.19-.51.55-.51.54.18.54.51S136.67,42.7,136.31,42.7Z"/><path class="cls-3" d="M9.82,26.93v-1.8l1.72-.19c.38-.06.44-.14.44-.56V10.55c0-.42-.06-.53-.44-.56l-1.72-.2V8h8.07V9.79L15.62,10c-.41,0-.44.14-.44.53v14H21.3c.31,0,.39,0,.44-.3l.44-2.67h2.3v5.36Zm25.71,0-.27-1.66h-.08a6.58,6.58,0,0,1-4.82,2c-3.44,0-3.91-2.41-3.91-4,0-2.8,1.7-4.15,5-4.43l3.47-.28V17.14c0-1.76-.3-2.72-2.41-2.72-1.5,0-2.51.12-2.51,2l-3-.28c0-3.59,3.2-4,5.53-4,4,0,5.44,1.15,5.44,5v7.21c0,.44,0,.5.44.56l1.34.19v1.8ZM35,20.62l-2.6.22c-2,.2-2.68.79-2.68,2.13s.63,1.8,1.75,1.8A5.43,5.43,0,0,0,35,23.09Zm15.57,6.31V25.16L51.94,25c.39,0,.44-.22.44-.56v-6.5c0-1.68-.19-3.09-1.94-3.09a6.83,6.83,0,0,0-3.75,1.46v8.08c0,.44,0,.5.44.56l1.45.19v1.8H41.8V25.1l1.31-.16c.38-.06.44-.14.44-.56v-9c0-.31-.08-.51-.36-.59l-1.5-.53.27-1.8h4L46.23,14h.11a8.76,8.76,0,0,1,5.11-1.85c3,0,4.08,1.91,4.08,5.13v7.1c0,.44,0,.5.44.56l1.5.19v1.8ZM70.3,14.7a4.59,4.59,0,0,1,1,2.89c0,3.25-2.52,5-5.72,5a8.87,8.87,0,0,1-2.3-.25L62,24.47l3.37.17c4.87.25,7.19.5,7.19,3.89,0,3-2.51,4.71-7.27,4.71s-6.54-1.31-6.54-3.45a4.09,4.09,0,0,1,1.67-3,1.85,1.85,0,0,1-1.26-1.74,2.29,2.29,0,0,1,.68-1.6c.44-.5,1-1.2,1.51-1.73a4.5,4.5,0,0,1-2.13-4.12c0-3.12,2.13-5.39,6-5.39a10.18,10.18,0,0,1,2.57.28h5v2ZM62.64,27.37a3.13,3.13,0,0,0-1,2c0,1.29,1.45,1.71,3.83,1.71,1.39,0,4-.22,4-2,0-1.23-1-1.29-2.63-1.4Zm2.84-12.9A2.83,2.83,0,0,0,62.32,17a2.09,2.09,0,0,0,0,.56c0,1.6.85,2.8,3.09,2.8a2.85,2.85,0,0,0,3.13-2.52c0-.11,0-.23,0-.34a2.79,2.79,0,0,0-2.46-3.06,2.49,2.49,0,0,0-.61,0ZM83.32,26.93,83,25.27h-.08a6.55,6.55,0,0,1-4.81,2c-3.45,0-3.91-2.41-3.91-4,0-2.8,1.69-4.15,5-4.43l3.47-.28V17.14c0-1.76-.3-2.72-2.4-2.72-1.51,0-2.52.12-2.52,2l-3-.28c0-3.59,3.2-4,5.52-4,4,0,5.44,1.15,5.44,5v7.21c0,.44,0,.5.44.56l1.34.19v1.8Zm-.58-6.31-2.6.22c-2,.2-2.68.79-2.68,2.13s.63,1.8,1.76,1.8a5.38,5.38,0,0,0,3.52-1.68Zm6.76,6.31V25.1l1.31-.16c.38-.06.44-.14.44-.56v-9a.54.54,0,0,0-.36-.59l-1.5-.53.27-1.8h4.08l.3,2h.08a5,5,0,0,1,4-2.36,9.7,9.7,0,0,1,2.14.25V17l-2.47-.11-.32-1.74c0-.25-.09-.31-.33-.31a4.7,4.7,0,0,0-2.77,1.46v8c0,.45.06.53.47.56l2.57.22v1.8Zm21.39,0-.28-1.66h-.08a6.55,6.55,0,0,1-4.81,2c-3.45,0-3.91-2.41-3.91-4,0-2.8,1.69-4.15,5-4.43l3.47-.28V17.14c0-1.76-.3-2.72-2.4-2.72-1.51,0-2.52.12-2.52,2l-3-.28c0-3.59,3.2-4,5.52-4,4,0,5.44,1.15,5.44,5v7.21c0,.44,0,.5.44.56l1.34.19v1.8Zm-.58-6.31-2.6.22c-2,.2-2.68.79-2.68,2.13s.63,1.8,1.75,1.8a5.43,5.43,0,0,0,3.53-1.68Zm8.94,6.64c-1.12,0-1.69-.53-1.69-1.61a1.68,1.68,0,0,1,3.35,0,1.46,1.46,0,0,1-1.29,1.61A1.53,1.53,0,0,1,119.25,27.26Z"/></g></g></svg>