<svg width="258" height="75" viewBox="0 0 258 75" fill="none" xmlns="http://www.w3.org/2000/svg">
    <g clip-path="url(#clip0_194_776)">
        <path fill-rule="evenodd" clip-rule="evenodd" d="M106.089 50.5716L105.312 41.8637C105.201 40.5673 105.09 39.0105 105.09 37.4919H105.016C104.461 38.973 103.684 40.6039 103.019 41.9378L98.5807 50.6456H96.2877L91.7755 41.9378C91.0729 40.6039 90.3703 39.0479 89.7781 37.5285H89.7042C89.7042 39.0479 89.6303 40.6039 89.5198 41.8637L88.7798 50.5716H83.4543L85.4885 26.931H90.2225L95.3633 36.8612C96.1033 38.3065 97.1016 40.3443 97.7303 41.9012H97.7668C98.359 40.3443 99.2834 38.418 100.06 36.8612L105.163 26.931H109.603L111.673 50.5716H106.089Z" fill="#101110"/>
        <path fill-rule="evenodd" clip-rule="evenodd" d="M114.683 33.7859H120.156V50.5718H114.683V33.7859ZM117.42 31.4885C116.459 31.4885 114.498 29.5248 114.498 28.5604C114.498 27.5976 116.459 25.6714 117.42 25.6714C118.381 25.6714 120.341 27.5976 120.341 28.5604C120.341 29.5248 118.381 31.4885 117.42 31.4885Z" fill="#101110"/>
        <path fill-rule="evenodd" clip-rule="evenodd" d="M133.897 50.5716V40.2703C133.897 39.0479 133.084 37.9728 131.418 37.9728C129.791 37.9728 128.756 39.0105 128.756 40.3443V50.5716H123.319V33.7858H128.312V36.0466H128.35C129.015 34.2675 130.753 33.2674 133.453 33.2674C137.115 33.2674 139.333 35.3418 139.333 38.899V50.5716H133.897Z" fill="#101110"/>
        <path fill-rule="evenodd" clip-rule="evenodd" d="M154.408 39.5664C153.89 38.8624 152.781 38.047 151.117 38.047C148.749 38.047 147.085 39.8992 147.085 42.3081C147.085 44.7162 148.749 46.5693 151.117 46.5693C152.707 46.5693 153.816 45.7172 154.408 44.8277V39.5664ZM154.926 50.5717V48.4964H154.888C153.964 50.2014 152.041 51.0526 149.712 51.0526C145.606 51.0526 141.649 47.9406 141.649 42.1975C141.649 36.7864 145.494 33.2666 150.155 33.2666C151.93 33.2666 153.742 33.8599 154.408 34.4157V24.1885H159.697V50.5717H154.926Z" fill="#101110"/>
        <path fill-rule="evenodd" clip-rule="evenodd" d="M171.433 38.0469C169.879 38.0469 168.695 38.7883 168.178 39.3441V45.7546C168.733 46.1615 169.879 46.5701 170.914 46.5701C173.689 46.5701 175.426 44.6804 175.426 42.2348C175.426 39.9 173.799 38.0469 171.433 38.0469ZM170.988 51.0534C167.438 51.0534 164.553 49.8302 162.926 48.5704V24.1892H168.178V34.3782C168.88 33.8232 170.656 33.2665 172.393 33.2665C177.017 33.2665 180.826 36.5649 180.826 41.8637C180.826 47.0518 177.534 51.0534 170.988 51.0534Z" fill="#101110"/>
        <path fill-rule="evenodd" clip-rule="evenodd" d="M188.94 51.2387C185.501 51.0897 183.208 49.3115 183.208 45.2734V24.189H188.57V44.6052C188.57 45.9765 189.347 46.7179 190.826 46.8294L188.94 51.2387Z" fill="#101110"/>
        <path fill-rule="evenodd" clip-rule="evenodd" d="M200.731 37.9728C198.697 37.9728 196.958 39.7518 196.958 42.2339C196.958 44.7169 198.697 46.4959 200.731 46.4959C202.727 46.4959 204.503 44.7169 204.503 42.2339C204.503 39.7518 202.727 37.9728 200.731 37.9728ZM200.731 51.0899C195.664 51.0899 191.595 47.4952 191.595 42.1607C191.595 36.8245 195.664 33.2298 200.731 33.2298C205.76 33.2298 209.865 36.8245 209.865 42.1607C209.865 47.4952 205.76 51.0899 200.731 51.0899Z" fill="#101110"/>
        <path fill-rule="evenodd" clip-rule="evenodd" d="M220.476 37.9728C218.442 37.9728 216.703 39.7518 216.703 42.2339C216.703 44.7169 218.442 46.4959 220.476 46.4959C222.473 46.4959 224.248 44.7169 224.248 42.2339C224.248 39.7518 222.473 37.9728 220.476 37.9728ZM220.476 51.0899C215.409 51.0899 211.34 47.4952 211.34 42.1607C211.34 36.8245 215.409 33.2298 220.476 33.2298C225.506 33.2298 229.611 36.8245 229.611 42.1607C229.611 47.4952 225.506 51.0899 220.476 51.0899Z" fill="#101110"/>
        <path fill-rule="evenodd" clip-rule="evenodd" d="M252.563 50.5716V40.2703C252.563 39.0479 251.971 37.9728 250.197 37.9728C248.458 37.9728 247.682 39.0105 247.682 40.3443V50.5716H242.244V40.2703C242.244 39.0479 241.653 37.9728 239.877 37.9728C238.14 37.9728 237.363 39.0105 237.363 40.3443V50.5716H231.926V33.7858H236.956V36.0466H236.993C237.659 34.2675 239.323 33.2674 241.949 33.2674C244.353 33.2674 246.165 34.2301 246.904 36.0091C247.608 34.379 249.568 33.2674 252.083 33.2674C255.892 33.2674 258 35.3418 258 38.899V50.5716H252.563Z" fill="#101110"/>
        <path fill-rule="evenodd" clip-rule="evenodd" d="M71.2803 40.7983C61.2927 35.3064 49.2554 34.0525 38.4719 37.0617C47.9539 31.9561 59.5572 30.3862 70.1755 33.0015C70.9911 33.2024 71.7921 33.4694 72.5342 33.8633C73.0564 34.1402 73.5173 34.4558 73.8961 34.8346C74.5782 35.5168 75 36.4588 75 37.4999C75 38.5406 74.5782 39.4827 73.8961 40.1648C73.214 40.8469 72.278 41.2135 71.2803 40.7983Z" fill="#6A31FC"/>
        <path fill-rule="evenodd" clip-rule="evenodd" d="M3.71964 34.2017C13.645 39.0681 25.4313 41.3254 36.4657 37.8147C26.9399 43.6765 15.2725 44.3049 4.67161 41.9353C3.90598 41.7641 3.15922 41.5046 2.46577 41.1371C1.94356 40.8598 1.48267 40.5442 1.10386 40.1654C0.421733 39.4832 0 38.5412 0 37.5C0 36.4594 0.421733 35.5173 1.10386 34.8352C1.786 34.1531 2.72192 33.7865 3.71964 34.2017Z" fill="#6A31FC"/>
        <path fill-rule="evenodd" clip-rule="evenodd" d="M34.2016 71.2804C39.4751 61.3876 40.9795 49.3503 37.9703 38.5664C43.3495 48.1025 44.4373 59.7841 41.938 70.3638C41.7602 71.1167 41.4989 71.8507 41.1366 72.5342C40.8597 73.0564 40.5441 73.5173 40.1653 73.8961C39.4831 74.5783 38.5411 75 37.4999 75C36.4593 75 35.5172 74.5783 34.8351 73.8961C34.153 73.214 33.7864 72.2781 34.2016 71.2804Z" fill="#6A31FC"/>
        <path fill-rule="evenodd" clip-rule="evenodd" d="M40.7983 3.71964C35.7134 13.7393 34.2086 25.5261 36.9668 36.5601C31.5852 26.7748 30.4988 15.3187 33.0613 4.62821C33.241 3.87815 33.5019 3.14696 33.8633 2.46577C34.1402 1.94356 34.4558 1.48267 34.8346 1.10386C35.5167 0.421733 36.4588 0 37.4999 0C38.5405 0 39.4826 0.421733 40.1647 1.10386C40.8468 1.786 41.2134 2.72192 40.7983 3.71964Z" fill="#6A31FC"/>
        <path fill-rule="evenodd" clip-rule="evenodd" d="M11.2813 59.0539C21.9204 55.6197 31.7009 48.5979 36.9673 38.5669C34.2784 49.3215 26.5872 58.1704 17.4044 63.8708C16.7454 64.2798 16.0406 64.6167 15.2986 64.8445C14.7339 65.0181 14.1843 65.1205 13.6484 65.1205C12.6842 65.1205 11.7195 64.7525 10.9836 64.0166C10.2472 63.2807 9.87927 62.316 9.87927 61.3513C9.87927 60.3871 10.2826 59.4658 11.2813 59.0539Z" fill="#6A31FC"/>
        <path fill-rule="evenodd" clip-rule="evenodd" d="M63.7185 15.9461C53.0171 19.2568 43.2367 26.5295 37.9702 36.5604C40.6459 26.1012 48.0403 16.8217 57.4354 11.2028C58.152 10.774 58.903 10.4004 59.7011 10.1556C60.2658 9.98242 60.8154 9.87959 61.3513 9.87959C62.3155 9.87959 63.2802 10.2475 64.0161 10.9834C64.7525 11.7194 65.1205 12.6841 65.1205 13.6488C65.1205 14.6135 64.7171 15.5343 63.7185 15.9461Z" fill="#6A31FC"/>
        <path fill-rule="evenodd" clip-rule="evenodd" d="M15.9459 11.2811C19.1622 22.015 26.4345 31.5448 36.466 37.0622C25.7076 34.128 16.8564 26.6644 11.1253 17.4014C10.7181 16.7429 10.3827 16.0391 10.1554 15.2984C9.98176 14.7338 9.87939 14.1842 9.87939 13.6483C9.87939 12.6841 10.2473 11.7194 10.9833 10.9834C11.7192 10.2471 12.6839 9.87911 13.6486 9.87911C14.6128 9.87911 15.5341 10.2824 15.9459 11.2811Z" fill="#6A31FC"/>
        <path fill-rule="evenodd" clip-rule="evenodd" d="M59.0538 63.7186C55.7757 52.8611 48.252 43.3316 38.4719 37.8141C48.9252 40.9748 58.2005 48.1414 63.791 57.4285C64.2227 58.1465 64.5982 58.9003 64.8444 59.7013C65.0175 60.266 65.1204 60.8155 65.1204 61.3514C65.1204 62.3161 64.7524 63.2804 64.0165 64.0167C63.2806 64.7527 62.3159 65.1206 61.3512 65.1206C60.3865 65.1206 59.4657 64.7173 59.0538 63.7186Z" fill="#6A31FC"/>
        <path fill-rule="evenodd" clip-rule="evenodd" d="M58.0996 45.1627C52.0142 41.0746 45.494 38.3159 38.2212 37.5635C45.7444 37.062 55.0234 36.5605 60.5404 42.3285C61.5433 43.0809 61.0418 44.5857 59.7979 45.3325C59.294 45.5349 58.6902 45.4957 58.0996 45.1627Z" fill="#6A31FC"/>
        <path fill-rule="evenodd" clip-rule="evenodd" d="M16.9003 29.8373C22.6729 34.0523 29.6947 36.5605 36.7165 37.5639C29.7027 38.0474 22.2224 38.0644 15.6247 34.241C14.7076 33.7093 14.0816 32.747 14.09 31.6865C14.092 31.4657 14.1184 31.2464 14.1717 31.0346C14.4689 29.859 15.8214 29.2401 16.8828 29.8274C16.8885 29.8307 16.8946 29.834 16.9003 29.8373Z" fill="#6A31FC"/>
        <path fill-rule="evenodd" clip-rule="evenodd" d="M29.8372 58.0997C33.7074 52.1086 36.7161 45.5888 37.469 38.3155C38.2209 45.5888 37.9705 53.3625 33.7074 60.1338C33.154 61.0547 31.7898 61.299 30.6963 60.7344C29.7382 60.239 29.3051 59.0606 29.8273 58.1172C29.8306 58.1115 29.8339 58.1054 29.8372 58.0997Z" fill="#6A31FC"/>
        <path fill-rule="evenodd" clip-rule="evenodd" d="M45.1626 16.9004C40.9797 22.7674 38.221 29.7891 37.4686 36.8109C36.7162 29.7891 37.7196 22.7674 40.2273 16.2476C40.392 15.7536 40.7726 15.2597 41.2279 14.8366C41.827 14.2799 42.6223 13.9464 43.438 14.0054C44.2366 14.0629 44.9631 14.4451 45.3325 15.2022C45.5348 15.706 45.4957 16.3098 45.1626 16.9004Z" fill="#6A31FC"/>
        <path fill-rule="evenodd" clip-rule="evenodd" d="M17.5154 46.6478C24.6791 45.5887 31.1995 42.3286 36.9669 38.065C32.5699 43.4395 27.2204 47.862 20.6873 50.6373C19.7759 51.0246 18.7282 51.0434 17.8357 50.6137C17.2054 50.3099 16.6681 49.8155 16.3846 49.1607C15.9501 48.1559 16.4436 46.9558 17.496 46.6534L17.5154 46.6478Z" fill="#6A31FC"/>
        <path fill-rule="evenodd" clip-rule="evenodd" d="M57.4844 28.3521C50.5093 29.7895 43.4875 32.5478 37.9706 37.0618C42.4842 31.5448 48.0011 27.031 54.7724 24.2727C56.7787 23.5198 59.5374 25.0247 58.8053 27.2716C58.5921 27.7707 58.1378 28.17 57.4844 28.3521Z" fill="#6A31FC"/>
        <path fill-rule="evenodd" clip-rule="evenodd" d="M28.352 17.5156C29.6946 24.5232 32.2024 31.2943 36.9669 36.8113C30.9485 32.2972 26.1835 26.279 24.1776 19.0058C23.6757 17.7524 25.4315 15.4951 27.2713 16.1947C27.7704 16.4079 28.17 16.8622 28.352 17.5156Z" fill="#6A31FC"/>
        <path fill-rule="evenodd" clip-rule="evenodd" d="M46.6477 57.4845C45.2429 50.3533 42.7351 43.582 37.9706 38.065C43.738 42.3286 47.9926 48.2408 50.7598 54.8673C51.3329 56.2391 50.5966 57.8926 49.4507 58.57C48.3964 59.1936 46.9916 58.6818 46.6529 57.5039C46.651 57.4977 46.6496 57.4911 46.6477 57.4845Z" fill="#6A31FC"/>
        <path fill-rule="evenodd" clip-rule="evenodd" d="M37.5 41.6716C36.1183 41.6716 33.3015 38.8549 33.3015 37.4732C33.3015 36.0919 36.1183 33.3285 37.5 33.3285C38.8817 33.3285 41.6984 36.0919 41.6984 37.4732C41.6984 38.8549 38.8817 41.6716 37.5 41.6716Z" fill="white"/>
    </g>
    <defs>
        <clipPath id="clip0_194_776">
            <rect width="258" height="75" fill="white"/>
        </clipPath>
    </defs>
</svg>
