<svg xmlns="http://www.w3.org/2000/svg" viewBox="0 0 524.54 112.69"><g id="Layer_2" data-name="Layer 2"><g id="Layer_1-2" data-name="Layer 1"><path d="M435.8,44.16c-12-7.42-23.25-14.41-34.52-21.38-6-3.69-10.75-8.27-11.8-15.66-.76-5.34,1.36-7.59,6.81-7a18.93,18.93,0,0,1,6.14,2c17.27,8.14,34.05,17.35,51.77,24.55,17,6.92,34.82,11.07,52.82,14.45a29.89,29.89,0,0,1,10.68,3.68,14.49,14.49,0,0,1,4.63,20c-1.77,2.78-4.88,4-7.83,4.78-31.36,8.65-60.3,22.64-87.93,39.56a22.79,22.79,0,0,1-12.72,3.59c-7.92-.24-11.67-5.89-8.26-13.17,4-8.48,9.67-15.67,17.77-20.68A89.34,89.34,0,0,0,436,69.21c-1.43-1.29-3-.71-4.36-.72-20.46-.14-40.93.51-61.37.31-60.18-.57-120.36-1.21-180.53-.23-36.46.6-72.86-2.25-109.32-1-16.52.57-33.06.61-49.59.74A57.19,57.19,0,0,1,7.05,63.8c-4-1.75-7.28-7.24-7-11.49.3-5.05,2.71-7.29,7.83-6.92,30.82,2.21,61.69,3,92.55,4.24,24.93,1,49.85,1.91,74.77,1.06,27-.92,54-.18,80.91-.77,30.89-.68,61.8-.07,92.69-.83,23.3-.57,46.59-1.31,69.9-1.39A43.69,43.69,0,0,0,435.8,44.16Z"/></g></g></svg>