<svg xmlns="http://www.w3.org/2000/svg" viewBox="0 0 89.19 114.27"><defs><style>.cls-1{fill:#f4f9fc;}.cls-2{fill:#abdcec;}.cls-3{fill:#0f1b61;}.cls-4{fill:#fff;stroke:#0f1b61;stroke-miterlimit:10;stroke-width:3px;}</style></defs><g id="Layer_2" data-name="Layer 2"><g id="Layer_1-2" data-name="Layer 1"><rect class="cls-1" x="36.44" width="16.85" height="107.66"/><circle class="cls-2" cx="44.36" cy="54.16" r="33.95"/><path class="cls-3" d="M44.59,98.43a44.6,44.6,0,1,1,44.6-44.6A44.65,44.65,0,0,1,44.59,98.43Zm0-84.17A39.57,39.57,0,1,0,84.17,53.83,39.61,39.61,0,0,0,44.59,14.26Z"/><path class="cls-3" d="M59.66,56.34H44.73a2.51,2.51,0,0,1-2.51-2.51V21.47a2.52,2.52,0,0,1,5,0V51.32H59.66a2.51,2.51,0,1,1,0,5Z"/><path class="cls-3" d="M44.73,88.65a2.51,2.51,0,0,1-2.51-2.51V79a2.52,2.52,0,0,1,5,0v7.18A2.51,2.51,0,0,1,44.73,88.65Z"/><path class="cls-3" d="M19.28,56.34H12.2a2.51,2.51,0,1,1,0-5h7.08a2.51,2.51,0,0,1,0,5Z"/><path class="cls-3" d="M77,56.34H69.92a2.51,2.51,0,1,1,0-5H77a2.51,2.51,0,1,1,0,5Z"/><path class="cls-3" d="M25.94,39.17a2.53,2.53,0,0,1-1.7-.66L19,33.74A2.51,2.51,0,1,1,22.41,30l5.23,4.77a2.51,2.51,0,0,1,.15,3.55A2.46,2.46,0,0,1,25.94,39.17Z"/><path class="cls-3" d="M68.54,78.11a2.49,2.49,0,0,1-1.69-.65l-5.22-4.77A2.51,2.51,0,1,1,65,69l5.22,4.77a2.51,2.51,0,0,1-1.7,4.36Z"/><path class="cls-3" d="M22.77,80.16A2.5,2.5,0,0,1,20.91,76l4.78-5.22a2.51,2.51,0,1,1,3.71,3.39l-4.78,5.22A2.5,2.5,0,0,1,22.77,80.16Z"/><path class="cls-3" d="M61.71,37.57a2.52,2.52,0,0,1-1.85-4.21l4.77-5.22a2.51,2.51,0,1,1,3.71,3.39l-4.77,5.22A2.54,2.54,0,0,1,61.71,37.57Z"/><circle class="cls-4" cx="44.6" cy="107.66" r="5.11"/></g></g></svg>