<svg xmlns="http://www.w3.org/2000/svg" viewBox="0 0 89.19 114.27"><defs><style>.cls-1,.cls-4{fill:#f4f9fc;}.cls-2{fill:#abdcec;}.cls-3{fill:#0f1b61;}.cls-4{stroke:#0f1b61;stroke-miterlimit:10;stroke-width:3px;}</style></defs><g id="Layer_2" data-name="Layer 2"><g id="Layer_1-2" data-name="Layer 1"><rect class="cls-1" x="36.44" y="6.61" width="16.85" height="107.66"/><circle class="cls-2" cx="44.36" cy="60.76" r="33.95"/><path class="cls-3" d="M44.59,105a44.6,44.6,0,1,1,44.6-44.59A44.64,44.64,0,0,1,44.59,105Zm0-84.17A39.58,39.58,0,1,0,84.17,60.44,39.62,39.62,0,0,0,44.59,20.86Z"/><path class="cls-3" d="M59.66,63H44.73a2.52,2.52,0,0,1-2.51-2.51V28.08a2.52,2.52,0,1,1,5,0V57.92H59.66a2.52,2.52,0,0,1,0,5Z"/><path class="cls-3" d="M44.73,95.26a2.51,2.51,0,0,1-2.51-2.51V85.57a2.52,2.52,0,1,1,5,0v7.18A2.51,2.51,0,0,1,44.73,95.26Z"/><path class="cls-3" d="M19.28,63H12.2a2.52,2.52,0,0,1,0-5h7.08a2.52,2.52,0,0,1,0,5Z"/><path class="cls-3" d="M77,63H69.92a2.52,2.52,0,0,1,0-5H77a2.52,2.52,0,0,1,0,5Z"/><path class="cls-3" d="M25.94,45.78a2.53,2.53,0,0,1-1.7-.66L19,40.35a2.51,2.51,0,0,1,3.39-3.71l5.23,4.77a2.52,2.52,0,0,1-1.7,4.37Z"/><path class="cls-3" d="M68.54,84.72a2.5,2.5,0,0,1-1.69-.66l-5.22-4.77A2.51,2.51,0,1,1,65,75.58l5.22,4.77a2.51,2.51,0,0,1-1.7,4.37Z"/><path class="cls-3" d="M22.77,86.77a2.52,2.52,0,0,1-1.86-4.21l4.78-5.21a2.51,2.51,0,1,1,3.71,3.39L24.62,86A2.5,2.5,0,0,1,22.77,86.77Z"/><path class="cls-3" d="M61.71,44.17A2.5,2.5,0,0,1,59.86,40l4.77-5.22a2.51,2.51,0,0,1,3.71,3.38l-4.77,5.22A2.5,2.5,0,0,1,61.71,44.17Z"/><circle class="cls-4" cx="44.6" cy="6.61" r="5.11"/></g></g></svg>