<svg xmlns="http://www.w3.org/2000/svg" viewBox="0 0 170.39 153.82"><defs><style>.cls-1{opacity:0.85;}.cls-2{fill:#202020;}</style></defs><g id="Layer_2" data-name="Layer 2"><g id="Layer_1-2" data-name="Layer 1"><g class="cls-1"><path class="cls-2" d="M160.8,137.74c-.55-.52-1.13-1-1.69-1.52a3.33,3.33,0,0,1,.26,1.51C159.55,138.29,160.15,137.94,160.8,137.74Z" transform="translate(0 -0.41)"/><path class="cls-2" d="M157.54,134.86l-.3-.26a2,2,0,0,0-.43,0A6.28,6.28,0,0,1,157.54,134.86Z" transform="translate(0 -0.41)"/><path class="cls-2" d="M154,133.24a3.85,3.85,0,0,0,1.68,1A2.4,2.4,0,0,0,154,133.24Z" transform="translate(0 -0.41)"/><path class="cls-2" d="M156.06,135.56c.06-.49.22-.92.73-1h0c-.39-.13-.79-.22-1.18-.36A2.75,2.75,0,0,1,156.06,135.56Z" transform="translate(0 -0.41)"/><path class="cls-2" d="M156.06,135.56c-.05.47,0,1,0,1.26A5.93,5.93,0,0,0,156.06,135.56Z" transform="translate(0 -0.41)"/><path class="cls-2" d="M149.43,143.34c-.47.06,1.25-2.25.3-2.13-1.82-.27-3.71,0-5-.78-.93.16-.21-3.15-1.17-3-1.87-.21-7.71.75-5.38,2,3.58,1.7,6.07,2.31,9.12,3.71a58.74,58.74,0,0,1,8.46,1.85,4.11,4.11,0,0,1,1.44,1.63,24.24,24.24,0,0,0-1.36-2.92C155.18,142.15,151.57,144,149.43,143.34Z" transform="translate(0 -0.41)"/><path class="cls-2" d="M170.39,151.67c-.45-.22-1.42-.57-1.42-.57a2.9,2.9,0,0,0-.32-3,4.54,4.54,0,0,0-1-1c-.41-.27-.86-.51-1.3-.74l-.64,1.51c.75.68,1.47.33,1.42-.79a9.11,9.11,0,0,0,1.72,6.09C169.47,152.76,170.29,152.39,170.39,151.67Z" transform="translate(0 -0.41)"/><path class="cls-2" d="M169.54,154.16c-.25-.31-.5-.63-.72-.94l-.2.14.88.87Z" transform="translate(0 -0.41)"/><path class="cls-2" d="M145.81,131.17A136.41,136.41,0,0,1,134,123.39c-.61.29-1.17.7-1.37.15a3.54,3.54,0,0,0-.32-1.45l-1.55-1.23-.71-.2h0c-.49.06-.65.49-.69,1a5.82,5.82,0,0,1,0,1.25c0-.27,0-.78,0-1.25a3,3,0,0,0-.43-1.28,3.46,3.46,0,0,1-1.63-1,2.29,2.29,0,0,1,1.63,1c.38.12.76.21,1.14.3l.41,0-3.5-2.86a8,8,0,0,0-.92-.33c-1.12-.28-2.24-.59-2-2.13l-.6-.54c0,.1,0,.19,0,.3a1.53,1.53,0,0,1-.09-.4l-2.56-2.28a20,20,0,0,1-2.79,0s.15-1.08.22-1.61a2.72,2.72,0,0,1-1.87.43c0,1-.11,2.14,0,2.93-.22,1.62,3.08-1.35,2.24,1.39.84-2.74-2.46.23-2.24-1.39-.08-.79,0-1.88,0-2.93-1.19-.2-2-1.47-2.06-3.27,1.84-.14,2.06,1.51,2.06,3.27a2.72,2.72,0,0,0,1.87-.43c-.07.53-.22,1.61-.22,1.61a20,20,0,0,0,2.79,0c-1.65-1.5-3.36-3-5-4.55C105.09,97.6,94.44,89.26,84.17,78c-2.68-3.15-5.31-6.22-7.67-9.46q-1.77-2.43-3.45-4.87L71.4,61.2l-1.54-2.52a93.11,93.11,0,0,0-6.61-9.2c-2.29-2.9-4.72-5.61-6.91-8.54a60.66,60.66,0,0,1-6.1-9.2,49.45,49.45,0,0,1-2.37-5.21,37.16,37.16,0,0,1-1.66-5.85,18.18,18.18,0,0,0-2.1-4.84,52.59,52.59,0,0,0-3.32-5c-1.21-1.66-2.53-3.23-3.69-4.72L34,2.12C29.94.35,25.83,1.91,22.71,4a22.73,22.73,0,0,0-5.42,5.18c-3,4.9-2.79,7.39-1.73,10.09.27.68.58,1.37.91,2.11s.71,1.53,1.05,2.42a24,24,0,0,1,1.48,7C18.42,27,20.55,27,22.52,29.17a13.28,13.28,0,0,1,3.09,11.15,14.62,14.62,0,0,0,.88,9.21,23.28,23.28,0,0,0,5.16,7.15c2.16,2.15,4.51,4.22,6.74,6.35a29,29,0,0,1,5.74,7c1.46,2.66,4,4.56,6.26,7.27.62,1,1.25,2,1.92,2.89S53.68,82,54.4,82.91c1.43,1.75,2.93,3.42,4.47,5a125.92,125.92,0,0,0,10,8.9c7,5.55,14.42,10.77,21.65,17.06a19.82,19.82,0,0,0,6.59,3.26c2.34.7,4.69,1.19,6.82,1.88a14.16,14.16,0,0,1,3.57,3,25.07,25.07,0,0,0,3.08,3,26.6,26.6,0,0,0,10,4.19c-3.32-1.57-5.91-2.5-9.47-4.51-2.31-1.43,3.68-1.9,5.58-1.55,1-.08.13,3.23,1.13,3.15,1.37.92,3.37.71,5.3,1,1-.11-.7,2.23-.2,2.18,2.38.81,6-1.22,6.8.28.75,1,1.4,1.92,2,2.85a5,5,0,0,0,1.59,1.21l1.49.09A12.32,12.32,0,0,1,136,131.1c.45.47.86,1.49,1.31,2-.45-.47-.86-1.49-1.31-2a12.32,12.32,0,0,0-1.13,2.89c1.79.13,3.66.38,5.51.65s3.68.57,5.41.92l.1-.24a6.81,6.81,0,0,1-4.1-4.56c.41,1-.1,1.64-1,1.25,0-.55.07-1.1.11-1.64,1.89.26,3.82.45,4.13,3.09l1.45-.24c.26.63-.24,1.39-.55,2.1a10.74,10.74,0,0,0,1.09.42A14.5,14.5,0,0,0,145.81,131.17Z" transform="translate(0 -0.41)"/><path class="cls-2" d="M129,120.27a8.66,8.66,0,0,1,.91.33l-2.93-2.44C126.71,119.69,127.84,120,129,120.27Z" transform="translate(0 -0.41)"/></g><g class="cls-1"><path class="cls-2" d="M152.7,7.88,150.85,9a3.74,3.74,0,0,1,1.48.23C152.9,9.22,152.74,8.55,152.7,7.88Z" transform="translate(0 -0.41)"/><path class="cls-2" d="M149.12,10l-.33.19a3.57,3.57,0,0,0-.12.4A5.39,5.39,0,0,1,149.12,10Z" transform="translate(0 -0.41)"/><path class="cls-2" d="M146.47,12.76a3.63,3.63,0,0,0,1.5-1.2A2.34,2.34,0,0,0,146.47,12.76Z" transform="translate(0 -0.41)"/><path class="cls-2" d="M149.32,11.61c-.43-.21-.78-.52-.66-1v0c-.23.33-.45.66-.7,1A3,3,0,0,1,149.32,11.61Z" transform="translate(0 -0.41)"/><path class="cls-2" d="M149.32,11.61c.42.22.93.33,1.17.46A6.3,6.3,0,0,0,149.32,11.61Z" transform="translate(0 -0.41)"/><path class="cls-2" d="M154.39,20.49c-.12.48-1.71-1.93-1.94-1-1,1.67-1.43,3.57-2.75,4.52-.22,1-3-1-3.26,0-1,1.67-2.28,7.4-.27,5.73,3-2.62,4.57-4.77,7.15-7.22,1.68-2.6,3.15-5.31,5-7.84a5.71,5.71,0,0,1,2.11-1.11c-1.09.2-2.19.43-3.38.73C155.34,14.53,155.94,18.59,154.39,20.49Z" transform="translate(0 -0.41)"/><path class="cls-2" d="M166.81.41l-.39,1.43c-2.54-.79-3.56.85-4.55,2.51l1.44.75c.74-.7.39-1.43-.7-1.45a6.93,6.93,0,0,0,5.9-1.87C168,1.2,167.5.43,166.81.41Z" transform="translate(0 -0.41)"/><path class="cls-2" d="M169.34.94c-.27.29-.55.58-.83.84l.17.18.73-1Z" transform="translate(0 -0.41)"/><path class="cls-2" d="M141.52,19.51c-4,3-7.84,5.64-11.68,8.14,0,.66.24,1.33-.34,1.34a3.43,3.43,0,0,0-1.48-.18l-1.69,1.08q-.21.28-.42.6v0c-.1.48.25.77.69,1a5.64,5.64,0,0,1,1.19.42c-.25-.12-.76-.22-1.19-.42a2.93,2.93,0,0,0-1.35,0,3.51,3.51,0,0,1-1.45,1.24,2.3,2.3,0,0,1,1.45-1.24c.24-.32.45-.66.67-1l.1-.4-3.89,2.41a7.47,7.47,0,0,0-.62.77c-.64,1-1.28,1.94-2.67,1.25l-.7.42c.09,0,.18.06.28.11a2.54,2.54,0,0,1-.41,0l-3,1.81a21.13,21.13,0,0,1-.8,2.69l-1.5-.66a2.65,2.65,0,0,1-.13,1.93c1,.29,2.05.7,2.83.84,1.49.67-.41-3.34,2-1.75-2.39-1.59-.49,2.42-2,1.75-.78-.14-1.81-.55-2.83-.84-.55,1.06-2,1.54-3.73,1.14.36-1.84,2-1.65,3.73-1.14a2.65,2.65,0,0,0,.13-1.93l1.5.66a21.13,21.13,0,0,0,.8-2.69c-1.93,1.19-3.89,2.38-5.87,3.63C96.22,48.3,85.71,57.35,73,66.55c-7,4.93-13.85,9.48-20.88,13.85s-12.46,10-18,15.62-11.32,11.1-19.38,15.81a17.91,17.91,0,0,0-2.26,1.73,25.54,25.54,0,0,0-2.2,2.3,42.86,42.86,0,0,0-4.14,5.63c-.64,1-1.26,2-1.85,3s-1.11,2-1.63,3c-1,2-1.95,3.73-2.65,5.22,0,5,3.29,7.86,6.67,9.54a24.29,24.29,0,0,0,7.21,2.23c5.82.38,7.75-.85,9.72-2.81,1-1,1.85-2.19,3.21-3.39a19.46,19.46,0,0,1,5.7-3.51c-1.64.81-2.61.78-3.06.19s-.33-1.7.33-2.93a10.77,10.77,0,0,1,3.39-3.71,11.74,11.74,0,0,1,6-2A14.8,14.8,0,0,0,47.5,124a23.1,23.1,0,0,0,5.58-5.66c3.23-4.42,6.2-9.67,11-12.53,2.42-1.4,4.11-3.78,6.63-5.87C78.11,95.48,84,89.87,90,83.92s11.94-12.2,19.26-17.6c3.71-3.07,5.35-7.79,7.64-11.46,2-2.24,5.41-3.08,7.32-4.56a28,28,0,0,0,6.72-8c-2.47,2.55-4.05,4.7-6.87,7.44-2,1.74-.84-4,.06-5.73.2-1,3.06.87,3.26-.1,1.28-1,1.67-2.91,2.57-4.59.21-1,1.87,1.39,2,.92,1.5-1.94.74-6,2.43-6.26,1.18-.34,2.28-.6,3.35-.84a4.51,4.51,0,0,0,1.67-1l.61-1.34a12.32,12.32,0,0,1-2.27-2.11c.6-.24,1.69-.25,2.29-.49-.6.24-1.69.25-2.29.49A12.32,12.32,0,0,0,140,30.74a73.17,73.17,0,0,1,5.56-9.5l-.19-.18a6.9,6.9,0,0,1-5.81,2.05c1.09,0,1.47.71.75,1.44l-1.46-.71c.94-1.69,1.88-3.38,4.44-2.65l.35-1.44c.69,0,1.19.75,1.73,1.31a11.09,11.09,0,0,0,.81-.86A15.08,15.08,0,0,0,141.52,19.51Z" transform="translate(0 -0.41)"/><path class="cls-2" d="M125.15,31.44a9,9,0,0,1,.63-.75l-3.3,2C123.86,33.38,124.51,32.42,125.15,31.44Z" transform="translate(0 -0.41)"/></g></g></g></svg>