<?xml version="1.0" encoding="utf-8"?>
<!-- Generator: Adobe Illustrator 24.1.2, SVG Export Plug-In . SVG Version: 6.00 Build 0)  -->
<svg version="1.1" id="main" xmlns="http://www.w3.org/2000/svg" xmlns:xlink="http://www.w3.org/1999/xlink" x="0px" y="0px"
	 viewBox="0 0 862.5 836" style="enable-background:new 0 0 862.5 836;" xml:space="preserve">
<style type="text/css">
	.st0{fill:#CFCFCF;}
	.st1{opacity:0.85;}
	.st2{fill:#464646;}
	.st3{fill:#F9F9F9;}
	.st4{fill:#202020;}
	.st5{opacity:0.68;}
</style>
<g id="back_1_">
	<polygon class="st0" points="31.7,269.8 847,261.2 439.8,2 	"/>
	<g class="st1">
		<path class="st2" d="M51.2,255.9l4.1-2.9c-0.7,0.4-1.5,0.8-2.3,1.2C52.3,254.7,51.7,255.2,51.2,255.9z"/>
		<path class="st2" d="M59.2,250.4l0.7-0.5l0.6-0.5L59.2,250.4z"/>
		<path class="st2" d="M66.2,245.3c-1.3,0.8-2.5,1.7-3.7,2.5C63.9,247.1,65.1,246.2,66.2,245.3z"/>
		<path class="st2" d="M60.3,249c0.5-0.2,0.8-0.2,0.2,0.4l0,0l2.1-1.6C61.9,248.2,61.1,248.6,60.3,249z"/>
		<path class="st2" d="M60.3,249c-0.5,0.2-1.3,0.6-1.5,0.6C59.4,249.5,59.9,249.3,60.3,249z"/>
		<path class="st2" d="M60.3,245c0.7-0.6,1,0.3,2.4-0.9c3.2-2.5,6-4.8,9.2-7c1.4-1.1,4.3-1.7,5.7-2.8c0.8-0.6,1.9-1.4,3-2.2
			l-0.4,0.3c0.6-0.7,1.5-1.1,2.4-1.2c0.3-0.1,0.7-0.1,0.8-0.1l0.3-0.1c0.2,0,0.4-0.1,0.6-0.2c0.2-0.1,0.3-0.3,0.4-0.4l0.1-0.2
			L85,230l0.4-0.4c0.2-0.1,0.3-0.3,0.4-0.5c0-0.1-0.1-0.1-0.3,0.1l-0.5,0.3l-0.6,0.4l0,0c-0.3,0.2-0.6,0.4-1,0.4H83
			c-0.3,0-0.7,0.1-1,0.1c-1,0.2-1.8,0.7-2.5,1.4l0.6-0.5c-6,3.8-10.3,6.9-15.8,10.8c-5.4,4.1-10.5,8.3-16,12.6
			c-1.6,1.2-3.1,2.1-4.6,3.1l6.4-4C52.9,251.8,55.8,248.4,60.3,245z"/>
		<path class="st2" d="M20.4,276.6l2-1.7c3.6-1.6,6.9-4.1,10.1-6.7l-1.8,0.6c-1.9,1.4-2,1.8-0.1,0.7c-4.1,2.2-8.1,4.6-11.9,7.3
			C19.1,276.9,19.2,277.2,20.4,276.6z"/>
		<path class="st2" d="M16.5,278.4l2.2-1.5h-0.1l-2.2,1.6L16.5,278.4z"/>
		<path class="st2" d="M81.4,234.5l0.4-0.2l0,0c0.5-0.5,1.3-0.4,2.1-0.4c0.4,0,0.8,0,1.2-0.1c0.4-0.1,0.7-0.3,1-0.6
			c4.4-2.6,7.5-6.4,11.1-9.3l0.7-0.5l0.7-0.5l1.5-0.9l2.9-1.9l5.8-3.7c0.5-0.7,1.2-1.2,2-1.6c0.8-0.3,1.6-0.7,2.3-1.1l4-2.5l1.3-1
			l0,0c0.7-0.6,0.4-0.6-0.2-0.4s-1.1,0.4-1.6,0.6c0.3-0.1,1-0.4,1.6-0.6c0.8-0.3,1.5-0.7,2.3-1.1c1.2-0.8,2.4-1.6,3.7-2.4
			c-1.2,0.9-2.4,1.7-3.7,2.4l-2.2,1.5l-0.6,0.5l9.1-5.6l1.8-1.3c2.1-1.5,4.2-3,5.8-3.4l1.6-1l-0.4,0.1l0.6-0.3l6.9-4.2
			c1.4-1.1,2.8-2.2,4.3-3.3l1.8-0.6c0.7-0.8,1.5-1.4,2.3-2c-1.4,0.5-2.7,1-3.8,1.4c-1.8,0.6-2.9,3-5.2,3.3c2.3-0.4,3.4-2.8,5.2-3.3
			c1.1-0.5,2.4-0.9,3.8-1.4c2.3-1.6,4.8-3,7.4-4.1c-2.2,1.8-4.8,3.1-7.5,4.1c-0.8,0.6-1.6,1.2-2.3,2l-1.8,0.6
			c-1.5,1.1-2.9,2.2-4.3,3.3l13.8-8.3c30.1-18,57.7-34.8,88.7-53.8c16.8-10.3,33-20.2,48.8-30s30.6-19.3,45.3-29.4
			c3.7-2.5,7.4-5.1,11-7.7l2.7-1.9l0.7-0.5l0.6-0.4c0.4-0.2,0.9-0.5,1.3-0.8c1.8-1,3.7-2,5.7-2.9s4.1-1.9,6.3-3
			c1.1-0.5,2.1-1.1,3.3-1.8s2.1-1.3,3.1-2c1.9-1.3,3.9-2.6,5.8-3.8l5.8-3.7c12.1-7.7,33.6-23.4,44.8-31.6c14.1-12.2,3.9-9.9,3-9.6
			c-11.3,3.9-17.4,10.6-37.5,22.4c13.6-8.2-8.2,8.5-21.7,15.4c-2.5,1.2-4.9,2.6-7.4,4.1c-0.7,0.4-1.1,0.6-1.7,0.9l-1.9,0.9
			c-1.3,0.6-2.6,1.2-4,1.9c-3.1,1.4-6.2,2.9-9.1,4.6c-0.7,0.4-1.8,1.1-2.4,1.6l-2.1,1.5l-4.1,3c-11,8.1-22.6,16.4-33.9,23.3
			c-5.7,3.5-11.6,7.5-18.3,11.8c-35,21.8-66.8,43.2-103.9,65.7c-9.8,6-17.9,12.1-25.9,17.6c-5.9,3.9-12.6,7.5-17.5,10.5
			c-7.7,4.8-14.1,9.3-20.2,13.6c6.9-4.6,12-8.1,19.8-13.2c5.2-3.3-3,3.3-6.3,5.8c-1.4,1.1-4.3,1.7-5.7,2.8c-3.2,2-6,4.3-9.3,6.7
			c-1.4,1.1-1.7,0.2-2.4,0.8c-4.6,3.2-7.6,6.6-10.7,8.3l-6.6,3.8c-1.3,0.8-2.6,1.6-3.9,2.5c-0.9,0.7-1.7,1.4-2.5,2.2
			c0.6-0.2,1.2-0.3,1.8-0.1c-1.3,0.9-3,2.2-4.1,3.2c1.1-1,2.8-2.3,4.1-3.2c-0.6-0.2-1.2-0.1-1.8,0.1c-1.6,1.6-3,3.2-4.5,4.8
			c-0.8,0.8-1.5,1.6-2.3,2.3c-0.4,0.4-0.8,0.7-1.2,1.1l-0.6,0.5l-0.6,0.4c-0.2,0.1-0.4,0.4-0.7,0.5c-0.3,0.1-0.6,0.1-0.8,0.2
			c-1.1,0-2.1,0.3-2.9,1l0.2-0.2l-4.8,3.3h0.1c1.6-1.1,3.2-2.1,4.8-3l-0.2,0.1c0.8-0.6,1.7-0.8,2.7-0.7c0.3,0,0.7,0,1,0
			c0.4,0,0.6-0.3,0.9-0.4c1.1-0.5,2.1-1.1,3.1-1.8c-0.9,0.6-1.3,0.7-1.3,0.6c0.4-0.5,0.9-0.9,1.4-1.3c0.6-0.3,1.1-0.5,1.7-0.8
			c-1.4,1.4-2.9,2.7-4.6,3.8c-0.2,0.1-0.3,0.2-0.5,0.3c-0.2,0.1-0.3,0.2-0.5,0.2c-0.4,0.1-0.8,0.1-1.1,0.1c-0.8-0.2-1.6,0-2.3,0.4
			l0,0c-0.5,0.2-1,0.4-1.4,0.6l-2.1,1.7c-1.2,0.6-1.3,0.3-1.7,0.2l-2.2,1.4C75.9,237.2,81.4,234.5,81.4,234.5z"/>
		<path class="st2" d="M120.5,208.6l-1.8,1.3l7.6-4.7C124.7,205.6,122.6,207.1,120.5,208.6z"/>
	</g>
	<g class="st1">
		<path class="st2" d="M802.9,241.8l-4.2-2.3c0.7,0.4,1.4,0.9,2,1.5C801.4,241.4,802.1,241.7,802.9,241.8z"/>
		<path class="st2" d="M794.8,237.3l-0.8-0.4l-0.7-0.3L794.8,237.3z"/>
		<path class="st2" d="M787.3,233.5c1.2,0.8,2.4,1.4,3.7,2C790.1,234.9,788.8,234.3,787.3,233.5z"/>
		<path class="st2" d="M793.1,236.9c-0.4-0.4-0.5-0.6,0.3-0.3l0,0l-2.3-1.1C791.8,235.9,792.4,236.4,793.1,236.9z"/>
		<path class="st2" d="M793.1,236.9c0.4,0.4,0.8,0.7,1.2,1C793.9,237.6,793.5,237.2,793.1,236.9z"/>
		<path class="st2" d="M789.6,238.9c-0.8-0.3-0.2-1.1-1.8-1.7c-0.9-0.4-1.8-0.8-2.6-1.2l-2.4-1.2c-1.6-0.8-3.2-1.6-4.7-2.6
			c-1.5-0.7-3.3-3-4.8-3.7c-3.5-1.8-12.8-5.9-7.7-2.9c7.7,4.5,12.8,7.3,19.7,11.4c1.4,0.8,3,1.4,4.4,2.1l4.4,2
			c2.9,1.4,5.8,2.8,8.9,4.2c1.7,0.9,3.2,1.7,4.7,2.6l-6.2-3.8C798.6,242.1,794.4,241.2,789.6,238.9z"/>
		<path class="st2" d="M835,256.6l-2.5-0.4c-3.5-1.7-7.1-3.1-10.8-4.2c0.5,0.4,0.9,0.8,1.4,1.1c2.1,0.8,2.4,0.6,0.7-0.3
			c3.9,2.2,8,3.8,12.4,4.9C836,257.4,836.1,257.1,835,256.6z"/>
		<path class="st2" d="M838.7,258.3l-2.5-0.6c0,0,0,0.1,0.1,0.1L838.7,258.3L838.7,258.3z"/>
		<path class="st2" d="M771.7,225c-9.6-5.8-18.5-11.3-27.2-16.7c-0.8-0.2-1.5-0.5-2.2-1c-0.6-0.6-1.2-1.1-1.9-1.6l-3.8-2.4l-1.4-0.8
			l0,0c-0.8-0.4-0.6-0.1-0.3,0.3c0.4,0.4,0.8,0.7,1.1,1.1c-0.2-0.2-0.8-0.7-1.2-1.1c-0.6-0.5-1.3-1-1.9-1.5
			c-1.2-0.7-2.4-1.4-3.7-2.2c1.3,0.7,2.5,1.4,3.7,2.2l2.2,1.2l0.7,0.3l-8.7-5.4c-0.7-0.4-1.3-0.8-1.9-1c-2.2-1.2-4.3-2.4-5.4-3.5
			l-1.5-1l0.3,0.3c-0.2-0.2-0.4-0.3-0.5-0.4l-6.5-4.1c-1.5-0.7-3.1-1.4-4.7-2.2l-1.2-1.4c-0.9-0.3-1.9-0.6-2.7-1.1
			c1,1,2,1.9,2.9,2.7c1.2,1.3,3.8,1.2,5.1,3c-1.3-1.8-3.9-1.7-5.1-3c-0.9-0.8-1.8-1.7-2.9-2.7c-2.4-1.3-4.7-2.8-6.7-4.6
			c2.5,1.2,4.8,2.7,6.7,4.6c0.9,0.5,1.8,0.8,2.7,1.1l1.2,1.3c1.5,0.8,3.1,1.5,4.7,2.2l-13-8.2l-10.5-6.7l-10.3-6.7l-20.5-13.2
			c-13.7-8.8-27.6-17.6-42.2-27.2c-7.9-5.2-15.6-10.2-23.2-15.3l-11.3-7.5l-5.6-3.7l-5.5-3.8c-29-20.3-56.4-37.5-84.2-60.2
			c-10.7-8.6-31.7-23.2-42.5-30.9c-15.3-9.2-10.3-0.4-9.7,0.3c6.8,9.3,14.8,12.7,31.7,27.4c-11.6-9.8,10.4,4.7,20.7,14.9
			c14.8,15,40.9,29.4,61.7,44.3c5.2,3.8,11,7.3,17.4,11.6l6.1,4.2l6.1,4c4.1,2.7,8.2,5.3,12.3,7.9c8.2,5.2,16.3,10.3,24.6,15.4
			c16.5,10.2,33.2,20.4,50.8,31.6c4.7,2.9,9.2,5.5,13.5,7.9s8.5,4.7,12.7,6.9c5.9,3.4,11.8,7.6,16.6,10.5c7.4,4.5,14,8.1,20.3,11.5
			c-6.9-4-12-6.8-19.7-11.4c-5.1-3,4.2,1.1,7.7,2.9c1.5,0.7,3.3,3,4.8,3.7c3.1,1.9,6.2,3.3,9.7,5.1c1.5,0.7,0.9,1.4,1.7,1.8
			c4.7,2.6,8.9,3.7,11.7,5.7l6,4.1c1.2,0.8,2.4,1.6,3.7,2.4l2.6,1.3c-0.4-0.4-0.6-1-0.6-1.6c1.2,0.8,2.8,2,4,2.8
			c-1.2-0.8-2.8-2-4-2.8c0,0.6,0.2,1.1,0.6,1.6c6.3,3.2,13.5,7,20.2,10.6v-0.1c-3.9-2.2-7.6-4.7-11.1-7.4c1.6,1.2,1.3,1.3-0.7,0.2
			l-1.3-1.3c3.5,1.8,7,3.6,9.8,6.2l2.3,1c1,0.8,0.8,1,0.9,1.4l2.3,1.3C776.3,228.5,771.7,225,771.7,225z"/>
		<path class="st2" d="M732.9,201.3l1.8,1l-7.3-4.6C728.5,198.9,730.7,200.1,732.9,201.3z"/>
	</g>
</g>
<g id="page_1_">
	<rect x="42.2" y="62.3" class="st3" width="788.5" height="563.2"/>
	<g class="st1">
		<path class="st4" d="M832,392.2v-28.4c-0.1,4.8-0.2,9.5-0.3,14.3C831.6,384.4,831.8,387.6,832,392.2z"/>
		<path class="st4" d="M832.1,337.6v-5c0-1.6-0.1-3-0.1-4.3C832,331.4,832,334.5,832.1,337.6z"/>
		<path class="st4" d="M831.8,288.3c0,8.7,0,17.1,0,25.1C831.9,306.3,831.9,298,831.8,288.3z"/>
		<path class="st4" d="M831.6,327.6c0.1-3,0.3-4.5,0.4,0.5v0.2c0-4.9-0.1-9.8-0.1-14.9C831.8,318.7,831.7,323.5,831.6,327.6z"/>
		<path class="st4" d="M831.6,327.6c-0.1,2.9-0.3,7.6-0.3,9.2C831.4,334.1,831.5,331.1,831.6,327.6z"/>
		<path class="st4" d="M828.2,315.2c-0.1-5,0.9-3.8,0.6-13.7c-0.3-23.1-0.7-42.9-0.7-64.5c-0.2-9.8,0.8-25.4,0.6-35.2
			c-0.3-23.2-1.6-82.3-1.5-47.5c0.2,52.4,0.4,86.6,0.6,133.6c0.4,38.2,0.8,75,1.2,114.1c0,11,0,21.2-0.1,31.5
			c0.1-13.5,0.3-27.2,0.4-42.5C829.6,370.9,828.4,346.6,828.2,315.2z"/>
		<path class="st4" d="M831.4,601.1c-0.1-4.9-0.3-14.8-0.3-14.8c0.7-22,0.4-45.1,0.2-68.2c-0.2,3.4-0.3,6.8-0.5,10.2
			c0,13.2,0.3,14.8,0.5,3c-0.6,26.9-0.7,52.3-0.6,78.4C831,608.1,831.3,608.4,831.4,601.1z"/>
		<path class="st4" d="M830.8,625c0-5.1,0-10.2-0.1-15.3c0,0.2,0,0.4-0.1,0.6c0,5.1,0.1,10.3,0.1,15.3
			C830.8,625.4,830.8,625.2,830.8,625z"/>
		<path class="st4" d="M830.9,183.6V62L769.2,62c-4.3,0.2-7.3,0.4-13,0.3c-4.3-0.2-8.7-0.3-13.1-0.4h-24.3l-8.6,0.1H710
			c-4.6,0.1-3.2,0.3-0.4,0.4c3.2,0.1,6,0.2,8.5,0.4l-8.5-0.4c-3.8-0.1-8.1-0.2-13.1-0.3c-7.4,0.1-15.2,0.1-23.2,0
			c8.9-0.1,16.6-0.1,23.2,0l13.7-0.1l4-0.1l-55.5-0.1l-11.6,0.1c-13.4,0.1-26.7,0.3-35-0.2h-9.9l1.9,0.1l-3.7-0.1l-42-0.1L530.6,62
			l-9.4-0.5c-3.8,0.3-9.3,0.4-15.6,0.5c7.6,0.3,14.4,0.7,20.9,0.9c9.4,0.5,21-1.1,32.1,0c-11.1-1-22.7,0.6-32.1,0
			c-6.4-0.2-13.3-0.6-20.9-0.9c-13.3,0.2-30.4,0-44.2-0.5c17.1-0.4,31.6,0,44.2,0.5c6.4-0.1,11.8-0.3,15.6-0.5l9.4,0.5l27.8-0.6
			l-83.4-0.4l-215.6-0.5L40.2,60.2C40.1,96.8,40.1,136.5,40,177c-0.3,110.9-0.7,217.5-1.3,322c-0.1,21.4-0.2,42.7-0.3,63.8
			c-0.1,22.5-0.1,44.8-0.2,66.9l224.2,0.3c73.4,0.2,147.6,0.6,224.7,1.6c74.5,0.9,212.9,0.4,284.7,0.3c96.3-1.7,46.4-6.2,41.8-6.5
			c-59.2-3.8-105.5-1.6-226.1-3.9c82.1,1.3-60.6,2.5-138.1-0.2c-55.7-2-123.1-2.2-193.8-2l-107.5,0.4l-53.6,0.1H68.2H47.6V499.7
			c0.4-74.3,0.5-146.9,0.5-219.3c-0.1-70.3-0.2-140.4-0.3-211.8l110.4-0.2h120.1c59.8,0,112.3-1,162.6-1.5
			c36.8-0.2,76,0.3,105.9,0.3c47,0,87.5-0.4,126.2-0.8L549.8,67c-32.2,0.1,22.4-1.3,43.7-1.6c9.1-0.2,23.5,0.9,32.6,0.7
			c19.8,0,38.1-0.5,59.4-0.8c9.1-0.2,8.1,0.8,12.6,0.7c29-0.2,51.4-1.6,70-1.3l39.2,0.5l11.5,0.1h9.2v0.3l0.1,2.4l0.1,3.5
			c0,2.9,0.1,5.8,0.1,8.7c0.1-2.6,0.4-5.2,1-7.8c-0.1,8.3-0.2,20.1-0.3,28.4c0.1-8.3,0.2-20.1,0.3-28.4c-0.6,2.5-0.9,5.1-1,7.8
			c0.6,41.5,1.1,89.3,1.5,133.7l0.1-0.6c-0.1-26,0-51.3,0.6-78.3c-0.2,11.7-0.5,10.2-0.5-3.1c0.2-3.4,0.3-6.8,0.5-10.2
			c0.3,23.2,0.5,46.3-0.2,68.2c0,0,0.2,9.9,0.3,14.8c-0.1,7.3-0.4,7-0.7,8.5c0,5.1,0,10.2,0.1,15.3
			C830.3,217.7,830.9,183.6,830.9,183.6z"/>
		<path class="st4" d="M696,62l11.5-0.1L661,61.8C669.2,62.3,682.6,62.1,696,62z"/>
	</g>
</g>
<g id="front_1_">
	<polygon class="st0" points="31.7,808.5 31.7,287.6 430.3,561.8 862.5,255.5 862.5,830.3 31.7,836 	"/>
	<g class="st1">
		<path class="st2" d="M842,267.5l0.1,0.1c0-0.1,0-0.2,0-0.4C842,267.1,842,267.3,842,267.5z"/>
		<path class="st2" d="M842.2,267.6L842.2,267.6C842.2,267.6,842.2,267.6,842.2,267.6C842.2,267.6,842.2,267.6,842.2,267.6z"/>
		<path class="st2" d="M842.4,267.4C842.4,267.3,842.4,267.4,842.4,267.4C842.3,267.4,842.4,267.5,842.4,267.4z"/>
		<path class="st2" d="M842.3,267.1c0,0.1,0,0.3,0,0.4l0,0l0.1-0.1C842.3,267.3,842.3,267.2,842.3,267.1z"/>
		<path class="st2" d="M842.3,267.1v-0.3C842.3,266.9,842.3,267,842.3,267.1z"/>
		<path class="st2" d="M842.4,263.8v0.6c0-0.2,0.2-0.7,0.3-0.7c0-0.2,0.1,0.9,0.1,0.6s0.4-1.5,0.2-1.5s-0.4,0.4-0.6,0.6
			c-0.2,0.4-0.3,0.8-0.5,1.2c0,0-0.1,0-0.1-0.1c0,0.1,0.1,0.3,0.2,0.4S842.3,264,842.4,263.8z"/>
		<path class="st2" d="M841.2,266.9c0-0.1,0-0.2,0.1-0.3c0.1,0.7,0.2,0.4,0.3,0.2v-0.5c0,0.2,0,0.4,0,0.5c-0.1-0.6-0.2-0.7-0.3-0.6
			C841.2,266.4,841.2,266.7,841.2,266.9z"/>
		<path class="st2" d="M841.1,266.3L841.1,266.3l0.1-0.2L841.1,266.3L841.1,266.3z"/>
		<path class="st2" d="M842.9,266.5c0.3,0,0.5,0,0.8,0.1c0-0.2,0-0.4,0.1-0.3c0,0.1,0,0.2,0,0.3l0.1,0v-0.1l0,0c0-0.1,0-0.3,0-0.4
			v0.3c0-0.1,0.1-0.1,0.1,0s-0.1,0.1-0.1,0l-0.1,0.1v0.1l0.2,0.1c0,0,0,0,0.1-0.1c0.1-0.1,0.1-0.3,0.2,0.2l0,0l0,0l0.2,0.1
			c0-0.2,0.1-0.4,0.1-0.5v0.5c0-0.2,0-0.3,0.1-0.5c0-0.3,0-0.5-0.1-0.8c0-0.5-0.1,1-0.2,0c0,0.9,0.1-0.5,0.2,0c0,0.3,0,0.5,0.1,0.8
			c0.1-0.2,0.1,0,0.2,0.5s-0.2,0-0.2-0.5c0,0.2-0.1,0.3-0.1,0.5v-0.5c0,0.2-0.1,0.4-0.1,0.5l0.4,0.3c0.8,0.6,1.6,0.5,2.4,1
			c0.5,0.3,0.9,0.8,1.3,1.3c0.8,1.1,1.7-0.1,2.5,2.3c0.3,0.9,1,0.4,1.3,0.3c0.3-2,0.5-4,0.3-5.9c-0.2-3.5-0.4-1.6-0.9-3.6
			c0.3,1.2-0.3,2.3-0.6-0.2c-0.4-3.7-1.2-0.8-1.8-1.7c-0.2-0.2-0.3-0.1-0.5-0.2c-0.9-1.3-1.9,0.3-2.9,0c-0.3,0-0.5,0.9-0.8,1.4
			c-0.2,0.2-0.3-0.3-0.5-0.3s-0.4,0.3-0.6,0.8c0.2-0.2,0.4-0.4,0.6-0.6c0.2,0-0.1,1.2-0.2,1.5s-0.1-0.9-0.1-0.6
			c-0.1,0-0.2,0.4-0.3,0.7s0-0.8,0-0.6s-0.3,1.4-0.3,1.2c0-0.2-0.1-0.3-0.2-0.4c0-0.1-0.1-0.1-0.1-0.1s0,0.2-0.1,0.2v1
			c0-0.1-0.1-0.2-0.1-0.3c0-0.1,0.1,0.3,0.1,0.3v-1c-0.2,0.5-0.4,1-0.6,1.5v0.1c0.1-0.1,0.2,0,0.3,0.6c0-0.2,0-0.4,0-0.5v0.5
			c-0.1,0.3-0.2,0.5-0.3-0.2l-0.1,0.3c0-0.2,0-0.5,0-0.7l-0.1,0.1C842.7,265.8,842.8,266.2,842.9,266.5z"/>
		<path class="st2" d="M844,266.6C844,266.6,844,266.6,844,266.6l0.2,0.2C844.1,266.3,844.1,266.4,844,266.6z"/>
	</g>
	<g class="st1">
		<path class="st2" d="M850.3,265.1L850,265c0.1,0.1,0.1,0.2,0.2,0.4C850.2,265.5,850.2,265.3,850.3,265.1z"/>
		<path class="st2" d="M849.6,265L849.6,265L849.6,265L849.6,265z"/>
		<path class="st2" d="M849.1,265.2c0.1,0.1,0.2,0.1,0.3,0C849.3,265.1,849.2,265.1,849.1,265.2z"/>
		<path class="st2" d="M849.5,265.4c0-0.1,0-0.3,0-0.4l0,0l-0.2,0.1C849.4,265.2,849.5,265.3,849.5,265.4z"/>
		<path class="st2" d="M849.5,265.4l0.1,0.4C849.6,265.7,849.6,265.5,849.5,265.4z"/>
		<path class="st2" d="M849.3,268.8c-0.1,0.1,0-0.9-0.2-0.6s-0.5,0.7-0.8,0.7c-0.1,0.2-0.3-0.9-0.4-0.6c-0.3,0.3-1,1.5-0.6,1.5
			c0.5-0.1,1.1-0.3,1.6-0.5c0.5-0.4,0.9-0.8,1.3-1.2c0.1,0,0.3,0,0.4,0.1c-0.2-0.2-0.3-0.3-0.5-0.5S849.7,268.6,849.3,268.8z"/>
		<path class="st2" d="M852.7,265.7l-0.2,0.3c-0.2-0.7-0.5-0.4-0.8-0.2l0.1,0.5c0.2,0,0.2-0.3,0-0.5c0.3,0.6,0.6,0.7,0.9,0.6
			C852.8,266.2,852.7,265.9,852.7,265.7z"/>
		<path class="st2" d="M852.9,266.3l-0.2,0.1v0.1L852.9,266.3L852.9,266.3z"/>
		<path class="st2" d="M847.8,266c-0.7,0-1.4,0-2.2-0.2c-0.1,0.2-0.1,0.4-0.2,0.3c0-0.1-0.1-0.2-0.2-0.4l-0.3-0.1l-0.1,0.1l0,0
			c0,0.1,0,0.3,0,0.4c0,0.1,0.1,0.2,0.1,0.4l-0.1-0.4c0-0.1-0.1-0.2-0.2-0.3c-0.1,0.1-0.2,0.1-0.3,0c0.1-0.1,0.2-0.1,0.3,0l0.2-0.1
			v-0.1l-0.7-0.2c-0.1,0-0.1,0-0.2,0.1c-0.2,0.1-0.3,0.2-0.4-0.2h-0.1l0,0l-0.5-0.1c-0.1,0.2-0.2,0.4-0.4,0.5l-0.1-0.5
			c0,0.2-0.1,0.3-0.2,0.5c0.1,0.3,0.2,0.6,0.3,0.8c0.1,0.5,0.3-1,0.4,0c-0.1-0.9-0.3,0.5-0.4,0c-0.1-0.2-0.2-0.5-0.3-0.8
			c-0.2,0.2-0.4,0-0.5-0.5c0.2-0.4,0.4,0,0.5,0.5c0.1-0.1,0.2-0.3,0.2-0.5l0.1,0.5c0.1-0.2,0.3-0.3,0.4-0.5l-1-0.3
			c-2.3-0.7-4.4-0.6-6.7-1.1c-1.3-0.3-2.5-0.8-3.7-1.4c-2.4-1.2-4.6,0-7-2.5c-0.9-0.9-2.6-0.5-3.5-0.4c-1.3,1.5-0.8,5.7-0.7,5.9
			c0.6,3.5,1.3,1.6,2.7,3.7c-1-1.2,0.8-2.2,1.7,0.2c1.3,3.7,3.4,0.8,5.1,1.8c0.4,0.3,0.9,0.1,1.4,0.2c2.7,1.3,5.2-0.2,8,0.2
			c0.8,0,1.4-0.9,2.1-1.3c0.5-0.1,1,0.3,1.3,0.3c0.6,0,1.2-0.3,1.6-0.7c-0.5,0.2-1,0.4-1.6,0.5c-0.4,0,0.3-1.2,0.6-1.5
			c0.1-0.2,0.3,0.9,0.4,0.6c0.3,0,0.5-0.4,0.8-0.7s0.1,0.8,0.2,0.6c0.4-0.2,0.7-1.4,0.9-1.2s0.3,0.3,0.5,0.5
			c0.1,0.1,0.2,0.1,0.3,0.1l0.2-0.2c0-0.3-0.1-0.7-0.1-1c0.1,0.1,0.2,0.3,0.3,0.3c-0.1-0.1-0.2-0.3-0.3-0.3c0,0.3,0,0.7,0.1,1
			c0.5-0.5,1-1,1.6-1.4v-0.1c-0.3,0.1-0.6,0-0.9-0.6c0.1,0.2,0.1,0.5,0,0.5l-0.1-0.5c0.3-0.3,0.5-0.5,0.8,0.2l0.2-0.3
			c0.1,0.2,0.1,0.5,0.1,0.7c0.1,0,0.1,0,0.2-0.1C848.2,266.7,848.1,266.4,847.8,266z"/>
		<path class="st2" d="M844.8,265.9l0.1-0.1l-0.6-0.1C844.4,266.2,844.6,266,844.8,265.9z"/>
	</g>
	<g class="st1">
		<path class="st4" d="M14.3,293.6v5.9c0.1-1,0.2-2,0.3-3C14.7,295.5,14.6,294.5,14.3,293.6z"/>
		<path class="st4" d="M14.2,304.9v1.1l0.1,0.9L14.2,304.9z"/>
		<path class="st4" d="M14.5,315.2c0-1.8,0-3.6-0.1-5.2C14.4,311.7,14.4,313.5,14.5,315.2z"/>
		<path class="st4" d="M14.7,307c-0.1,0.6-0.3,1-0.4-0.1l0,0c0.1,1,0.1,2,0.1,3.1C14.5,308.9,14.6,307.9,14.7,307z"/>
		<path class="st4" d="M14.7,307c0.1-0.6,0.3-1.6,0.4-1.9C14.9,305.7,14.8,306.3,14.7,307z"/>
		<path class="st4" d="M18.1,309.6c0.1,1-0.9,0.8-0.6,2.9c0.3,4.8,0.7,8.9,0.8,13.4c0.2,2-0.8,5.3-0.6,7.3c0.3,4.8,1.7,17.1,1.6,9.9
			c-0.3-10.9-0.5-18-0.8-27.8c-0.4-8-0.9-15.6-1.3-23.8c0-2.3,0-4.4,0.1-6.6c-0.1,2.8-0.3,5.7-0.4,8.9C16.6,298,17.8,303,18.1,309.6
			z"/>
		<path class="st4" d="M42.7,269.3l-1.9,0.1l-1.2,0.1c-4.8-0.8-9.8-0.1-14.2,2c0.7-0.1,1.5-0.2,2.2-0.3c0.7-0.2,1.5-0.4,2.1-0.8
			c0-0.1-0.1-0.1-0.4-0.1c-0.5,0-0.9,0.1-1.3,0.2c5.4-0.7,10.9-0.8,16.4-0.4C44.2,269.8,44.3,269.5,42.7,269.3z"/>
		<path class="st4" d="M47.7,270.3c-1.1-0.1-2.1-0.2-3.2-0.3l0.1,0.1c1.1,0,2.1,0.1,3.2,0.2L47.7,270.3z"/>
		<path class="st4" d="M15.5,337c0.1,13.7,0.2,26.6,0.2,39.1c0.3,1,0.4,1.9,0.3,2.9c-0.1,1-0.3,2-0.3,3v5.5l0.1,1.9v0.1
			c0.1,1,0.3,0.7,0.4,0.1s0.2-1.4,0.3-1.9c-0.1,0.4-0.2,1.3-0.3,1.9c-0.1,0.9-0.2,1.8-0.2,3c0.1,1.7,0.1,3.4,0.1,5.2
			c-0.1-1.7-0.2-3.5-0.1-5.2l-0.2-3.1l-0.1-0.9v12.5c0,1,0.1,1.9,0.1,2.6c0.2,3,0.3,6-0.1,7.9v2.2l0.1-0.4l-0.1,0.9v9.5
			c0.2,2,0.5,4.1,0.6,6.3l-0.4,2.1c0.3,1.2,0.5,2.3,0.5,3.5c0.3-1.7,0.6-3.3,0.8-4.7c0.5-2.1-1-4.7-0.1-7.3
			c-0.9,2.5,0.6,5.1,0.1,7.3c-0.2,1.5-0.5,3-0.8,4.7c0.2,3.3,0.1,6.7-0.3,10c-0.3-3.3-0.2-6.7,0.3-10c0-1.2-0.2-2.4-0.5-3.5l0.5-2.1
			c-0.2-2.1-0.4-4.2-0.6-6.3v18.8c-0.1,41.1,0.5,79.1,0.2,121.7c-0.2,23.1-0.6,45.3-1.3,67.1c-0.2,5.4-0.3,10.8-0.4,16.1
			c-0.1,5.3-0.2,10.6-0.4,15.8l-0.1,7.8c-0.1,2.6-0.2,5.2-0.3,7.8c-0.2,5.2-0.3,10.4-0.4,15.7c-0.5,20.9-0.7,41.8-1.9,63.7
			c-0.8,16.9-0.2,48.1-0.3,64.2c1.3,21.7,5.6,10.5,5.8,9.5c3.7-13.3,1.9-23.8,3.9-51.1c-1.1,18.6-2.3-13.7,0-31.2
			c1.8-12.7,1.9-28,2-44.1c0-8,0-16.3,0.1-24.4c0.1-4.1,0.2-8.2,0.3-12.2s0.2-8,0.3-12c0.4-7.8,0.3-16.2,0.4-25.5
			c0.8-24.3,0.7-47.7,0.4-71.4s-0.8-47.7-1-73.2c-0.1-13.5-1.2-25.4-1.8-36.7c-0.3-8.3,0.1-17.2,0-23.9c-0.1-10.6-0.6-19.8-1.1-28.5
			c0.3,9.8,0.6,16.9,0.9,27.8c0.1,7.3-1.3-5-1.6-9.9c-0.2-2,0.8-5.3,0.5-7.4c-0.1-4.5-0.5-8.6-0.9-13.4c-0.2-2.1,0.7-1.8,0.6-2.9
			c-0.3-6.6-1.6-11.6-1.4-15.8c0.1-3.2,0.2-6,0.4-8.9c0-1.8,0.1-3.5,0-5.4c-0.1-1.2-0.2-2.4-0.3-3.6c-0.1,0.6-0.5,1.2-1,1.6
			c0-1.7,0.2-4.2,0.3-5.9c0,1.7-0.2,4.2-0.3,5.9c0.5-0.4,0.9-1,1-1.6c-0.6-8.5-1.2-18.5-1.7-27.8l-0.1,0.1c0.2,5.4,0,10.9-0.5,16.3
			c0.2-2.4,0.5-2.1,0.5,0.6c-0.1,0.7-0.3,1.4-0.5,2.1c-0.5-4.7-0.5-9.5,0-14.2l-0.4-3.1c0.1-1.5,0.4-1.5,0.7-1.8l-0.1-3.2
			C16,329.9,15.5,337,15.5,337z"/>
		<path class="st4" d="M16,392.7l-0.1-2.6v10.5C16.3,398.8,16.2,395.8,16,392.7z"/>
	</g>
	<g class="st1">
		<path class="st2" d="M830.7,268v-0.1c-0.1,0-0.2,0-0.3,0C830.3,267.9,830.5,268,830.7,268z"/>
		<path class="st2" d="M830.8,267.7"/>
		<path class="st2" d="M830.6,267.5c0,0,0,0.1,0,0.1S830.7,267.5,830.6,267.5z"/>
		<path class="st2" d="M830.4,267.7c0.1,0,0.3,0,0.4,0l0,0l-0.1-0.1C830.5,267.6,830.5,267.7,830.4,267.7z"/>
		<path class="st2" d="M830.4,267.7L830.4,267.7z"/>
		<path class="st2" d="M827,267.4h0.6c-0.2,0-0.7-0.3-0.7-0.4c-0.2-0.1,0.9-0.1,0.7-0.1s-1.5-0.5-1.5-0.3c0.2,0.2,0.3,0.5,0.5,0.7
			c0.4,0.2,0.8,0.4,1.2,0.6c0,0.1,0,0.1-0.1,0.1l0.4-0.2C828.4,267.8,827.2,267.6,827,267.4z"/>
		<path class="st2" d="M830.1,269l-0.3-0.1c0.7-0.1,0.4-0.2,0.2-0.3h-0.5c0,0.1,0.3,0.1,0.5,0c-0.6,0.1-0.7,0.2-0.6,0.4
			C829.6,269,829.9,269,830.1,269z"/>
		<path class="st2" d="M829.5,269L829.5,269l-0.2-0.1L829.5,269L829.5,269z"/>
		<path class="st2" d="M829.8,267c0-0.3,0-0.6,0.2-0.9c-0.2,0-0.4-0.1-0.3-0.1h0.4l0.1-0.1l-0.1,0l0,0c-0.1,0-0.3,0-0.4,0l0,0h0.3
			c-0.1,0-0.1-0.1,0-0.1s0.1,0.1,0,0.1l0.1,0.1l0,0c0-0.1,0.1-0.2,0.2-0.3l-0.1-0.1c-0.1-0.1-0.3-0.2,0.2-0.2l0,0l0.1-0.2
			c-0.2-0.1-0.4-0.1-0.5-0.2h0.5c-0.2,0-0.3-0.1-0.5-0.1l-0.8,0.1c-0.5,0,1,0.2,0,0.2c0.9,0-0.5-0.1,0-0.2l0.8-0.1
			c-0.2-0.1,0-0.1,0.5-0.2c0.4,0.1,0,0.2-0.5,0.2c0.2,0.1,0.3,0.1,0.5,0.1H830c0.1,0.1,0.4,0.1,0.5,0.2l0.3-0.4
			c0.7-0.9,0.6-1.8,1.2-2.7c0.4-0.5,0.8-1,1.4-1.4c1.2-0.9,0-1.9,2.5-2.6c0.9-0.3,0.5-1,0.5-1.4c-1.5-0.7-5.7-0.9-5.9-0.9
			c-3.5-0.1-1.6,0.4-3.7,0.8c1.2-0.3,2.2,0.6-0.2,0.7c-3.7,0.2-0.9,1.4-1.9,2c-0.3,0.2-0.1,0.4-0.2,0.6c-1.3,1,0.1,2.2-0.3,3.4
			c0,0.3,0.8,0.7,1.3,1c0.2,0.2-0.3,0.4-0.3,0.5s0.3,0.5,0.7,0.7c-0.2-0.2-0.4-0.4-0.5-0.7c0-0.2,1.2,0.2,1.5,0.3s-0.9,0.1-0.7,0.1
			c0,0.1,0.4,0.2,0.7,0.4s-0.7,0-0.6,0s1.4,0.4,1.2,0.4c-0.1,0.1-0.3,0.1-0.5,0.2c0,0-0.1,0.1-0.1,0.1l0.2,0.1h1
			c-0.1,0-0.2,0.1-0.3,0.1c0,0,0.3-0.1,0.3-0.1h-1c0.5,0.2,1,0.5,1.4,0.7h0.1c-0.1-0.1,0-0.3,0.6-0.4c-0.2,0-0.4,0-0.5,0h0.5
			c0.3,0.1,0.5,0.3-0.2,0.3l0.3,0.1c-0.2,0-0.5,0-0.7,0l0.1,0.1C829,267.3,829.4,267.1,829.8,267z"/>
		<path class="st2" d="M829.8,265.7L829.8,265.7l0.2-0.2C829.6,265.5,829.7,265.6,829.8,265.7z"/>
	</g>
	<g class="st1">
		<path class="st2" d="M741.6,823.5l-8.1-0.1c1.4,0.1,2.7,0.2,4.1,0.4C738.9,823.8,740.3,823.7,741.6,823.5z"/>
		<path class="st2" d="M726,823.2h-1.4l-1.2,0.1L726,823.2z"/>
		<path class="st2" d="M712,823.4c2.5,0.1,4.9,0,7.2,0C717.1,823.3,714.7,823.3,712,823.4z"/>
		<path class="st2" d="M723.2,823.7c-0.9-0.2-1.3-0.3,0.1-0.4h0.1l-4.2,0.1C720.6,823.4,722,823.5,723.2,823.7z"/>
		<path class="st2" d="M723.2,823.7c0.8,0.2,2.2,0.3,2.6,0.4C725,823.9,724.1,823.8,723.2,823.7z"/>
		<path class="st2" d="M719.6,827c-1.4,0.1-1.1-0.9-3.9-0.7c-6.6,0.2-12.2,0.6-18.4,0.6c-2.8,0.2-7.2-0.9-10-0.7
			c-6.6,0.3-23.4,1.5-13.5,1.5l38-0.4c10.9-0.3,21.3-0.7,32.5-0.9c3.1,0,6,0.1,9,0.2l-12.2-0.6C735.5,825.7,728.5,826.9,719.6,827z"
			/>
		<path class="st2" d="M801.1,824.9l-4.2,0.3c-6.3-0.8-12.8-0.6-19.4-0.5l2.9,0.5c3.8,0,4.2-0.3,0.9-0.5c7.7,0.7,14.9,0.9,22.3,0.9
			C803,825.3,803.2,825,801.1,824.9z"/>
		<path class="st2" d="M807.9,825.6h-4.4c0,0,0.1,0.1,0.2,0.1l4.3-0.1L807.9,825.6z"/>
		<path class="st2" d="M682.1,824.1l-53.5-0.1c-1.3,0.3-2.7,0.4-4,0.3c-1.3-0.2-2.7-0.3-4-0.3h-7.5l-2.7,0.1h-0.1
			c-1.4,0.1-1,0.3-0.1,0.4s1.9,0.2,2.6,0.3c-0.5-0.1-1.8-0.2-2.6-0.3c-1.2-0.1-2.5-0.2-4-0.3c-2.3,0.1-4.7,0.1-7.2,0.1
			c2.8-0.1,5.1-0.1,7.2-0.1l4.2-0.2l1.2-0.1h-17.1L591,824c-4.1,0.2-8.3,0.3-10.8-0.1H577l0.6,0.1l-1.2-0.1h-13
			c-2.8,0.2-5.7,0.5-8.6,0.6L552,824c-1.6,0.3-3.2,0.5-4.8,0.5c2.3,0.3,4.5,0.6,6.5,0.7c2.9,0.5,6.5-1,9.9-0.2
			c-3.4-0.9-7,0.6-9.9,0.2c-2-0.2-4.1-0.5-6.5-0.7c-4.6,0.2-9.1,0.1-13.7-0.3c4.6-0.4,9.1-0.2,13.7,0.3c1.6-0.1,3.2-0.2,4.8-0.5
			l2.9,0.5c2.9-0.2,5.8-0.4,8.6-0.6h-25.8l-166.4-1.2l-91.8-0.8c-29.7-0.3-58.1,0.4-86.6,0.8s-57,0.7-87,0
			c-23-0.4-65.7,0.8-87.9,1.4c-29.7,2.2-14.2,6-12.8,6.2c18.3,3.2,32.6,1,69.9,2.3c-25.4-0.7,18.7-2.6,42.7-0.7
			c34.7,3,84.2-0.9,126.9-0.7c10.7,0.1,22-0.3,34.8-0.3c66.2,0.5,127.8-0.8,197.4-0.3c18.5,0,34.7-0.8,50.3-1.3
			c11.4-0.2,23.5,0.1,32.8,0c14.5-0.1,27-0.5,39-1l-38,0.8c-9.9,0.2,6.9-1.3,13.5-1.6c2.8-0.2,7.3,0.8,10.1,0.6
			c6.1,0,11.8-0.5,18.3-0.8c2.8-0.2,2.5,0.7,3.9,0.6c9-0.3,15.9-1.5,21.6-1.3l12.1,0.4c2.4,0,4.8,0.1,7.4,0l4.9-0.2
			c-0.8-0.1-1.6-0.5-2.2-1c2.4,0,5.7,0.3,8.1,0.3c-2.4-0.1-5.7-0.3-8.1-0.3c0.6,0.5,1.4,0.9,2.2,1c11.8-0.6,25.4-1,38.1-1.4
			l-0.2-0.1c-7.4,0.1-14.6,0-22.3-0.6c3.3,0.2,2.9,0.5-0.9,0.5l-2.9-0.5c6.5-0.4,13-0.4,19.4,0.2l4.2-0.3c2.1,0.1,2,0.4,2.4,0.7h4.4
			C691.8,824.7,682.1,824.1,682.1,824.1z"/>
		<path class="st2" d="M606,824.1l3.6-0.1h-14.4C597.7,824.4,601.8,824.3,606,824.1z"/>
	</g>
	<g class="st1">
		<path class="st2" d="M769,305.9l-8.2,5.6c1.4-0.9,2.8-1.7,4.3-2.6C766.5,308.1,767.8,307.1,769,305.9z"/>
		<path class="st2" d="M753.1,316.7l-1.5,1l-1.2,0.9L753.1,316.7z"/>
		<path class="st2" d="M739,326.8c2.5-1.7,5-3.4,7.3-5C744.1,323.1,741.7,324.7,739,326.8z"/>
		<path class="st2" d="M750.5,319.1c-1,0.5-1.5,0.7-0.1-0.4l0.1,0l-4.2,3.1C747.8,320.7,749.2,319.8,750.5,319.1z"/>
		<path class="st2" d="M750.5,319.1c0.9-0.5,2.3-1.3,2.9-1.5C752.5,318,751.5,318.5,750.5,319.1z"/>
		<path class="st2" d="M748.8,324.4c-1.4,1.1-1.6,0.1-4.3,2.2c-6.5,4.8-12,9.1-18.3,13.4c-2.7,2.1-7.8,4.4-10.5,6.5
			c-6.6,4.9-22.9,17.7-12.9,10.7c15.1-10.6,24.8-17.6,38.3-27.1l32.3-23.7c3.1-2.2,6.1-4.2,9.2-6.2l-12.5,8.1
			C764.1,312.1,757.8,317.9,748.8,324.4z"/>
		<path class="st2" d="M829.7,264.7l-4.1,3.2c-6.8,3.8-13.3,8.6-19.8,13.5l3.2-1.7c3.8-2.7,4.1-3.2,0.6-1c8.1-4.9,15.5-9.9,23-15.2
			C832,263.7,831.9,263.4,829.7,264.7z"/>
		<path class="st2" d="M837,260.5l-4.4,3.1h0.2l4.3-3.2L837,260.5z"/>
		<path class="st2" d="M709.1,348.4c-19,13.1-36.9,25.4-54.4,37.4c-1.2,1.1-2.5,2.2-3.9,3c-1.5,0.8-2.9,1.7-4.3,2.5l-7.7,5.2
			l-2.7,1.9l-0.1,0c-1.4,1.1-0.9,0.9,0.1,0.4s2-1.1,2.9-1.5c-0.5,0.3-1.9,1.1-2.9,1.5c-1.3,0.7-2.7,1.6-4.3,2.6
			c-2.3,1.6-4.7,3.4-7.3,5c2.7-2,5.2-3.7,7.3-5l4.2-3.1l1.2-0.9l-17.5,11.9l-3.6,2.6c-4.1,3-8.2,6-11.1,7.4l-3.1,2.1l0.6-0.3
			l-1.2,0.7l-13.2,9c-2.7,2.1-5.5,4.3-8.4,6.5l-3.2,1.7c-1.5,1.4-3,2.6-4.6,3.8c2.5-1.4,4.8-2.7,7-3.9c3.2-1.7,6-5.4,10-7
			c-4,1.7-6.8,5.4-10,7c-2.1,1.3-4.5,2.5-7,3.9c-4.5,3.4-9.2,6.5-14,9.4c4.4-3.5,9.1-6.6,14-9.4c1.6-1.2,3.1-2.4,4.6-3.8l3.2-1.7
			c2.8-2.2,5.7-4.4,8.4-6.5c-8.6,5.9-17.3,11.9-26.2,18.1c-28.5,19.8-55.4,39.7-81.4,61.1c-13,10.7-25.8,21.9-38.4,33.7
			c-3.2,2.9-6.1,6.1-9.6,7.3c-0.8,0.3-1.7,0.4-2.6,0.5c-0.9,0-1.8-0.1-2.7-0.3c-1.9-0.5-3.8-1.3-5.5-2.3c-1.8-1-3.6-2.3-5.4-3.5
			l-5.5-3.8l-11-7.6c-32.1-22.1-62.8-43.6-92.7-64.9c-59.7-42.5-115.2-79.7-174.1-124.5c-22.7-17.1-65.8-47.4-88.1-63.3
			c-30.7-20.2-17.7-5.7-16.4-4.5c16.2,16,31.7,24.8,67.9,53.2c-24.8-19.2,20.1,11.6,42.8,30.6c32.8,27.8,84.4,60.4,127.3,91.2
			c10.7,7.7,22.3,15.6,35.3,24.6c33.3,23.7,66,45.9,99.1,68.2l12.5,8.4c2.3,1.6,4.8,3,7.4,4.3c3.2,1.5,6.7,2.2,10.2,2
			c1.9-0.1,3.8-0.6,5.5-1.4c1.5-0.7,3-1.6,4.3-2.6c1.2-0.9,2.3-1.8,3.3-2.9l2.8-2.7l5.5-5.2l2.8-2.6l2.8-2.6
			c15-13.7,30.9-27.1,47.8-40.2c17.8-14,33.4-26.5,48.6-38.1c11.3-8.3,23.8-16.5,33.1-23c14.7-10.2,27.2-19.2,39.1-28l-38.3,27.2
			c-10,7,6.3-5.9,12.8-10.7c2.7-2.1,7.8-4.4,10.6-6.5c6.2-4.3,11.7-8.6,18.2-13.4c2.8-2.1,3-1.1,4.3-2.2c9-6.5,15.3-12.3,21.3-16.1
			l12.6-8.2c2.5-1.6,5-3.3,7.5-5.1l4.8-3.6c-0.9,0.5-1.8,0.7-2.8,0.7l8.4-5.4l-8.4,5.4c1,0,2-0.3,2.8-0.7
			c11.7-8.7,25.2-18.7,37.9-27.9h-0.2c-7.5,5.3-14.9,10.3-23,15.1c3.5-2.1,3.2-1.6-0.6,1.1l-3.2,1.6c6.6-4.9,13.1-9.7,19.8-13.5
			l4.1-3.2c2.2-1.4,2.3-1,2.9-1.1l4.4-3.1C719.4,342.1,709.1,348.4,709.1,348.4z"/>
		<path class="st2" d="M631.8,401.7c1-0.7,2.3-1.6,3.6-2.6l-14.7,10C624.5,406.9,628.2,404.4,631.8,401.7z"/>
	</g>
	<g class="st1">
		<path class="st2" d="M846.2,772c0-1.8,0-3.7,0.1-5.5c-0.1,0.9-0.2,1.8-0.3,2.8C845.8,770.2,845.9,771.1,846.2,772z"/>
		<path class="st2" d="M846.3,761.4v-1c0-0.3,0-0.6-0.1-0.8C846.3,760.2,846.3,760.8,846.3,761.4z"/>
		<path class="st2" d="M846.1,751.8c-0.1,1.7,0,3.3,0,4.9C846.2,755.1,846.2,753.4,846.1,751.8z"/>
		<path class="st2" d="M845.8,759.4c0.1-0.6,0.3-0.9,0.4,0.1l0,0c0-1-0.1-1.9-0.1-2.9C846,757.7,845.9,758.6,845.8,759.4z"/>
		<path class="st2" d="M845.8,759.4c-0.1,0.6-0.3,1.5-0.4,1.8C845.6,760.7,845.7,760.1,845.8,759.4z"/>
		<path class="st2" d="M842.4,757c-0.1-1,0.8-0.7,0.6-2.7c-0.3-4.5-0.7-8.3-0.7-12.5c-0.2-1.9,0.9-4.9,0.7-6.8
			c-0.3-4.5-1.5-16-1.5-9.2c0.1,10.2,0.3,16.8,0.5,25.9c0.4,7.4,0.8,14.5,1.1,22.1c0,2.1,0,4.1-0.1,6.1c0.2-2.6,0.3-5.3,0.5-8.2
			C843.8,767.8,842.6,763.1,842.4,757z"/>
		<path class="st2" d="M845.4,812.4c-0.1-1-0.3-2.9-0.3-2.9c0.7-4.3,0.5-8.7,0.2-13.2c-0.2,0.7-0.3,1.3-0.5,2c0,2.6,0.3,2.9,0.5,0.6
			c-0.5,5-0.8,10.1-0.6,15.2C845,813.8,845.3,813.8,845.4,812.4z"/>
		<path class="st2" d="M844.8,817c0-1,0-2-0.1-3c0,0-0.1,0.1-0.1,0.1C844.6,815.1,844.7,816.1,844.8,817L844.8,817z"/>
		<path class="st2" d="M845.3,731.5c0-12.7,0.1-24.7,0.3-36.4c-0.3-0.9-0.3-1.8-0.3-2.7c0.2-0.9,0.3-1.8,0.3-2.7
			c0-1.7,0-3.4,0.1-5.1c0-0.6,0-1.2-0.1-1.8l0,0c-0.1-1-0.3-0.7-0.4-0.1s-0.2,1.3-0.3,1.8c0.1-0.3,0.2-1.2,0.3-1.8
			c0.1-0.9,0.2-1.8,0.3-2.8c0-1.5-0.1-3.2,0-4.9c0.1,1.6,0.1,3.2,0,4.9c0,1,0.1,1.9,0.1,2.9l0.1,0.8c0-3.9,0.1-7.8,0.2-11.7
			c0-0.9,0-1.7-0.1-2.4c-0.1-2.8-0.2-5.6,0.2-7.3v-2.1l-0.1,0.4c0-0.3,0-0.5,0.1-0.8c0-2.9,0.1-5.9,0.2-8.8
			c-0.2-1.9-0.4-3.9-0.5-5.8c0,0,0.3-1.3,0.5-2c-0.3-1.1-0.4-2.2-0.5-3.3c-0.3,1.6-0.6,3-0.8,4.4c-0.5,2,1,4.4,0,6.8
			c0.9-2.3-0.5-4.8,0-6.8c0.2-1.3,0.5-2.8,0.8-4.4c-0.1-3.1,0-6.2,0.5-9.3c0.3,3.1,0.1,6.2-0.5,9.3c0,1.1,0.2,2.2,0.5,3.3
			c-0.2,0.7-0.5,2-0.5,2c0.1,2,0.3,3.9,0.5,5.8c0.1-5.8,0.2-11.6,0.3-17.5c0.8-38.2,0.8-73.5,1.4-113.2c0.4-21.5,0.8-42.1,1.5-62.4
			c1.3-40.4,0.1-77.2,2.7-118c0.9-15.6,0.6-44.7,0.5-59.8c-1.5-20.2-5.7-9.8-5.9-8.8c-3.6,12.4-1.7,22.1-3.8,47.5
			c1.2-17.3,2.2,12.7-0.3,29c-3.8,23.6-1,57.2-2,86.3c-0.3,7.3-0.1,15-0.2,23.7c-1.4,45.1,0,86.9-0.5,134.3
			c0,12.6,0.8,23.6,1.3,34.2c0.1,7.7-0.4,16-0.4,22.3c0,9.9,0.3,18.4,0.7,26.5c-0.1-9.1-0.4-15.7-0.5-25.9c0-6.8,1.2,4.7,1.5,9.2
			c0.2,1.9-0.9,4.9-0.7,6.8c0,4.2,0.4,8,0.7,12.5c0.2,1.9-0.8,1.7-0.7,2.7c0.2,6.1,1.4,10.8,1.1,14.7c-0.2,3-0.3,5.6-0.5,8.2
			c-0.1,1.7-0.1,3.3-0.1,5c0.1,1.1,0.2,2.2,0.2,3.3c0.2-0.6,0.5-1.1,1-1.5c0,1.6-0.3,3.9-0.3,5.5c0-1.6,0.3-3.9,0.3-5.5
			c-0.5,0.4-0.8,0.9-1,1.5c0.5,8,1,17.3,1.4,25.9l0.1-0.1c-0.1-5.1,0.1-10.1,0.6-15.2c-0.2,2.3-0.5,2-0.5-0.6c0.2-0.7,0.3-1.3,0.5-2
			c0.3,4.5,0.5,9-0.2,13.2c0,0,0.2,1.9,0.3,2.9c-0.1,1.4-0.4,1.4-0.7,1.7c0,1,0,2,0.1,3C844.6,738.1,845.3,731.5,845.3,731.5z"/>
		<path class="st2" d="M845.5,679.8c0,0.7,0,1.5,0.1,2.4c0-3.2,0.1-6.5,0.2-9.8C845.3,674.1,845.4,676.9,845.5,679.8z"/>
	</g>
	<g class="st5">
		<path d="M166.8,515.3c-20.2-1.2-39.9,2-59.6,5.1c2,14.4,4,28.2,5.9,42c-3.7,1-4.6-1-5.1-3c-0.9-4.3-1.7-8.6-2.3-13
			c-1.1-7.3-2-14.5-2.9-21.5c-2.9-3-6.1-2.9-9.4-2.1c-5.1,1.2-10.3,2-15.3,3.5c-2,0.6-5.9-0.7-5.3,3.8c-4.5,0.7-9,1.7-13.5,2
			c-1.8,0.1-2.4-2.6-0.8-3.8c1.8-1.4,3.8-2.5,6-3.2c11.9-3.2,23.8-7,36-9.1c16.5-2.9,33.3-4.5,49.9-6.4c4.2-0.3,8.4-0.2,12.6,0.4
			C165.4,510.2,167.9,511.2,166.8,515.3z"/>
		<path d="M131.9,614.1l-11.3,2.2c1.5,2.2,2.5,3.5,3.2,4.9c1,2,2.4,4.1,2.7,6.3c0.2,1.8-0.9,3.8-1.5,5.7c-1.9-0.6-4.1-0.7-5.6-1.8
			c-1.9-1.5-3.1-3.8-4.9-6.1c-0.5,1.1-0.8,1.8-1.1,2.5c-1.5,4.4-3.6,5.9-8.3,5.7c-4.3-0.2-6.8-2-7.7-6.1c-0.4-2.5-0.7-5-0.8-7.5
			c-0.2-2.3-1.5-2.6-3.6-2.2c-1.6,5,3.5,9.4,1,15c-4.5-4.5-3.5-10.6-6.5-15.4h-8.5c-2.7,5.4-0.2,12.4-5.4,18.5c-0.6-2.5-1.2-3.8-1-5
			c0.8-7.3,1.7-14.5,2.8-21.8c0.9-6.3,2-12.7,3.1-19.2c3.9,0.4,5.2,2.8,6.1,4.9c2.2,5,4.1,10.1,5.7,15.3c0.8,2.7,1.7,4.2,5,3.5
			c1.7-7.7-3.1-15.1-1.9-24.2c4.2,4.2,3.3,8.7,4.4,12.3s1.3,7.8,2,12.1c5.8-1.6,10.4-0.4,14,6.5c0.5-6.5,4.9-6.7,8.3-8
			C125.1,611.3,128.2,611.4,131.9,614.1z M102.1,630.3c2.8-0.7,5.7-0.5,7.1-1.9c2.3-2.2,1.3-5.4,0.1-8.2c-1-2.3-2.6-3.9-5.3-3.3
			s-3.4,2.9-3.2,5.3C101,624.5,101.5,626.7,102.1,630.3L102.1,630.3z M82.1,595.9l-1.7,0.2c-1,5.7-2.3,11.3-1.1,17.6l8.5-0.5
			L82.1,595.9z M118,620.2c0.2,3.8,1,7.4,5.4,9.7C123.9,625,121.2,622.5,118,620.2L118,620.2z"/>
		<path d="M135,558.4c-1.3-0.5-2.8-0.6-3.3-1.4c-0.9-1.4-1.3-3-1.3-4.7c0.6-6.5,4.6-10.6,10.1-13.4s10.9-3.1,16.1,0.5
			c5,3.6,6.6,10.3,3.9,15.8c-2.6,5.5-9,8.8-14.6,7.4s-8.1-5.4-7.2-12.2c1.7,1.6,3,3.2,4.6,4.4c3.1,2.6,6.2,2.7,9.2,0.4
			c2.5-1.7,3.6-4.8,2.8-7.8c-1-3.2-4-5-8-4.7C139.6,543.1,133.9,550.1,135,558.4z"/>
		<path d="M380.7,597c4.1,4.2,6.4,9.9,6.5,15.7c0.1,5.1-0.7,10.2-0.6,15.3c3.3-4.9,0.6-10.4,1.4-15.5s-1.8-10.1,0-15h1.3
			c0.6,5.9,1.1,11.9,1.7,18.3c1.1-0.8,2.2-1.6,3.4-2.3c2.4-1.2,4.4-0.3,4.8,2.2c0.9,5.1,1.3,10.2,2.1,16.4c-4.1-2.5-2.9-5.6-3.5-8
			s-0.9-5.2-2.5-8.2c-0.9,1.7-2.4,3.3-2.7,5.1c-0.9,4.9-3.4,9.3-7.1,12.5c-1.9-0.4-3.3-2.2-6-1.3c-3,1-6.5-4.2-6.3-8.5
			c0.3-4.7,2.2-7,7.5-8.8C381.6,609.6,377.8,604.2,380.7,597z M378.7,630.5c4.3-3.5,4.6-5.9,1.9-12.7
			C374.7,619.5,373.9,624,378.7,630.5L378.7,630.5z"/>
		<path d="M247.6,624.5c-1.1,1.6-2.4,4.9-3.3,4.8c-4.2-0.4-8.1,1.2-12.1,1c-0.8,0-1.8-1.1-2.4-1.9c-3-4.1-1.5-11.8,2.8-14.6
			c0.6-0.3,1.5-0.2,3.9-0.3c-4.1,3.2-5.8,6.3-5.3,10c0.2,1.5,1.2,2.8,2,4.5c6.6-3.5,2.6-10.2,6-14.5c3.4,1,2,3.7,2,6
			s0.2,4.7,0.5,8.4c4.6-5.3,3.4-10.6,4.5-15.3l9.6,1.2l8.8-2.4c0.5,2.3,1.5,4.7,1.5,7c0.1,3.9-0.3,7.8-1.3,11.7
			c-3.9-4.4-0.4-9.8-2.4-14.8c-3.4,1-2.7,4.1-3.2,6.5s0.5,5-1.6,7.3c-4.4-2.8-0.2-8-4-10.9c-1.6,1.2-1.1,3.3-1,5.2
			c0,2,0.2,4.1,0.3,6.3C248.2,630,250,625.7,247.6,624.5z"/>
		<path d="M144.5,612.2c1.9,4.4-1.4,9.7,3.4,13.3c3.5-4.1,1.2-8.5,1.1-12.4c3-1.5,5.9-3,8.7-4.3c1.1-0.5,2.3-0.9,3.6-1.2
			c2.5-0.5,5.2-0.7,6.9,1.6c1.9,2.5,2.2,5.3-0.3,8.9c-0.9-2.6-1.5-4.6-2.2-6.6c-2.9-1.5-5.4-0.3-7.7,1.2c-3.6,2.4-4,4.8-1.3,8.3
			c1.5,2,3.3,3.9,4.3,6.1c0.6,1.2,0.6,3.7-0.2,4.4c-1,0.8-3.3,0.7-4.6,0.1c-1.6-0.7-2.8-2.4-4.5-4c-3.5,2.3-6.6,1.4-9-2.7
			c-0.8,1-1.7,1.9-2.6,2.7c-1.3,0.8-3.3,2.3-4.1,1.9c-1.6-0.8-3.6-2.8-3.7-4.4c-0.1-2.9,0.4-5.8,1.6-8.5c1.2-3,3.7-4.3,7.2-3.4
			C142,613.5,143.2,612.6,144.5,612.2z M140.9,614.8c-5.5,3.4-6.3,5.4-4.3,11.2C139.4,622.9,141.4,619.8,140.9,614.8z"/>
		<path d="M438.2,631.8c0.1-1,0.3-2.7,0.6-4.8c-6.7-1.3-8.7-5.8-7.4-12.3c1.5,2.9,3.1,5.8,4.6,8.8c5.7-2.1,4.6-8.3,8.6-11.8
			c0.5,1.5,1.3,2.6,1.1,3.4c-3.4,14.7-6.9,29.3-10.4,43.9c-0.1,0.6-0.2,1.3-0.4,1.8c-1.5,4.8-4.9,5.6-8.4,1.9
			c-7.1-7.5-7.2-15.6,0.3-22.7C429.9,637.2,433.8,635,438.2,631.8z M437.6,636.9l-1.3-0.8c-2.5,2.1-5,4.3-7.6,6.3
			c-6.8,5.3-5.2,15.5,2.5,19.7C433.5,653.5,435.5,645.2,437.6,636.9L437.6,636.9z"/>
		<path d="M201.5,600.8c-3.2-5.8-5.9-7.4-9.9-6.5s-8.7,6.3-9.1,10.3c-0.4,3.7,1.5,7.2,6,8.6s9.4,1.8,14.2,2.6
			c5.5,0.9,8.6,4.2,8.9,9.7c0.1,2.1-0.4,3.8-2.4,4.6c-6.8,2.8-17.4,3.2-23.6-3c-2.9-2.9-2.8-4.5,1.4-7.8c-0.9,5.2,2.1,7.3,6,8.5
			c5.2,1.7,10.8,1.4,15.8-0.7c-1-6.8-1.9-7.7-7.5-8.5c-3.1-0.4-6.4-0.5-9.3-1.4c-3-0.8-5.8-2.2-8.4-4c-3.5-2.7-4.4-6.6-3-10.8
			c1.5-4.5,4.8-8.1,9.1-9.9C195.2,589.8,200.3,592.9,201.5,600.8z"/>
		<path d="M322.6,620.5c0.7,4.3-2.4,6.2-4.9,8.2c-3.6,3-7.6,5.6-12.6,3.8s-6.9-6.3-7.3-11c-0.7-8.8,0.5-17.3,7.8-23.5
			c4.5-3.8,10-2.4,12.4,2.9c0.9,2,0.9,2-1.2,5.7c0-1.2-0.2-2.5-0.5-3.7c-1.8-4.5-5.8-5.3-9.5-2.1c-6,5.1-7.8,19.5-4.9,24.7
			c2.5,4.6,5.8,6.2,10.3,3.5C315.9,626.7,319,623.5,322.6,620.5z"/>
		<path d="M216.4,630.2c-3.3-0.5-2.7-3.3-3.1-5.3c-1.5-8.7-2.8-17.4-4.1-26.1c-0.3-1.7-0.3-3.4,0.1-5c4.6,7.2,3.8,15.8,6.3,23.5
			c0.5-0.1,1-0.1,1.2-0.4c1.6-1.5,2.7-4.3,5.5-3.5c3,0.8,3.1,3.7,3.3,6.2c0.5,4,0.6,8.1,0.4,12.1c-4.7-3.8-1.8-9.9-4.4-14.3
			C218.3,620.6,218.3,620.6,216.4,630.2z"/>
		<path d="M404.7,617.2l2.2,11.6c4.9-3.9,5.1-5.5,3.1-16.2c3.5-0.5,2.9,2.9,4.2,4.4c2-0.9,3.9-2.2,6-2.7c2-0.4,4,0,5.7,1.2l-5.8,1.9
			c1.5,2.3,2.9,4.7,4.1,7.2c0.5,1.1,0.2,3.2-0.6,3.8c-1.2,0.7-2.7,0.7-4,0.1c-2.1-1.3-4.1-2.8-5.9-4.5c-0.6,1.7-1.4,3.3-2.3,4.9
			c-1.9,2.9-4.9,2.8-6.5-0.2C402.9,625.2,402.8,620.8,404.7,617.2z M420.3,626.1l1.3-0.8c-0.9-1.4-1.8-2.9-2.7-4.3l-1.4,0.9
			L420.3,626.1z"/>
		<path d="M327,617.1c7.6-3.8,9.9-2.4,10.8,6c0.5,4.2,0.3,5.2-1.5,9c-1.8-2.3-0.8-4.9-1.3-7.2s-1-4.7-1.6-7.5
			c-6.1,2.9-4,9.3-7.8,14.1c-1.2-12.4-2.3-23.4-3.4-34.4l1.3-0.2C326,603.3,325.9,610.3,327,617.1z"/>
		<path d="M365.2,613c7.2,4.8,8.5,13.1,3.5,18.8l-4.9-2.8c-0.8,0.8-1.7,1.5-2.6,2.1c-2.6,1.5-4.2,0.9-5.4-1.9c-1.4-4.2-1.4-8.8,0-13
			c0.9,4.2,1.8,8.4,2.6,12.6c6.5-1.1,1.6-8.3,6.5-10.5c0.8,3.5,1.4,6.5,2.4,10.9c3-3.9,1.6-6.5,0.6-9
			C366.9,617.8,366.1,615.4,365.2,613z"/>
		<path d="M280,616.7c-4.8-3.6-5.7-3.4-9.2,2c2,0.4,3.7,0.8,5.4,1.2c2.1,0.3,4.1,0.7,6.2,1.2c2.9,1,3.6,3.9,1.9,6
			c-2.5,3-10.5,4.3-13.4,1.9c-0.9-0.7-1.1-2.3-1.3-4c4.3,2.7,8.2,2.9,12.7-0.5c-3.1-2-6.3-1.6-9.1-2.2c-2.3-0.5-4.6-0.9-4.9-3.9
			c-0.3-2.8,2.3-5.8,5.6-6.7c3.1-0.8,5.5,0.1,6.8,2.7C280.8,614.8,280.3,615.5,280,616.7z"/>
		<path d="M339.3,622.4c-0.1-4.6,1.9-6.6,6.3-6.6c4.9,0,7.4,2.7,7.4,8c0,5-2.5,8.2-6.4,8.4C342,632.4,339.3,628.7,339.3,622.4z
			 M342.8,621.7c-0.1,4.8,1.5,7.4,3.8,7.2c2.6-0.3,3.2-2.3,3.4-4.4c0.3-3.2-1.8-6-4.3-5.4C344.3,619.3,343.3,621.1,342.8,621.7z"/>
		<path d="M190.3,555.8c-0.7,7.5-4,14-8.3,20.1C183.4,568.8,186.2,561.9,190.3,555.8z"/>
	</g>
</g>
</svg>
