<svg xmlns="http://www.w3.org/2000/svg" viewBox="0 0 184.43 36.22"><g id="Layer_2" data-name="Layer 2"><g id="Layer_1-2" data-name="Layer 1"><path d="M69,15.68c2.75,4.51,7.24,7.58,7.61,13.19-4.17,1.94-5.48-2.54-8.93-3.22-2.71,2.78-5.94,1.52-9-.49-6.49,4-7.48,4-13.66-.88A19.59,19.59,0,0,1,28,27.9c-2.81-.69-5.24-2.95-8.15-4.67-3.13,4.31-8.38,5.86-14.58,5.34C3.38,25.32-.23,7.46,0,1.75c9.06-2.36,16.68,3.19,21.52,16,1.83-1.33,3.52-2.71,5.35-3.86,4.2-2.64,9.71-2.66,13.08-.16,2.83,2.09,3,5-.22,6.43s-7,2.19-10.58,3.23c-.18-.52-.37-1-.55-1.55l10.68-4.05c-2.2-3.67-5.36-3.6-7.9-2.59s-4.77,3.14-6.73,5.17c-.38.39.86,3.52,1.78,3.77a28.63,28.63,0,0,0,9.2,1c2.64-.18,5.21-1.41,7-1.95,1.9-3.39,3.15-6.23,5-8.63.83-1.09,2.8-1.3,4.84-.94a35.43,35.43,0,0,0-3.69,3.2c-1.73,2-2.17,4.37-.12,6.17a6.42,6.42,0,0,0,4.87,1.5c1.06-.24,2-2.43,2.36-3.91.3-1.1-.39-2.44-.53-3.69-.2-1.9.53-3.18,2.84-3.74,2.55,3.28-.77,9.87,6.57,11.08-.24-2-.33-3.54-.63-5S63.36,16.4,63,15.06C75.55,8,75.55,8,80.53,12,76.12,11.9,72.14,11.87,69,15.68ZM2.29,3.93C3.75,10.69,4.9,16.82,6.5,22.83c.29,1.1,2.4,2.43,3.68,2.44,5,0,8.35-4.6,7.22-9.55C16.12,10.09,9.73,4.74,2.29,3.93Z"/><path d="M98.56,0c2.76,6.35,5.5,12.71,8.34,19,.1.23,1.16,0,2.63,0-.44-5.26-.86-10.34-1.29-15.43l1.12-.24c1,3.91,1.91,7.81,2.88,11.8,5.06,1.08,11.13-2.09,15.61,4.92.26-2.3.37-3.17.42-3.62l12.15-2.33.39,1.12-6.69,3.62c1.43,2.23,2.9,4.17,4,6.31,1.57,3.12.57,4.7-3,5-3.31.32-6.26-.41-8.71-3.76-5.74,5.77-12.76,4-20,3.71-1-2.53-2-5.23-3.18-8.51l-7-1.12-2.7,7.69C92.61,18.38,96.93,9.59,98.56,0ZM110.9,27.12c4.61,1.46,8.61.95,12.19-1.78,2.21-1.68,2.65-4.87.52-5.82a19.79,19.79,0,0,0-8.38-1.19c-2.29.09-2.51,2.33-2.76,4.31A23.38,23.38,0,0,1,110.9,27.12Zm-8.75-8.7c-.55-3.72-.84-7-3.65-9.92-.6,2.36-1.17,4.14-1.49,6C96.34,18.23,96.48,18.31,102.15,18.42Zm29.3,2.26-2,.78c.29,1.62.07,3.64,1,4.76,1.28,1.59,3.37,2,5.72.08Z"/><path d="M150.74,15l3.56-1.29c3.49,3.42-2.21,8.69,2.45,12.06,3.91-3.37,2.38-8,3.61-12.36,5.36,1.49,11.21-3.59,17.11,1.7-4.33.79-8.57-1.05-12.17,2.36,2.25,2.9,4.5,5.6,6.47,8.49.6.87.4,2.28.57,3.45-1.31,0-2.94.53-3.88-.06-2.09-1.28-3.83-3.12-6.06-5-2.26,3.13-4.61,6.65-9.38,3.25-.68-.49-2.53.69-3.85,1.05-3.1.86-5.29-.69-7-3-1.88-2.48-1.5-6.37.92-9.29,1.74-2.09,3.6-4.37,6.84-2.6.46.25.69,1,1,1.45-4.32.91-6.89,2.85-6.69,5.86.1,1.5,1.69,2.9,2.61,4.35,1.25-.84,3.35-1.48,3.59-2.54C151,20.38,150.7,17.66,150.74,15Z"/><path d="M182.11,25.89c3.21,4.6,3.12,5.7-.46,10.33C181.8,32.84,181.93,29.89,182.11,25.89Z"/></g></g></svg>