<svg xmlns="http://www.w3.org/2000/svg" viewBox="0 0 91.13 26.74"><g id="Layer_2" data-name="Layer 2"><g id="Layer_1-2" data-name="Layer 1"><path d="M57.58,23.59c-1.35-3.78-2.71-7.57-4.37-12.2,3.75,0,7.14.15,10.51-.1,1-.08,2-1.23,3-2a4.39,4.39,0,0,1,5.77-.18c4.58,3.16,5.9,11.35,2.61,17-3.15-4.4,1-11.45-5.58-14.58-4.27,3.26.25,8.43-2.75,12.58-.85-1-1.83-1.75-2.11-2.68-.48-1.58-.1-3.54-.88-4.87-.7-1.17-2.49-1.69-3.8-2.5-.5,1.23-1.38,2.46-1.39,3.7a25.59,25.59,0,0,0,1,5.26Z"/><path d="M3.73,4.09l2,8.29L16,13.07c-2.92,3.13-6.53.75-9.44,2.64.35,2.76.72,5.74,1.09,8.71l-1.12.35a18,18,0,0,1-1.62-3.41C3.7,16.26,2.69,11.12,1.56,6,1.12,4.06.52,2.15,0,.23,5.92-.53,16.7.66,19.6,2.72,14.53,4.79,9.47,2.78,3.73,4.09Z"/><path d="M43.2,9.56c5.89.21,9.67,3.84,9.64,9.27,0,4.65-4,8-9.34,7.91-5.08-.12-9-3.95-8.73-8.66C35,12.17,37.81,9.38,43.2,9.56Zm-.47,2.95c-3.09,0-4.62,1.56-4.57,4.6.06,4.12,2.4,6.88,5.79,6.79s6-2.35,6-5.17C49.88,15,46.92,12.47,42.73,12.51Z"/><path d="M33.52,14.72c-4.63-3.14-7.68-2.79-10.54.36,1.23,3.63,6.25,4.75,5.88,9.14-5.76,2-6.6,1.14-9.76-9.5C25.27,8.46,30,7.93,33.52,14.72Z"/><path d="M91.13,10.06c-.6,3.49-2.46,4.37-4.62,4-1.05-.18-2.59-1.58-2.66-2.52-.16-2.2,1.62-3.33,3.65-3.11C88.83,8.56,90.06,9.55,91.13,10.06Z"/><path d="M90.92,19.34c.4,3.38-1.15,5.14-4.22,5.6a2.51,2.51,0,0,1-2-1,2.35,2.35,0,0,1,0-2.19C86.17,19.75,87.86,18,90.92,19.34Z"/></g></g></svg>