<svg xmlns="http://www.w3.org/2000/svg" viewBox="0 0 69.32 61.29"><g id="Layer_2" data-name="Layer 2"><g id="Layer_1-2" data-name="Layer 1"><path d="M5.65,61.29C10.16,48.38,18.84,40.12,25.86,30,13,23.51,8.38,10.86,0,0,2.26.17,3.6,0,4.66.4,23.18,8.25,41.71,16.06,60.1,24.19c3.14,1.39,5.65,4.22,9.22,7-2.43,1.55-4.22,2.85-6.14,3.9C53.61,40.3,43.88,45.23,34.46,50.7,25.81,55.73,16.23,57.68,5.65,61.29ZM54.6,32l-.47-1.84c-7.22.82-14.45,1.56-21.65,2.5a5.7,5.7,0,0,0-3.12,1.84c-3.34,3.69-6.65,7.43-9.73,11.34-1.56,2-3.61,3.82-4.2,7.29ZM11.36,10.58A67.58,67.58,0,0,0,29.44,27.09a7.18,7.18,0,0,0,4,1.46c5.12-.46,10.21-1.29,15.31-2A152.81,152.81,0,0,0,11.36,10.58Z"/></g></g></svg>