<svg xmlns="http://www.w3.org/2000/svg" viewBox="0 0 571.93 793.9"><defs><style>.cls-1{fill:#f9f9f9;}.cls-2{opacity:0.85;}.cls-3{fill:#202020;}</style></defs><g id="Layer_2" data-name="Layer 2"><g id="main"><g id="page"><rect class="cls-1" x="2.1" y="1.4" width="563.2" height="788.5"/><g class="cls-2"><path class="cls-3" d="M332,.1H303.6l14.3.3C324.2.5,327.4.3,332,.1Z"/><path class="cls-3" d="M277.4,0h-5c-1.6,0-3,.1-4.3.1C271.2.1,274.3.1,277.4,0Z"/><path class="cls-3" d="M228.1.3h25.1C246.1.2,237.8.2,228.1.3Z"/><path class="cls-3" d="M267.4.5c-3-.1-4.5-.3.5-.4h.2c-4.9,0-9.8.1-14.9.1C258.5.3,263.3.4,267.4.5Z"/><path class="cls-3" d="M267.4.5c2.9.1,7.6.3,9.2.3C273.9.7,270.9.6,267.4.5Z"/><path class="cls-3" d="M255,3.9c-5,.1-3.8-.9-13.7-.6-23.1.3-42.9.7-64.5.7-9.8.2-25.4-.8-35.2-.6C118.4,3.7,59.3,5,94.1,4.9c52.4-.2,86.6-.4,133.6-.6,38.2-.4,75-.8,114.1-1.2,11,0,21.2,0,31.5.1-13.5-.1-27.2-.3-42.5-.4C310.7,2.5,286.4,3.7,255,3.9Z"/><path class="cls-3" d="M540.9.7,526.1,1C504.1.3,481,.6,457.9.8c3.4.2,6.8.3,10.2.5,13.2,0,14.8-.3,3-.5,26.9.6,52.3.7,78.4.6C547.9,1.1,548.2.8,540.9.7Z"/><path class="cls-3" d="M564.8,1.3c-5.1,0-10.2,0-15.3.1a1.27,1.27,0,0,1,.6.1c5.1,0,10.3-.1,15.3-.1A1.27,1.27,0,0,0,564.8,1.3Z"/><path class="cls-3" d="M123.4,1.2H1.8V62.9c.2,4.3.4,7.3.3,13-.2,4.3-.3,8.7-.4,13.1v24.3l.1,8.6v.2c.1,4.6.3,3.2.4.4.1-3.2.2-6,.4-8.5l-.4,8.5c-.1,3.8-.2,8.1-.3,13.1.1,7.4.1,15.2,0,23.2-.1-8.9-.1-16.6,0-23.2l-.1-13.7-.1-4-.1,55.5L1.7,185c.1,13.4.3,26.7-.2,35v9.9l.1-1.9-.1,3.7-.1,42,.4,27.8-.5,9.4c.3,3.8.4,9.3.5,15.6.3-7.6.7-14.4.9-20.9.5-9.4-1.1-21,0-32.1-1,11.1.6,22.7,0,32.1-.2,6.4-.6,13.3-.9,20.9.2,13.3,0,30.4-.5,44.2-.4-17.1,0-31.6.5-44.2-.1-6.4-.3-11.8-.5-15.6l.5-9.4-.6-27.8L.8,357.1.3,572.7,0,791.9c36.6.1,76.3.1,116.8.2,110.9.3,217.5.7,322,1.3l63.8.3c22.5.1,44.8.1,66.9.2l.3-224.2c.2-73.4.6-147.6,1.6-224.7.9-74.5.4-212.9.3-284.7-1.7-96.3-6.2-46.4-6.5-41.8-3.8,59.2-1.6,105.5-3.9,226.1,1.3-82.1,2.5,60.6-.2,138.1-2,55.7-2.2,123.1-2,193.8l.4,107.5.1,53.6v46.9H439.5c-74.3-.4-146.9-.5-219.3-.5l-211.8.3L8.2,673.9V553.8c0-59.8-1-112.3-1.5-162.6-.2-36.8.3-76,.3-105.9,0-47-.4-87.5-.8-126.2l.6,123.2c.1,32.2-1.3-22.4-1.6-43.7-.2-9.1.9-23.5.7-32.6,0-19.8-.5-38.1-.8-59.4-.2-9.1.8-8.1.7-12.6-.2-29-1.6-51.4-1.3-70L5,24.8l.1-11.5V4.1h.3L7.8,4l3.5-.1c2.9,0,5.8-.1,8.7-.1a41.66,41.66,0,0,1-7.8-1c8.3.1,20.1.2,28.4.3-8.3-.1-20.1-.2-28.4-.3a39.63,39.63,0,0,0,7.8,1c41.5-.6,89.3-1.1,133.7-1.5l-.6-.1c-26,.1-51.3,0-78.3-.6,11.7.2,10.2.5-3.1.5-3.4-.2-6.8-.3-10.2-.5,23.2-.3,46.3-.5,68.2.2l14.8-.3c7.3.1,7,.4,8.5.7,5.1,0,10.2,0,15.3-.1C157.5,1.8,123.4,1.2,123.4,1.2Z"/><path class="cls-3" d="M1.8,136.1l-.1-11.5-.1,46.5C2.1,162.9,1.9,149.5,1.8,136.1Z"/></g></g></g></g></svg>