<svg xmlns="http://www.w3.org/2000/svg" viewBox="0 0 862.52 835.96"><defs><style>.cls-1{fill:#cfcfcf;}.cls-2{opacity:0.85;}.cls-3{fill:#464646;}.cls-4{fill:#f9f9f9;}.cls-5{fill:#202020;}.cls-6{opacity:0.68;}</style></defs><g id="Layer_2" data-name="Layer 2"><g id="Layer_1-2" data-name="Layer 1"><g id="Layer_2-2" data-name="Layer 2"><g id="Layer_1-2-2" data-name="Layer 1-2"><polygon class="cls-1" points="31.67 269.84 846.97 261.19 439.79 1.97 31.67 269.84"/><g class="cls-2"><path class="cls-3" d="M51.18,255.92l4.14-2.85a19.47,19.47,0,0,1-2.27,1.17A6.82,6.82,0,0,0,51.18,255.92Z"/><path class="cls-3" d="M59.16,250.45l.74-.5.58-.5Z"/><path class="cls-3" d="M66.24,245.31c-1.31.81-2.51,1.68-3.66,2.53A35.52,35.52,0,0,0,66.24,245.31Z"/><path class="cls-3" d="M60.35,249c.53-.19.83-.21.16.38h0l2.1-1.61A21.45,21.45,0,0,1,60.35,249Z"/><path class="cls-3" d="M60.35,249c-.5.19-1.26.55-1.53.65A7.26,7.26,0,0,0,60.35,249Z"/><path class="cls-3" d="M60.25,245c.68-.59,1,.32,2.37-.85,3.25-2.54,6-4.84,9.19-7,1.38-1.12,4.27-1.74,5.65-2.83.8-.57,1.87-1.37,3-2.23l-.41.32a4.27,4.27,0,0,1,2.38-1.22c.3-.07.69-.1.78-.12l.35-.08a1.61,1.61,0,0,0,.61-.23c.19-.11.3-.31.43-.43l.13-.16L85,230l.39-.41a1.28,1.28,0,0,0,.37-.49c0-.09-.08-.07-.31.06l-.46.28-.58.37h0a1.35,1.35,0,0,1-1,.35h-.45a8.55,8.55,0,0,0-1,.13,5,5,0,0,0-2.54,1.35l.61-.48c-6,3.81-10.28,6.87-15.81,10.75-5.44,4.13-10.53,8.26-16,12.56-1.56,1.16-3.09,2.15-4.62,3.15l6.41-4C52.93,251.84,55.76,248.35,60.25,245Z"/><path class="cls-3" d="M20.36,276.6l2-1.72c3.64-1.58,6.88-4.14,10.1-6.7l-1.77.64c-1.9,1.38-2,1.76-.14.74a120.3,120.3,0,0,0-11.87,7.3C19.08,276.92,19.2,277.2,20.36,276.6Z"/><path class="cls-3" d="M16.47,278.41l2.23-1.55h-.13l-2.2,1.6Z"/><path class="cls-3" d="M81.37,234.52l.37-.24h0c.46-.46,1.26-.42,2.08-.42a3.84,3.84,0,0,0,1.17-.15,4.11,4.11,0,0,0,1-.57c4.36-2.64,7.47-6.42,11.11-9.32l.69-.52.74-.48,1.46-.94,2.92-1.88,5.78-3.7a6.24,6.24,0,0,1,2-1.61,20.91,20.91,0,0,0,2.3-1.07l4-2.49,1.35-1h0c.68-.57.39-.55-.15-.38s-1.1.45-1.56.6c.29-.1,1-.43,1.56-.6a20.86,20.86,0,0,0,2.27-1.13c1.16-.82,2.41-1.65,3.74-2.43a36.82,36.82,0,0,1-3.74,2.43l-2.15,1.54-.59.48,9.07-5.63,1.84-1.26c2.11-1.49,4.2-3,5.8-3.43l1.63-1-.35.12.65-.3,6.9-4.19c1.38-1.09,2.79-2.23,4.25-3.3l1.79-.55a13.7,13.7,0,0,1,2.3-2c-1.39.53-2.68,1-3.83,1.45-1.8.55-2.93,3-5.22,3.32,2.29-.37,3.42-2.77,5.22-3.32,1.15-.49,2.44-.92,3.83-1.45A37.67,37.67,0,0,1,159,185a26,26,0,0,1-7.47,4.09,13.7,13.7,0,0,0-2.3,2l-1.79.55c-1.46,1.07-2.87,2.21-4.25,3.3L157,186.65c30.08-18,57.68-34.76,88.7-53.75,16.81-10.25,33-20.18,48.75-30s30.63-19.3,45.32-29.43c3.66-2.52,7.35-5.1,11-7.66l2.7-1.91.66-.47.6-.36c.38-.24.87-.52,1.3-.77,1.8-1,3.71-2,5.73-2.9s4.13-1.9,6.28-3c1.08-.55,2.14-1.13,3.25-1.78s2.08-1.34,3.08-2c1.94-1.32,3.86-2.58,5.79-3.83L386,45.07c12.07-7.69,33.59-23.38,44.78-31.63,14.11-12.24,3.85-9.88,3-9.55-11.26,3.88-17.35,10.62-37.48,22.38,13.57-8.19-8.23,8.53-21.73,15.42-2.47,1.23-4.94,2.61-7.43,4.11-.66.39-1.07.56-1.72.9l-1.88.92c-1.28.61-2.63,1.21-4,1.86a89.31,89.31,0,0,0-9.11,4.6c-.71.43-1.76,1.08-2.42,1.57l-2.07,1.52-4.13,3c-11,8.08-22.56,16.44-33.94,23.34C302.13,87,296.29,91,289.58,95.35c-35,21.77-66.75,43.16-103.91,65.66-9.8,6-17.95,12.09-25.94,17.62-5.93,3.86-12.6,7.47-17.49,10.52-7.67,4.82-14.09,9.26-20.16,13.63,6.94-4.63,12-8.1,19.77-13.17,5.23-3.34-3,3.34-6.33,5.76-1.38,1.12-4.29,1.68-5.66,2.81-3.22,2-6,4.29-9.28,6.72-1.37,1.13-1.71.21-2.39.78-4.6,3.21-7.56,6.57-10.71,8.29l-6.6,3.78c-1.3.79-2.59,1.58-3.92,2.48a26.83,26.83,0,0,0-2.48,2.16,2.7,2.7,0,0,1,1.79-.14c-1.29.92-3,2.21-4.11,3.19,1.12-1,2.82-2.27,4.11-3.19a2.7,2.7,0,0,0-1.79.14c-1.59,1.57-3,3.24-4.54,4.82-.76.79-1.53,1.56-2.33,2.28-.4.37-.82.72-1.24,1.06l-.64.51-.57.42c-.24.15-.43.42-.72.49a3,3,0,0,1-.85.16,4.28,4.28,0,0,0-2.9,1l.24-.19-4.78,3.34h.13c1.6-1.06,3.21-2.05,4.85-3l-.16.13a3.44,3.44,0,0,1,2.68-.67,4.18,4.18,0,0,0,1,0c.36,0,.6-.3.91-.43a34.71,34.71,0,0,0,3.08-1.75c-.87.56-1.31.71-1.28.57a7.14,7.14,0,0,1,1.37-1.32c.56-.25,1.11-.52,1.66-.8a25.19,25.19,0,0,1-4.55,3.82,5,5,0,0,0-.47.33,1.62,1.62,0,0,1-.52.23,3.89,3.89,0,0,1-1.13.08,3.42,3.42,0,0,0-2.34.4h0c-.47.22-1,.43-1.43.63l-2.07,1.66c-1.18.57-1.29.29-1.66.22L74,237.83C75.89,237.17,81.37,234.52,81.37,234.52Z"/><path class="cls-3" d="M120.52,208.57l-1.83,1.26,7.63-4.71C124.73,205.58,122.63,207.06,120.52,208.57Z"/></g><g class="cls-2"><path class="cls-3" d="M802.92,241.82l-4.21-2.34a19.32,19.32,0,0,1,2,1.46A5.9,5.9,0,0,0,802.92,241.82Z"/><path class="cls-3" d="M794.81,237.29l-.75-.42-.68-.27Z"/><path class="cls-3" d="M787.35,233.49a28.59,28.59,0,0,0,3.74,2C790.07,234.86,788.81,234.27,787.35,233.49Z"/><path class="cls-3" d="M793.08,236.9c-.39-.37-.54-.63.27-.31h0l-2.29-1.09A22,22,0,0,1,793.08,236.9Z"/><path class="cls-3" d="M793.08,236.9a13.51,13.51,0,0,0,1.21,1C793.91,237.55,793.5,237.22,793.08,236.9Z"/><path class="cls-3" d="M789.61,238.87c-.82-.31-.18-1.06-1.78-1.67-.92-.39-1.77-.82-2.6-1.24l-2.44-1.22c-1.6-.81-3.16-1.64-4.74-2.6-1.54-.68-3.26-3-4.8-3.67-3.5-1.82-12.75-5.95-7.66-2.91,7.7,4.53,12.8,7.33,19.73,11.35,1.41.78,3,1.41,4.44,2.11l4.37,2c2.91,1.37,5.84,2.75,8.87,4.16,1.67.85,3.18,1.73,4.71,2.6l-6.2-3.79C798.62,242.14,794.41,241.22,789.61,238.87Z"/><path class="cls-3" d="M835,256.63l-2.49-.42A75.84,75.84,0,0,0,821.7,252c.45.38.93.76,1.41,1.12,2.11.8,2.44.65.68-.3a48.06,48.06,0,0,0,12.38,4.89C836,257.36,836.1,257.12,835,256.63Z"/><path class="cls-3" d="M838.7,258.27l-2.53-.58a.36.36,0,0,0,.07.1l2.55.53Z"/><path class="cls-3" d="M771.69,225c-9.56-5.78-18.51-11.3-27.24-16.73a6,6,0,0,1-2.2-1,20.1,20.1,0,0,0-1.88-1.55l-3.81-2.38-1.39-.76h0c-.78-.35-.64-.09-.27.3A14.5,14.5,0,0,1,736,204c-.2-.22-.8-.73-1.16-1.12a21.4,21.4,0,0,0-1.92-1.49c-1.2-.66-2.44-1.37-3.67-2.19a35.54,35.54,0,0,1,3.67,2.19l2.22,1.21.67.3-8.67-5.45c-.68-.38-1.33-.75-1.87-1-2.17-1.18-4.34-2.35-5.4-3.54l-1.55-1,.26.25c-.22-.16-.4-.31-.54-.43l-6.54-4.14c-1.53-.72-3.12-1.42-4.67-2.2l-1.2-1.39a12.2,12.2,0,0,1-2.71-1.09c1,1,2,1.9,2.87,2.69,1.23,1.31,3.81,1.2,5.09,3-1.28-1.84-3.86-1.73-5.09-3-.91-.79-1.83-1.72-2.87-2.69a34.86,34.86,0,0,1-6.72-4.65,24.2,24.2,0,0,1,6.72,4.65,12.2,12.2,0,0,0,2.71,1.09l1.23,1.32c1.55.78,3.14,1.48,4.67,2.2l-13-8.22L688,172.62l-10.34-6.7-20.55-13.21c-13.73-8.79-27.59-17.65-42.2-27.15q-11.85-7.73-23.24-15.28l-11.3-7.54L574.77,99l-5.48-3.8c-29-20.26-56.43-37.5-84.24-60.16C474.33,26.4,453.37,11.88,442.6,4.15c-15.3-9.16-10.28-.41-9.74.27,6.77,9.27,14.81,12.73,31.7,27.39C452.92,22,475,36.52,485.28,46.73c14.82,15,40.86,29.41,61.67,44.33,5.21,3.75,11,7.34,17.36,11.6l6.13,4.23,6.13,4q6.13,4,12.25,7.89c8.16,5.2,16.32,10.28,24.56,15.36,16.47,10.17,33.23,20.38,50.76,31.62,4.67,2.94,9.17,5.52,13.52,7.93s8.54,4.66,12.65,6.85c5.89,3.4,11.84,7.58,16.56,10.46,7.42,4.52,14,8.12,20.31,11.49-6.93-4-12-6.84-19.74-11.36-5.11-3,4.17,1.1,7.67,2.92,1.55.69,3.26,3,4.82,3.68,3.13,1.9,6.22,3.29,9.72,5.11,1.55.69.89,1.41,1.66,1.76,4.7,2.61,8.86,3.7,11.65,5.71l5.95,4.15c1.21.8,2.42,1.58,3.74,2.35l2.62,1.31a2.6,2.6,0,0,1-.62-1.56c1.18.78,2.78,2,4,2.79-1.18-.79-2.78-2-4-2.79a2.6,2.6,0,0,0,.62,1.56c6.31,3.19,13.52,7,20.18,10.58v-.13a88.81,88.81,0,0,1-11.1-7.44c1.59,1.21,1.25,1.32-.71.19L762.36,220c3.5,1.82,7,3.63,9.84,6.18l2.31,1c1,.77.8,1,.9,1.36l2.27,1.29C776.34,228.53,771.69,225,771.69,225Z"/><path class="cls-3" d="M732.88,201.27l1.85,1-7.27-4.59C728.52,198.91,730.69,200.09,732.88,201.27Z"/></g><rect class="cls-4" x="42.15" y="62.18" width="788.49" height="519.39"/><g class="cls-2"><path class="cls-5" d="M832,366.4V340.25c-.07,4.39-.18,8.73-.35,13.18C831.56,359.14,831.78,362.12,832,366.4Z"/><path class="cls-5" d="M832.07,316.06v-4.64c0-1.47-.06-2.76-.09-4C832,310.31,832,313.2,832.07,316.06Z"/><path class="cls-5" d="M831.82,270.54c-.05,8,0,15.75,0,23.18C831.93,287.15,831.93,279.52,831.82,270.54Z"/><path class="cls-5" d="M831.59,306.81c.14-2.8.29-4.17.4.45v.19c0-4.54-.09-9-.13-13.73Q831.77,301.08,831.59,306.81Z"/><path class="cls-5" d="M831.59,306.81c-.11,2.7-.29,7-.35,8.46C831.37,312.82,831.48,310,831.59,306.81Z"/><path class="cls-5" d="M828.19,295.33c-.1-4.6.86-3.51.64-12.6-.27-21.3-.7-39.53-.7-59.48-.22-9.08.85-23.41.64-32.47-.27-21.38-1.56-75.9-1.51-43.77.23,48.33.38,79.84.58,123.21.4,35.24.79,69.12,1.2,105.2,0,10.11,0,19.54-.1,29.05.14-12.41.28-25.1.44-39.19C829.64,346.73,828.41,324.35,828.19,295.33Z"/><path class="cls-5" d="M831.39,559c-.11-4.52-.33-13.65-.33-13.65.69-20.29.42-41.61.15-62.92-.15,3.1-.31,6.26-.47,9.45,0,12.2.32,13.61.53,2.78-.58,24.81-.67,48.27-.58,72.29C831,565.47,831.25,565.78,831.39,559Z"/><path class="cls-5" d="M830.77,581.06c0-4.71,0-9.45-.08-14.09a4.68,4.68,0,0,1-.08.51c0,4.74.09,9.47.14,14.09C830.76,581.41,830.76,581.23,830.77,581.06Z"/><path class="cls-5" d="M830.94,174V61.9l-61.75-.08c-4.28.18-7.28.4-13,.29-4.34-.17-8.72-.27-13.06-.34H718.82l-8.57.07H710c-4.56.11-3.2.25-.38.39,3.15.11,6,.23,8.5.35l-8.5-.35c-3.84-.12-8.1-.21-13.09-.27-7.41.06-15.16.1-23.16,0,8.9-.11,16.57-.11,23.16,0l13.71-.13,4-.09-55.47-.13-11.61.08c-13.39.12-26.72.25-35-.21h-9.92l1.91.08-3.72-.09-42-.12-27.79.54-9.41-.48c-3.81.24-9.25.4-15.62.48,7.56.29,14.43.61,20.86.8,9.42.48,21-1,32.14,0-11.11-.91-22.72.53-32.14,0-6.43-.19-13.3-.51-20.86-.8-13.25.18-30.4,0-44.21-.46,17.15-.41,31.58,0,44.21.46,6.37-.08,11.81-.24,15.62-.48l9.41.48,27.79-.54L475.06,61l-215.6-.47L40.21,60.25c-.06,33.71-.13,70.3-.21,107.69-.27,102.29-.68,200.56-1.25,296.94q-.14,29.65-.27,58.81-.09,31.08-.17,61.71l224.2.31c73.42.17,147.57.55,224.69,1.51,74.53.85,212.87.39,284.72.29,96.27-1.59,46.36-5.71,41.84-6C754.58,578,708.28,580,587.7,577.89c82.13,1.17-60.6,2.26-138.15-.15-55.67-1.81-123.1-2-193.83-1.86l-107.49.33-53.62.06-26.42,0H47.57V465.48c.4-68.51.51-135.47.49-202.23-.11-64.85-.21-129.51-.32-195.31l110.43-.19H278.26c59.78,0,112.29-.9,162.63-1.39,36.76-.16,76.05.31,105.94.31,47,0,87.46-.35,126.19-.77l-123.2.58c-32.19.06,22.39-1.23,43.71-1.5,9.12-.22,23.45.85,32.58.63,19.84,0,38.07-.43,59.37-.7,9.13-.22,8.07.74,12.63.64,29-.22,51.43-1.45,70-1.19l39.18.44,11.53.06H828v.3l.06,2.17.06,3.21c0,2.64.08,5.31.12,8a35.29,35.29,0,0,1,1-7.15c-.1,7.66-.23,18.49-.32,26.15.09-7.66.22-18.49.32-26.15a35.29,35.29,0,0,0-1,7.15c.57,38.23,1.07,82.31,1.49,123.31l.08-.55c-.09-24,0-47.35.58-72.24-.21,10.76-.48,9.44-.54-2.83.16-3.14.32-6.3.48-9.4.27,21.37.54,42.69-.15,62.91,0,0,.22,9.15.32,13.68-.13,6.76-.43,6.45-.69,7.88,0,4.67.05,9.4.08,14.14C830.33,205.43,830.94,174,830.94,174Z"/><path class="cls-5" d="M696,61.85l11.54-.07L661,61.65C669.19,62.11,682.56,62,696,61.85Z"/></g><polygon class="cls-1" points="31.67 808.46 31.67 287.61 430.34 561.82 862.52 255.51 862.52 830.28 31.67 835.96 31.67 808.46"/><g class="cls-2"><path class="cls-3" d="M842,267.51l.12.06a2,2,0,0,1,0-.35C842.05,267.11,842,267.33,842,267.51Z"/><path class="cls-3" d="M842.23,267.62h0a.11.11,0,0,0,0-.08A.11.11,0,0,1,842.23,267.62Z"/><path class="cls-3" d="M842.44,267.38c0-.05-.07,0-.1,0S842.4,267.49,842.44,267.38Z"/><path class="cls-3" d="M842.29,267.14a1.34,1.34,0,0,1,0,.4h0l.07-.13A1.76,1.76,0,0,1,842.29,267.14Z"/><path class="cls-3" d="M842.29,267.14v-.34A1.29,1.29,0,0,0,842.29,267.14Z"/><path class="cls-3" d="M842.43,263.75v.64c0-.22.2-.69.29-.69,0-.22.08.85.13.64s.38-1.55.24-1.5-.37.39-.58.56c-.16.39-.33.84-.5,1.18,0,.05-.09,0-.13-.09,0,.15.1.3.16.44S842.3,264,842.43,263.75Z"/><path class="cls-3" d="M841.16,266.91a1.43,1.43,0,0,1,.07-.32c.07.69.17.43.28.16v-.48a1,1,0,0,0,0,.53c-.1-.58-.2-.68-.31-.58A5.32,5.32,0,0,0,841.16,266.91Z"/><path class="cls-3" d="M841.07,266.29l.07-.07v-.09l-.07.14Z"/><path class="cls-3" d="M842.9,266.51a1.59,1.59,0,0,1,.78.13c0-.19.05-.41.07-.29a1.93,1.93,0,0,0,0,.34l.11.05v-.07h0a1.34,1.34,0,0,0,0-.4v.27c0-.06.07-.09.11,0s-.08.11-.11,0l-.06.13v.09l.24.14a.16.16,0,0,0,.06-.08c.06-.12.13-.25.15.22h0v0l.19.13c0-.18.09-.36.14-.54v.48a2.67,2.67,0,0,1,.08-.48,2.77,2.77,0,0,0-.07-.8c0-.48-.12,1-.15.05,0,.91.12-.53.15-.05a3.46,3.46,0,0,0,.07.8c.07-.17.14,0,.19.48s-.15,0-.19-.48a2.67,2.67,0,0,0-.08.48v-.48c-.05.18-.1.36-.14.54l.37.26c.8.63,1.56.54,2.4,1a5.14,5.14,0,0,1,1.3,1.29c.84,1.14,1.67-.13,2.47,2.32.32.86,1,.42,1.28.32a26.84,26.84,0,0,0,.35-5.94c-.17-3.51-.43-1.57-.92-3.65.34,1.19-.33,2.25-.62-.16-.4-3.68-1.2-.77-1.8-1.72-.15-.24-.32-.08-.51-.16-.93-1.27-1.87.26-2.88,0-.27,0-.53.88-.77,1.36-.17.16-.34-.31-.47-.31s-.41.33-.59.75a7.66,7.66,0,0,1,.57-.57c.15,0-.13,1.23-.24,1.5s-.08-.85-.13-.64c-.09,0-.18.43-.28.7s0-.75,0-.64-.28,1.44-.35,1.17a2.91,2.91,0,0,0-.17-.44c-.05-.15-.06-.1-.1-.06s0,.16-.08.24v1a1.11,1.11,0,0,0-.11-.32c0-.06.08.27.11.32v-1a11.9,11.9,0,0,1-.6,1.47v.08c.11-.09.22,0,.31.59a1,1,0,0,1,0-.54v.48c-.1.27-.21.54-.28-.16l-.07.32q0-.34,0-.69l-.06.08A9,9,0,0,0,842.9,266.51Z"/><path class="cls-3" d="M844,266.57a.08.08,0,0,1,0,.07l.21.14C844.14,266.31,844.08,266.44,844,266.57Z"/></g><g class="cls-2"><path class="cls-3" d="M850.27,265.07,850,265a1.23,1.23,0,0,1,.16.35C850.18,265.47,850.22,265.26,850.27,265.07Z"/><path class="cls-3" d="M849.64,265h0l0,.08Z"/><path class="cls-3" d="M849.07,265.18a.26.26,0,0,0,.29,0C849.28,265.07,849.18,265.07,849.07,265.18Z"/><path class="cls-3" d="M849.52,265.43a.68.68,0,0,1,0-.4h0l-.18.13A.68.68,0,0,1,849.52,265.43Z"/><path class="cls-3" d="M849.52,265.43l.1.35A1.54,1.54,0,0,0,849.52,265.43Z"/><path class="cls-3" d="M849.32,268.81c-.06.11,0-.85-.15-.64s-.51.69-.76.68c-.12.21-.28-.86-.39-.64-.28.26-1,1.53-.58,1.48a14.32,14.32,0,0,0,1.56-.53c.45-.38.88-.82,1.34-1.16a.47.47,0,0,1,.36.11c-.15-.16-.31-.31-.48-.46S849.69,268.6,849.32,268.81Z"/><path class="cls-3" d="M852.68,265.71l-.18.32c-.24-.69-.51-.43-.79-.17l.12.48c.15,0,.17-.32,0-.53.3.59.59.69.9.6A2.07,2.07,0,0,0,852.68,265.71Z"/><path class="cls-3" d="M852.94,266.34l-.17.07v.08l.18-.13Z"/><path class="cls-3" d="M847.84,266a11.23,11.23,0,0,1-2.16-.16c-.06.19-.1.4-.17.29a1,1,0,0,0-.16-.35l-.3-.06-.11.07h0a.68.68,0,0,0,0,.4,1.54,1.54,0,0,1,.1.35l-.1-.35a.66.66,0,0,0-.16-.28.26.26,0,0,1-.29,0c.12-.11.21-.11.29,0l.18-.13v-.08l-.69-.16a.55.55,0,0,0-.15.08c-.17.12-.34.24-.43-.23h-.13v0l-.52-.14a3.8,3.8,0,0,1-.36.53l-.11-.48a.81.81,0,0,1-.21.47c.09.29.17.61.25.81.1.48.28-.95.4-.05-.12-.9-.3.53-.4.05-.08-.2-.16-.52-.25-.81-.17.17-.38,0-.54-.48.22-.4.39,0,.54.48a.81.81,0,0,0,.21-.47l.11.48a3.8,3.8,0,0,0,.36-.53l-1-.28c-2.27-.68-4.37-.63-6.73-1.14a17.52,17.52,0,0,1-3.68-1.36c-2.37-1.19-4.6,0-7-2.45-.9-.88-2.64-.47-3.54-.39-1.26,1.55-.78,5.69-.73,5.92.63,3.53,1.27,1.6,2.72,3.71-1-1.2.83-2.24,1.73.19,1.3,3.71,3.4.83,5.11,1.82.43.25.9.09,1.42.18,2.66,1.32,5.21-.16,8,.21.75,0,1.43-.86,2.07-1.33.47-.15,1,.33,1.33.34a2.47,2.47,0,0,0,1.6-.72,14.32,14.32,0,0,1-1.56.53c-.41,0,.3-1.22.58-1.48.12-.22.27.86.39.64.25,0,.49-.42.76-.68s.09.75.15.65c.37-.21.67-1.44.9-1.17s.33.3.48.46a.33.33,0,0,0,.3.06l.21-.23c0-.33-.06-.66-.07-1,.09.06.22.27.32.33-.1-.06-.23-.27-.32-.33,0,.34,0,.67.07,1a12.59,12.59,0,0,1,1.57-1.44v-.09c-.31.09-.6,0-.9-.6.13.22.11.48,0,.54l-.1-.49c.27-.26.54-.52.78.18l.18-.32a2,2,0,0,1,.09.69.51.51,0,0,0,.17-.07A4.54,4.54,0,0,0,847.84,266Z"/><path class="cls-3" d="M844.76,265.91l.14-.07-.58-.15C844.42,266.16,844.59,266,844.76,265.91Z"/></g><g class="cls-2"><path class="cls-5" d="M14.28,293.56v5.91c.07-1,.17-2,.34-3A8.7,8.7,0,0,0,14.28,293.56Z"/><path class="cls-5" d="M14.2,304.93V306l.09.9Z"/><path class="cls-5" d="M14.49,315.22c0-1.82,0-3.56-.06-5.24A50.86,50.86,0,0,0,14.49,315.22Z"/><path class="cls-5" d="M14.68,307c-.13.64-.28,1-.4-.1h0c.05,1,.1,2,.15,3.1C14.48,308.87,14.57,307.88,14.68,307Z"/><path class="cls-5" d="M14.68,307c.14-.61.27-1.58.35-1.91C14.9,305.66,14.78,306.31,14.68,307Z"/><path class="cls-5" d="M18.09,309.6c.11,1-.85.8-.62,2.85.29,4.81.74,8.93.77,13.44.22,2-.83,5.29-.59,7.33.3,4.83,1.69,17.14,1.57,9.88-.29-10.91-.48-18-.75-27.83-.44-7.95-.9-15.61-1.26-23.76-.05-2.28,0-4.41.08-6.56-.14,2.8-.27,5.67-.42,8.85C16.61,298,17.84,303.05,18.09,309.6Z"/><path class="cls-5" d="M42.73,269.25l-1.94.09-1.17.1a24.35,24.35,0,0,0-14.2,1.95,20.51,20.51,0,0,1,2.21-.27,12.51,12.51,0,0,0,2.15-.77c0-.06-.06-.09-.35-.09a6.73,6.73,0,0,0-1.34.17,73.06,73.06,0,0,1,16.39-.35C44.17,269.8,44.26,269.49,42.73,269.25Z"/><path class="cls-5" d="M47.66,270.33c-1.06-.08-2.13-.19-3.18-.25l.11.1c1.07,0,2.14.12,3.18.18Z"/><path class="cls-5" d="M15.5,337c.13,13.68.21,26.56.24,39.14a8.37,8.37,0,0,1,.32,2.94c-.15,1-.25,2-.31,2.95v5.5l.09,1.93v.06c.12,1,.26.72.4.08s.2-1.37.32-1.93c-.07.36-.19,1.31-.32,1.93-.11.87-.2,1.83-.24,3,.08,1.67.13,3.42.1,5.23a48,48,0,0,1-.1-5.23l-.17-3.1-.09-.89v12.54c0,1,.08,1.87.11,2.62.16,3,.33,6-.12,7.91v2.24l.08-.44-.08.85v9.48c.21,2,.46,4.15.62,6.27l-.45,2.13a16.91,16.91,0,0,1,.52,3.53c.27-1.72.57-3.27.75-4.73.45-2.13-1-4.74-.15-7.26-.88,2.52.6,5.13.15,7.26-.18,1.46-.48,3-.75,4.73a52.21,52.21,0,0,1-.34,10,36.43,36.43,0,0,1,.34-10,16.91,16.91,0,0,0-.52-3.53l.45-2.13c-.16-2.12-.41-4.23-.62-6.27v18.84c-.11,41.13.46,79.05.19,121.71-.18,23.1-.6,45.3-1.32,67.06q-.27,8.13-.44,16.11t-.37,15.82l-.15,7.84c-.09,2.61-.19,5.21-.28,7.82q-.27,7.83-.45,15.65c-.5,20.86-.74,41.77-1.85,63.73-.75,16.86-.16,48.06-.3,64.24,1.28,21.7,5.56,10.55,5.81,9.52,3.72-13.33,1.89-23.83,3.87-51.09-1.1,18.57-2.3-13.7,0-31.22,1.78-12.68,1.93-28,2-44.1,0-8,0-16.25.13-24.41.11-4.09.21-8.18.31-12.21s.17-8,.34-12c.35-7.85.25-16.18.38-25.53.8-24.26.72-47.67.41-71.37S23.17,512.5,23,487c-.15-13.51-1.2-25.37-1.82-36.74-.27-8.3.1-17.18,0-23.94-.13-10.61-.59-19.75-1.1-28.5.28,9.78.63,16.93.9,27.83.15,7.27-1.29-5-1.62-9.86-.24-2.05.79-5.3.55-7.36-.06-4.49-.53-8.6-.86-13.41-.24-2.06.73-1.83.61-2.86-.29-6.56-1.58-11.6-1.36-15.8.13-3.18.24-6,.35-8.85,0-1.77.06-3.53,0-5.4-.09-1.16-.19-2.36-.28-3.57a2.91,2.91,0,0,1-1,1.63c0-1.74.22-4.18.26-5.91,0,1.73-.22,4.17-.26,5.91a2.91,2.91,0,0,0,1-1.63C17.77,350,17.19,340,16.7,330.74l-.08.12a130.89,130.89,0,0,1-.45,16.33c.19-2.44.46-2.14.54.63-.15.71-.31,1.43-.46,2.13a72.64,72.64,0,0,1,0-14.22l-.35-3.08c.12-1.53.43-1.47.68-1.79l-.09-3.19C16.05,329.92,15.5,337,15.5,337Z"/><path class="cls-5" d="M16,392.72l-.1-2.6v10.52C16.33,398.77,16.17,395.75,16,392.72Z"/></g><g class="cls-2"><path class="cls-3" d="M830.73,268v-.13a1.27,1.27,0,0,1-.34.05C830.32,267.94,830.54,268,830.73,268Z"/><path class="cls-3" d="M830.84,267.74Z"/><path class="cls-3" d="M830.6,267.49c-.05,0,0,.08,0,.12S830.72,267.54,830.6,267.49Z"/><path class="cls-3" d="M830.36,267.67a1.34,1.34,0,0,1,.4,0h0l-.13-.08A.77.77,0,0,1,830.36,267.67Z"/><path class="cls-3" d="M830.36,267.67h0Z"/><path class="cls-3" d="M827,267.44h.64c-.21,0-.69-.25-.69-.35-.21-.06.86-.08.65-.14s-1.54-.48-1.49-.31a7.33,7.33,0,0,0,.54.68c.38.21.83.41,1.17.61,0,.06,0,.1-.1.15l.44-.19C828.41,267.78,827.19,267.6,827,267.44Z"/><path class="cls-3" d="M830.1,269l-.32-.08c.7-.08.43-.2.17-.32h-.48c0,.07.32.09.53,0-.59.1-.68.22-.59.35A4,4,0,0,0,830.1,269Z"/><path class="cls-3" d="M829.48,269.05l-.07-.08h-.08l.13.08Z"/><path class="cls-3" d="M829.75,267a2.09,2.09,0,0,1,.15-.89c-.18,0-.4-.06-.28-.09H830l.06-.13-.07-.05h0a1.34,1.34,0,0,0-.4,0h0l.28,0c-.06-.05-.09-.09,0-.13s.11.1,0,.13l.13.07H830c.05-.09.1-.19.16-.28l-.08-.06c-.12-.08-.25-.16.22-.17h0l.14-.21c-.18-.06-.4-.12-.54-.18h.48a1.91,1.91,0,0,1-.47-.12l-.81.06c-.48,0,1,.17.05.17.91,0-.53-.15-.05-.17l.81-.06c-.17-.08,0-.15.48-.19.4.11,0,.16-.48.19a1.91,1.91,0,0,0,.47.12H830c.14.06.36.12.54.18l.27-.41c.67-.9.63-1.76,1.16-2.69a5.4,5.4,0,0,1,1.37-1.41c1.21-.86,0-1.88,2.53-2.6.88-.28.5-1,.45-1.38-1.53-.67-5.65-.91-5.89-.91-3.52-.1-1.61.36-3.73.77,1.21-.3,2.21.56-.23.71-3.71.21-.88,1.37-1.88,2-.25.16-.1.38-.19.59-1.35,1,.11,2.24-.26,3.41,0,.32.85.67,1.32,1,.16.21-.33.39-.34.55s.32.48.73.71a6.34,6.34,0,0,1-.54-.69c0-.17,1.22.2,1.49.33s-.86.07-.65.13c0,.11.42.23.68.36s-.74,0-.64,0,1.43.35,1.16.43a1.77,1.77,0,0,1-.45.18s-.1.08-.06.13l.24.09h1a1.93,1.93,0,0,0-.32.12s.27-.08.32-.12h-1a12.15,12.15,0,0,1,1.44.73h.09c-.09-.13,0-.25.59-.35a1.79,1.79,0,0,1-.53,0h.48c.26.12.53.25-.17.32l.32.08a4,4,0,0,1-.69,0l.07.08A9.38,9.38,0,0,0,829.75,267Z"/><path class="cls-3" d="M829.85,265.67l.07.07.15-.23C829.6,265.52,829.72,265.6,829.85,265.67Z"/></g><g class="cls-2"><path class="cls-3" d="M741.57,823.46l-8.08-.12c1.36.08,2.7.19,4.07.37A15.39,15.39,0,0,0,741.57,823.46Z"/><path class="cls-3" d="M726,823.22h-1.43l-1.23.07Z"/><path class="cls-3" d="M712,823.36c2.48.07,4.86,0,7.16,0C717.09,823.28,714.73,823.27,712,823.36Z"/><path class="cls-3" d="M723.16,823.67c-.86-.15-1.29-.3.14-.4h.06l-4.24.1C720.64,823.44,722,823.54,723.16,823.67Z"/><path class="cls-3" d="M723.16,823.67c.83.15,2.16.29,2.61.37C725,823.91,724.14,823.78,723.16,823.67Z"/><path class="cls-3" d="M719.59,827c-1.42.1-1.08-.86-3.89-.67-6.58.23-12.21.62-18.37.6-2.81.2-7.23-.89-10-.69-6.6.25-23.44,1.5-13.52,1.47l38.05-.41c10.89-.32,21.35-.69,32.5-.92,3.12,0,6,.1,9,.19L741.2,826C735.47,825.72,728.55,826.89,719.59,827Z"/><path class="cls-3" d="M801.07,824.86l-4.22.25c-6.26-.8-12.85-.62-19.44-.46l2.92.53c3.76,0,4.2-.26.86-.52,7.66.69,14.9.91,22.32.94C803.05,825.33,803.15,825,801.07,824.86Z"/><path class="cls-3" d="M807.87,825.6h-4.36a.65.65,0,0,0,.16.09l4.35-.07Z"/><path class="cls-3" d="M682.12,824.09,628.61,824a15.78,15.78,0,0,1-4,.3c-1.35-.16-2.7-.26-4-.33H613.1l-2.65.08h-.07c-1.41.11-1,.26-.12.4s1.87.21,2.63.33c-.48-.07-1.78-.2-2.63-.33-1.18-.12-2.5-.21-4-.26-2.29.07-4.68.11-7.16.07,2.75-.13,5.12-.13,7.16-.07l4.23-.15,1.22-.09H594.58l-3.59.1c-4.13.15-8.25.3-10.81-.14H577l.59.08-1.15-.08h-13c-2.8.21-5.69.46-8.58.62L552,824a33.7,33.7,0,0,1-4.81.53c2.33.26,4.46.56,6.45.74,2.91.45,6.48-1,9.92-.15-3.44-.87-7,.6-9.92.15-2-.18-4.12-.48-6.45-.74a97.35,97.35,0,0,1-13.66-.33,66.35,66.35,0,0,1,13.66.33A33.7,33.7,0,0,0,552,824l2.92.45c2.89-.16,5.78-.41,8.58-.62H537.74l-166.39-1.15-91.76-.79c-29.7-.26-58.13.37-86.57.78s-57,.66-87,0c-23-.41-65.74.85-87.93,1.37-29.7,2.15-14.22,6-12.82,6.18,18.34,3.17,32.61,1,69.89,2.32-25.39-.7,18.67-2.61,42.68-.66,34.72,3,84.15-.86,126.86-.69,10.68.07,22-.26,34.8-.32,66.22.55,127.76-.76,197.44-.31,18.48,0,34.69-.84,50.27-1.32,11.37-.16,23.52.09,32.75,0,14.51-.13,27-.55,39-1l-38,.85c-9.94.15,6.9-1.3,13.48-1.61,2.82-.24,7.25.79,10.07.56,6.13,0,11.75-.5,18.33-.81,2.82-.22,2.5.74,3.9.63,9-.26,15.88-1.52,21.61-1.26l12.1.41c2.42,0,4.83.09,7.38,0l4.88-.24a4.46,4.46,0,0,1-2.21-1c2.37,0,5.71.26,8.08.32-2.37-.06-5.71-.28-8.08-.32a4.46,4.46,0,0,0,2.21,1c11.81-.56,25.42-1,38.09-1.4l-.17-.09c-7.41.07-14.63,0-22.31-.64,3.32.22,2.91.48-.88.53l-2.9-.48a128.59,128.59,0,0,1,19.43.2l4.23-.31c2.08.14,2,.44,2.43.7H695C691.84,824.74,682.12,824.09,682.12,824.09Z"/><path class="cls-3" d="M606,824.12l3.56-.09-14.39,0C597.71,824.42,601.84,824.27,606,824.12Z"/></g><g class="cls-2"><path class="cls-3" d="M769,305.91l-8.23,5.62c1.41-.89,2.84-1.74,4.33-2.57A23.53,23.53,0,0,0,769,305.91Z"/><path class="cls-3" d="M753.09,316.72l-1.46,1-1.19.93Z"/><path class="cls-3" d="M739,326.77c2.55-1.7,5-3.39,7.25-5C744.1,323.08,741.7,324.73,739,326.77Z"/><path class="cls-3" d="M750.46,319.12c-1,.48-1.47.66-.08-.43l.06-.05-4.24,3.08C747.78,320.7,749.21,319.83,750.46,319.12Z"/><path class="cls-3" d="M750.46,319.12c.93-.48,2.35-1.3,2.86-1.55C752.47,318,751.52,318.52,750.46,319.12Z"/><path class="cls-3" d="M748.79,324.39c-1.39,1.08-1.59.06-4.32,2.2-6.53,4.83-12,9.13-18.27,13.44-2.73,2.14-7.83,4.37-10.55,6.5-6.56,4.85-22.94,17.7-12.88,10.71,15.08-10.57,24.82-17.6,38.33-27.13l32.35-23.73c3.14-2.23,6.14-4.2,9.17-6.21l-12.55,8.12C764.1,312.08,757.77,317.94,748.79,324.39Z"/><path class="cls-3" d="M829.73,264.73l-4.1,3.22c-6.76,3.82-13.29,8.65-19.83,13.49l3.24-1.66c3.79-2.68,4.09-3.2.57-1,8.12-4.89,15.53-9.89,23-15.17C832,263.69,831.93,263.38,829.73,264.73Z"/><path class="cls-3" d="M837,260.47l-4.38,3.11h.21l4.34-3.16Z"/><path class="cls-3" d="M709.14,348.38c-19,13.12-36.9,25.41-54.42,37.38a24.18,24.18,0,0,1-3.93,3.05c-1.45.8-2.89,1.67-4.29,2.55l-7.66,5.21-2.65,1.92-.07.05c-1.37,1.08-.86.91.11.41s2-1.12,2.87-1.55c-.54.27-1.93,1.07-2.87,1.55-1.27.73-2.67,1.58-4.26,2.61-2.29,1.65-4.71,3.36-7.25,5q4.1-3,7.25-5l4.22-3.07,1.2-.93L619.9,409.44,616.3,412c-4.13,3-8.24,6-11.1,7.4l-3.12,2.12.64-.34-1.21.73-13.22,9c-2.74,2.13-5.54,4.34-8.39,6.5l-3.21,1.67a47.92,47.92,0,0,1-4.6,3.81c2.52-1.42,4.85-2.66,7-3.91,3.21-1.67,6-5.37,10-7.05-4,1.68-6.81,5.38-10,7.05-2.12,1.25-4.45,2.49-7,3.91a156.37,156.37,0,0,1-14,9.35,98.06,98.06,0,0,1,14-9.35,47.92,47.92,0,0,0,4.6-3.81l3.21-1.67c2.85-2.16,5.65-4.37,8.39-6.5C579.66,436.82,571,442.8,562.11,449c-28.47,19.83-55.35,39.66-81.39,61.1-13,10.72-25.79,21.88-38.38,33.67-3.21,2.9-6.12,6.13-9.59,7.29a9.38,9.38,0,0,1-2.63.47,10.56,10.56,0,0,1-2.74-.3,20.08,20.08,0,0,1-5.49-2.31c-1.81-1-3.56-2.26-5.4-3.51L411,541.63l-11-7.58c-32.11-22.1-62.79-43.58-92.72-64.88-59.67-42.48-115.17-79.71-174.11-124.52-22.68-17.11-65.81-47.4-88.06-63.34C14.4,261.14,27.4,275.6,28.67,276.8c16.24,16,31.68,24.81,67.88,53.21-24.79-19.17,20.09,11.61,42.84,30.64,32.78,27.75,84.43,60.4,127.28,91.23,10.72,7.7,22.34,15.56,35.3,24.56,33.32,23.72,65.95,45.9,99.15,68.16l12.49,8.4a51.41,51.41,0,0,0,7.37,4.25,20.6,20.6,0,0,0,10.16,2,16.48,16.48,0,0,0,5.52-1.42A21.32,21.32,0,0,0,441,555.2a41.15,41.15,0,0,0,3.33-2.86l2.8-2.65,5.52-5.19,2.76-2.6,2.83-2.56c15-13.72,30.91-27.07,47.75-40.24,17.81-14,33.36-26.54,48.62-38.12,11.25-8.31,23.77-16.5,33.11-23,14.68-10.23,27.2-19.24,39.12-28l-38.29,27.16c-10,7.05,6.28-5.89,12.83-10.72,2.73-2.15,7.83-4.38,10.57-6.53,6.23-4.29,11.7-8.59,18.23-13.42,2.75-2.15,3-1.13,4.33-2.2,9-6.46,15.32-12.32,21.29-16.12L668.38,380c2.49-1.65,5-3.3,7.53-5.12l4.82-3.61a6.14,6.14,0,0,1-2.82.71l8.39-5.4-8.39,5.4a6.14,6.14,0,0,0,2.82-.71c11.68-8.74,25.23-18.69,37.86-27.89h-.22c-7.47,5.27-14.86,10.25-23,15.15,3.5-2.15,3.24-1.64-.58,1.06l-3.23,1.64c6.56-4.85,13.09-9.68,19.84-13.49l4.1-3.22c2.2-1.35,2.28-1,2.87-1.14l4.4-3.12C719.36,342.08,709.14,348.38,709.14,348.38Z"/><path class="cls-3" d="M631.78,401.66c1-.73,2.25-1.62,3.58-2.56l-14.69,10A100.48,100.48,0,0,0,631.78,401.66Z"/></g><g class="cls-2"><path class="cls-3" d="M846.15,772c0-1.82,0-3.66.07-5.49a23.13,23.13,0,0,1-.35,2.76A7.62,7.62,0,0,0,846.15,772Z"/><path class="cls-3" d="M846.29,761.38v-1a2.66,2.66,0,0,0-.08-.83C846.25,760.17,846.27,760.78,846.29,761.38Z"/><path class="cls-3" d="M846.08,751.81c-.06,1.69,0,3.31,0,4.87A39.57,39.57,0,0,0,846.08,751.81Z"/><path class="cls-3" d="M845.82,759.43c.14-.59.29-.87.4.1h0c0-1-.08-1.9-.12-2.89C846,757.71,845.94,758.64,845.82,759.43Z"/><path class="cls-3" d="M845.82,759.43c-.14.57-.27,1.47-.36,1.78C845.59,760.69,845.71,760.1,845.82,759.43Z"/><path class="cls-3" d="M842.44,757c-.11-1,.85-.74.64-2.65-.25-4.47-.66-8.3-.65-12.49-.21-1.91.87-4.92.66-6.82-.25-4.49-1.49-15.95-1.46-9.2.1,10.15.33,16.77.47,25.88.36,7.4.79,14.52,1.11,22.1,0,2.13-.05,4.11-.12,6.1.16-2.6.32-5.27.47-8.23C843.84,767.81,842.63,763.1,842.44,757Z"/><path class="cls-3" d="M845.41,812.41c-.1-.95-.31-2.87-.31-2.87.71-4.26.45-8.74.2-13.22-.16.65-.32,1.32-.49,2,.05,2.56.32,2.86.53.58a116.81,116.81,0,0,0-.63,15.19C845,813.76,845.27,813.83,845.41,812.41Z"/><path class="cls-3" d="M844.78,817c0-1,0-2-.07-3a.39.39,0,0,0-.08.1c0,1,.08,2,.12,3Z"/><path class="cls-3" d="M845.28,731.52c0-12.71.11-24.69.25-36.38a7.9,7.9,0,0,1-.28-2.74,22.8,22.8,0,0,0,.35-2.74c0-1.71,0-3.41.07-5.11a15.65,15.65,0,0,0-.07-1.8h0c-.11-1-.26-.67-.4-.08s-.23,1.27-.35,1.79c.08-.33.21-1.21.35-1.79a25.36,25.36,0,0,0,.28-2.75c-.05-1.55-.08-3.18,0-4.86a39.4,39.4,0,0,1,0,4.86c0,1,.08,1.94.12,2.88l.09.83c0-3.89.12-7.77.18-11.65,0-.89,0-1.74-.07-2.44-.12-2.81-.23-5.61.24-7.34v-2.09l-.09.41a5.24,5.24,0,0,1,.09-.79c0-2.92.11-5.86.16-8.81-.17-1.9-.39-3.87-.52-5.84,0,0,.32-1.32.49-2a15.82,15.82,0,0,1-.47-3.29c-.29,1.59-.62,3-.82,4.38-.49,2,1,4.42,0,6.75.92-2.33-.52-4.77,0-6.75.2-1.35.53-2.79.82-4.38a47.25,47.25,0,0,1,.5-9.28,30.44,30.44,0,0,1-.5,9.28,15.82,15.82,0,0,0,.47,3.29c-.17.65-.49,2-.49,2,.13,2,.35,3.94.52,5.84.11-5.75.21-11.57.32-17.51.76-38.23.79-73.49,1.4-113.15.36-21.48.85-42.12,1.5-62.37,1.27-40.37.13-77.2,2.72-118,.91-15.65.56-44.71.52-59.81-1.51-20.23-5.67-9.76-5.91-8.81-3.56,12.42-1.65,22.15-3.81,47.47,1.24-17.25,2.21,12.74-.26,29-3.76,23.56-1,57.19-2,86.27-.27,7.26-.13,15-.24,23.68-1.42,45.06,0,86.93-.51,134.31,0,12.56.81,23.59,1.26,34.17.13,7.72-.37,16-.4,22.25,0,9.87.27,18.37.67,26.51-.14-9.1-.38-15.74-.48-25.88,0-6.76,1.21,4.71,1.46,9.19.21,1.91-.87,4.92-.66,6.84,0,4.17.4,8,.66,12.47.2,1.92-.76,1.69-.65,2.65.19,6.1,1.4,10.81,1.12,14.71-.15,3-.31,5.62-.47,8.22-.06,1.65-.1,3.28-.07,5,.07,1.08.15,2.2.22,3.32a3,3,0,0,1,1-1.5c0,1.61-.28,3.89-.33,5.5,0-1.61.28-3.89.33-5.5a3,3,0,0,0-1,1.5c.54,8,1,17.3,1.39,25.91l.08-.12a114.78,114.78,0,0,1,.64-15.17c-.22,2.26-.49,2-.54-.59.17-.66.33-1.33.49-2,.25,4.49.51,9-.2,13.22,0,0,.21,1.92.31,2.87-.14,1.42-.44,1.36-.7,1.65,0,1,0,2,.07,3C844.64,738.13,845.28,731.52,845.28,731.52Z"/><path class="cls-3" d="M845.51,679.76c0,.68,0,1.53.07,2.42q.07-4.86.17-9.78C845.27,674.13,845.39,676.94,845.51,679.76Z"/></g></g></g><g class="cls-6"><path d="M166.81,515.3c-20.16-1.19-39.92,2-59.58,5.12,2,14.43,4,28.23,5.92,42.05-3.71,1-4.61-1-5.05-3-.94-4.3-1.71-8.64-2.34-13-1.05-7.26-2-14.55-2.87-21.55-2.89-3-6.07-2.89-9.45-2.12-5.12,1.17-10.31,2-15.34,3.48-2,.57-5.9-.74-5.33,3.76-4.5.71-9,1.66-13.51,2-1.76.14-2.43-2.6-.85-3.82a18.06,18.06,0,0,1,6-3.19c11.94-3.21,23.81-7,36-9.07,16.52-2.86,33.25-4.51,49.92-6.38a60.7,60.7,0,0,1,12.55.42C165.43,510.23,167.9,511.19,166.81,515.3Z"/><path d="M131.9,614.11l-11.28,2.15c1.47,2.21,2.49,3.51,3.24,4.94,1,2,2.4,4.11,2.68,6.29.22,1.8-.93,3.77-1.48,5.66-1.88-.57-4.13-.69-5.56-1.83-1.87-1.48-3.09-3.78-4.89-6.1-.46,1.09-.81,1.8-1.06,2.55-1.46,4.39-3.64,5.87-8.35,5.65-4.29-.2-6.79-2-7.7-6.07a55.08,55.08,0,0,1-.78-7.51c-.18-2.35-1.51-2.57-3.57-2.16-1.56,5,3.53,9.44,1,15.05-4.54-4.5-3.54-10.59-6.52-15.44H79.12c-2.66,5.41-.19,12.37-5.4,18.54-.55-2.54-1.18-3.83-1-5,.82-7.26,1.72-14.51,2.77-21.75.91-6.34,2-12.66,3.12-19.16,3.87.38,5.16,2.78,6.1,4.93a127.93,127.93,0,0,1,5.7,15.27c.8,2.71,1.74,4.15,5,3.52,1.7-7.68-3.07-15.13-1.86-24.24,4.2,4.22,3.33,8.66,4.37,12.35s1.3,7.82,2,12.13c5.76-1.62,10.44-.42,14,6.49.51-6.53,4.92-6.74,8.31-8C125.07,611.25,128.21,611.38,131.9,614.11Zm-29.79,16.22c2.76-.67,5.69-.52,7.14-1.92,2.29-2.2,1.31-5.44.06-8.19-1-2.26-2.6-3.9-5.33-3.27s-3.42,2.87-3.21,5.32C101,624.49,101.49,626.69,102.11,630.33Zm-20-34.43-1.69.15c-1,5.68-2.29,11.34-1.07,17.62l8.48-.47Zm35.92,24.29c.19,3.84,1,7.44,5.42,9.68C123.89,625.05,121.23,622.52,118.08,620.19Z"/><path d="M135,558.39c-1.3-.5-2.82-.62-3.26-1.37a8.62,8.62,0,0,1-1.29-4.68c.55-6.51,4.63-10.63,10.13-13.43s10.89-3.12,16.12.47a12.67,12.67,0,0,1,3.93,15.77c-2.59,5.53-9,8.78-14.57,7.41s-8.1-5.42-7.18-12.23c1.67,1.64,3,3.15,4.58,4.44,3.08,2.58,6.19,2.66,9.19.41a7.14,7.14,0,0,0,2.8-7.77c-1-3.2-4-5-8-4.73C139.65,543.12,133.9,550.06,135,558.39Z"/><path d="M380.71,597.05a22.44,22.44,0,0,1,6.45,15.74c.15,5.07-.71,10.18-.56,15.3,3.33-4.92.63-10.38,1.39-15.5s-1.75-10.12,0-15h1.31c.56,5.93,1.11,11.86,1.71,18.34a30.5,30.5,0,0,1,3.43-2.29c2.39-1.15,4.37-.34,4.81,2.2.87,5.08,1.34,10.23,2.11,16.37-4.14-2.49-2.86-5.59-3.46-8S397,619,395.38,616c-.93,1.71-2.36,3.32-2.7,5.14a21.26,21.26,0,0,1-7.12,12.47c-1.85-.44-3.26-2.21-6-1.34-3.05,1-6.51-4.18-6.25-8.47.27-4.72,2.18-7,7.51-8.84C381.63,609.58,377.84,604.16,380.71,597.05Zm-2,33.41c4.3-3.51,4.62-5.87,1.94-12.66C374.7,619.51,373.88,624,378.7,630.46Z"/><path d="M247.6,624.46c-1.07,1.63-2.36,4.92-3.31,4.82-4.19-.43-8.1,1.15-12.15,1-.82,0-1.76-1.12-2.36-1.93-3-4.06-1.53-11.85,2.8-14.6.56-.35,1.49-.15,3.85-.32-4.14,3.16-5.79,6.28-5.31,10.05.19,1.46,1.21,2.82,2,4.5,6.57-3.49,2.57-10.23,6-14.53,3.45,1.05,2,3.73,2,6s.24,4.73.46,8.43c4.6-5.31,3.38-10.63,4.52-15.33l9.59,1.16,8.79-2.37c.54,2.33,1.47,4.65,1.54,7a43,43,0,0,1-1.27,11.65c-3.91-4.4-.42-9.8-2.41-14.78-3.44,1-2.71,4.13-3.2,6.47s.45,5-1.59,7.35c-4.43-2.84-.21-8-4-10.89-1.55,1.21-1.05,3.28-1,5.15,0,2,.17,4.07.27,6.33C248.23,630,250,625.66,247.6,624.46Z"/><path d="M144.51,612.17c1.88,4.36-1.41,9.69,3.36,13.29,3.47-4.08,1.19-8.47,1.08-12.39,3-1.53,5.85-3,8.72-4.35a16.67,16.67,0,0,1,3.58-1.17c2.54-.55,5.2-.73,6.93,1.61,1.89,2.53,2.24,5.33-.31,8.9-.86-2.63-1.52-4.61-2.17-6.58-2.95-1.49-5.44-.35-7.74,1.16-3.64,2.39-4,4.76-1.31,8.35,1.48,2,3.27,3.91,4.34,6.14.59,1.22.56,3.74-.23,4.38-1,.79-3.27.74-4.59.14-1.61-.73-2.8-2.4-4.5-4-3.53,2.31-6.57,1.4-9-2.71a18.23,18.23,0,0,1-2.62,2.69c-1.31.85-3.29,2.31-4.13,1.87-1.62-.85-3.6-2.78-3.71-4.38a19.72,19.72,0,0,1,1.58-8.45c1.21-3,3.74-4.25,7.2-3.38C142,613.55,143.23,612.62,144.51,612.17Zm-3.58,2.68c-5.52,3.42-6.25,5.43-4.3,11.16C139.4,622.89,141.45,619.83,140.93,614.85Z"/><path d="M438.22,631.81c.12-1,.32-2.68.57-4.77-6.69-1.31-8.73-5.78-7.44-12.35q2.29,4.38,4.57,8.76c5.74-2.13,4.65-8.27,8.64-11.76.48,1.46,1.27,2.56,1.06,3.44-3.38,14.65-6.9,29.28-10.38,43.92-.14.61-.18,1.25-.36,1.85-1.52,4.85-4.86,5.61-8.36,1.92-7.1-7.47-7.16-15.64.27-22.65C429.92,637.21,433.78,635,438.22,631.81Zm-.61,5.07-1.26-.81c-2.52,2.09-5,4.25-7.56,6.26-6.78,5.26-5.21,15.55,2.55,19.73C433.46,653.55,435.53,645.22,437.61,636.88Z"/><path d="M201.54,600.75c-3.21-5.83-5.93-7.42-9.9-6.53s-8.69,6.26-9.15,10.35c-.41,3.72,1.49,7.17,6,8.56s9.43,1.85,14.17,2.63c5.51.89,8.57,4.19,8.95,9.66.15,2.1-.38,3.76-2.43,4.62-6.78,2.83-17.45,3.16-23.65-3-2.93-2.93-2.75-4.45,1.35-7.81-.94,5.24,2.13,7.35,6,8.47a22.3,22.3,0,0,0,15.8-.74c-1-6.78-1.86-7.72-7.5-8.49-3.12-.43-6.35-.5-9.33-1.39a26.56,26.56,0,0,1-8.38-4c-3.51-2.65-4.42-6.62-3-10.79a16.22,16.22,0,0,1,9.11-9.94C195.16,589.83,200.25,592.91,201.54,600.75Z"/><path d="M322.62,620.5c.73,4.25-2.44,6.16-4.89,8.21-3.59,3-7.61,5.59-12.63,3.75s-6.93-6.35-7.28-11c-.66-8.78.51-17.32,7.84-23.53,4.5-3.82,10-2.43,12.44,2.89.89,2,.89,2-1.23,5.69a15.1,15.1,0,0,0-.49-3.68c-1.8-4.49-5.82-5.25-9.51-2.12-6,5.07-7.77,19.46-4.92,24.65,2.51,4.58,5.8,6.17,10.3,3.46C315.91,626.66,319,623.49,322.62,620.5Z"/><path d="M216.41,630.19c-3.3-.5-2.72-3.35-3.06-5.32-1.48-8.69-2.78-17.4-4.11-26.12a13.39,13.39,0,0,1,.09-5c4.63,7.16,3.84,15.79,6.26,23.52.52-.14,1-.14,1.23-.37,1.61-1.54,2.66-4.27,5.46-3.52,3,.81,3.08,3.71,3.34,6.18a68.21,68.21,0,0,1,.35,12.14c-4.69-3.82-1.84-9.86-4.41-14.34C218.3,620.59,218.3,620.59,216.41,630.19Z"/><path d="M404.73,617.21l2.2,11.6c4.87-3.89,5.11-5.49,3.1-16.16,3.47-.51,2.87,2.89,4.23,4.38,2-.94,3.91-2.19,6-2.72a7.41,7.41,0,0,1,5.71,1.18l-5.8,1.93a63.9,63.9,0,0,1,4.08,7.24c.45,1.07.2,3.18-.56,3.81a4.37,4.37,0,0,1-4,.14,46.54,46.54,0,0,1-5.93-4.5,31.91,31.91,0,0,1-2.33,4.87c-1.88,2.86-4.89,2.78-6.47-.24A12,12,0,0,1,404.73,617.21Zm15.56,8.86,1.32-.84q-1.32-2.16-2.66-4.3l-1.4.89Z"/><path d="M327,617.09c7.58-3.84,9.93-2.44,10.83,6,.45,4.24.31,5.17-1.49,9-1.83-2.35-.84-4.94-1.29-7.22s-1-4.7-1.64-7.5c-6.11,2.91-3.95,9.33-7.83,14.12-1.21-12.38-2.28-23.4-3.35-34.41l1.28-.22C326,603.33,325.88,610.31,327,617.09Z"/><path d="M365.21,613c7.2,4.78,8.48,13.12,3.47,18.84L363.76,629a20.24,20.24,0,0,1-2.64,2.13c-2.6,1.48-4.21.86-5.4-1.91a20.21,20.21,0,0,1,0-13c.88,4.21,1.75,8.43,2.62,12.6,6.5-1.11,1.57-8.34,6.49-10.46.75,3.45,1.43,6.55,2.38,10.91,3-3.88,1.57-6.45.61-9C366.9,617.85,366.07,615.44,365.21,613Z"/><path d="M280,616.71c-4.75-3.64-5.72-3.44-9.23,2,2,.44,3.68.84,5.39,1.18a45,45,0,0,1,6.16,1.19c2.85,1,3.63,3.9,1.89,6-2.45,3-10.49,4.3-13.42,1.91-.9-.73-1.1-2.31-1.3-4,4.3,2.74,8.22,2.87,12.74-.47-3.1-2-6.27-1.57-9.11-2.23-2.31-.54-4.63-.93-4.89-3.93-.25-2.84,2.26-5.83,5.57-6.71,3.12-.83,5.52.06,6.83,2.67C280.77,614.82,280.29,615.54,280,616.71Z"/><path d="M339.25,622.44c-.06-4.58,1.89-6.64,6.27-6.63,4.88,0,7.39,2.71,7.44,8,0,5-2.45,8.23-6.44,8.39C342.05,632.36,339.34,628.72,339.25,622.44Zm3.5-.78c-.11,4.77,1.54,7.43,3.79,7.18,2.62-.29,3.24-2.28,3.42-4.44.27-3.23-1.79-6-4.32-5.42C344.29,619.3,343.3,621.11,342.75,621.66Z"/><path d="M190.27,555.85c-.74,7.53-4,14-8.28,20.13A54,54,0,0,1,190.27,555.85Z"/></g></g></g></svg>