<svg xmlns="http://www.w3.org/2000/svg" viewBox="0 0 90.04 25.22"><g id="Layer_2" data-name="Layer 2"><g id="Layer_1-2" data-name="Layer 1"><path d="M42.23,24.72c-.57-4.3-1.13-8.59-1.76-13.35-6.9,2.91-2.22,9.28-5.54,13.33-3.67-3.11-.87-7.84-3.39-11.12C25.59,15.42,30.16,20.2,29,23.83c-4.17-2.56-4.49-7-6.43-11L25.74,14c3-5.68,9.23-3.84,14.09-5.33,3.1-.94,3.66,2.68,5,5.39,3.64-4.8,8.15-2.38,12.54-1.83,1.52,2.2-.68,6.1,3.71,7.57.4-3,.78-5.86,1.15-8.7l1.7,0c.86,4.24,1.72,8.48,2.74,13.55L55.62,21.31c-1,.54-2.73,2.18-4.45,2.17s-3.65-1.56-5.89-2.64l-2,4ZM55.28,14.14C51.85,12.87,49,12.47,48,15.84c-.79,2.65.82,4.58,4.17,5.12C53.15,18.85,54.05,16.84,55.28,14.14Z"/><path d="M19.35,3.63H4.93c.41,3,.75,5.65,1.15,8.63l13.73.86C15,17,10.52,14.23,6.14,16.14l1,5.93H23.11c0,.86.12,1.52,0,1.58-5.45,2.28-11,1.48-16.5.32-2.25-.48-3-2.69-3.15-5-.22-3.56-.34-7.15-.91-10.66C2.12,5.83,1,3.43,0,.2A111.28,111.28,0,0,1,19.47,1.74Z"/><path d="M74.43,25a12.11,12.11,0,0,1-2.28-.37,1.88,1.88,0,0,1-.86-.86,13.11,13.11,0,0,1-.9-3C69.52,13.93,68.71,7,68.29,0,74,7.28,71.94,16.35,74.43,25Z"/><path d="M88.77,8.22c.18.91.3,1.12.25,1.3-.73,3-2.81,4-5.52,3.15-.68-.21-1.51-2.28-1.19-3C83.7,6.59,86.23,7.52,88.77,8.22Z"/><path d="M84.37,24.62c0-3,.67-5.07,3.77-4.56.79.13,2.06,1.82,1.89,2.49C89.33,25.3,87.33,25.81,84.37,24.62Z"/></g></g></svg>