<svg xmlns="http://www.w3.org/2000/svg" viewBox="0 0 2360 369.95"><g id="Layer_2" data-name="Layer 2"><g id="Layer_1-2" data-name="Layer 1"><path d="M0,186c37.26-1.45,74.58.35,111.83-3.38,17.82-1.79,36-.69,53.94-.44,22.44.3,21.62-4.78,17.33-22.06-4.88-19.66-3.39-39.73-3-59.7a43.33,43.33,0,0,0-.56-9.81,3.15,3.15,0,0,0-4.8-1.81,28.51,28.51,0,0,0-7.15,6.74c-13,18.47-18.74,39.47-21.14,61.6-.28,2.61,0,5.37-.79,7.8-.69,2.15-3,2.21-5,1.42a3.5,3.5,0,0,1-1.6-1.12c-10.7-16.77-17.38-34.58-11.95-54.7a76.86,76.86,0,0,1,18.17-33c2.73-2.91,5.61-5.7,8.28-8.67,1.69-1.9,4.09-4.25,1.82-6.72-2.06-2.23-5-.49-7.39.38a53.74,53.74,0,0,0-17.08,10.15c-6.07,5.24-11.75,10.82-16.3,17.5a69.93,69.93,0,0,1-6.26,7.7c-1.77,1.93-5.85.75-6.54-1.78-.53-1.9-1.44-3.93-1.2-5.77,1.62-12.56,3.32-25.15,7.79-37.07,6.43-17.11,18.67-25,37.09-24.15,4.63.22,9.22,1.29,13.85,1.87,2,.25,4.33-.17,4.86-2.22a8.69,8.69,0,0,0-.77-5.6c-3.2-6.39-8.8-9.69-15.53-11.52-4.4-1.19-9.48.2-14.11-4.3C140.26.2,148.61-.37,157.17.14c8,.48,16.05,1.33,22.44,7,6.56,5.86,8,15.17,13.2,21.31,6,.32,7-4.47,9.71-7C215.64,9.13,229,7.94,244.14,18.08A7.72,7.72,0,0,1,247,22.91c.32,2.2-1.72,3.28-3.73,3.75-6.48,1.5-13,2.73-19.41,4.54-2.42.68-4.5,2.61-6.66,4.09a1.9,1.9,0,0,0-.58,1.72c.51,1,1.21,2.58,2.08,2.76a22.53,22.53,0,0,0,5.92,0C248,38.42,264,50.51,275.47,69.1c6.9,11.18,8.34,23.84,2.64,36.39-.73,1.58-2.72,3.49-4.21,3.57s-3.72-1.75-4.29-3.26c-1.65-4.32-2.11-9.13-3.95-13.35-6.64-15.28-18.8-22.82-35-25.15-1.41,5.36,2.29,6.78,4.45,8.81,11.72,11.06,15,24.71,12.75,40.14-1.08,7.25-2.27,14.5-5.83,21.07-1.31,2.42-3.08,4.51-6,4.42-3.56-.11-3.92-3.19-4.12-5.75-.41-5.31-.24-10.66-.72-16-1.37-15.2-10.26-25.58-22.28-33.79a5.74,5.74,0,0,0-8.41,2.4c-1.21,3.07-2.55,6.26-2.84,9.49-2.23,24.88,1.13,49.16,8.31,73,2.62,8.7,8,13.46,17.46,13.27,8.66-.17,17.32-.07,26,0,7.22.08,13.09-2.46,16.89-8.73,7.73-12.73,18.88-20.32,33.5-23a3.62,3.62,0,0,0,2.05-2.83,4.6,4.6,0,0,0-2-3,31.19,31.19,0,0,0-5.37-2.57c-3.51-1.46-8.27-.51-10.18-5-1.19-2.8,5.8-7.66,12.08-8.68a16,16,0,0,1,11.48,2.31c3.34,2.15,6.31,4.87,9.55,7.19,5.28,3.78,6.55,3.52,11.53-1.89,2.69-2.92,5.15-6.12,8.17-8.67A18.09,18.09,0,0,1,350,125.08c3.4.18,7,.62,8.81,3.7,2.32,3.95-1.18,5.83-3.78,7.84-2.09,1.62-4.42,3.07-6.1,5.06-1.92,2.27-1.92,5,1,6.72a25.61,25.61,0,0,0,5.58,2.11c13.4,4.12,23.6,12.27,29.95,24.74,3.47,6.81,8.53,9.69,16,9.41,17.3-.64,34.58-.16,51.91-1.54,31.23-2.5,62.59-1.74,93.87,0,30.59,1.65,61.13,4,91.72,5.55C685.52,190.9,732,193.84,778.27,200c13.2,1.77,26.46,3.22,39.74,4.21,32.55,2.4,64.86,7,97.37,9.88,35.83,3.18,71.66,5.62,107.52,8.25,59.26,4.37,118.55,2.37,177.81,3.7,12.65.28,25.31-.08,37.9,1.78a78.43,78.43,0,0,0,14,.59c53.29-1.81,106.51,1.87,159.79,1.51,89.29-.59,178.59.58,267.88-1.36,41.72-5.64,83.85-1.89,125.72-5.72,26.47-2.42,53.26-1.43,79.92-1.79,20-.26,40-.25,60-.31a366.45,366.45,0,0,0,37.89-2c12.55-1.34,25.28-1.33,37.93-1.42,24-.19,48-.47,72,.08,43.37,1,86.52-3.15,129.77-4.9a232.19,232.19,0,0,0,27.77-3.21c26.92-4.35,54.41-4.5,81-11.38,9-2.32,18.52-2,27.79,0v4c-20.44,6.09-41.43,9.78-62.46,12.78-28.34,4-56.82,7.18-85.32,10-24.52,2.41-49.11,4.59-73.72,5.42-33.3,1.12-66.65.83-100,1.19-7.33.07-14.72-.23-22,.57-42.47,4.67-85.2,3.35-127.77,5.76-28.6,1.62-57.46-.3-85.92,2.34-41.89,3.9-83.89,2.11-125.8,5.37-36.48,2.84-73.28,1.81-109.94,1.93-52,.18-104-.79-156-.07-52.63.72-105.18-3.28-157.81-1.8-3.31.09-6.63-.54-10-.74-9.31-.53-18.61-1.3-27.93-1.47-57.28-1-114.55-1-171.85-3.51-58-2.52-115.55-9.07-173.22-14.31-32.42-2.95-65-6.2-97.26-10.95-14.53-2.13-29.05-3.64-43.72-4.39-20.62-1.05-41.29-2.08-61.78-4.5-37.12-4.39-74.49-4.18-111.7-6.08-51.19-2.61-102.62-.71-153.95-.63-7.31,0-14.63.68-21.95,1.14-3.84.23-6.16,2.5-6.54,6.21-.42,4.28,1,8,5.31,9.67a19,19,0,0,0,5.86,1.08c4,.21,8,.34,12,.23,48.78-1.42,97.12,4.44,145.52,9.13,6,.58,11.83,2,17.78,2.74,6.45.79,13,1.22,21.66,2-3.56,1.58-4.71,2.5-5.88,2.55q-62,2.24-123.91-1.18c-23.93-1.34-48-.79-72-1a31.41,31.41,0,0,0-6,.56c-5.23,1-9.81,5.68-8.68,9.22,1.61,5,6.3,4.2,10.06,4.23,31.33.28,62.68,1.1,94,.38,65.28-1.5,130.61.44,195.89-3.28,24.5-1.4,49.23,1.67,73.87,2.18,146.6,3,293.28-2,439.87,3.93,35.94,1.45,71.91,1.42,107.87,3.51,44.54,2.58,89.23,3.12,133.83,4.38,93.29,2.64,186.65,2.31,280,.12,30.62-.72,61.19-3.42,91.87-3.39,24.66,0,49.37.22,74-1.24,49.24-2.94,98.49-3.88,147.79-3.6,64.65.37,129.25.84,193.87,4.08,50.55,2.53,101.3,1.13,152,1.49v32c-3.94.5-7.87,1.15-11.83,1.46q-23.77,1.84-47.57,3.48c-5.67.39-10.13,2.32-13,7.58-1.93,3.5-1,6.49,3.09,7.19,23,4,46.14,4.32,69.34,4.29v60H0V330c22.56-1,45.11-1.45,67.59,1.46,4.6.6,9.35,1.4,13.89.86,25.15-3,50.44-2.58,75.67-3.69,7.33-.32,14.59-1.15,21.44-4a4.21,4.21,0,0,0,2.34-2.75c.1-.9-1-2.29-2-2.83a7.84,7.84,0,0,0-3.87-.73c-25.94.42-51.66-3.5-77.65-3.29-32.53.25-65.2,1-97.45-5.05V278c14-.45,28,0,41.85-1.52,34.49-3.78,69.05-2.84,103.6-2.53,17.24.15,34.46,2.31,51.71,2.89,6.09.2,13.74,3.61,17.91-3.86,2.11-3.77-4.56-7-18.15-6.65-54.56,1.56-108.94-3.32-163.44-4-11.33-.15-22.6-.73-33.48-4.32V238c16.65-1.14,33.15,1.54,49.71,2,45.83,1.31,91.69,1.54,137.54,2.14a34.92,34.92,0,0,0,7.88-.93,4.47,4.47,0,0,0,2.88-2.25c1-2.55-1.1-3.82-3-4-12.54-1.35-25.08-3.25-37.65-3.53C104.87,230.2,52.54,225,0,226V210c23.9-2.49,48-1.94,71.67.43,32.45,3.25,65.16,1.34,97.47,6.28,6.43,1,13.25.08,19.8-.7,4.56-.55,6.59-7.05,4.13-11.29-1.78-3.06-4.34-5.24-7.78-5.61a159.5,159.5,0,0,0-17.87-1.13c-55.83.33-111.7-1-167.42,4Zm1412.91,96.27c-5.88-3.79-11.88-2.81-17.46-3-36-1.47-71.92-1.88-107.89-3.42-65.22-2.78-130.55-3.43-195.85-4.25-52-.65-104,.15-156-.36-69.3-.68-138.58-1.23-207.88-3.32-79.25-2.4-158.63-.52-238-.41A149.6,149.6,0,0,0,474,268.55a284.42,284.42,0,0,1-57.9.39c-25.31-2.44-50.62-1.35-75.93-2a29.31,29.31,0,0,0-9.82,1.3c-2.48.82-4.6,3.18-3.79,6.2.46,1.7,1.92,4.06,3.35,4.41a63.5,63.5,0,0,0,13.71,1.89c52.63,1,105.26,1.68,157.88,3.82,42.6,1.74,85.31,1,128,1,42,0,84-1.35,126-.66,42.63.7,85.21-2.88,127.82-.43a10.27,10.27,0,0,0,2,0c22.61-2.78,45.15-.87,67.81-.18,59.27,1.82,118.61.74,177.86,4.54,17.27,1.11,34.63.27,51.85,3,5.84.94,12,.5,17.94.22,41.91-2,83.8-4.44,125.73-6.15,24-1,48-.79,72-1.3C1402.82,284.46,1407.54,285.8,1412.91,282.23ZM610.05,323.82c30.19,3.14,93.91,3,121,.25,1.62-.16,2.1-1.37,1.52-3C711.4,317.53,680.61,318.09,610.05,323.82ZM237.64,198c-4.43.43-9.07.65-13.62,1.4-4.07.66-5.84,5.12-4.26,9.41,1.46,4,3.76,7.08,8,8a55.93,55.93,0,0,0,23.68,0c4.38-.92,6.7-4.14,6.73-8.63s-2.11-7.83-6.54-8.71S242.48,198.43,237.64,198Zm803.67,129.66c24.46,3.12,175.16,2.44,186.64,0Zm1085.29-6.78c0-.31,0-.62,0-.93-20.42-1.54-40.84-3.25-61.29-4.49-5.94-.37-12,.55-17.94.94-9.3.61-18.59,1.42-27.9,1.85-11.28.51-22.58.7-33.87,1l0,1.6ZM262.4,245.09c7.22-.4,14.5-.72,21.76-1.34.82-.07,2-1.82,2.11-2.9s-.36-2.93-1.19-3.46c-2.18-1.37-4.62-2.87-7.08-3.12a119.55,119.55,0,0,0-15.95-.36c-7.3.25-14.6.73-21.88,1.39-2,.19-3.95,2-3.49,4,.37,1.59,2.33,3.78,3.81,4C247.72,244.2,255,244.54,262.4,245.09Zm15.68,21.17,0,.59c-6.6,0-13.2-.13-19.79.06-2.92.08-5.17,1.85-4.55,4.93.33,1.61,2.17,3.8,3.67,4.13a105.74,105.74,0,0,0,41.19.38,5.15,5.15,0,0,0,1.7-1,4.19,4.19,0,0,0,2-5c-.36-1.08-1.55-2.58-2.47-2.67C292.56,267.05,285.32,266.7,278.08,266.26ZM898.36,307.2c-29.69.23-55.44-1.17-81.05,2.62-3.22.47-6.38,1.29-9.54,2.08-.48.12-.94.85-1.15,1.4-.53,1.42,0,2.84,1.62,3a49.89,49.89,0,0,0,9.85.09C843.53,313.54,869,310.58,898.36,307.2Zm948.93-27.64c-15.8-2.33-100.45-1.57-120.67,1.08C1778.74,282.76,1832.41,282.28,1847.29,279.56Zm-102.67,28.71c-19.2-3.13-83.6-3.16-102.1.17A862.57,862.57,0,0,0,1744.62,308.27ZM318.86,207.72c0-4.55-3.22-8.09-6.84-7.48a11.28,11.28,0,0,0-9.41,10.62c-.13,3.91,2.76,5.48,6.31,5.66C315.44,216.86,318.84,213.8,318.86,207.72Zm19.58-7.31c-3.81.75-5.77,7-3.69,11.75,1.76,4.05,7.9,6,11.74,3.39,3.6-2.42,2.41-5.89.84-8.77a21.49,21.49,0,0,0-5.12-5.7C341.37,200.37,339.72,200.6,338.44,200.41Zm2.92,31.38a33.4,33.4,0,0,0-4.8,1.62c-2.79,1.36-3.4,6.65-1.14,8.7,3.72,3.37,11,4.1,14.66,1,2.26-1.91,2.05-4.81.61-7.25C348.82,232.7,345.68,231.77,341.36,231.79ZM314,238.32c.22-3.83-2.9-6.49-7.85-6.51-3.42,0-6.51,1-7.52,4.65-.9,3.23,2.81,7.08,7,7.67C310.1,244.75,313.77,242.21,314,238.32Zm-28.93-33.21c-.81-1.85-1.08-3.8-1.89-4.05-1.7-.54-4-.83-5.47-.09-3.94,2-5,5.91-5.48,10-.21,2,.43,4,2.46,4.84,2.74,1.09,5.54.47,7-2.06C283.26,210.92,284.09,207.68,285.07,205.11Zm86.25-23.22a5.28,5.28,0,0,0-5.46-4.63,1.76,1.76,0,0,0-1.51,2.83,12.83,12.83,0,0,0,4.23,3.68C369,184,370.38,182.57,371.32,181.89Z"/><path d="M2360,174c-44,.35-87.76,4.36-131.57,7.69-21.24,1.62-42.54,2.28-63.78,4.25-27.83,2.58-55.92,2.58-83.69,5.54-28.6,3.05-57.29,1.44-85.79,3.6-79.18,6-158.47,2.42-237.69,4.24-27.28.63-54.55,2.06-81.83,2.62-36.63.77-73.29.51-109.91,1.72-23.94.8-47.84,2.74-71.84,2.45-14.65-.18-29.31.37-43.87-1.93a39.74,39.74,0,0,0-10-.56c-22,2.16-43.9-.77-65.84-.62-6,0-12,0-18,.49-66.78,5.87-133,1.68-198.8-10.75-8.6-1.63-17.18-1.85-25.85-1.91-4.53,0-9.39,1.21-13.32-2.3.1-3.43,2.68-4.44,5.21-5a65.06,65.06,0,0,1,27.77-.76c49.92,10,100.4,11.15,151.11,11.86,37.28.53,74.43-2.43,111.73-1,36.58,1.43,73.27.47,109.91.31,37.31-.16,74.7.84,111.91-1.31,47.25-2.72,94.49-3.23,141.77-3.65,32.64-.3,65.3.15,97.93-.54,41.27-.87,82.52-2.59,123.79-3.85,9.3-.28,18.61-.15,27.92-.26,6-.07,12,0,18-.41q47.81-3.35,95.6-7c26.55-2,53.08-4.37,79.62-6.43,22.57-1.76,45.16-3.29,67.73-5,13.94-1.05,27.85-2.48,41.81-3.24,10-.53,20-.23,29.94-.3Z"/></g></g></svg>