<svg xmlns="http://www.w3.org/2000/svg" viewBox="0 0 970.31 40.95"><defs><style>.cls-1{opacity:0.85;}.cls-2{fill:#202020;}</style></defs><g id="Layer_2" data-name="Layer 2"><g id="Layer_1-2" data-name="Layer 1"><g class="cls-1"><path class="cls-2" d="M891.36,13.45c-3.23-.22-6.49-.52-9.75-.66A24.92,24.92,0,0,1,886.48,14C888.59,14.5,889.73,13.93,891.36,13.45Z"/><path class="cls-2" d="M872.59,12.32l-1.73-.09-1.49.21C870.44,12.39,871.52,12.35,872.59,12.32Z"/><path class="cls-2" d="M855.6,12.7a71.19,71.19,0,0,0,8.64,0A45.81,45.81,0,0,0,855.6,12.7Z"/><path class="cls-2" d="M869.1,13.64c-1-.46-1.53-.93.2-1.19h.07c-1.69.06-3.37.18-5.13.27A25.76,25.76,0,0,1,869.1,13.64Z"/><path class="cls-2" d="M869.1,13.64c1,.45,2.58.89,3.12,1.15A24.58,24.58,0,0,0,869.1,13.64Z"/><path class="cls-2" d="M864.61,23.71c-1.7.3-1.25-2.57-4.61-2-3.94.35-7.59.81-11.18,1.21a91.78,91.78,0,0,1-10.79.77c-1.67.33-3.83-.31-6-.93s-4.34-1.21-6-.87c-7.9.88-28,5.23-16.1,4.79,8.93-.43,16.28-.79,23.42-1.2L844,25l5.52-.24,5.8-.12,9.67-.76c3.21-.28,6.4-.42,9.61-.64l9.69-.56,9.86-.25a80.91,80.91,0,0,1,10.66,1l-3.42-.64-3.5-.55-7.41-1.09a22.38,22.38,0,0,0-5.41-.2c-1.91.13-3.94.5-6.09.87A103.06,103.06,0,0,1,864.61,23.71Z"/><path class="cls-2" d="M962.49,24.1,957.31,24a34.84,34.84,0,0,0-11.18-3.3c-2-.29-3.92-.5-5.9-.66s-4-.3-6-.31c1.08.61,2.18,1.22,3.28,1.9,4.5.56,5.15-.15,1.25-1.41A106,106,0,0,0,951.92,24c4.34,1,8.64,2,13,2.71C964.58,25.85,964.88,25,962.49,24.1Z"/><path class="cls-2" d="M970.14,27.55,965,26.73a1.46,1.46,0,0,0,.14.28l5.21.64Z"/><path class="cls-2" d="M819.68,15.47c-22.48.5-43.64,1.08-64.31,1.28-1.57.6-2.67,1.27-4.81,1a29.12,29.12,0,0,0-4.87-.91h-9l-3.17.27-.09,0c-1.69.35-1.18.79-.13,1.2a24,24,0,0,1,3.18,1c-.59-.23-2.15-.59-3.18-1a28.5,28.5,0,0,0-4.86-.74,69.75,69.75,0,0,1-8.6.15,45.1,45.1,0,0,1,8.6-.15l5.08-.48L735,16.8c-6.88,0-13.72-.13-20.57-.26-1.58.08-3.08.15-4.31.25-5,.32-9.92.64-13-.8l-3.67-.14c.22.09.47.17.7.27-.54-.09-1-.19-1.37-.29-5.16-.29-10.33-.51-15.52-.87-3.38.39-6.87.95-10.36,1.18l-3.42-1.62a16.72,16.72,0,0,1-5.86,1.13c2.76,1,5.26,2.09,7.61,2.81,3.43,1.64,7.94-2.54,11.94.36-4-2.9-8.51,1.28-11.94-.36-2.35-.72-4.85-1.8-7.61-2.81a46.76,46.76,0,0,1-16.28-2.41c6.43-.79,11.69.7,16.28,2.41a16.72,16.72,0,0,0,5.86-1.13l3.42,1.62c3.49-.23,7-.79,10.36-1.18-10.13-.64-20.35-1.46-30.8-2.36C612.87,9.54,580.56,6.18,547.7,4,531.27,3,514.72,2.2,497.82,2s-34.05.12-51.67.72C408,4,371.42,6.56,335.72,8s-69.31,4.06-103,4-67.6-3.08-103.55-8.55C115.35,1.48,95.4.24,75.36,0c-5-.08-10,0-14.94,0S50.67.33,46.05.46c-2.31.06-4.58.19-6.78.32l-6.41.36c-4.13.19-8,.54-11.41.81C12.3,3.68,6.75,6.08,3.6,8.19S-.3,12.45.1,14.31C.92,18,6.31,20.77,7.17,21a66.83,66.83,0,0,0,8.31,2.44A65.63,65.63,0,0,0,23.55,25c2.71.36,5.43.47,8.28.66s5.8.23,8.93.26c12.49.23,27.86.08,49.95,3.83-7.53-1.13-9.89-1.95-8.76-2.64a12.67,12.67,0,0,1,4.12-.81c2.12-.18,4.9-.25,8.14-.24,13,0,33.29,2,47.47,6.38C162.15,39,187.57,41,214.56,41c13.51-.09,27.38-.64,41-1.42l20.34-1c6.73-.24,13.33-.59,19.85-.63S309,37.28,316,36.74s14.25-1.25,21.93-1.84c40-1.69,78-5.85,116.18-8.31,19.13-1.24,38.24-2.08,57.78-1.88s39.6,1.14,60.34,2.82c22,1.52,41.67.46,60.52.3,13.7.48,28.32,2.74,39.56,3.22,4.41.18,8.67.3,12.83.28s8.17,0,12.09-.21,7.75-.35,11.5-.57,7.42-.59,11-.9l-11.52.43-10.91.33-5.53.14L686,30.6l-6.08,0-6.53-.1c-12.09-.35,8.55-3.28,16.55-3.94,3.42-.51,8.73,2.7,12.18,2.11,7.45.15,14.28-1.21,22.23-2,3.41-.66,3,2.23,4.74,1.88A96.49,96.49,0,0,0,743.6,26c4.29-1,8.08-1.81,11.54-1.49l14.6.95c2.92.08,5.81.13,8.88-.07l5.84-.88a6,6,0,0,1-2.73-3c2.85.08,6.88.61,9.73.69-2.85-.08-6.88-.61-9.73-.69a6,6,0,0,0,2.73,3c14.14-2.09,30.43-4,45.61-5.42l-.21-.26c-4.44.21-8.83.29-13.26.1A107.22,107.22,0,0,1,803,17.6c4,.54,3.53,1.35-1,1.63l-3.53-1.36c7.91-1,15.82-2,23.36,0l5.06-1.05c2.51.37,2.41,1.27,2.94,2l5.25-.27a60.1,60.1,0,0,0-9.1-2.08C822.62,15.89,819.68,15.47,819.68,15.47Z"/><path class="cls-2" d="M728.2,17.47c1.21-.11,2.7-.2,4.28-.29-5.75,0-11.5-.18-17.28-.28C718.26,18.29,723.23,17.9,728.2,17.47Z"/></g></g></g></svg>