<svg xmlns="http://www.w3.org/2000/svg" viewBox="0 0 408.73 408.86"><defs><style>.cls-1{fill:#fff;}</style></defs><g id="Layer_2" data-name="Layer 2"><g id="Layer_1-2" data-name="Layer 1"><path d="M0,216.42V192.47c.25-1.42.54-2.82.73-4.24,1.2-8.56,1.81-17.23,3.64-25.64C15.12,112.94,40.5,72.23,81.05,41.64c46.38-35,98.86-47.85,156.18-38.88,46.23,7.24,85.66,28.38,117.18,63,43.42,47.67,60.61,104,52.29,167.86C403.19,260.56,394,285.68,380,309a8.26,8.26,0,0,0-1,7.1c6.51,23.83,12.86,47.71,19.24,71.58,1.22,4.54,2.37,9.1,3.67,14.12-1.4-.3-2.15-.42-2.89-.61-27.34-7.31-54.7-14.55-82-22a10.41,10.41,0,0,0-8.93,1.28,194.57,194.57,0,0,1-66.46,24.86c-8.61,1.53-17.35,2.38-26,3.54H192.47a22.22,22.22,0,0,0-3.08-.65,188.94,188.94,0,0,1-71.67-18.73C55,358.59,16.65,308.75,3.22,240,1.7,232.24,1.05,224.29,0,216.42ZM229.94,275V159.86H159.89v38.39h18.6v76.86H159.87v38.23H249V275Zm.11-154.12c-.09-14-11.87-25.68-25.77-25.48a25.77,25.77,0,0,0-25.43,25.82c.1,14,11.91,25.71,25.77,25.5A25.83,25.83,0,0,0,230.05,120.86Z"/><path class="cls-1" d="M229.94,275H249v38.36H159.87V275.11h18.62V198.25h-18.6V159.86h70.05Z"/><path class="cls-1" d="M230.05,120.86a25.83,25.83,0,0,1-25.43,25.84c-13.86.21-25.67-11.48-25.77-25.5a25.77,25.77,0,0,1,25.43-25.82C218.18,95.18,230,106.83,230.05,120.86Z"/></g></g></svg>