<svg xmlns="http://www.w3.org/2000/svg" viewBox="0 0 207.57 202.19"><defs><style>.cls-1{opacity:0.85;}.cls-2{fill:#202020;}</style></defs><g id="Layer_2" data-name="Layer 2"><g id="Layer_1-2" data-name="Layer 1"><g class="cls-1"><path class="cls-2" d="M51.4,201.44l5.48.37a10.05,10.05,0,0,1-2.73-1.14C53,200.29,52.32,200.91,51.4,201.44Z"/><path class="cls-2" d="M62,202.13l1,.06.84-.23C63.17,202,62.56,202.08,62,202.13Z"/><path class="cls-2" d="M71.54,201.64a22.63,22.63,0,0,0-4.87,0A14.68,14.68,0,0,0,71.54,201.64Z"/><path class="cls-2" d="M64,200.75c.57.45.85.91-.13,1.2h0l2.89-.31A9.88,9.88,0,0,1,64,200.75Z"/><path class="cls-2" d="M64,200.75c-.56-.43-1.45-.85-1.75-1.1A10.25,10.25,0,0,0,64,200.75Z"/><path class="cls-2" d="M66.62,190.65c1-.3.67,2.57,2.58,2,4.45-.69,8.26-1.93,12.41-1.88,1.9-.61,4.85,2.61,6.75,2,4.46-.75,15.82-4.63,9.13-4.46-10,.4-16.61,1.11-25.62,1.45L61,191.25c-3.64.51-7.29,1-11.07,1.32a31.46,31.46,0,0,1-6-.57c2.51.6,5.14,1.15,8.06,1.7C55.79,194.67,60.59,191.12,66.62,190.65Z"/><path class="cls-2" d="M11.37,191.84c1,.15,3.07.33,3.07.33,3.18,3.63,8,4.4,12.6,4.63-.53-.63-1.07-1.24-1.6-1.88-2.51-.51-3.05.15-1,1.39a84.58,84.58,0,0,0-13.68-7.08C10.71,190.06,10.23,190.86,11.37,191.84Z"/><path class="cls-2" d="M8.05,188.05l2.73,1.18a2.44,2.44,0,0,0,0-.27c-.95-.32-1.88-.68-2.8-1Z"/><path class="cls-2" d="M91.82,199.28c12.68-.05,24.62,0,36.27.17.89-.57,1.51-1.22,2.72-.9a10.65,10.65,0,0,0,2.75,1l5.09.09,1.79-.25h.05c.95-.34.66-.78.06-1.2a10.21,10.21,0,0,1-1.79-1c.33.24,1.21.62,1.79,1a10.32,10.32,0,0,0,2.75.79,22.21,22.21,0,0,1,4.85-.17,14.22,14.22,0,0,1-4.85.17c-1,.12-1.92.28-2.86.42l-.83.28,11.62.27c.89-.08,1.73-.15,2.42-.26,2.8-.41,5.59-.83,7.33.56l2.07.07c-.12-.09-.27-.16-.4-.26a6.9,6.9,0,0,1,.78.27l8.78.3c1.89-.55,3.85-1.25,5.8-1.67l2,1.44a6.55,6.55,0,0,1,3.26-1.45c-1.58-.86-3-1.8-4.37-2.39-2-1.44-4.39,2.91-6.73.21,2.34,2.7,4.75-1.65,6.73-.21,1.35.59,2.79,1.53,4.37,2.39a13,13,0,0,1,2.21-.2c.74,0,1.64.06,2.51.07a32.46,32.46,0,0,0,5.56-.34,7.33,7.33,0,0,1-5.73,2.08,7.68,7.68,0,0,1-1.37-.22,9.13,9.13,0,0,1-1.12-.39c-.71-.3-1.4-.64-2.06-1a6.55,6.55,0,0,0-3.26,1.45L178,199c-1.95.42-3.91,1.12-5.8,1.67l8.65.33,4.37.18,1.13,0c.46,0,.92,0,1.38,0a17,17,0,0,0,2.8-.41,13.84,13.84,0,0,0,6.36-3.3l.2-.19.51-.8.19-.29.26-.39.74-1.05a25.61,25.61,0,0,0,1.41-2.2,8.39,8.39,0,0,0,.92-2.39c.13-.84.22-1.68.29-2.52.18-2.2.35-4.39.53-6.58s.31-4.1.45-6.14c.28-4.09.54-8.16.75-12.23.46-8.13.76-16.24,1-24.4.53-16.32.8-32.84,1.18-50.21.3-10.74.6-21.27,1-31.65q.3-7.78.59-15.46c.06-1.29.11-2.56.16-3.84l0-1,0-1.45.06-2.91q.1-6,.21-11.9l.09-6.08,0-3.06V8.42a1.51,1.51,0,0,0,0-.37l-.35,0c-3.79-.16-7.65-.31-11.55-.43l-20.8-.54c-9.73-.25-19.36-.33-29-.53-19.27-.4-38.6-1.29-58.9-5C71.37-1,42.43.31,27.4.58,7.23,5.32,17.6,17.7,18.54,18.4c12.33,10.56,22.05,4.73,47.27,11-17.18-3.55,12.71-6.75,28.92.49,11.73,5.52,26,6.1,40.93,5.66,7.47-.22,15.12-.7,22.7-.94,3.8-.12,7.58-.18,11.31-.12,1.87,0,3.73.08,5.57.18l2.76.17,1.37.11c.15,0,.12,0,.14,0l0,0,.07.07a1.1,1.1,0,0,0,.93.4l.27,0H181v.07a2.08,2.08,0,0,1,0,.6,3.92,3.92,0,0,1-.59.8l-.12.11h0v.91l0,1c0,1.38,0,2.76-.07,4.13-.07,5.51,0,11,0,16.42.15,10.89.56,21.7,1,32.58.8,21.74,1.66,43.77.53,67.08a116.91,116.91,0,0,0,.53,14.05c.21,2.25.47,4.46.72,6.64.13,1.09.25,2.17.38,3.24l.1.81,0,.4c0,.06,0,.15,0,.18l0,0,.24.45a3.21,3.21,0,0,1,.42,1,3.78,3.78,0,0,1-.06,1.06l0,.14-.15.28c-.21.37-.57,1-.88,1.66l5.14-.43a7.77,7.77,0,0,1-1.8-3.34l-.05-.2s0,0,0,0,0,0,0,0l-.07-.08s0,0,0-.05l-.62,0-1.32-.1c-3.49-.26-6.81-.57-9.71-.54a162.89,162.89,0,0,0-26.46,2.54c9.06-.62,15.69-1.48,25.84-2,6.76-.22-4.69,3.72-9.15,4.57-1.91.66-4.94-2.51-6.85-1.84-4.16,0-8,1.38-12.42,2.25-1.9.66-1.71-2.22-2.66-1.89-6.07.72-10.71,4.47-14.6,3.71-3-.4-5.61-.81-8.2-1.24a31.66,31.66,0,0,0-5-.14l-3.29.75a6.3,6.3,0,0,1,1.51,3c-1.6-.14-3.87-.77-5.47-.93,1.6.16,3.87.79,5.47.93a6.3,6.3,0,0,0-1.51-3c-8,1.72-17.17,3.26-25.74,4.41l.11.25a39.56,39.56,0,0,1,15.09,1.8c-2.25-.64-2-1.44.6-1.61l2,1.44c-4.46.81-8.94,1.62-13.15-.49l-2.87.95c-1.41-.41-1.34-1.31-1.63-2.09-1,.05-2,.13-3,.2C85.25,197.38,91.82,199.28,91.82,199.28Z"/><path class="cls-2" d="M143.42,199.05c-.68.1-1.52.18-2.41.26l9.75.28C149,198.21,146.22,198.63,143.42,199.05Z"/></g><g class="cls-1"><path class="cls-2" d="M101.81,73.33c0,.3-.09.61-.14.91a3.51,3.51,0,0,1,1-.46C103,73.59,102.38,73.48,101.81,73.33Z"/><path class="cls-2" d="M101.51,75.07l0,.16.26.14A3,3,0,0,1,101.51,75.07Z"/><path class="cls-2" d="M102.25,76.65a.7.7,0,0,0-.12-.8C101.92,76.07,101.91,76.34,102.25,76.65Z"/><path class="cls-2" d="M103,75.39a1.88,1.88,0,0,1-1.2,0h0a4.31,4.31,0,0,1,.39.48A2.21,2.21,0,0,1,103,75.39Z"/><path class="cls-2" d="M103,75.39c.42-.09.8-.24,1-.29A10.2,10.2,0,0,0,103,75.39Z"/><path class="cls-2" d="M113.13,75.79c.32.16-2.56.12-1.92.44.81.73,2.11,1.36,2.11,2,.65.31-2.55.81-1.9,1.12.81.74,4.68,2.63,4.5,1.52a45,45,0,0,0-1.73-4.26c-1.16-1.22-2.54-2.39-3.58-3.64-.14-.35.08-.67.28-1-.45.43-.89.87-1.32,1.35C108.78,74,112.47,74.79,113.13,75.79Z"/><path class="cls-2" d="M103.55,66.68l1,.47c-2.07.7-1.26,1.44-.45,2.18l1.44-.33c-.17-.42-1-.47-1.6-.1,1.75-.85,2-1.67,1.72-2.5A6.63,6.63,0,0,0,103.55,66.68Z"/><path class="cls-2" d="M105.4,65.92a3.49,3.49,0,0,1,.23.48h.25l-.42-.49Z"/><path class="cls-2" d="M104.89,80a30.13,30.13,0,0,1-.31,6c.56.15,1.21.25.88.45a3.54,3.54,0,0,0-1,.45q-.06.42-.15.84a2,2,0,0,0,.23.3h0a1.88,1.88,0,0,0,1.2,0,9.42,9.42,0,0,1,1-.3c-.24.06-.63.2-1,.3a2.13,2.13,0,0,0-.82.45.69.69,0,0,1,.11.8c-.33-.31-.33-.57-.11-.8-.12-.16-.26-.32-.39-.47l-.27-.14c-.12.64-.26,1.28-.41,1.92a2.65,2.65,0,0,0,.24.4c.38.46.77.92-.63,1.21a2.46,2.46,0,0,1-.09.34l.26-.07a1.66,1.66,0,0,1-.27.13c-.12.48-.24,1-.37,1.45a18.06,18.06,0,0,1,1.63,1l-1.43.33a3,3,0,0,1,1.43.54c.86-.26,1.82-.5,2.41-.72,1.44-.33-2.89-.73-.18-1.11-2.71.38,1.62.78.18,1.11-.59.22-1.55.46-2.41.72.52.45,0,1-1.4,1.52-1.22-.59,0-1.09,1.4-1.52a3,3,0,0,0-1.43-.54l1.43-.33a18.06,18.06,0,0,0-1.63-1c-.25,1-.5,1.9-.74,2.88-1.84,6.29-1.51,12.09-2.87,18.62A45.55,45.55,0,0,1,95.61,125c-3.36,6.64.5,12.7-6.77,19.41-2.54,2.57-1.16,7.35-.86,9.83,4.78,3.33,17.14,1.61,17.84,1.45,10.53-2,4.68-3.64,10.87-7.81-3.52,2.84-6.78-2.1.44-4.78,11-3.87,2.2-9.4,5-14.19.71-1.19.21-2.46.43-3.89,3.74-7.42-.92-14.3-.07-22.1,0-2.06-2.7-3.88-4.16-5.62-.5-1.27.92-2.62.91-3.66,0-1.62-1-3-2.3-4.36.53,1.5,1.3,2.59,1.74,4.26.17,1.11-3.7-.77-4.51-1.51-.64-.32,2.55-.81,1.9-1.13,0-.68-1.29-1.31-2.1-2-.65-.31,2.24-.28,1.92-.43-.66-1-4.35-1.78-3.56-2.42.42-.49.87-.93,1.31-1.36a.93.93,0,0,0,.18-.82l-.73-.55a26.69,26.69,0,0,1-3,.25c.16-.27.79-.64,1-.9-.16.26-.79.63-1,.9a26.69,26.69,0,0,0,3-.25A33,33,0,0,1,108.65,79l-.26,0c.3.83,0,1.64-1.72,2.5.64-.38,1.44-.33,1.61.09l-1.44.33c-.81-.74-1.63-1.48.45-2.17l-1-.48a6.36,6.36,0,0,1,2.07-.27,2.38,2.38,0,0,0-.23-.49A15.32,15.32,0,0,0,104.89,80Z"/><path class="cls-2" d="M104.81,88.5a2.48,2.48,0,0,1-.23-.4c-.12.54-.25,1.07-.39,1.61C105.59,89.43,105.2,89,104.81,88.5Z"/></g><g class="cls-1"><path class="cls-2" d="M165.14,98.83l-1.2-1.36a3.14,3.14,0,0,1-.05,1.38C163.94,99.36,164.53,99,165.14,98.83Z"/><path class="cls-2" d="M162.85,96.21l-.21-.25h-.38A5.22,5.22,0,0,1,162.85,96.21Z"/><path class="cls-2" d="M160.08,94.56a2.53,2.53,0,0,0,1.23,1A1.69,1.69,0,0,0,160.08,94.56Z"/><path class="cls-2" d="M161.39,96.8c.16-.44.4-.83.86-.84h0c-.32-.12-.64-.23-.95-.37A2.42,2.42,0,0,1,161.39,96.8Z"/><path class="cls-2" d="M161.39,96.8c-.15.43-.21.91-.3,1.16A5.84,5.84,0,0,0,161.39,96.8Z"/><path class="cls-2" d="M153.77,103.59c-.45,0,1.6-2,.7-2-1.62-.44-3.42-.38-4.42-1.33-.9,0,.61-3-.29-2.92-1.62-.44-7-.25-5.3,1.16,2.7,2,4.81,2.94,7.33,4.63,2.55.85,5.19,1.48,7.71,2.45a4,4,0,0,1,1.24,1.59c-.3-.92-.63-1.84-1-2.82C159.34,102.91,155.66,104.5,153.77,103.59Z"/><path class="cls-2" d="M173.51,109.29l-1.35,0c.43-2.46-1.19-2.9-2.81-3.33l-.53,1.49c.72.46,1.35,0,1.25-1a5.17,5.17,0,0,0,2.39,4.7C172.93,110.53,173.57,109.9,173.51,109.29Z"/><path class="cls-2" d="M173.33,111.67c-.3-.16-.59-.33-.87-.5l-.15.2,1,.37Z"/><path class="cls-2" d="M153.45,91.85a117.59,117.59,0,0,1-8.4-8.5c-.6.2-1.2.53-1.25,0a3.23,3.23,0,0,0,.06-1.36l-1.1-1.27-.58-.25h0c-.46,0-.7.4-.85.84a6.62,6.62,0,0,1-.3,1.16c.09-.25.15-.73.3-1.16a2.41,2.41,0,0,0-.09-1.21,2.52,2.52,0,0,1-1.23-1,1.65,1.65,0,0,1,1.23,1c.32.14.64.25,1,.37h.37l-2.47-3a5.81,5.81,0,0,0-.74-.38c-.93-.36-1.86-.72-1.3-2.12l-.43-.54c0,.09-.05.17-.09.28a1.57,1.57,0,0,1,0-.38l-1.83-2.27a18.41,18.41,0,0,1-2.51-.15s.35-1,.52-1.49a2.53,2.53,0,0,1-1.77.29c-.22,1-.54,2-.63,2.73-.53,1.49,3.05-1.08,1.72,1.41,1.33-2.49-2.25.08-1.72-1.41.09-.73.41-1.74.63-2.73-1-.26-1.51-1.45-1.22-3.12,1.69-.06,1.59,1.48,1.22,3.12a2.53,2.53,0,0,0,1.77-.29c-.17.5-.52,1.49-.52,1.49a18.41,18.41,0,0,0,2.51.15l-3.63-4.52-5.64-7.11L125,58.68c-.59-.76-1.16-1.55-1.74-2.33a55.53,55.53,0,0,0-3.66-4.52c-2.6-2.81-5.53-5.27-9.23-6.44a12.76,12.76,0,0,0-5.8-.33,15.43,15.43,0,0,0-5.38,2.19,35.34,35.34,0,0,0-5.2,4c-1.71,1.53-3.37,3.24-5.13,4.93l-1.32,1.28-.34.32L87,58l-.5.42-2,1.64q-2,1.64-4.05,3.19C69.58,71.46,65.06,83.32,51,89.26,45.84,91.69,41,100,38.12,104.07c-.39,8.17,11.42,13.18,12.16,13.37,10.78,3.38,8.19-2.76,18.21-5.41-6.27,2.24-2.69-7.49,6.28-7.17,13.42.8,13.42-13.31,21.57-19,2-1.43,3.23-3.72,5.17-5.81a45.89,45.89,0,0,0,4.24-3.66c.66-.64,1.3-1.3,1.92-2,.06-.06.19-.22.19-.2h0l0,0,0,0c.08.07-.07-.09-.08-.52a1.25,1.25,0,0,1,.5-1.14c.31-.16.66.07.75.51,0,0,.09,0,.17,0a.56.56,0,0,0,.15,0s.17.1.27.17l.36.25a20,20,0,0,0,3.08,1.73c2.1,1,4.19,1.57,6,2.31,2.25,1.48,3.17,4.32,4.68,5.76a20.14,20.14,0,0,0,7.86,4.37C129.18,86,127.08,85,124.38,83c-1.73-1.41,3.67-1.59,5.29-1.16.9,0-.6,3,.3,2.93,1,.94,2.79.88,4.41,1.31.9,0-1.15,2-.7,2,1.9.92,5.57-.68,5.94.78.41,1,.73,1.91,1,2.82A3.45,3.45,0,0,0,141.73,93l1.28.23a13.7,13.7,0,0,1,1.76-2.54c.27.48.36,1.46.64,1.94-.28-.48-.37-1.46-.64-1.94A13.7,13.7,0,0,0,143,93.21a64.17,64.17,0,0,1,9.22,2.68l.15-.21A5.13,5.13,0,0,1,150,91c.1,1-.53,1.48-1.25,1,.17-.5.35-1,.53-1.49,1.62.44,3.24.87,2.81,3.34l1.35,0c.06.61-.58,1.25-1,1.87a7.22,7.22,0,0,0,.86.51A14.14,14.14,0,0,0,153.45,91.85Z"/><path class="cls-2" d="M141.25,80a4.86,4.86,0,0,1,.74.39l-2.05-2.51C139.38,79.3,140.32,79.66,141.25,80Z"/></g><g class="cls-1"><path class="cls-2" d="M22,184.29c.06-.61.11-1.21.17-1.82a3.33,3.33,0,0,1-1,.91C20.82,183.77,21.47,184,22,184.29Z"/><path class="cls-2" d="M22.37,180.79l0-.32-.26-.28A4.84,4.84,0,0,1,22.37,180.79Z"/><path class="cls-2" d="M21.67,177.62a2.53,2.53,0,0,0,.1,1.61A1.7,1.7,0,0,0,21.67,177.62Z"/><path class="cls-2" d="M20.94,180.13c.43-.19.88-.28,1.2.05h0c-.13-.31-.27-.63-.38-1A2.44,2.44,0,0,1,20.94,180.13Z"/><path class="cls-2" d="M20.94,180.13c-.42.19-.81.48-1.05.58A5.83,5.83,0,0,0,20.94,180.13Z"/><path class="cls-2" d="M10.77,179.23c-.31-.32,2.56-.22,1.93-.85-.79-1.49-2.07-2.76-2.07-4.15-.64-.63,2.56-1.59,1.92-2.23-.79-1.49-4.63-5.3-4.47-3.07.39,3.35,1.16,5.54,1.66,8.55,1.13,2.45,2.48,4.82,3.49,7.33a4.21,4.21,0,0,1-.3,2c.46-.85.91-1.73,1.34-2.7C15.08,182.84,11.41,181.25,10.77,179.23Z"/><path class="cls-2" d="M20.12,197.64l-.95-1c2.09-1.38,1.3-2.87.51-4.36l-1.45.63c.16.85,1,1,1.6.22a5.22,5.22,0,0,0-1.79,5C18.82,198.07,19.72,198.1,20.12,197.64Z"/><path class="cls-2" d="M18.26,199.14a8.17,8.17,0,0,1-.22-1l-.25,0c.13.34.27.67.4,1Z"/><path class="cls-2" d="M19.09,170.89c-.07-4.2.1-8.16.4-12-.56-.3-1.21-.51-.87-.91a3.26,3.26,0,0,0,1-.9c.06-.57.11-1.13.16-1.69-.06-.19-.14-.39-.22-.59v0a1,1,0,0,0-1.2,0,6.4,6.4,0,0,1-1,.58c.24-.11.63-.39,1-.58a2.42,2.42,0,0,0,.82-.91,2.6,2.6,0,0,1-.1-1.61,1.67,1.67,0,0,1,.1,1.61c.12.33.26.64.39,1l.26.27c.15-1.29.29-2.57.43-3.85a6.44,6.44,0,0,0-.23-.8c-.38-.94-.76-1.86.64-2.43q0-.34.09-.69c-.09,0-.16.09-.26.13a2.05,2.05,0,0,1,.27-.25c.13-1,.26-1.94.38-2.92a17.64,17.64,0,0,1-1.62-1.93l1.43-.65a2.61,2.61,0,0,1-1.43-1.09c-.86.52-1.81,1-2.41,1.44-1.44.65,2.89,1.47.17,2.23,2.72-.76-1.61-1.58-.17-2.23.6-.44,1.55-.92,2.41-1.44-.51-.92,0-2.11,1.41-3.07,1.21,1.2,0,2.2-1.41,3.07A2.61,2.61,0,0,0,21,141.66l-1.43.65a17.64,17.64,0,0,0,1.62,1.93c.25-1.9.5-3.82.76-5.79,1.86-12.64,1.52-24.3,2.8-37.43a166,166,0,0,1,3.59-20.67c3.23-13.41-.79-25.55,6.23-39.19,2.46-5.23.89-14.85.48-19.84-4.93-6.6-17.21-2.84-17.9-2.52C6.68,23.14,12.61,26.22,6.58,34.7c3.4-5.76,6.87,4.07-.26,9.57-10.86,7.95-1.9,18.87-4.61,28.5-.67,2.4-.15,4.94-.34,7.8-3.6,14.87,1.13,28.62.29,44.23,0,4.13,2.71,7.77,4.16,11.25.49,2.55-.92,5.27-.93,7.34a20.37,20.37,0,0,0,2.27,8.74c-.52-3-1.28-5.19-1.7-8.54-.17-2.22,3.69,1.57,4.49,3,.64.63-2.56,1.61-1.91,2.25,0,1.37,1.28,2.64,2.09,4.12.64.64-2.24.55-1.92.86.64,2,4.32,3.59,3.53,4.87-.44,1-.89,1.86-1.34,2.71a3.46,3.46,0,0,0-.18,1.66l.71,1.1a14,14,0,0,1,3.05-.48c-.16.53-.8,1.28-1,1.81.16-.53.8-1.28,1-1.81a14,14,0,0,0-3.05.48,62.51,62.51,0,0,1,4.39,8.58l.25,0a5.2,5.2,0,0,1,1.77-5c-.64.74-1.44.64-1.61-.21l1.45-.64c.8,1.49,1.6,3-.49,4.36l1,1c-.4.46-1.31.43-2.08.53a9.13,9.13,0,0,0,.22,1A13.91,13.91,0,0,0,19.09,170.89Z"/><path class="cls-2" d="M19.29,153.78a6.23,6.23,0,0,1,.22.81c.14-1.08.27-2.15.41-3.23C18.52,151.92,18.9,152.85,19.29,153.78Z"/></g></g></g></svg>