<svg xmlns="http://www.w3.org/2000/svg" viewBox="0 0 441.54 406.68"><defs><style>.cls-1{opacity:0.85;}.cls-2{fill:#202020;}</style></defs><g id="Layer_2" data-name="Layer 2"><g id="Layer_1-2" data-name="Layer 1"><g class="cls-1"><path class="cls-2" d="M75,359.54,84,357a26.93,26.93,0,0,1-4.8.35C77.12,357.64,76.28,358.56,75,359.54Z" transform="translate(-0.55)"/><path class="cls-2" d="M92.27,354.72l1.59-.44,1.29-.64Z" transform="translate(-0.55)"/><path class="cls-2" d="M107.63,349.46a65.25,65.25,0,0,0-7.9,2.43A41.36,41.36,0,0,0,107.63,349.46Z" transform="translate(-0.55)"/><path class="cls-2" d="M95,352.41c1.08.13,1.68.42.19,1.2l-.06,0c1.51-.59,3-1.17,4.58-1.75A27.49,27.49,0,0,1,95,352.41Z" transform="translate(-0.55)"/><path class="cls-2" d="M95,352.41c-1-.13-2.62-.07-3.19-.15A22.61,22.61,0,0,0,95,352.41Z" transform="translate(-0.55)"/><path class="cls-2" d="M96.09,341.5c1.48-.77,1.92,2.1,4.85.58,7.07-2.91,13-6,19.81-8,2.93-1.51,8.73.14,11.66-1.37,7.11-2.9,24.8-11.9,13.8-8.62-8.25,2.55-15,4.81-21.57,7L104.4,338c-11.76,4.62-23,9.39-35,14-3.41,1.16-6.7,1.93-10,2.72,4.37-.85,8.84-1.74,13.78-2.75C79.72,350.88,86.32,345,96.09,341.5Z" transform="translate(-0.55)"/><path class="cls-2" d="M8.8,377.87l4.36-2.37c7.52-.17,14.54-3.18,21.57-6.17L31.09,369c-4.11,1.42-4.36,2.34-.48,1.81a108.31,108.31,0,0,0-25.14,6C6.21,377.31,6.37,378.2,8.8,377.87Z" transform="translate(-0.55)"/><path class="cls-2" d="M.74,378.43l4.73-1.71a1.81,1.81,0,0,0-.25-.19L.55,378.42Z" transform="translate(-0.55)"/><path class="cls-2" d="M140,337.37c20.73-6,40.33-11.39,59.56-16.34,1.32-.94,2.18-1.85,4.24-2.07a27.83,27.83,0,0,0,4.77-.24l8.4-2.12,2.89-1,.08,0c1.49-.74.9-1-.18-1.19a22.24,22.24,0,0,1-3.2-.22c.61.09,2.15.07,3.2.22a27.91,27.91,0,0,0,4.72-.43,63,63,0,0,1,7.94-2.26,42.21,42.21,0,0,1-7.94,2.26l-4.62,1.65-1.29.62c6.42-1.6,12.8-3.2,19.21-4.74,1.44-.46,2.82-.89,3.94-1.29,4.51-1.6,9-3.19,12.21-2.6l3.44-.81c-.23,0-.49,0-.73-.08.54-.05,1-.07,1.36-.07l14.56-3.43c3-1.34,6-2.85,9.18-4.07l3.61.55a15.93,15.93,0,0,1,5-2.78c-2.82-.16-5.43-.47-7.8-.47-3.62-.56-6.54,4.67-11.05,3,4.51,1.62,7.43-3.61,11.05-3,2.37,0,5,.31,7.8.47A44,44,0,0,1,306,294.33c-5.63,2.67-10.9,2.84-15.62,2.55a15.93,15.93,0,0,0-5,2.78l-3.61-.55c-3.13,1.22-6.19,2.73-9.18,4.07l29-6.71c22-4.92,43.32-9.89,64.69-14.78,10.67-2.48,21.37-4.89,32.16-7.5l4.81-1.18,5.19-1.31c3.47-.89,6.94-1.8,10.38-2.76,6.9-1.91,13.75-3.9,20.76-6a21.66,21.66,0,0,1,1.68-1.87l.86-.91.06-.06L442,260l-.14-.22-.28-.45-.55-.89c-.73-1.22-1.53-2.29-2.3-3.45s-1.6-2.2-2.46-3.22a67.42,67.42,0,0,0-5.39-6,68.21,68.21,0,0,0-6.53-5.52,107.07,107.07,0,0,0-16.51-9.73l-4.32-2.11-3.4-1.7-6.82-3.45a954.11,954.11,0,0,1-90.95-53C245.32,133,191.47,101.54,136.65,58.25c-5.28-4.11-11.92-8.78-19.3-13.62S102,34.68,93.78,29.8L81.64,22.53c-4-2.37-8-4.59-11.77-6.76-7.6-4.31-14.49-8.29-20.2-11.37-16.3-6.5-22-4.79-23.5-1.31s1.12,8.73,1.65,9.43C34.41,22.34,42,27.84,52.08,34.6,57.12,38,62.86,41.46,69.35,46S83.2,55.84,91.49,62.8c-5.73-4.61-7.27-6.49-6-6.53s5.37,1.85,10.75,5A209.71,209.71,0,0,1,115,73.72a139.72,139.72,0,0,1,17.86,15.6c13.89,15.37,33.94,29,55.67,42.32,10.83,6.7,22.14,13.27,33.22,20,5.55,3.36,11.09,6.71,16.49,10.14s10.66,6.94,15.8,10.45,10.57,6.92,16.31,10.41,11.89,6.94,18.24,10.83c5.89,3.94,11.91,7.61,17.89,11.27S318.4,212,324.51,215.4s12.16,6.79,18.25,10.1,12.36,6.35,18.56,9.48,12.5,6.05,18.81,9l9.48,4.4,2.38,1.1,2.17,1h.22a4.29,4.29,0,0,1,1.28.33,3.59,3.59,0,0,1,.79.46,1.94,1.94,0,0,1,.37.32l-.21.15a9.15,9.15,0,0,1-2.18.92l-6.49,1.65-7.62,1.86-15.53,3.67c-20.77,5.09-38.36,12.18-55.43,18-12.62,3.68-26.56,5.84-36.91,8.51-8.12,2.14-15.62,4.36-22.71,6.66s-13.78,4.68-20.31,7.07c7.41-2.24,13.8-4.27,20.4-6.36s13.44-4.15,21.73-6.55c11.08-3.08-6.81,5.6-14,8.31-3,1.45-8.75-.34-11.74,1.13-6.84,1.84-12.81,4.74-19.94,7.5-3,1.48-3.37-1.41-4.86-.67-9.84,3.33-16.59,9-23.18,10-5,.92-9.46,1.69-13.84,2.44-2.74.59-5.45,1.22-8.27,2.12l-5.24,2.21a5.93,5.93,0,0,1,3.28,2.25c-2.68.58-6.57,1-9.25,1.59,2.68-.58,6.57-1,9.25-1.59a5.93,5.93,0,0,0-3.28-2.25c-6.34,2.64-13.2,5.4-20.18,8.16s-14.1,5.49-21,8.12l.26.19a107.77,107.77,0,0,1,25.25-5.4c-3.86.43-3.63-.47.54-1.82l3.62.47c-7.12,2.86-14.21,5.71-21.72,5.68l-4.42,2.28c-2.43.29-2.57-.61-3.27-1.21-1.59.51-3.19,1.06-4.79,1.62C128.68,338.7,140,337.37,140,337.37Z" transform="translate(-0.55)"/><path class="cls-2" d="M224.67,314c-1.1.39-2.46.83-3.91,1.3l16.13-3.94C233.69,310.72,229.19,312.33,224.67,314Z" transform="translate(-0.55)"/></g><g class="cls-1"><path class="cls-2" d="M33.38,377.3c.76-1.23,1.51-2.47,2.27-3.71a7.51,7.51,0,0,1-2,1.4C32.92,375.65,33.24,376.4,33.38,377.3Z" transform="translate(-0.55)"/><path class="cls-2" d="M37.76,370.16l.41-.66c0-.25.07-.48.09-.7C38.11,369.25,37.94,369.71,37.76,370.16Z" transform="translate(-0.55)"/><path class="cls-2" d="M40.84,363.2a14.37,14.37,0,0,0-1.79,3.42A9.31,9.31,0,0,0,40.84,363.2Z" transform="translate(-0.55)"/><path class="cls-2" d="M37.26,368.11c.6-.2,1.11-.17,1,.65a.08.08,0,0,1,0,0c.26-.73.5-1.45.79-2.18A7.24,7.24,0,0,1,37.26,368.11Z" transform="translate(-0.55)"/><path class="cls-2" d="M37.26,368.11c-.58.19-1.27.62-1.59.71A7.19,7.19,0,0,0,37.26,368.11Z" transform="translate(-0.55)"/><path class="cls-2" d="M29.34,361.44c.1-.82,2.52.75,2.7-.88,1-3.48,1.4-6.76,3-9.65.17-1.64,4.13-2.14,4.31-3.77,1-3.5,2.13-13.3-.35-8.56-3.58,7.22-5.47,12.16-8.56,18.71C28.6,363,27,368.55,25,374.29a23.82,23.82,0,0,1-2.62,4.07c1.4-1.58,2.82-3.2,4.35-5C28.92,371,27.54,366,29.34,361.44Z" transform="translate(-0.55)"/><path class="cls-2" d="M16.12,404.35l.27-2.45c3.47-1.92,4.5-5.41,5.54-8.89l-2,.66c-.86,1.85-.27,2.45,1.16,1.19a24.92,24.92,0,0,0-7.41,9.62C14.46,404.65,15.22,405.14,16.12,404.35Z" transform="translate(-0.55)"/><path class="cls-2" d="M12.71,406.64c.31-.73.62-1.45.95-2.16l-.26-.05-.79,2.25Z" transform="translate(-0.55)"/><path class="cls-2" d="M46.44,347.91c4.85-8.83,9.63-17,14.43-24.94-.14-.9-.46-1.65.3-2.32a7.1,7.1,0,0,0,2-1.39c.71-1.15,1.42-2.3,2.12-3.45q.25-.66.51-1.35v0c.09-.82-.41-.84-1-.64a8.39,8.39,0,0,1-1.6.72c.34-.11,1-.53,1.6-.72a7.25,7.25,0,0,0,1.78-1.5,14.35,14.35,0,0,1,1.8-3.41,9,9,0,0,1-1.8,3.41c-.28.74-.52,1.46-.77,2.18,0,.23-.07.46-.1.7l4.89-7.83c.29-.65.56-1.27.75-1.8.76-2.13,1.51-4.25,3.4-4.76l.89-1.39c-.13,0-.24.11-.38.15a4.83,4.83,0,0,1,.54-.41l3.75-5.89c.27-1.59.44-3.28.85-4.83l2-.66a4.86,4.86,0,0,1,0-3c-1.37.67-2.76,1.2-3.8,1.84-2,.66.8,4.47-2.47,4.74,3.27-.27.45-4.08,2.47-4.74,1-.64,2.43-1.17,3.8-1.84a10.42,10.42,0,0,1,4.84-5.72c-.35,3.09-2.55,4.6-4.84,5.72a4.86,4.86,0,0,0,0,3l-2,.66c-.41,1.55-.58,3.24-.85,4.83L87,281.51c8.24-12.73,15.72-25.22,23.21-37.86l11.36-19.12c1-1.63,2-3.39,3-5.4l.36-.77.37-.85c.24-.58.47-1.17.67-1.76a25.68,25.68,0,0,0,.95-3.67,21.86,21.86,0,0,0-.07-7.65,29.44,29.44,0,0,0-1-3.78c-.37-1.14-.78-2.24-1.21-3.28-.92-2.27-1.93-4.3-2.82-6.19l-2.67-5.71q-2.66-5.68-5.18-11.33-5.07-11.28-9.68-22.43C92,122,74.68,98.22,65.65,66.37,62,54.25,49.77,34.69,43.81,24.33c-11.85-11.79-18.75,1.4-19,2.4C20.25,40.4,29.06,44.38,33.2,65,29.77,51.28,44,70.59,43.78,85.37,43,107,63.46,126.22,72,147.8c2.13,5.4,5.49,10.54,8.58,16.69,3.44,8.29,7.26,16.19,11.33,23.89,2,3.85,4.13,7.66,6.27,11.44l3.14,5.49c.89,1.55,1.52,2.77,1.82,3.42a.75.75,0,0,1,.44.54v0l0,.15c0,.11-.08.23-.13.37s-.23.56-.38.9c-.3.68-.71,1.48-1.19,2.43l-3.09,5.91C94.56,227,90.2,235,85.4,243c-4.86,8.68-6.83,17.6-9.67,25.61-2.57,5.57-7,10.57-9.46,14.9A107.29,107.29,0,0,0,58,303c3.08-6.53,5-11.49,8.56-18.7,2.48-4.75,1.39,5.06.35,8.55-.18,1.64-4.14,2.14-4.32,3.78-1.62,2.88-2,6.15-3,9.64-.18,1.64-2.61.07-2.7.89-1.81,4.53-.42,9.58-2.62,11.88-1.53,1.83-3,3.46-4.35,5a19.63,19.63,0,0,0-2.11,3.38c-.21.86-.44,1.75-.66,2.65a7.09,7.09,0,0,1,3.24.46c-.77,1-2.21,2.28-3,3.32.76-1,2.2-2.29,3-3.32a7.09,7.09,0,0,0-3.24-.46c-1.65,6.36-3.93,13.5-6.2,20.05l.26,0a25,25,0,0,1,7.41-9.61c-1.43,1.24-2,.66-1.17-1.2l2-.66c-1.05,3.5-2.08,7-5.54,8.89L43.6,350c-.9.79-1.66.3-2.45.12-.33.71-.65,1.43-.95,2.17C42.26,351.56,46.44,347.91,46.44,347.91Z" transform="translate(-0.55)"/><path class="cls-2" d="M66.65,312.24c-.18.52-.45,1.14-.74,1.79l4.15-6.56C68.17,308,67.41,310.11,66.65,312.24Z" transform="translate(-0.55)"/></g><g class="cls-1"><path class="cls-2" d="M364.05,239.5l-2.53-1a4.2,4.2,0,0,1,1,1.4C363,240.42,363.45,239.9,364.05,239.5Z" transform="translate(-0.55)"/><path class="cls-2" d="M359.18,237.57l-.45-.18-.48.12Z" transform="translate(-0.55)"/><path class="cls-2" d="M354.45,236.79a5.65,5.65,0,0,0,2.33.64A3.65,3.65,0,0,0,354.45,236.79Z" transform="translate(-0.55)"/><path class="cls-2" d="M357.81,238.64c-.14-.5-.13-1,.42-1.13h0c-.49,0-1,0-1.47-.08A3.76,3.76,0,0,1,357.81,238.64Z" transform="translate(-0.55)"/><path class="cls-2" d="M357.81,238.64c.14.48.44,1,.51,1.26A5.55,5.55,0,0,0,357.81,238.64Z" transform="translate(-0.55)"/><path class="cls-2" d="M353.49,247.93c-.56.15.45-2.55-.64-2.23-2.36.07-4.57.71-6.54.06-1.1.32-1.51-3.18-2.6-2.87-2.37.08-9,2-5.74,2.86,4.91,1.17,8.26,1.45,12.71,2.36,3.84,0,7.62-.15,11.5,0a8.92,8.92,0,0,1,2.78,1.22c-1.08-.83-2.19-1.67-3.45-2.53C359.93,245.47,356.56,248.25,353.49,247.93Z" transform="translate(-0.55)"/><path class="cls-2" d="M382.52,247.43l-1.65.47c-1.35-2.63-3.71-2.55-6.07-2.48q.24.83.48,1.68c1.26.24,1.65-.48.78-1.43a10.36,10.36,0,0,0,6.59,4C382.75,248.87,383.06,248,382.52,247.43Z" transform="translate(-0.55)"/><path class="cls-2" d="M384.12,249.9q-.75-.1-1.47-.24l0,.26,1.53.06Z" transform="translate(-0.55)"/><path class="cls-2" d="M344.09,236.15c-6-1.87-11.59-3.86-17-5.93-.59.4-1.09.92-1.56.41a4.21,4.21,0,0,0-1-1.39l-2.36-.92c-.3,0-.61,0-.92-.06h0c-.55.16-.55.63-.4,1.12a6.16,6.16,0,0,1,.52,1.27c-.08-.28-.38-.78-.52-1.27a3.86,3.86,0,0,0-1-1.19,5.57,5.57,0,0,1-2.33-.61,3.58,3.58,0,0,1,2.33.61c.5,0,1,.05,1.48.06l.47-.12L316.35,226c-.44-.06-.87-.12-1.22-.13-1.45-.05-2.89-.08-3.31-1.67l-1-.38a2.68,2.68,0,0,1,.12.3,2.22,2.22,0,0,1-.29-.37l-4.11-1.59a32.32,32.32,0,0,1-3.24.77l-.56-1.65a3.08,3.08,0,0,1-1.95.95c.53,1,1,2.14,1.45,2.9.54,1.64,2.89-2.19,3.25.74-.36-2.93-2.71.9-3.25-.74-.49-.76-.92-1.86-1.45-2.9a4.61,4.61,0,0,1-4.1-2.55c2-.72,3.21.81,4.1,2.55a3.08,3.08,0,0,0,1.95-.95l.56,1.65a32.32,32.32,0,0,0,3.24-.77c-2.68-1-5.41-2.06-8.22-3-2.25-.84-4.51-1.6-6.76-2.32s-4.53-1.32-6.78-1.94c-4.51-1.31-9.06-2.2-13.63-3.21-2.28-.51-4.59-.85-6.9-1.29s-4.64-.89-7-1.22c-4.72-.72-9.51-1.55-14.45-2.25-5.35-.92-10.61-1.67-15.8-2.6L219.28,203l-3.84-.69-3.83-.66c-2.54-.44-5.06-.79-7.56-1s-5-.34-7.44-.44c-4.93-.21-9.78-.07-14.66-.14-9.73,0-19.49-.41-29.9-3.37-8-2.07-22.39.37-29.81,1.25-9.64,5.53-3.5,17.46-3,18.12,6.93,10,11.3,3.81,24.19,9.11-4.36-1.46-2.92-3.26.68-3.86a18.07,18.07,0,0,1,13.57,3.37,20.15,20.15,0,0,0,9.71,4.49,29,29,0,0,0,5.21.39,51.51,51.51,0,0,0,5.36-.32c1.81-.18,3.64-.45,5.48-.69s3.67-.47,5.5-.64a37,37,0,0,1,10.83.25c3.51.65,7.21.19,11.37.46,10.75,2.06,21,2.22,31.41,2.61,2.61,0,5.21.17,7.83.31s5.27.21,7.9.5,5.3.54,8,.89,5.35.95,8,1.55a33.52,33.52,0,0,0,4.29.39,36.51,36.51,0,0,0,4.19-.2c1.39-.13,2.76-.32,4.12-.49s2.68-.28,4-.32c3.68.42,7.11,2.82,10,3.64A45.06,45.06,0,0,0,313.84,239c-4.38-.81-7.68-1-12.47-2-3.17-.72,3.18-2.94,5.52-3.08,1.08-.35,1.56,3.14,2.63,2.79,1.94.58,4.1-.1,6.44-.21,1.09-.33.11,2.39.65,2.22,3,.28,6.38-2.52,8-1.17,1.25.86,2.36,1.69,3.44,2.51a7.74,7.74,0,0,0,2.3.94l1.79-.17a10,10,0,0,1,.24-3.13c.71.4,1.58,1.36,2.29,1.76-.71-.4-1.58-1.36-2.29-1.76a10,10,0,0,0-.24,3.13,117.55,117.55,0,0,1,13.56-.21l0-.26a10.43,10.43,0,0,1-6.59-4c.86,1,.48,1.67-.78,1.43l-.48-1.67c2.36-.08,4.72-.16,6.07,2.47l1.65-.47c.54.6.23,1.45.13,2.23.48.1,1,.17,1.47.24C346.62,238.92,344.09,236.15,344.09,236.15Z" transform="translate(-0.55)"/><path class="cls-2" d="M319.76,228.1c.35,0,.77.08,1.21.15l-4.5-1.84C316.87,228,318.31,228.05,319.76,228.1Z" transform="translate(-0.55)"/></g></g></g></svg>