<svg xmlns="http://www.w3.org/2000/svg"  preserveAspectRatio="none" viewBox="0 0 457.98 750.93"><defs><style>.cls-1{fill:rgba(114,114,114,0.39);}</style></defs><g id="Layer_2" data-name="Layer 2"><g id="Layer_1-2" data-name="Layer 1"><path class="cls-1" d="M32,.14c12.87-.42,25.73.16,38.54.94,9.32.57,18.62,1.44,28,1.81,17.75.7,35.47,2.51,53.22,2.74,11.13.13,22.29,1.2,33.47.19,6-.54,12.21.66,18.26,1.2,6.87.63,13.72,1.24,20.62,1.48,11.31.39,22.62,1.78,33.88,1.38,10.38-.37,20.77-.58,31.14-.9,11.18-.33,22.38,0,33.57.28,17.29.39,34.54,2.35,51.85,2.13,13-.16,25.8,2.82,38.8,2.58q15.15-.27,30.28-.33c5.89,0,6.33.79,5,6.44-1.16,4.91-.54,10-.6,15-.2,18-.93,36-.12,53.92a266.18,266.18,0,0,0,4,37.56,128.77,128.77,0,0,1,1.68,21c.17,8.44,1.59,17,.79,25.26-.9,9.38-.77,18.69-1.13,28-.43,10.46,1.17,20.86,1.23,31.28.14,23.09,1.39,46.24-1.56,69.26-.77,6,1,11.75.74,17.73-.49,9.86,1.53,19.62,1.07,29.64-.32,6.78,1.06,13.93.87,20.92-.49,17.16-2.11,34.26-3.39,51.37-1.15,15.54-.79,31.2-1,46.82-.15,12.94.8,25.92-.36,38.85s-.54,25.61-.84,38.39c-.37,15.79.42,31.54.24,47.31-.22,20-1.6,40,.18,59.9,1.69,18.9,2.88,37.86,5,56.74,1.1,9.75,1.34,19.62,2.53,29.39.46,3.79-2.36,5.17-5.34,5.9-11.55,2.87-23.35,2.48-35.11,3-7.75.35-15.55.91-23.29,1.62A413,413,0,0,1,346,750.21c-7.65-.18-15.41-1.08-22.87-.78-10.16.42-20.42-.54-30.61,1.22-4.36.77-9.05-.28-13.6-.47-15.63-.68-31.26-.41-46.9-.84-9.45-.26-19.09.33-28.36-.72-19.12-2.15-38.25-.7-57.33-1.88-11.33-.69-22.63-1.83-34-1.89-18.22-.11-36.47.06-54.68-.68-14.83-.61-29.62,0-44.43.29a10.89,10.89,0,0,0-2.29.16c-8.67,1.93-9.46,1.34-9.6-7.72-.07-4.39.05-8.77.08-13.15C1,711.32,1,698.87.54,686.42c-.42-10.17.51-20.51,1-30.79q1.05-22.9.33-45.83C1.37,594.37,0,578.94,0,563.52c0-12.62.15-25.25.7-37.9,1.83-41.14,1.88-82.34,2.07-123.52.1-20.28.93-40.59.08-60.84C2.2,325.5,1.51,309.73,1.54,294c0-16.36-.17-32.77,1.08-49.13.73-9.66,1.22-19.39,1.13-29-.21-24.07-.3-48.18-1.26-72.23-.79-19.78-1.3-39.55-1-59.31C1.7,67.42-.64,50.65.2,33.79c.35-7,.87-14,1.36-21a9.71,9.71,0,0,0-.37-3.66C-.51,3.69,2.45.33,8.15.42,16.1.56,24.05.39,32,.14Z"/></g></g></svg>