<svg xmlns="http://www.w3.org/2000/svg" preserveAspectRatio="none" viewBox="0 0 797.83 502.56"><defs><style>.cls-1{fill:#e5231a;}</style></defs><g id="Layer_2" data-name="Layer 2"><g id="Layer_1-2" data-name="Layer 1"><path d="M26.68,7c13.24-.55,26.5-.55,39.75-1.21,10.83-.53,21.86.4,32.8.83q24.4,1,48.82,0c16.43-.64,32.84-2.26,49.27-2.37,13.44-.1,26.9,0,40.38.46C281.52,6.29,325.4,6,369.26,5.9c21.6-.06,43.24.67,64.8-.41,16.77-.83,33.57-1.71,50.34-1.81,17.43-.09,34.89-.43,52.34.79,10.27.71,20.64,1.17,30.9,1C593.28,5,619,4.74,644.55,3.51c21.07-1,42.13-1.73,63.18-1.59C725.7,2,743.54-.64,761.5.14c7.47.33,14.94.83,22.4,1.3A10,10,0,0,0,787.8,1c5.75-1.89,9.36,1.3,9.31,7.47-.08,8.63.15,17.27.49,25.89.55,14,0,27.92-.7,41.83-.54,10.12-1.39,20.22-1.7,30.38-.61,19.26-2.4,38.51-2.5,57.77-.06,12.09-1.11,24.19,0,36.33.63,6.56-.6,13.24-1.14,19.81-.61,7.47-1.2,14.91-1.4,22.4-.33,12.26-1.73,24.55-1.21,36.77.47,11.26.79,22.53,1.2,33.79.45,12.12.15,24.28,0,36.42-.28,18.77-2.23,37.5-1.86,56.28.28,14.12-2.8,28-2.44,42.13q.4,16.43.59,32.86c.08,6.38-.79,6.87-6.82,5.46-5.24-1.23-10.63-.52-15.95-.54-19.14-.07-38.33-.72-57.43.3a278.68,278.68,0,0,0-40,4.6c-7.28,1.46-14.86,1.77-22.32,2-9,.26-18.09,1.86-26.89,1.06-10-.91-19.92-.67-29.88-1-11.14-.37-22.21,1.45-33.3,1.6-24.59.34-49.24,1.89-73.78-1.14-6.35-.78-12.51,1.23-18.87.95-10.51-.46-20.9,1.81-31.57,1.39-7.21-.28-14.82,1.28-22.27,1.12-18.29-.39-36.5-2-54.74-3.26-16.56-1.13-33.24-.62-49.87-.69-13.79-.06-27.61,1.07-41.38-.09s-27.27-.38-40.9-.6c-16.81-.28-33.58.7-50.38.64-21.25-.08-42.6-1.42-63.79.67-20.13,2-40.3,3.44-60.4,5.92-10.36,1.27-20.87,1.62-31.27,3-4,.53-5.53-2.53-6.34-5.74-3.14-12.51-2.82-25.32-3.47-38.08-.43-8.41-1.09-16.87-1.9-25.25a457.42,457.42,0,0,1-1.76-52.34c.14-8.29,1-16.72.65-24.81-.52-11,.43-22.18-1.54-33.22-.84-4.72.23-9.83.41-14.75.59-17,.19-33.94.51-50.9.2-10.28-.49-20.72.55-30.79,2.14-20.77.45-41.52,1.55-62.23.65-12.3,1.77-24.57,1.75-36.91,0-19.78-.36-39.57.29-59.33C5.91,52,5.14,36,4.72,19.93a12.77,12.77,0,0,0-.18-2.48C2.4,8.05,3,7.19,12.68,7,17.34,6.87,22,7,26.68,7Zm1.23,8.24v-.11h-4c-1.33,0-2.67,0-4-.06-6.14-.13-6.66.32-6.65,6.31,0,9.32.75,18.68.42,27.93-.65,18.47,0,36.93-.75,55.39-.4,9.74,1,19.65-.27,29.23s-1.16,18.91-1.3,28.38c-.21,14-.5,27.9-.68,41.84-.07,5.79-2.14,11.42-1,17.15.86,4.5.3,9,.22,13.43-.35,20.11-1.1,40.2-1.59,60.31-.08,3.47,1,7.05.5,10.4-1.2,7.5-.61,15.06,0,22.39,1.51,19.46.19,38.89.29,58.32.06,12.59.45,25.2.73,37.77.38,17.37,2.44,34.7,3.83,52.05.37,4.64,1,9.26,1.35,13.9.23,2.88,1.62,3.67,4.49,4,9.27,1,18.26-1.38,27.28-2.36,17.19-1.84,34.45-2.48,51.63-4.33a384.4,384.4,0,0,1,47.8-1.91c20.23.34,40.51-.25,60.77-.3,17.74-.05,35.47-.39,53.21-.07,10.27.19,20.54.72,30.85.56,8.07-.11,16.33.28,24.33-.12,14.49-.72,28.78.62,43.14,1.36,8.3.43,16.57,1.53,24.84,2,12.93.71,25.93.51,38.89.2,13.6-.33,27.17-1.58,40.77-1.81,17.6-.3,35.3-1,52.8.41,10.35.83,20.55,0,30.67-.38,17.43-.64,34.84-2.82,52.29-1.92,12,.63,24,2.18,36,1.47,8.28-.49,16.55-1.44,24.78-2.55s16.4-3.62,24.64-3.83c15.62-.41,31.19-2.29,46.8-2,7.09.14,14.21-.57,21.34.52,7.5,1.16,15.06,1.38,22.56-.74,2.41-.68,3.38-1.7,3.4-4,.14-20.08-.49-40.17,1.86-60.22,1-8.69-.17-17.62.45-26.38.52-7.46,1.65-14.86,1.65-22.39,0-12.61,1-25.26.4-37.84-.45-8.81.6-17.56-.12-26.38-.73-9.08-2.05-18.38-1.44-27.29,1-14.95.26-30,2.23-44.85,2-15.18.57-30.5,1.73-45.75,1.45-19.21.18-38.5,1.77-57.83,1.31-15.78,2.06-31.77,2-47.75,0-19.08,2.18-38.13.46-57.27-.89-9.94-.48-10-10.61-10.72-.33,0-.66-.11-1-.12-10.64-.13-21.23-2.09-31.9-1A315.48,315.48,0,0,1,703.38,10c-31.1-1-62.13,1.6-93.2,2-17.76.24-35.55,1.16-53.28.58-25.25-.83-50.5-.95-75.73-.87-19.91.06-39.83,1.52-59.71,1.93-43.55.91-87.14,0-130.71.31-19.3.12-38.5-1.84-57.77-1.88-23.93,0-47.85-.47-71.74,1.65-9.25.82-18.65-.11-27.9.64a198.67,198.67,0,0,1-30.37.09c-8-.57-16-.76-23.88-.86C62,13.41,45,14.59,27.91,15.19Z" transform="translate(0 0)"/><path class="cls-1" d="M26.34,441.35c-.42-12.86.16-25.72.94-38.53.57-9.32,1.43-18.62,1.81-28,.69-17.76,2.51-35.47,2.73-53.22.14-11.14,1.2-22.29.2-33.47-.54-6,.65-12.21,1.2-18.26.62-6.87,1.24-13.72,1.48-20.62.39-11.31,1.78-22.62,1.38-33.89-.37-10.37-.58-20.76-.9-31.13-.34-11.18,0-22.38.28-33.57.39-17.29,2.35-34.54,2.13-51.85-.17-13,2.81-25.8,2.58-38.8q-.27-15.15-.34-30.28c0-5.89.79-6.33,6.45-5,4.91,1.16,10,.54,15,.6,18,.19,36,.93,53.91.12a265.87,265.87,0,0,0,37.56-4,128.8,128.8,0,0,1,21-1.68c8.44-.17,17-1.59,25.25-.79,9.38.9,18.7.77,28.05,1.13,10.46.43,20.86-1.17,31.27-1.23,23.1-.14,46.25-1.4,69.27,1.56,5.95.77,11.75-1.05,17.72-.75,9.87.5,19.63-1.52,29.65-1.06,6.77.32,13.92-1.07,20.92-.87,17.16.49,34.25,2.11,51.37,3.39,15.54,1.15,31.2.79,46.82,1,12.94.15,25.92-.8,38.85.36s25.61.54,38.39.84c15.78.37,31.53-.42,47.31-.24,19.95.22,40,1.6,59.9-.18,18.9-1.69,37.85-2.88,56.74-5,9.74-1.1,19.61-1.34,29.39-2.53,3.79-.46,5.17,2.36,5.9,5.33,2.87,11.56,2.48,23.36,3,35.12.35,7.75.91,15.55,1.61,23.28a413.23,413.23,0,0,1,1.3,48.24c-.18,7.64-1.09,15.41-.79,22.87.43,10.16-.53,20.42,1.23,30.6.76,4.37-.29,9.06-.48,13.61-.68,15.63-.41,31.26-.84,46.89-.25,9.46.33,19.1-.72,28.37-2.15,19.12-.7,38.25-1.87,57.33-.69,11.33-1.83,22.63-1.9,34-.1,18.22.07,36.47-.67,54.67-.61,14.84,0,29.63.28,44.44a10.89,10.89,0,0,0,.17,2.29c1.93,8.67,1.34,9.46-7.73,9.6-4.38.07-8.76-.05-13.14-.08-12.43.41-24.88.33-37.33.83-10.17.42-20.52-.51-30.79-1q-22.91-1-45.83-.32c-15.44.48-30.86,1.85-46.28,1.85-12.62,0-25.26-.15-37.9-.7-41.14-1.84-82.34-1.88-123.52-2.07-20.28-.1-40.59-.93-60.84-.09-15.76.66-31.53,1.35-47.28,1.32-16.36,0-32.76.17-49.13-1.08-9.65-.73-19.38-1.23-29-1.13-24.08.21-48.19.3-72.23,1.26-19.79.79-39.55,1.3-59.32,1-16.87-.23-33.65,2.11-50.5,1.27-7-.35-14-.87-21-1.36a9.71,9.71,0,0,0-3.66.37c-5.42,1.7-8.78-1.26-8.69-7C26.75,457.26,26.59,449.31,26.34,441.35Z" transform="translate(0 0)"/></g></g></svg>