<svg xmlns="http://www.w3.org/2000/svg" viewBox="0 0 503.02 502.18"><defs><style>.cls-1{fill:#fbfcfc;}.cls-2{fill:#1a969c;}.cls-3{fill:#15777c;}</style></defs><g id="Layer_2" data-name="Layer 2"><g id="Layer_1-2" data-name="Layer 1"><path class="cls-1" d="M502,271.73a33,33,0,0,0,.58-3.65c1.17-23,.15-45.88-4.35-68.54A231.65,231.65,0,0,0,462.86,114a269.68,269.68,0,0,0-67-68.87A237.1,237.1,0,0,0,339.64,15C297.38-.53,253.88-3.06,209.65,3.11a225.66,225.66,0,0,0-80,27.33C105.63,44,84.63,61.31,65.91,81.52c-17.61,19-32.38,40-43.32,63.44C4.38,184.05-2,225.34.53,268.19a241.53,241.53,0,0,0,17.81,79.06c13.72,33,34.26,61.24,60.05,85.89,38.39,36.69,83.51,59.44,136.33,66.5,11.63,1.55,23.29,2.77,35.06,2.25a22.8,22.8,0,0,0,2.59.29c35.14-.07,69-6.45,101.18-20.77,34.62-15.41,63.93-38,88.73-66.48,28-32.22,47.37-68.86,55.55-111C499.89,293.3,502,282.65,502,271.73Z"/><path class="cls-2" d="M249.78,501.89c-11.77.52-23.43-.7-35.06-2.25-52.82-7.06-97.94-29.81-136.33-66.5-25.79-24.65-46.33-52.9-60-85.89A241.53,241.53,0,0,1,.53,268.19C-2,225.34,4.38,184.05,22.59,145c10.94-23.48,25.71-44.42,43.32-63.44C84.63,61.31,105.63,44,129.68,30.44a225.66,225.66,0,0,1,80-27.33c44.23-6.17,87.73-3.64,130,11.89a237.1,237.1,0,0,1,56.24,30.12,269.68,269.68,0,0,1,67,68.87,231.65,231.65,0,0,1,35.36,85.55c4.5,22.66,5.52,45.53,4.35,68.54a33,33,0,0,1-.58,3.65c-2,.21-2.81-1.41-3.91-2.5q-22.89-22.8-45.73-45.64c-1.21-1.2-2.2-2.79-4.21-2.82a120.7,120.7,0,0,0-16-23.83c-35.64-41.09-99.18-42.63-136-8.95-13.88,12.72-26.88,26.41-40.19,39.76-1.9,1.91-3,2.18-5,.09-11.66-11.82-23.35-23.62-35.28-35.15-27.91-27-61.32-34.55-97.56-23-35.87,11.42-58.92,37-65.64,74.4-6.83,38,5.42,69.82,35.69,94.35,1.71,1.39,3.91,2.24,5,4.35l.85.87v-.11c-.19,2.14,1.64,3,2.81,4.15q75.06,75,150.15,150C248.13,498.91,249.88,499.8,249.78,501.89Z"/><path class="cls-3" d="M249.78,501.89c.1-2.09-1.65-3-2.84-4.17q-75.06-75-150.15-150c-1.17-1.17-3-2-2.81-4.15a3.7,3.7,0,0,1,2.42.82,89.69,89.69,0,0,0,35.15,13.19c30.83,4.57,58.42-2.4,81.42-23.93,13.11-12.27,25.55-25.28,38.15-38.09,2.11-2.14,3.24-2.07,5.3,0,11.48,11.65,23,23.28,34.7,34.68,25.57,24.88,56.16,33.15,90.71,25.55,43.22-9.51,74.44-49,74.75-93.15a103.39,103.39,0,0,0-8.44-41.85c2,0,3,1.62,4.21,2.82q22.88,22.82,45.73,45.64c1.1,1.09,1.94,2.71,3.91,2.5,0,10.92-2.1,21.57-4.16,32.2-8.18,42.14-27.51,78.78-55.55,111-24.8,28.48-54.11,51.07-88.73,66.48-32.18,14.32-66,20.7-101.18,20.77A22.8,22.8,0,0,1,249.78,501.89Z"/><path class="cls-1" d="M448.14,220.77a103.39,103.39,0,0,1,8.44,41.85c-.31,44.19-31.53,83.64-74.75,93.15-34.55,7.6-65.14-.67-90.71-25.55-11.72-11.4-23.22-23-34.7-34.68-2.06-2.08-3.19-2.15-5.3,0-12.6,12.81-25,25.82-38.15,38.09-23,21.53-50.59,28.5-81.42,23.93A89.69,89.69,0,0,1,96.4,344.36a3.7,3.7,0,0,0-2.42-.82v.11l-.85-.87c-1.08-2.11-3.28-3-5-4.35-30.27-24.53-42.52-56.38-35.69-94.35,6.72-37.44,29.77-63,65.64-74.4,36.24-11.54,69.65-4,97.56,23,11.93,11.53,23.62,23.33,35.28,35.15,2.06,2.09,3.12,1.82,5-.09,13.31-13.35,26.31-27,40.19-39.76,36.79-33.68,100.33-32.14,136,8.95A120.7,120.7,0,0,1,448.14,220.77ZM147.6,314.66c1.25,0,2.5.07,3.74,0,10.47-.69,20.4-3.28,28.1-10.72,13.47-13,26.49-26.46,39.86-39.56,2.43-2.38,2.17-3.65-.09-5.87-11.05-10.84-22.16-21.62-32.81-32.85a53.16,53.16,0,0,0-63.9-10.41c-21.51,11.68-32.1,36.27-26,60.29C102.35,298.32,123.67,314.66,147.6,314.66Zm265-53.28c-.26-2.73-.36-5.48-.81-8.17-3.49-20.52-15.35-34.9-34.57-41.62-19.72-6.88-38.6-3.66-54.13,11.46C311,234.8,299.4,247,287.44,258.85c-2.15,2.12-2.37,3.26-.07,5.5,11.61,11.32,23.08,22.8,34.52,34.3,15.5,15.58,37.66,19.88,58.79,11.31C399.27,302.41,412.41,282.32,412.61,261.38Z"/><path class="cls-3" d="M93.14,342.78l.85.87Z"/><path class="cls-3" d="M147.6,314.66c-23.93,0-45.25-16.34-51.07-39.13-6.13-24,4.46-48.61,26-60.29a53.16,53.16,0,0,1,63.9,10.41c10.65,11.23,21.76,22,32.81,32.85,2.26,2.22,2.52,3.49.09,5.87-13.37,13.1-26.39,26.57-39.86,39.56-7.7,7.44-17.63,10-28.1,10.72C150.1,314.73,148.85,314.66,147.6,314.66ZM152,271.55c8.23,0,16.47.05,24.71,0a9.87,9.87,0,0,0,10-9.51c.17-5.51-3.55-10-9.32-10.06q-24.9-.35-49.79,0A9.36,9.36,0,0,0,118,262c.21,5.52,4.48,9.46,10.42,9.5C136.3,271.59,144.16,271.55,152,271.55Z"/><path class="cls-3" d="M412.61,261.38c-.2,20.94-13.34,41-31.93,48.58-21.13,8.57-43.29,4.27-58.79-11.31-11.44-11.5-22.91-23-34.52-34.3-2.3-2.24-2.08-3.38.07-5.5,12-11.86,23.59-24.05,35.66-35.8,15.53-15.12,34.41-18.34,54.13-11.46,19.22,6.72,31.08,21.1,34.57,41.62C412.25,255.9,412.35,258.65,412.61,261.38Zm-72.2,11.16h0c2.37,0,4.75.1,7.12,0,2.08-.11,2.91.62,2.85,2.77-.13,3.86-.1,7.73,0,11.6.12,6,4.12,10.12,9.72,10.16s9.76-4.09,9.91-10c.1-3.74.18-7.49,0-11.22-.14-2.71.92-3.48,3.48-3.33,3.23.18,6.49.12,9.74,0a9.69,9.69,0,0,0,9.34-9.77,9.36,9.36,0,0,0-8.9-9.7,99.22,99.22,0,0,0-10.49-.1c-2.53.11-3.25-.89-3.16-3.27.15-3.74.11-7.49,0-11.23-.14-6.09-4-10-9.82-10s-9.68,3.83-9.82,9.94c-.08,3.61-.17,7.24,0,10.85.16,2.73-.65,3.79-3.54,3.67-4.74-.18-9.5-.16-14.24.11-5.39.31-8.75,4.28-8.69,9.79a9.44,9.44,0,0,0,9,9.65C335.41,272.65,337.91,272.54,340.41,272.54Z"/><path class="cls-1" d="M152,271.55c-7.87,0-15.73,0-23.59,0-5.94,0-10.21-4-10.42-9.5a9.36,9.36,0,0,1,9.65-10.11q24.88-.31,49.79,0c5.77.08,9.49,4.55,9.32,10.06a9.87,9.87,0,0,1-10,9.51C168.5,271.6,160.26,271.55,152,271.55Z"/><path class="cls-1" d="M340.41,272.54c-2.5,0-5,.11-7.49,0a9.44,9.44,0,0,1-9-9.65c-.06-5.51,3.3-9.48,8.69-9.79,4.74-.27,9.5-.29,14.24-.11,2.89.12,3.7-.94,3.54-3.67-.2-3.61-.11-7.24,0-10.85.14-6.11,3.95-9.92,9.82-9.94s9.68,3.86,9.82,10c.09,3.74.13,7.49,0,11.23-.09,2.38.63,3.38,3.16,3.27a99.22,99.22,0,0,1,10.49.1,9.36,9.36,0,0,1,8.9,9.7,9.69,9.69,0,0,1-9.34,9.77c-3.25.1-6.51.16-9.74,0-2.56-.15-3.62.62-3.48,3.33.2,3.73.12,7.48,0,11.22-.15,5.9-4.31,10-9.91,10s-9.6-4.18-9.72-10.16c-.08-3.87-.11-7.74,0-11.6.06-2.15-.77-2.88-2.85-2.77-2.37.13-4.75,0-7.12,0Z"/></g></g></svg>