<svg xmlns="http://www.w3.org/2000/svg" viewBox="0 0 475.34 473.89"><defs><style>.cls-1{fill:#fbfbfb;}.cls-2{fill:#525252;}.cls-3{fill:#5c76b9;}</style></defs><g id="Layer_2" data-name="Layer 2"><g id="Layer_1-2" data-name="Layer 1"><circle class="cls-1" cx="237.67" cy="237.83" r="236.06"/><path class="cls-2" d="M242.41,0c56.94.64,110.81,20.92,155.85,62.47,44.65,41.2,70.54,92.49,76,153.33,6.07,67.75-13.15,127.84-57.63,179.21-35.47,41-80.33,66.45-133.47,77.14-8.81,1.77-9.82.85-7.81-8.1a165.56,165.56,0,0,0,2.58-60c-3.61-25.46-26.27-61.67-57.31-68.79-21.52-4.94-42.3-1.85-62.55,6-30.75,11.86-55.9,31.67-77.77,56-1.9,2.1-3.88,4.14-5.57,6.39-2.86,3.81-5.32,2.82-8.13-.09a231.2,231.2,0,0,1-32.91-43.16C9.18,318.77-2.64,273.82.49,225.65,5.48,148.88,39.35,87.54,102,42.83,142.54,13.85,188.26.09,242.41,0Zm-5.32,6.47c-6.63.34-13.28.49-19.9,1a225.76,225.76,0,0,0-23.68,3.41C102.18,28.65,29.4,100.59,11.62,192.14c-14.63,75.33,4.17,142.13,54,200.27,4.84,5.66,4.94,5.59,9.76.16,19.08-21.49,41-39.47,67-51.85,13.88-6.61,24.26-16.65,32.5-29.28,13.95-21.36,19.56-45.28,21.54-70.35.38-4.74-2.14-5-5.69-5.09-33.91-1.34-59-22.79-65.87-56.11-.43-2.11-1.3-4.38.64-6.11s4.09-.3,6,.63c8.26,4.13,16.87,4.72,25.74,2.69,1.53-.35,3.73-.23,4.14-2.09.36-1.62-1.65-2.3-2.72-3.25-13.92-12.35-18.23-27.75-14.25-45.62C148,109.44,156.94,95.5,168,82.8c1.37-1.58,2.76-3.72,5.36-2,2.34,1.54,1.69,3.69.92,5.81a91.87,91.87,0,0,0-5.13,22.33c-1.41,14,.15,27.32,10.18,38.3.83.91,1.59,2.58,3.07,2.1s.87-2.3,1-3.53a51.17,51.17,0,0,1,20.26-37c1.68-1.3,3.38-3,5.81-1.86s2,3.62,1.9,5.71c-.52,18.4,8.09,31,24.31,38.91a78,78,0,0,0,17.49,5.69c13.4,2.94,26.77,1,40.21.3,25.16-1.34,45.67,7.26,58.53,30.17,6,10.61,8.9,22.22,10.15,34.25a8.47,8.47,0,0,0,4.85,7.32c11.46,6.49,19.42,16.09,23.11,28.84,5.46,18.88,1.23,36.91-5.28,54.67-.58,1.58-1.59,2.91-3.66,2.85s-2.78-1.58-3.42-3.13c-1.52-3.69-3-7.4-4.49-11.1-1.25-3.06-2.46-4-5.6-1.32-11.88,10.09-26.09,14.33-41.37,15.23-2.52.15-3.78.84-5,3-10.69,19.56-21.27,39.18-32.44,58.47-4.65,8-7,15.33-4.77,25.09,4.33,19.38,2.69,39.08-1.13,58.52-.59,3-1.08,5.41,3.51,4.36,44.17-10.1,82.76-30.7,114.71-62.87C437.76,365,459.78,320.5,466.7,268.73c5.91-44.19.32-87-19.18-127.06C404.89,54.17,333.47,10.64,237.09,6.47Zm-73.73,95.45c-2.41,1.38-3.4,2.49-4.11,4-3.13,6.8-6.8,13.23-8.6,20.75-3.26,13.66-1.18,25.5,8.13,36.23,3.73,4.3,8.68,6.88,12.72,10.68,2.23,2.1,2.56,3.35-.58,5.14a45.48,45.48,0,0,1-16.24,5.33,45,45,0,0,1-16.83-.38c-1.51-.37-2.95-2.12-4.33-.5-1.13,1.32-.52,3.26.12,4.78,4.7,11.09,10.38,21.38,20.49,28.7,15.53,11.24,32.43,15.69,51.5,12.43,5.5-.94,11-2.19,16.56-2.69,2.29-.21,3.85,1.14,4,2.79s-1.33,3-3.56,3.27c-4.58.48-8.95,2.11-13.66,2.27-2.46.08-5.55.2-6,4.4-1.25,11.75-2.49,23.47-5.36,35.06-3,12.16-7.86,23.38-13.5,34.41C180.85,315,176.26,320.3,172.2,326c-.73,1-1.55,1.83-.9,3,1,1.87,1.83-.18,2.74-.21,5.13-.16,9.82-2.69,15.06-2.48,9.54.37,19-.44,28.62,1.67a76.42,76.42,0,0,1,39.16,21.73c7.84,8.05,14.79,17,18.71,27.88.37,1,1.18,2.56,2.66,2.67s2.1-1.36,2.72-2.51c1.63-3,3.15-6.11,4.88-9.07q15.61-26.62,29.95-54c1-2,1.19-3.07-.38-4.7-11.18-11.67-8.76-25.32-5.49-39.05,1.87-7.82,6.17-14.4,10.93-20.64,8.38-11,18.05-20.37,32-23.91,2.51-.64,3.28-2,2.65-4.33-1.08-4-1.19-8.06-2.13-12.09a68.12,68.12,0,0,0-13.5-28.4c-8-9.83-18.62-15.19-30.72-17-8.66-1.33-17.6-.74-26.38,0-14.12,1.2-28,.43-41.55-4-19.36-6.35-32.26-18.58-36-39.28-.19-1.07.27-2.55-1.31-2.87a2.65,2.65,0,0,0-2.87,1.45c-1.88,2.89-4.22,5.52-5.86,8.54a49.37,49.37,0,0,0-5.84,27.06c.27,4.64-1.32,5.62-5.24,3.29-12-7.14-19-17.74-20.79-31.64C162.24,119.06,163.24,110.94,163.36,101.92Zm158.06,159.2c10.72.86,20.1,2.74,28.84,7.14,13,6.53,22.15,16.72,28.86,29.39.48.9.56,2.63,2.19,2.19,1-.27,1.11-1.52,1.3-2.51.85-4.41,2-8.79,2.56-13.23,3.06-22.54-6.59-42-24.8-50.5a8.7,8.7,0,0,0-6.67-.71C339.09,237.36,330.07,248.13,321.42,261.12Zm-7.48,27.36a33.29,33.29,0,0,0,1.62,10c2.09,5.72,7.19,10.38,11.86,9.93,13.29-1.29,25.63-5.23,36.16-13.92,2.47-2,2.26-3.54.28-5.67-11.76-12.59-26.73-18.06-43.41-19.8a3,3,0,0,0-3.66,2.46A77.32,77.32,0,0,0,313.94,288.48Z"/><path class="cls-3" d="M163.36,101.92c-.12,9-1.12,17.14-.06,25.22,1.82,13.9,8.78,24.5,20.79,31.64,3.92,2.33,5.51,1.35,5.24-3.29a49.37,49.37,0,0,1,5.84-27.06c1.64-3,4-5.65,5.86-8.54a2.65,2.65,0,0,1,2.87-1.45c1.58.32,1.12,1.8,1.31,2.87,3.74,20.7,16.64,32.93,36,39.28,13.57,4.45,27.43,5.22,41.55,4,8.78-.75,17.72-1.34,26.38,0,12.1,1.85,22.7,7.21,30.72,17a68.12,68.12,0,0,1,13.5,28.4c.94,4,1.05,8.13,2.13,12.09.63,2.34-.14,3.69-2.65,4.33-13.93,3.54-23.6,12.94-32,23.91-4.76,6.24-9.06,12.82-10.93,20.64-3.27,13.73-5.69,27.38,5.49,39.05,1.57,1.63,1.41,2.74.38,4.7q-14.34,27.35-29.95,54c-1.73,3-3.25,6-4.88,9.07-.62,1.15-1.11,2.63-2.72,2.51s-2.29-1.64-2.66-2.67c-3.92-10.87-10.87-19.83-18.71-27.88A76.42,76.42,0,0,0,217.72,328c-9.61-2.11-19.08-1.3-28.62-1.67-5.24-.21-9.93,2.32-15.06,2.48-.91,0-1.74,2.08-2.74.21-.65-1.2.17-2,.9-3,4.06-5.72,8.65-11.07,11.88-17.39,5.64-11,10.48-22.25,13.5-34.41,2.87-11.59,4.11-23.31,5.36-35.06.45-4.2,3.54-4.32,6-4.4,4.71-.16,9.08-1.79,13.66-2.27,2.23-.23,3.68-1.6,3.56-3.27s-1.68-3-4-2.79c-5.58.5-11.06,1.75-16.56,2.69-19.07,3.26-36-1.19-51.5-12.43-10.11-7.32-15.79-17.61-20.49-28.7-.64-1.52-1.25-3.46-.12-4.78,1.38-1.62,2.82.13,4.33.5a45,45,0,0,0,16.83.38,45.48,45.48,0,0,0,16.24-5.33c3.14-1.79,2.81-3,.58-5.14-4-3.8-9-6.38-12.72-10.68-9.31-10.73-11.39-22.57-8.13-36.23,1.8-7.52,5.47-13.95,8.6-20.75C160,104.41,161,103.3,163.36,101.92Z"/></g></g></svg>