<svg xmlns="http://www.w3.org/2000/svg" viewBox="0 0 246.79 202.51"><defs><style>.cls-1{fill:#fefdfd;}.cls-2{fill:#f19535;}.cls-3{fill:#f8c77a;}.cls-4{fill:#f3a751;}.cls-5{fill:#9a7e67;}.cls-6{fill:#3e8dc1;}.cls-7{fill:#f8c87a;}.cls-8{fill:#72b5db;}.cls-9{fill:#17638d;}</style></defs><g id="Layer_2" data-name="Layer 2"><g id="Layer_1-2" data-name="Layer 1"><path class="cls-1" d="M2.08,148.88c-1.7,3.84-1.46,7.34,1.84,10.29,1.57,6.26,6.83,7.8,12,8.53,3.94.55,8.56,1.25,11.2-3.41l1.64-1.07c1.91.81,2.43-.14,2.35-1.85l2.65-2.08c1.93.73,2.44-.26,2.35-2l2.64-2c1.88.65,2.47-.25,2.37-2l1.58-1.09c1.88.78,2.44-.14,2.34-1.86l2.66-2.06c1.85.72,2.39-.25,2.4-1.88l2.59-2.06c1.85.62,2.45-.27,2.4-2l1.55-1.09c2.4.56,3.15-.88,3.46-2.86l1.53-1.09c1.85.71,2.4-.24,2.4-1.88l2.62-2c2.48.67,3.35-1.75,4.92-2.71,4.35-2.67,4.56-2.56,5.32,2.43,3.3,21.46,13.54,38.91,31.1,51.71,19.27,14,40.77,19.85,64.61,16.79,25.72-3.32,46.56-15.15,61.07-36.53,23.19-34.15,14-74.5-15-100.28-11.61-10.34-24.19-19.6-36.48-29.15-10.32-8-20.17-16.62-31-24-4.53-3.71-8.66-8-14.09-10.46-9.54-3.33-16.95-.12-19.75,8.55-2.23,5.77.44,9.68,4.73,13.21,8.26,6.78,17.22,12.72,24.66,20.5-1.81.05-3.62.14-5.44.14q-23,.08-45.95.12c-14-.06-28.06-.25-42.09-.14-8,.06-13.21,4.46-15.62,12.52-3,8.85,1,14.83,10.2,14.93,10.73.13,21.46,0,32.19.09,4.27,0,8.6-.63,12.8.7C67.5,91.71,42,111.42,16.76,131.4c-5.27,4.17-12,7.25-13.91,14.68Z"/><path class="cls-2" d="M37.71,56.19c2.41-8.06,7.6-12.46,15.62-12.52,14-.11,28.06.08,42.09.14.57,2.73,2.78,1.85,4.42,1.88,5,.1,10,0,15,0a5.88,5.88,0,0,1-1.71,2.78c-.92,1-2.89,1.77-2.09,3.47.63,1.34,2.39.56,3.65.69,2.69.29,5.5-.5,8.41.67-1.77,2.55-4.31,3.11-6.45,4.12-7,3.32-14.45,6.1-15.86,15.24a2.82,2.82,0,0,1-.67,1.32c-7.47,8.55-11.43,19.29-17.65,28.62a30.43,30.43,0,0,0-3.85,8.56c-.65,2.28.21,5,2.63,5.84,2.73.93,2.5-2.16,3.06-3.54,7.64-18.66,21-31.36,39.83-38.31,3.69-1.36,7.78-2,10.86-4.56,5.8-4.92,13-5.14,19.88-5.9A54.57,54.57,0,0,1,192,74c3.89,2.6,9.6,4.4,9.75,10.74-2.75-2.35-5.41-4.81-8.25-7-22.2-17.37-56-13.25-73.38,8.91-10.63,13.54-12.81,33.92-5.06,47.25C126.78,154,147.85,164.1,171,160c25.17-4.47,43.78-25.2,40.92-52-.95-8.86-5.22-16.27-10.19-23.37,3.42.1,5.15,2.28,6.81,5,2.68,4.38,3.3,9.68,6.42,13.83l3.88,9.94c-2.13.29-1.93,1.92-1.92,3.41A37.83,37.83,0,0,1,215.1,127c-4.39,15.79-15,26.11-29.43,32.79-13.2,6.11-26.85,6.92-41.09,3.59-10.41-2.43-19.07-8.16-28.29-12.88-2.2-1.12-3.82-1.72-5.76.12-6.27,5.95-6.78,10.91-1.31,17.7a41.39,41.39,0,0,0,7.83,7.59c22.86,16.63,47.76,19.94,74.61,11.51,6-1.9,11.1-5.76,17.2-7.29-3.46,4.54-8.77,6.08-13.65,8.23q-33.53,14.77-67.39.65c-7.64-3.19-14.11-8.34-21.56-11.77l-1-1a1.69,1.69,0,0,0-1.9-1.1c-.15-2.6-2.33-3.63-4-5.09,0-1.28-1-1.94-1.74-2.85-9.53-11.59-16.15-24.49-17.16-39.76-.17-2.54,0-5.32-2.52-6.58-2.84-1.44-4.86.8-7,2.47-14.47,11.5-28.82,23.16-43.54,34.33-9,6.81-17.77,4.21-22.7-6A2.31,2.31,0,0,0,3,150.23l-.13-.35,0-3.78c1.92-7.45,8.64-10.53,13.91-14.7C42,111.42,67.5,91.71,92.89,71.91c1.32-1.07,3.83-1.63,2.92-3.91-.71-1.77-2.89-1.21-4.51-1.21-14.42,0-28.85,0-43.27,0C40.31,66.73,37.78,64.07,37.71,56.19Z"/><path class="cls-3" d="M106.26,177.24c7.45,3.43,13.92,8.58,21.56,11.77q33.92,14.13,67.39-.65c4.88-2.15,10.19-3.69,13.65-8.23,15.69-20.4,18.83-42.67,9.94-66.72q-2-5-3.88-9.94c1.59-1.44.72-3,.22-4.55C211.25,86.76,203.4,77.56,193,70.72a68.34,68.34,0,0,0-31.85-11c-6-.53-7.52-2.87-4.85-8.19a27.22,27.22,0,0,0,2.86-7.87H172c.87-.21.78-.54.12-.94l-5.28-5.9a17.66,17.66,0,0,1,3.35-2c4.75-1.58,3.75-2.9.34-5.34-5.6-4-10.84-8.51-16.13-12.94-1.45-1.21-3.29-2.37-3.15-4.74,10.8,7.39,20.65,16,31,24,12.29,9.55,24.87,18.81,36.48,29.15,28.94,25.78,38.18,66.13,15,100.28-14.51,21.38-35.35,33.21-61.07,36.53-23.84,3.06-45.34-2.75-64.61-16.79-17.56-12.8-27.8-30.25-31.1-51.71-.76-5-1-5.1-5.32-2.43-1.57,1-2.44,3.38-4.92,2.71,0-2.85,4.5-2.85,3.89-6.1v0c.79.12,1.14-.19,1-1h0l6,.24a17.88,17.88,0,0,1,1,3.26,63.36,63.36,0,0,0,11.92,31.79c-.21.38-.67.85-.57,1.11.27.68.93.66,1.56.43l0-.05c-.35,1.69.23,2.76,2,3l0,0c0,.73.28,1.1,1,1l0,0c-.06.75.27,1.12,1,1l0,0c-.55,2.52.22,4,3,4l0,0c-.07.77.28,1.12,1,1l0,0c-.08.77.27,1.12,1,1l0,0c-.07.77.27,1.11,1,1l0,0c.3,3.4,2.63,4.77,5.55,5.54.82,2.36,2.79,3.56,4.73,4.87a85.81,85.81,0,0,0,54.71,14.86c17.05-1,32.18-6.73,46.06-16.31.89-.62,2.05-1.28,1-2.69a2.87,2.87,0,0,0-1,.19c-1.27.79-2.49,1.65-3.76,2.44-19.38,12-40.35,15.8-62.78,12.16-14.12-2.29-26.7-8.1-38.26-16.35-.57-.77-1.13-1.55-1.69-2.32ZM219.76,176l-1.07.92a5.28,5.28,0,0,0-3.17,2.83l-.41,1,1-.38c1.81-.1,2.69-1.23,3.12-2.85.31-.35.63-.69.94-1.05l.92-1.11a4.69,4.69,0,0,0,4-4c8.4-5.47,12.48-13.69,14.63-23.12,1.79-.87,2.25-2.2,1.56-4.25a7.39,7.39,0,0,0-1.57,4.25,117.22,117.22,0,0,1-15,22.85l-4,4Z"/><path class="cls-4" d="M159.11,43.64a27.22,27.22,0,0,1-2.86,7.87c-2.67,5.32-1.19,7.66,4.85,8.19a68.34,68.34,0,0,1,31.85,11c10.45,6.84,18.3,16,22.19,28.2.5,1.58,1.37,3.11-.22,4.55-3.12-4.15-3.74-9.45-6.42-13.83-1.66-2.7-3.39-4.88-6.81-5l0,0c-.15-6.35-5.86-8.15-9.75-10.75a54.57,54.57,0,0,0-37.06-9.22c-6.9.76-14.08,1-19.88,5.9-3.08,2.61-7.17,3.2-10.86,4.56C105.3,82.14,92,94.84,84.35,113.5c-.56,1.38-.33,4.47-3.06,3.54-2.42-.83-3.28-3.56-2.63-5.84a30.43,30.43,0,0,1,3.85-8.56C88.73,93.31,92.69,82.57,100.16,74a2.82,2.82,0,0,0,.67-1.32c1.41-9.14,8.84-11.92,15.86-15.24,2.14-1,4.68-1.57,6.45-4.12-2.91-1.17-5.72-.38-8.41-.67-1.26-.13-3,.65-3.65-.69-.8-1.7,1.17-2.43,2.09-3.47a5.88,5.88,0,0,0,1.71-2.78c-5,0-10,.06-15,0-1.64,0-3.85.85-4.42-1.88q23-.06,46-.12c1.82,0,3.63-.09,5.42-.14,1.64.23,2.34-1,3.16-2.07C152.49,44.37,156.44,41.29,159.11,43.64Z"/><path class="cls-2" d="M159.11,43.64c-2.67-2.35-6.62.73-9.16-2.16-1.06-1.94-2.83-3.17-4.49-4.51-7.83-6.28-15.68-12.51-23.45-18.86-2.57-2.1-4.9-4.5-4.59-8.27,2.8-8.67,10.21-11.88,19.75-8.55.24,2.41,1.9,4.8-1.29,7-1.69,1.13.14,2.93,1.4,4,4.6,4,9.16,8.07,13.85,12,5.17,4.28,10.47,8.39,15.72,12.58l5.28,5.9a7.32,7.32,0,0,0-.12.94Z"/><path class="cls-4" d="M166.85,36.81c-5.25-4.19-10.55-8.3-15.72-12.58-4.69-3.89-9.25-7.95-13.85-12-1.26-1.09-3.09-2.89-1.4-4,3.19-2.16,1.53-4.55,1.29-7,5.43,2.5,9.56,6.75,14.09,10.46-.14,2.37,1.7,3.53,3.15,4.74,5.29,4.43,10.53,8.94,16.13,12.94,3.41,2.44,4.41,3.76-.34,5.34A17.66,17.66,0,0,0,166.85,36.81Z"/><path class="cls-5" d="M37.71,56.19c.07,7.88,2.6,10.54,10.32,10.56,14.42,0,28.85,0,43.27,0,1.62,0,3.8-.56,4.51,1.21.91,2.28-1.6,2.84-2.92,3.91-4.19-1.33-8.52-.66-12.79-.7-10.73-.1-21.46,0-32.19-.09C38.71,71,34.71,65,37.71,56.19Z"/><path class="cls-5" d="M70.57,127.4c.61,3.25-3.88,3.25-3.89,6.1l-2.62,2a2.32,2.32,0,0,0-2.4,1.88l-1.52,1.09a4.4,4.4,0,0,0-3.47,2.86l-1.55,1.08a2.47,2.47,0,0,0-2.4,2c-.87.69-1.73,1.37-2.58,2.06-1.36-.09-2,.72-2.41,1.88l-2.65,2.06a2.4,2.4,0,0,0-2.35,1.86l-1.57,1.09a2.49,2.49,0,0,0-2.38,2l-2.64,2a2.59,2.59,0,0,0-2.36,2l-2.64,2.08a2.41,2.41,0,0,0-2.35,1.85l-1.64,1.06c-1.21.49-2.4,1.05-3.65,1.47-7,2.34-14.09,0-15.93-5.25,9.05,4.45,17,3.21,24.53-3.75A180.13,180.13,0,0,1,50,142.62C56.94,137.66,62.8,131.23,70.57,127.4Z"/><path class="cls-5" d="M117.42,9.84c-.31,3.77,2,6.17,4.59,8.27,7.77,6.35,15.62,12.58,23.45,18.86,1.66,1.34,3.43,2.57,4.49,4.51-.82,1.06-1.52,2.3-3.16,2.07-7.42-7.78-16.38-13.72-24.64-20.5C117.86,19.52,115.19,15.61,117.42,9.84Z"/><path class="cls-3" d="M7.57,160.49c1.84,5.23,9,7.6,15.93,5.26,1.25-.42,2.44-1,3.65-1.47-2.64,4.67-7.26,4-11.2,3.42-5.2-.73-10.46-2.27-12-8.53l.06,0c1.05.61,2,1.45,3.37,1.1Z"/><path class="cls-3" d="M3.92,159.17c-3.3-2.95-3.54-6.45-1.84-10.29.28.33.55.66.82,1l.12.35c0,.89-.07,1.78-.1,2.67,0,1.5-.5,3.12,1,4.3h0L4,159.13Z"/><path class="cls-3" d="M56.67,141.36a4.4,4.4,0,0,1,3.47-2.86C59.82,140.48,59.07,141.92,56.67,141.36Z"/><path class="cls-3" d="M47.73,148.36c.39-1.16,1.05-2,2.41-1.88C50.12,148.11,49.58,149.08,47.73,148.36Z"/><path class="cls-3" d="M42.73,152.28a2.4,2.4,0,0,1,2.35-1.86C45.17,152.14,44.61,153.06,42.73,152.28Z"/><path class="cls-3" d="M38.78,155.35a2.49,2.49,0,0,1,2.38-2C41.25,155.1,40.66,156,38.78,155.35Z"/><path class="cls-3" d="M33.79,159.29a2.57,2.57,0,0,1,2.35-2C36.23,159,35.72,160,33.79,159.29Z"/><path class="cls-3" d="M28.79,163.22a2.41,2.41,0,0,1,2.35-1.85C31.22,163.08,30.7,164,28.79,163.22Z"/><path class="cls-3" d="M61.66,137.41a2.32,2.32,0,0,1,2.4-1.88C64.06,137.17,63.51,138.12,61.66,137.41Z"/><path class="cls-3" d="M52.72,144.42a2.47,2.47,0,0,1,2.4-2C55.17,144.15,54.57,145,52.72,144.42Z"/><path class="cls-5" d="M2.9,149.88c-.27-.34-.54-.67-.82-1,.26-.93.51-1.86.77-2.79C2.87,147.36,2.89,148.62,2.9,149.88Z"/><path class="cls-1" d="M201.69,84.66c5,7.1,9.24,14.51,10.19,23.37,2.86,26.77-15.75,47.5-40.92,52-23.11,4.1-44.18-6-55.92-26.18-7.75-13.33-5.57-33.71,5.06-47.25,17.38-22.16,51.18-26.28,73.38-8.91,2.84,2.22,5.5,4.68,8.25,7Zm-40.1,57.8c2.67.36,5.74-.36,8.78-1.08a31.38,31.38,0,0,0,23.38-25.58c1.52-9.94-4.78-22.51-14.73-28.09-4.31-2.42-9.22-5.06-14.09-4.69-8.21.62-16.55,1.19-23.94,6.3-5.66,3.92-13.75,17.42-12.82,24C130.59,130.52,144.05,142.43,161.59,142.46Z"/><path class="cls-4" d="M218.8,113.41c8.89,24.05,5.75,46.32-9.94,66.72-6.1,1.53-11.17,5.39-17.2,7.29-26.85,8.43-51.75,5.12-74.61-11.51a41.39,41.39,0,0,1-7.83-7.59c-5.47-6.79-5-11.75,1.31-17.7,1.94-1.84,3.56-1.24,5.76-.12,9.22,4.72,17.88,10.45,28.29,12.88,14.24,3.33,27.89,2.52,41.09-3.59,14.44-6.68,25-17,29.43-32.79a37.83,37.83,0,0,0,1.78-10.18C216.87,115.33,216.67,113.7,218.8,113.41Z"/><path class="cls-4" d="M2.92,152.9c0-.89.07-1.78.1-2.67a2.31,2.31,0,0,1,1.8,1.45c4.93,10.2,13.72,12.8,22.7,6,14.72-11.17,29.07-22.83,43.54-34.33,2.1-1.67,4.12-3.91,7-2.47,2.49,1.26,2.35,4,2.52,6.58,1,15.27,7.63,28.17,17.16,39.76.74.91,1.7,1.57,1.74,2.85l-1.33.25-2.7-2.16,0,0-1-1,0,0-1-1,0,0a3.31,3.31,0,0,0-2-3l0,.05-1-1.54a63.36,63.36,0,0,1-11.92-31.79,17.17,17.17,0,0,0-1-3.26c1.06-1.38,1.1-2.75-.34-3.8-1.18-.85-2.16.24-3.06.8a5.29,5.29,0,0,0-2.61,2.76h0a1,1,0,0,0-1,1v0C62.8,131.23,56.94,137.66,50,142.62a180.13,180.13,0,0,0-17.9,14.13c-7.53,7-15.48,8.2-24.53,3.75l-.22-.27-3.46-3h0C3.84,155.7,4,154.15,2.92,152.9Z"/><path class="cls-3" d="M98.11,170.31l1.33-.25c1.62,1.46,3.8,2.49,4,5.09l-.12.15-1.88-.19,0,0-1-1,0,0c-.35-.35-.7-.69-1-1l0,0-1-1,0,0Z"/><path class="cls-3" d="M103.39,175.15a1.69,1.69,0,0,1,1.9,1.1l-.32.4-1.7-1.35Z"/><path class="cls-3" d="M105.29,176.25l1,1-.3.25-1-.84Z"/><path class="cls-5" d="M107.65,179.82c11.56,8.25,24.14,14.06,38.26,16.35,22.43,3.64,43.4-.12,62.78-12.16,1.27-.79,2.49-1.65,3.76-2.44a2.87,2.87,0,0,1,1-.19c1,1.41-.12,2.07-1,2.69-13.88,9.58-29,15.29-46.06,16.31a85.81,85.81,0,0,1-54.71-14.86c-1.94-1.31-3.91-2.51-4.73-4.87Z"/><path class="cls-5" d="M224.78,171.11a117.22,117.22,0,0,0,15-22.85h0c-2.15,9.43-6.23,17.65-14.64,23.12Z"/><path class="cls-5" d="M71.56,126.39a5.29,5.29,0,0,1,2.61-2.76c.9-.56,1.88-1.65,3.06-.8,1.44,1,1.4,2.42.34,3.8Z"/><path class="cls-5" d="M105,176.65l1,.84c.56.78,1.12,1.56,1.69,2.33l-.71.83c-2.92-.77-5.25-2.14-5.55-5.54l1.88.19Z"/><path class="cls-5" d="M98.11,170.31l.33,1.86c-2.81,0-3.58-1.5-3-4Z"/><path class="cls-5" d="M220.8,175.09l4-4,.35.27a4.67,4.67,0,0,1-4,4Z"/><path class="cls-5" d="M215.51,179.77a5.33,5.33,0,0,1,3.18-2.83c.19.21.39.42.59.62-.44,1.61-1.32,2.74-3.13,2.84C215.94,180.19,215.73,180,215.51,179.77Z"/><path class="cls-5" d="M239.76,148.26a7.39,7.39,0,0,1,1.57-4.25c.69,2.05.23,3.38-1.56,4.25Z"/><path class="cls-5" d="M91.43,163.17a3.31,3.31,0,0,1,2,3C91.66,165.93,91.08,164.86,91.43,163.17Z"/><path class="cls-5" d="M90.48,161.68l1,1.54c-.63.23-1.29.25-1.56-.43C89.81,162.53,90.27,162.06,90.48,161.68Z"/><path class="cls-5" d="M93.42,166.17l1,1C93.7,167.27,93.37,166.9,93.42,166.17Z"/><path class="cls-5" d="M94.41,167.16l1,1C94.68,168.28,94.35,167.91,94.41,167.16Z"/><path class="cls-5" d="M70.58,127.38a1,1,0,0,1,1-1C71.72,127.19,71.37,127.5,70.58,127.38Z"/><path class="cls-4" d="M172,43.65a7.32,7.32,0,0,1,.12-.94C172.79,43.11,172.88,43.44,172,43.65Z"/><path class="cls-5" d="M98.4,172.12l1,1C98.68,173.24,98.33,172.89,98.4,172.12Z"/><path class="cls-5" d="M99.4,173.12c.34.35.69.69,1,1C99.67,174.24,99.32,173.89,99.4,173.12Z"/><path class="cls-5" d="M100.39,174.12l1,1C100.66,175.23,100.32,174.89,100.39,174.12Z"/><path class="cls-5" d="M218.69,176.94l1.07-.92c.15.16.3.33.46.49-.32.35-.64.69-.95,1.05Z"/><path class="cls-5" d="M216.15,180.4l-1,.38c.13-.34.27-.67.41-1Z"/><path class="cls-5" d="M221.13,175.39l-.92,1.11-.45-.48,1-.93Z"/><path class="cls-5" d="M3.89,157.21l3.46,3C6,160.58,5,159.74,4,159.13Z"/><path class="cls-5" d="M2.92,152.9c1.12,1.25.92,2.8,1,4.3C2.42,156,2.92,154.4,2.92,152.9Z"/><path class="cls-6" d="M161.59,142.46c-17.54,0-31-11.94-33.42-29.13-.93-6.59,7.16-20.09,12.82-24,7.39-5.11,15.73-5.68,23.94-6.3,4.87-.37,9.78,2.27,14.09,4.69,9.95,5.58,16.25,18.15,14.73,28.09a31.38,31.38,0,0,1-23.38,25.58C167.33,142.1,164.26,142.82,161.59,142.46Z"/><path class="cls-7" d="M23,168.42c7.27-3.52,13.66-8.51,19.93-13.55,1.62-1.29,3.24-2.57,4.77-4s3.08-3,4.71-4.35c3.28-2.78,6.82-5.28,10.25-7.87l12.16-9.16c1.52-1.15,0-3.75-1.51-2.59-7,5.25-14,10.39-20.88,15.76-3.32,2.6-6.22,5.68-9.49,8.34s-6.35,5.13-9.64,7.54a76.89,76.89,0,0,1-11.82,7.25c-1.74.85-.22,3.43,1.52,2.59Z"/><path class="cls-5" d="M19.31,167.39C23.69,167,27.53,165,31,162.48s7.06-5.59,10.49-8.49c7.13-6,14.13-12.14,21.49-17.85,4.2-3.25,8.53-6.34,13-9.18,1.63-1,.12-3.63-1.52-2.59-15.36,9.71-28.46,22.39-42.62,33.69-3.65,2.92-7.77,5.93-12.59,6.33-1.91.16-1.93,3.17,0,3Z"/><path class="cls-7" d="M0,154.45a13.15,13.15,0,0,0,.49,3.64,13.57,13.57,0,0,0,1.78,3.34,10.8,10.8,0,0,0,2.31,2.85c1,.76,2.07,1.42,3.11,2.12a1.5,1.5,0,1,0,1.52-2.59c-.93-.62-1.86-1.22-2.77-1.86a2.66,2.66,0,0,1-.69-.69c-.3-.44-.59-.89-.89-1.34a11.26,11.26,0,0,1-1.45-2.54A9.88,9.88,0,0,1,3,154.45,1.52,1.52,0,0,0,1.5,153a1.51,1.51,0,0,0-1.5,1.5Z"/><path class="cls-5" d="M1.44,150.36a18.11,18.11,0,0,0,1.24,5.84c.59,1.88,1,3.84,2.34,5.38A20.35,20.35,0,0,0,9.2,165.2a11.64,11.64,0,0,0,5.57,1.91,1.5,1.5,0,1,0,0-3,8.68,8.68,0,0,1-4.16-1.57,17.1,17.1,0,0,1-3.43-3c-.93-1.15-1.22-2.86-1.65-4.24a15.53,15.53,0,0,1-1.09-4.91c.07-1.93-2.93-1.93-3,0Z"/><path class="cls-5" d="M1.23,150.17l.32,1.54L3,149.81H3l.4.05h0l.66.38a.16.16,0,0,1-.07-.07l.23.31,0-.05.15.36a1,1,0,0,1,0-.17l0,.4a6,6,0,0,1,.06-1.12l0,.4a4.71,4.71,0,0,1,.09-.52L1.48,149a4.46,4.46,0,0,0,.46,3.08,1.5,1.5,0,0,0,1.88.61,1.47,1.47,0,0,0,.86-1.77c-.12-.33-.25-.66-.38-1a2.33,2.33,0,0,0-.55-.9,3.73,3.73,0,0,0-.57-.41l.3.23-.09-.08-2.12,2.12a.94.94,0,0,1,.1.1l-.24-.3a1.62,1.62,0,0,1,.1.18l-.15-.35a5.77,5.77,0,0,1,.24.93c.08.36.17.71.27,1.07.19.7.42,1.4.68,2.09a1.58,1.58,0,0,0,.68.9,1.51,1.51,0,0,0,2.21-1.7c-.29-.79-.55-1.59-.76-2.4a5.47,5.47,0,0,0-1-2.64,1.51,1.51,0,0,0-2.12,0,1.54,1.54,0,0,0,0,2.12,4.17,4.17,0,0,0,.67.5l-.31-.24.1.1-.24-.3a.61.61,0,0,1,.07.14l-.15-.36.38,1,2.74-1.15c0-.1-.1-.19-.14-.29l.15.36a2.91,2.91,0,0,1-.2-.77l0,.4a2.81,2.81,0,0,1,0-.71l-.06.4,0-.16a1.62,1.62,0,0,0-.15-1.16,1.56,1.56,0,0,0-.9-.69A1.52,1.52,0,0,0,1.48,149a8.44,8.44,0,0,0-.21,1.81,2.24,2.24,0,0,0,.25,1.16,1.72,1.72,0,0,0,1.48.87,1.46,1.46,0,0,0,1.18-.59,1.53,1.53,0,0,0,.27-1.31l-.32-1.54a1.52,1.52,0,0,0-1.85-1.05,1.55,1.55,0,0,0-1,1.85Z"/><path class="cls-4" d="M1.05,150.26c1.24,2.31,2.48,4.63,3.79,6.9a5.9,5.9,0,0,0,1.09,1.48c.49.45,1,.83,1.57,1.24l3.24,2.49a1.51,1.51,0,0,0,2.06-.54,1.54,1.54,0,0,0-.54-2.05l-3-2.29a14.15,14.15,0,0,1-1.23-1,5.13,5.13,0,0,1-.84-1.26c-1.22-2.15-2.4-4.33-3.57-6.51a1.51,1.51,0,0,0-2-.54,1.53,1.53,0,0,0-.54,2Z"/><path class="cls-2" d="M2.43,146.7l0,.26.06-.4a3.86,3.86,0,0,1-.25,1l.16-.36a3.13,3.13,0,0,1-.36.58l.24-.3a1.79,1.79,0,0,1-.22.25l.31-.23,0,0,.35-.15,0,0,.4-.06H3l.4.05-.09,0,.36.15,0,0,.3.23-.07-.07L4,148a.41.41,0,0,1,0-.09l.15.36v-.05l0,.4a.2.2,0,0,1,0-.11l-.06.39a1.09,1.09,0,0,1,0-.17l-.15.36A7.59,7.59,0,0,1,4.79,148L2,147.2,2,148a4.39,4.39,0,0,0,.13,1A14.27,14.27,0,0,0,3,150.57l-.15-.36a5.44,5.44,0,0,1,.23.68,1.5,1.5,0,1,0,2.89-.8,6.32,6.32,0,0,0-.48-1.25c-.15-.31-.36-.58-.51-.9l.16.36A1.09,1.09,0,0,1,5,148l.05.4C5,148,5,147.6,5,147.2a1.54,1.54,0,0,0-1.11-1.44,1.76,1.76,0,0,0-.79,0,1.56,1.56,0,0,0-.9.69A5,5,0,0,0,1.26,148a1.85,1.85,0,0,0,.31,1.67,1.77,1.77,0,0,0,1.83.65,2.29,2.29,0,0,0,1.2-1,3.81,3.81,0,0,0,.43-.76,6.44,6.44,0,0,0,.4-1.84A1.44,1.44,0,0,0,5,145.64a1.54,1.54,0,0,0-1.06-.44,1.56,1.56,0,0,0-1.06.44l-.23.3a1.48,1.48,0,0,0-.21.76Z"/><path class="cls-2" d="M1.42,148.72a14.22,14.22,0,0,0,2.74,5.16,22.75,22.75,0,0,0,4.14,4.35,15.78,15.78,0,0,0,4.88,3.21,7.84,7.84,0,0,0,5.75-.45,1.5,1.5,0,0,0,.54-2.05,1.54,1.54,0,0,0-2-.54c-3,1.37-5.51-1-7.62-2.82a18.42,18.42,0,0,1-3.21-3.45,11.75,11.75,0,0,1-2.28-4.21,1.53,1.53,0,0,0-1.85-1,1.53,1.53,0,0,0-1,1.85Z"/><path class="cls-7" d="M87.17,163.2c2.86,4.36,5.78,8.72,8.92,12.89a6.68,6.68,0,0,0,2.28,2,20.81,20.81,0,0,1,2.86,2,35.86,35.86,0,0,1,5.59,5.14c1.25,1.48,3.36-.66,2.12-2.12a34.55,34.55,0,0,0-5.28-4.9c-.9-.7-1.78-1.43-2.72-2.07a9,9,0,0,1-2.46-1.8c-3.08-4.07-5.92-8.35-8.72-12.61-1.06-1.61-3.66-.11-2.59,1.51Z"/><path class="cls-5" d="M89.13,162.68A36.06,36.06,0,0,0,93.39,169c.87,1,1.86,2,2.65,3.1s1.37,2.1,2.18,3.08c3.39,4.12,7.77,7.34,12,10.49,1.55,1.14,3-1.46,1.51-2.6-4.05-3-8.22-6.08-11.42-10-.76-.94-1.34-2-2.07-3s-1.57-1.85-2.36-2.77a31.34,31.34,0,0,1-4.19-6.19c-.9-1.71-3.49-.19-2.59,1.52Z"/><path class="cls-5" d="M213.51,184.47a57.62,57.62,0,0,0,9-7.44c1.4-1.43,2.62-3,4-4.48s2.85-2.45,4.06-3.93c2.46-3,4.13-6.56,5.92-10,1-1.89,2.07-3.76,2.91-5.72s1.29-3.86,2.15-5.7c.54-1.16-1.18-2.17-1.73-1-.78,1.66-1.27,3.42-1.92,5.13a53.93,53.93,0,0,1-2.8,5.65c-1.82,3.46-3.46,7.17-5.94,10.22-1.17,1.43-2.65,2.47-3.92,3.78s-2.4,2.82-3.68,4.16a55.61,55.61,0,0,1-9,7.6c-1.06.71-.06,2.45,1,1.72Z"/><path class="cls-7" d="M240.27,150.28a6,6,0,0,1-1.19,2.45,8,8,0,0,0-1,2.46,16.67,16.67,0,0,1-2.61,5,19.33,19.33,0,0,0-1.31,2.46,15.08,15.08,0,0,1-1.67,2.64c-1.23,1.66-2.45,3.34-3.76,4.94a29.42,29.42,0,0,1-4.85,4.81c-.51.38,0,1.25.5.86,3.36-2.53,5.86-5.91,8.35-9.26a23.32,23.32,0,0,0,1.91-2.72c.49-.89.85-1.83,1.37-2.71,1-1.65,2.24-3.15,2.84-5,.17-.54.26-1.1.42-1.64a6.43,6.43,0,0,1,.73-1.46,6.42,6.42,0,0,0,1.22-2.79c.06-.64-.94-.63-1,0Z"/><path class="cls-7" d="M211.37,186.25a9.39,9.39,0,0,0,2-1.31c.65-.49,1.3-1,1.94-1.49,1.36-1.07,2.7-2.18,4-3.29,2.7-2.24,5.39-4.5,8.26-6.52.52-.37,0-1.24-.51-.87-2.75,1.94-5.34,4.09-7.92,6.24-1.3,1.08-2.61,2.17-3.94,3.23-.66.53-1.32,1-2,1.56a10.28,10.28,0,0,1-2.17,1.48c-.6.24-.34,1.2.26,1Z"/><path class="cls-7" d="M211.43,185a5,5,0,0,0-1.37.86l-1.38,1-2.76,2a.52.52,0,0,0-.17.69.5.5,0,0,0,.68.18l2.67-2,1.29-.95.69-.51a2.46,2.46,0,0,1,.62-.38c.6-.2.34-1.17-.27-1Z"/><path class="cls-7" d="M113.63,183.52a16.05,16.05,0,0,1-2.82-1.61c-.9-.57-1.79-1.15-2.66-1.75-1.75-1.19-3.45-2.46-5.08-3.81-.82-.67-1.63-1.34-2.41-2.06a14.52,14.52,0,0,1-2-2.53L94.72,166l-4.41-6.44c-.37-.53-1.23,0-.87.5L97.58,172a20.07,20.07,0,0,0,1.9,2.57,27.82,27.82,0,0,0,2.44,2.17c1.67,1.38,3.39,2.7,5.16,3.94q1.48,1,3,2a18.28,18.28,0,0,0,3.25,1.83c.61.22.87-.74.27-1Z"/><path class="cls-4" d="M88.21,158.38a42.11,42.11,0,0,0,4,6.16c.69.94,1.38,1.88,2.13,2.79S96,169.07,96.79,170s1.4,1.8,2.27,2.58l2.71,2.35a21,21,0,0,0,5.62,3.71c.6.24.86-.73.27-1a20.94,20.94,0,0,1-5.68-3.87c-.85-.74-1.71-1.46-2.53-2.23s-1.35-1.67-2.11-2.44a47,47,0,0,1-4.42-5.23,40.28,40.28,0,0,1-3.84-6c-.29-.57-1.15-.07-.87.51Z"/><path class="cls-4" d="M88.61,160.79a69.07,69.07,0,0,0,5.76,7.2,43.59,43.59,0,0,0,6.89,5.76c.54.36,1-.51.51-.86a42.16,42.16,0,0,1-6.69-5.61,66.18,66.18,0,0,1-5.6-7c-.39-.51-1.26,0-.87.5Z"/><path class="cls-4" d="M89.4,159.47a35.84,35.84,0,0,0,4,6.24c.72,1,1.45,1.95,2.22,2.89a20.43,20.43,0,0,0,2.72,2.53c.48.42,1.19-.29.7-.71a22.22,22.22,0,0,1-2.58-2.36c-.81-1-1.58-2-2.33-3A34.82,34.82,0,0,1,90.27,159c-.27-.59-1.13-.08-.87.5Z"/><path class="cls-4" d="M90.06,160.32a46.47,46.47,0,0,0,3,3.85,20.51,20.51,0,0,1,2.91,3.4c.32.56,1.18.05.87-.51a20,20,0,0,0-2.9-3.4,40.1,40.1,0,0,1-3-3.85c-.37-.51-1.23,0-.86.51Z"/><path class="cls-2" d="M110,179c-3.3-2-6.73-3.93-9.37-6.78a45.44,45.44,0,0,1-3.76-5c-1.15-1.64-2.32-3.26-3.39-5a27.72,27.72,0,0,1-3.06-6.17c-.21-.6-1.17-.34-1,.27,1.31,3.93,3.72,7.32,6.08,10.68,1.23,1.75,2.41,3.55,3.79,5.18a24.25,24.25,0,0,0,4.43,4c1.84,1.33,3.8,2.47,5.74,3.64A.5.5,0,0,0,110,179Z"/><path class="cls-2" d="M95.21,164.9a47.76,47.76,0,0,0,2.61,4c.75,1.29,1.23,2.76,2.39,3.77,1.35,1.18,2.94,2.17,4.39,3.22l4.62,3.35c.52.38,1-.49.51-.86l-4.42-3.21c-1.45-1-3-2-4.39-3.21-1.14-1-1.58-2.49-2.34-3.74a40.46,40.46,0,0,1-2.51-3.86c-.27-.58-1.13-.07-.86.51Z"/><path class="cls-4" d="M150.19,12.35l12.06,8.56a42.16,42.16,0,0,1,5.12,3.9,8.37,8.37,0,0,1,2.68,5.59,5.6,5.6,0,0,1-1.28,3.49,6.66,6.66,0,0,1-2.51,2.29c-.58.28-.08,1.14.5.86a8.87,8.87,0,0,0,4-4.71,6.25,6.25,0,0,0,0-3.66,8.23,8.23,0,0,0-1.25-2.88,18.38,18.38,0,0,0-4.7-4.26l-6.61-4.69-7.54-5.35c-.52-.37-1,.49-.5.86Z"/><path class="cls-4" d="M150.74,14.05c1.72,1.37,3.46,2.73,5.18,4.09s3.25,2.66,5,3.85c.79.54,1.63,1,2.41,1.57a20.58,20.58,0,0,1,2.35,2c.67.65,1.3,1.34,1.9,2.05a7.59,7.59,0,0,1,1.73,2.61l.91-.39a6.89,6.89,0,0,1-.79-2.17,5.61,5.61,0,0,0-1-1.93A13.36,13.36,0,0,0,165,22.85c-3-2-6.15-3.77-9.31-5.52-.56-.31-1.07.55-.5.86,3,1.68,6,3.36,8.92,5.26a13.12,13.12,0,0,1,3.55,2.95c.87,1.2.78,2.76,1.63,4,.31.44,1.08.19.91-.39a6.71,6.71,0,0,0-1.43-2.39c-.63-.77-1.3-1.53-2-2.25a24.87,24.87,0,0,0-4.66-3.7c-1.88-1.19-3.58-2.66-5.33-4s-3.59-2.82-5.37-4.25c-.5-.4-1.21.31-.71.71Z"/><path class="cls-4" d="M151.42,13.87a4.28,4.28,0,0,0,1.07.38,2,2,0,0,1,.88.27c.6.43,1.19.94,1.78,1.4a.52.52,0,0,0,.71,0,.51.51,0,0,0,0-.71c-.64-.5-1.28-1-1.93-1.51a2.1,2.1,0,0,0-1-.39,3.62,3.62,0,0,1-1-.31.51.51,0,0,0-.68.18.51.51,0,0,0,.18.69Z"/><path class="cls-4" d="M152.72,14.82a18.58,18.58,0,0,0,2.86,2.2q1.68,1.21,3.36,2.4c2.22,1.57,4.46,3.1,6.74,4.56.55.35,1-.52.51-.86-2.22-1.42-4.39-2.91-6.54-4.42-1.06-.75-2.12-1.5-3.17-2.26a19.37,19.37,0,0,1-3-2.33c-.44-.48-1.14.23-.71.71Z"/><path class="cls-4" d="M169,28.7a1.85,1.85,0,0,0,.25.37c-.05-.07,0,.06,0,.08s0,0,0,0a373164063697.26,373164063697.26,0,0,0,0,.2v0a1.62,1.62,0,0,1,0,.22c0,.14,0,.29,0,.43a7.69,7.69,0,0,1,0,.83s0,.14,0,0c0,.06,0,.12,0,.18h0a.25.25,0,0,1,0,.07c.05-.08,0,0-.06.06a.5.5,0,0,0,0,.71.52.52,0,0,0,.7,0c.53-.44.45-1.22.43-1.84a5.29,5.29,0,0,0-.06-1,1.26,1.26,0,0,0-.21-.49l-.16-.21,0,0,0-.11a.5.5,0,0,0-.68-.18.53.53,0,0,0-.18.69Z"/><path class="cls-4" d="M152.8,17a4.62,4.62,0,0,0,1.39,1.36c.65.46,1.3.9,2,1.34q2,1.31,4,2.5a.5.5,0,0,0,.5-.87q-1.91-1.12-3.77-2.34c-.61-.41-1.21-.81-1.81-1.23a4.52,4.52,0,0,1-1.41-1.27.5.5,0,0,0-.86.51Z"/><path class="cls-4" d="M153.74,16.87A8.21,8.21,0,0,0,156.43,19a.5.5,0,1,0,.5-.86c-.24-.13-.48-.26-.71-.41a2.71,2.71,0,0,1-.35-.24l-.16-.11s.06,0,0,0l-.08-.06a8.09,8.09,0,0,1-1.16-1.18.51.51,0,0,0-.71,0,.52.52,0,0,0,0,.71Z"/><path class="cls-8" d="M167.14,91.48c1.72.09,3.61,1.56,5,2.5a30.18,30.18,0,0,1,4.1,3.38,31.6,31.6,0,0,1,6.43,9c1.77,3.75,2.75,7.93,1.65,12s-3.48,7.38-5.8,10.69c-1.48,2.11,2,4.11,3.45,2a46.59,46.59,0,0,0,5.48-9.47,19,19,0,0,0,.84-11.27,33.27,33.27,0,0,0-10.8-17.31c-2.78-2.4-6.52-5.41-10.33-5.61-2.57-.13-2.56,3.87,0,4Z"/><path class="cls-9" d="M134.88,97.64a27.34,27.34,0,0,0-.73,25.49,47.13,47.13,0,0,0,8,11.58,18.31,18.31,0,0,0,11.68,5.92c2.57.2,2.55-3.8,0-4-3.79-.29-7-2.66-9.45-5.39a45.39,45.39,0,0,1-6.83-10.13,23.15,23.15,0,0,1,.74-21.45c1.27-2.24-2.19-4.26-3.46-2Z"/></g></g></svg>