<svg xmlns="http://www.w3.org/2000/svg" viewBox="0 0 210.82 236.9"><defs><style>.cls-1{fill:#659ad1;}.cls-2{fill:#014482;}.cls-3{fill:#fdfdfd;}.cls-4{fill:#01599b;}.cls-5{fill:#f8f9fb;}</style></defs><g id="Layer_2" data-name="Layer 2"><g id="Layer_1-2" data-name="Layer 1"><path class="cls-1" d="M0,173.2V64.73c2.4-5.11,5-9.91,10.25-12.91C38.56,35.61,66.78,19.25,95.05,3,102-1,108.91-1,115.81,3q42.39,24.43,84.77,48.9c3.2,1.85,6,4.09,7.36,7.73-8.25,4.75-16.39,9.68-24.78,14.17-5.59,3-10.51,7.27-16.84,8.86-1-1.29-2.07-2.53-3-3.88C135.52,38.54,75.78,38.08,48,78.3c-16.78,24.3-17.08,49.94-3.33,75.9-2.63.59-4.69,2.32-7,3.56C26,164.09,15,171.63,2.88,177.23Z"/><path class="cls-2" d="M208.13,177.27a15.94,15.94,0,0,1-7.28,7.83Q158,209.84,115.17,234.55c-1.54.88-3.19,1.57-4.79,2.35h-9.94c-1.6-.78-3.25-1.47-4.79-2.35Q53,210,10.41,185.31c-3.33-1.92-6.36-4.14-7.53-8.08,12.1-5.6,23.12-13.14,34.8-19.47,2.3-1.24,4.36-3,7-3.56,1.4,2.05,2.68,4.2,4.22,6.12,16.6,20.73,37.81,31,64.61,27.94,23-2.65,40.29-14.62,52.65-34,6.46,2.59,12.07,6.72,18.21,9.9C192.39,168.34,199.7,173.83,208.13,177.27Z"/><path class="cls-3" d="M166.15,154.26c-12.36,19.38-29.61,31.35-52.65,34-26.8,3.09-48-7.21-64.61-27.94-1.54-1.92-2.82-4.07-4.22-6.12-13.75-26-13.45-51.6,3.33-75.9,27.78-40.22,87.52-39.76,115.32.47.93,1.35,2,2.59,3,3.88a3.53,3.53,0,0,1-2,2q-14,8-28.07,16c-9.12-12.59-21.21-19.13-36.86-16.58-26.14,4.26-35.88,33.52-24.33,51.36,5.94,11.33,15.56,17.17,28.09,17.89,13.94.8,24.86-4.77,32.17-16.92A214,214,0,0,1,166.15,154.26Z"/><path class="cls-4" d="M136.27,100.71q14-8,28.07-16a3.53,3.53,0,0,0,2-2c6.33-1.59,11.25-5.87,16.84-8.86,8.39-4.49,16.53-9.42,24.78-14.17,2.26,3.05,2.88,6.56,2.88,10.24V167c0,3.66-.47,7.19-2.69,10.27-8.43-3.44-15.74-8.93-23.77-13.1-6.14-3.18-11.75-7.31-18.21-9.9a213.09,213.09,0,0,0-30.81-17.81,32.21,32.21,0,0,0-6.14-4.13c-7.61-4.58-15.71-8.35-22.78-13.82Zm68.49,17.65c1.16-3.32-.62-4.31-3.77-3.78-3.52.58-4.22-1.24-3.82-4.19.35-2.57-.34-4-3.4-3.76-2.52.2-5.18-.35-4.64,3.63.43,3.23-1.14,4.7-4.29,4.26-3.57-.5-3.48,1.67-3.53,4.18s.35,4.32,3.42,3.75c3.87-.72,4.87,1,4.51,4.6-.13,1.38-1.09,3.43,1.16,4.26,2.43.9,6.93-2.2,6.71-4.83-.27-3.27.9-4.57,4.11-4S205.52,121.68,204.76,118.36Zm-40.43-11.59c-2.7-.38-4.87-.1-4.22,3.39.73,3.93-1.12,5-4.62,4.39-3.79-.67-3.21,1.93-3.37,4.24-.19,2.61.36,4.2,3.39,3.67,3.55-.63,5.1.53,4.72,4.43-.14,1.39-1.72,4.76,1.79,4.32,2.42-.31,6.85.56,6-4.62-.5-3,.44-4.77,3.89-4.13s4-1,4.06-4.14-1-4.25-4-3.76c-3.25.55-4.54-.78-4-4C168.45,107.62,167.49,106,164.33,106.77Z"/><path class="cls-1" d="M136.27,100.71l-29.85,17.8c-3.63,2-7.22,4-10.9,5.89-6.91,3.52-13,8.47-20.44,11.09-11.55-17.84-1.81-47.1,24.33-51.36C115.06,81.58,127.15,88.12,136.27,100.71Z"/><path class="cls-2" d="M75.08,135.49c7.39-2.62,13.53-7.57,20.44-11.09,3.68-1.87,7.27-3.92,10.9-5.89,7.07,5.47,15.17,9.24,22.78,13.82a32.21,32.21,0,0,1,6.14,4.13c-7.31,12.15-18.23,17.72-32.17,16.92C90.64,152.66,81,146.82,75.08,135.49Z"/><path class="cls-5" d="M204.76,118.36c.76,3.32-.44,4.62-3.54,4.1s-4.38.75-4.11,4c.22,2.63-4.28,5.73-6.71,4.83-2.25-.83-1.29-2.88-1.16-4.26.36-3.57-.64-5.32-4.51-4.6-3.07.57-3.48-1.2-3.42-3.75s0-4.68,3.53-4.18c3.15.44,4.72-1,4.29-4.26-.54-4,2.12-3.43,4.64-3.63,3.06-.24,3.75,1.19,3.4,3.76-.4,3,.3,4.77,3.82,4.19C204.14,114.05,205.92,115,204.76,118.36Z"/><path class="cls-5" d="M164.33,106.77c3.16-.75,4.12.85,3.65,3.78-.53,3.23.76,4.56,4,4,3-.49,4,.61,4,3.76s-.67,4.76-4.06,4.14-4.39,1.09-3.89,4.13c.86,5.18-3.57,4.31-6,4.62-3.51.44-1.93-2.93-1.79-4.32.38-3.9-1.17-5.06-4.72-4.43-3,.53-3.58-1.06-3.39-3.67.16-2.31-.42-4.91,3.37-4.24,3.5.62,5.35-.46,4.62-4.39C159.46,106.67,161.63,106.39,164.33,106.77Z"/></g></g></svg>