<svg xmlns="http://www.w3.org/2000/svg" viewBox="0 0 53.28 49.21"><defs><style>.cls-1{fill:#feac04;}.cls-2{fill:#fed11e;}.cls-3{fill:#3b3b45;}.cls-4{fill:#ed4e4d;}</style></defs><g id="Layer_2" data-name="Layer 2"><g id="Layer_1-2" data-name="Layer 1"><path class="cls-1" d="M4.09,30.47a26,26,0,0,1-.75-3.2,23,23,0,0,1,2.53-15A23,23,0,0,1,20,.92,23.46,23.46,0,0,1,49,30.14c-.06.2-.14.34.2.34a3.42,3.42,0,0,1,3,5,.3.3,0,0,0,0,.43,3.39,3.39,0,0,1,.59,4.1.55.55,0,0,0,0,.58,3.18,3.18,0,0,1-.44,3.59,7.15,7.15,0,0,1-2.63,2A30.46,30.46,0,0,1,40.15,49a16.21,16.21,0,0,1-5.6-.14,7.46,7.46,0,0,1-3.94-2.15.34.34,0,0,0-.34-.12,23.26,23.26,0,0,1-7.26,0,.39.39,0,0,0-.39.12,8,8,0,0,1-5.08,2.32,21.61,21.61,0,0,1-8-.76,26.4,26.4,0,0,1-7-2.79A4.94,4.94,0,0,1,.34,43.22a3.06,3.06,0,0,1,.11-2.64.53.53,0,0,0,0-.58A3.42,3.42,0,0,1,1,35.9c.18-.18.12-.3,0-.46a3.47,3.47,0,0,1,1.89-4.77A3.6,3.6,0,0,1,4.09,30.47Zm1.43-8.55a.27.27,0,0,0-.07.23v2.63a.27.27,0,0,0,.07.23A13.85,13.85,0,0,0,6,28.08c0,.09,0,.22.09.25s.16-.08.22-.14a3.09,3.09,0,0,1,3.09-.83,5.41,5.41,0,0,1,3.12,2.15c.17.22.24.15.37,0a3.31,3.31,0,0,1,3.57-1.11A4,4,0,0,1,19,30.94a16.58,16.58,0,0,0,3.54,5.67,9.31,9.31,0,0,1,1.75,2.47,6,6,0,0,1,.22,4.6c-.27.81-.3.8.56.81h0c1.22,0,2.44,0,3.66-.06.28,0,.35-.12.24-.39a6,6,0,0,1-.5-2.11,6.63,6.63,0,0,1,1.34-4.15c.53-.76,1.22-1.37,1.81-2.08A15,15,0,0,0,34,31.8a6.53,6.53,0,0,1,1.66-2.72,3.24,3.24,0,0,1,2.76-.79,3.31,3.31,0,0,1,2,1.18c.18.2.3.2.44,0a5.76,5.76,0,0,1,.86-.92,4.72,4.72,0,0,1,2.81-1.29,3.13,3.13,0,0,1,2.3.72c.14.11.2.18.26-.08a20.64,20.64,0,0,0,.47-4.36,20,20,0,0,0-.26-3.27,20.45,20.45,0,0,0-1.73-5.72,21.1,21.1,0,0,0-3-4.63A21.67,21.67,0,0,0,39,6.53,20.77,20.77,0,0,0,33.9,3.75a20.2,20.2,0,0,0-6-1.3A20.89,20.89,0,0,0,16.11,5.14,20.73,20.73,0,0,0,11.21,9a21.58,21.58,0,0,0-2,2.41A20.44,20.44,0,0,0,6.3,17.47,16.76,16.76,0,0,0,5.52,21.92ZM15.84,46.79a7.12,7.12,0,0,0,1.95-.15A6.38,6.38,0,0,0,20,45.85a5,5,0,0,0,1.78-2,3.9,3.9,0,0,0-.25-4.74c-.57-.8-1.34-1.43-1.93-2.21a20.16,20.16,0,0,1-2.46-4.11,4.62,4.62,0,0,0-1-1.9.85.85,0,0,0-1.27,0,2.38,2.38,0,0,0-.64,2,3.6,3.6,0,0,0,1.54,2.56,2.94,2.94,0,0,1,.74.79.8.8,0,0,1-.69,1.27,1.57,1.57,0,0,1-1.56-1A38.67,38.67,0,0,0,10.6,31a3.42,3.42,0,0,0-1.68-1.29c-.74-.22-1.2.14-1.25.91A2.67,2.67,0,0,0,8.3,32.5a20.34,20.34,0,0,0,1.64,1.84c.73.76,1.5,1.48,2.19,2.28a4.49,4.49,0,0,1,.73,1.05.41.41,0,0,1,0,.47.38.38,0,0,1-.42.12,3.1,3.1,0,0,1-.4-.13,4.45,4.45,0,0,1-1.25-.89,29.23,29.23,0,0,0-4.31-3.37,6.22,6.22,0,0,0-2.17-1,.89.89,0,0,0-.91.35,1.1,1.1,0,0,0,.15,1.6,8.88,8.88,0,0,0,1.72,1.33c1.4.92,2.9,1.67,4.27,2.64a3.51,3.51,0,0,1,1.08,1,.64.64,0,0,1,0,.83c-.22.25-.45,0-.64-.08C8.74,40,7.68,39.28,6.56,38.67a10,10,0,0,0-3-1.28.9.9,0,0,0-1.11.73,1.29,1.29,0,0,0,.4,1.13,6.2,6.2,0,0,0,2,1.22c1.13.5,2.31.85,3.4,1.43a1.73,1.73,0,0,1,.8.69.45.45,0,0,1,0,.54.51.51,0,0,1-.54.18,8.31,8.31,0,0,1-2-.9A11,11,0,0,0,3.8,41.22a1,1,0,0,0-1.24.49,1,1,0,0,0,.32,1.1A5.67,5.67,0,0,0,4.62,44a28.41,28.41,0,0,0,6,2.15A21.28,21.28,0,0,0,15.84,46.79Zm21.92,0c.3,0,.79,0,1.28,0A24.37,24.37,0,0,0,43.38,46a25.12,25.12,0,0,0,5.77-2.22,4.14,4.14,0,0,0,1.51-1.28A.83.83,0,0,0,50,41.19a3.23,3.23,0,0,0-.76.1,8.93,8.93,0,0,0-2,.9,10.91,10.91,0,0,1-2.4,1.11.5.5,0,0,1-.57-.16.51.51,0,0,1,0-.64,1.71,1.71,0,0,1,.52-.48,18.23,18.23,0,0,1,2.72-1.19,12.48,12.48,0,0,0,2.39-1.14,2.07,2.07,0,0,0,.92-1.19.84.84,0,0,0-.79-1.06,3.17,3.17,0,0,0-1.43.27,25.17,25.17,0,0,0-3,1.6,22.7,22.7,0,0,1-2.3,1.31c-.16.07-.36.25-.52.05a.57.57,0,0,1-.13-.77,3.62,3.62,0,0,1,.92-.95c1.3-1,2.75-1.68,4.1-2.55a8.86,8.86,0,0,0,2.24-1.75A1.12,1.12,0,0,0,50,33.38a1,1,0,0,0-1.12-.47,5.79,5.79,0,0,0-2.18,1,32.47,32.47,0,0,0-4.44,3.49,3,3,0,0,1-1.4.83.41.41,0,0,1-.51-.46,1,1,0,0,1,.2-.45,7.85,7.85,0,0,1,.93-1.14c1.14-1.16,2.29-2.31,3.33-3.56a2.79,2.79,0,0,0,.79-2,.93.93,0,0,0-1.28-.91,2.61,2.61,0,0,0-1.18.71,21.61,21.61,0,0,0-2.61,3.62c-.57.94-1.1,1.9-1.68,2.84a1.38,1.38,0,0,1-1.71.61.76.76,0,0,1-.47-.92,2,2,0,0,1,.73-1,5.33,5.33,0,0,0,1-1,3.19,3.19,0,0,0,.23-3.56A1,1,0,0,0,37.14,31a2.4,2.4,0,0,0-.57.86,20.48,20.48,0,0,1-2,4A33,33,0,0,1,31.9,39a4.17,4.17,0,0,0-1,2.15,3.88,3.88,0,0,0,.35,2.17A5.3,5.3,0,0,0,34,46.22,8.91,8.91,0,0,0,37.76,46.79Z"/><path class="cls-2" d="M5.52,21.92a16.76,16.76,0,0,1,.78-4.45A20.44,20.44,0,0,1,9.24,11.4a21.58,21.58,0,0,1,2-2.41,20.73,20.73,0,0,1,4.9-3.85A20.89,20.89,0,0,1,27.92,2.45a20.2,20.2,0,0,1,6,1.3A20.77,20.77,0,0,1,39,6.53,21.67,21.67,0,0,1,42.6,9.91a21.1,21.1,0,0,1,3,4.63,20.45,20.45,0,0,1,1.73,5.72,20,20,0,0,1,.26,3.27,20.64,20.64,0,0,1-.47,4.36c-.06.26-.12.19-.26.08a3.13,3.13,0,0,0-2.3-.72,4.72,4.72,0,0,0-2.81,1.29,5.76,5.76,0,0,0-.86.92c-.14.21-.26.21-.44,0a3.31,3.31,0,0,0-2-1.18,3.24,3.24,0,0,0-2.76.79A6.53,6.53,0,0,0,34,31.8a15,15,0,0,1-2.37,3.9c-.59.71-1.28,1.32-1.81,2.08a6.63,6.63,0,0,0-1.34,4.15A6,6,0,0,0,29,44c.11.27,0,.36-.24.39-1.22.11-2.44,0-3.66.06h0c-.86,0-.83,0-.56-.81a6,6,0,0,0-.22-4.6,9.31,9.31,0,0,0-1.75-2.47A16.58,16.58,0,0,1,19,30.94a4,4,0,0,0-2.54-2.55,3.31,3.31,0,0,0-3.57,1.11c-.13.16-.2.23-.37,0a5.41,5.41,0,0,0-3.12-2.15,3.09,3.09,0,0,0-3.09.83c-.06.06-.12.18-.22.14S6,28.17,6,28.08A13.85,13.85,0,0,1,5.52,25Zm16.25,8.94A1.92,1.92,0,0,0,22,31a8.12,8.12,0,0,0,6.53,1,5.84,5.84,0,0,0,2.6-1.31,8.11,8.11,0,0,0,2.79-4.4,6.77,6.77,0,0,0,.29-2.24c0-.61-.32-.84-.91-.69a3.23,3.23,0,0,0-.68.24c-.65.3-1.29.63-1.94.93a11,11,0,0,1-3.76,1.12,9.31,9.31,0,0,1-4.55-1c-.94-.42-1.83-.95-2.8-1.29-.75-.25-1.08,0-1.09.77a7.32,7.32,0,0,0,.36,2.33A8,8,0,0,0,21.77,30.86ZM21.65,16.6a3,3,0,0,0-5.79-1.29,3,3,0,0,0,1,3.67c.56.39.77.37,1.18-.14.18-.24.35-.49.53-.72a.91.91,0,0,1,1.12-.33c.28.09.56.21.84.3.5.16.67.08.87-.39A2.74,2.74,0,0,0,21.65,16.6Zm9.1,0A2.57,2.57,0,0,0,31,17.8c.17.36.32.43.71.32s.61-.22.92-.32a.91.91,0,0,1,1.17.34c.2.26.38.53.58.78s.53.42,1,.16a3,3,0,1,0-4.62-2.52Zm10,4a1.93,1.93,0,0,0,2-1.95,2,2,0,0,0-3.95,0A1.9,1.9,0,0,0,40.71,20.55Zm-28.11,0a1.92,1.92,0,0,0,1.92-1.95,2,2,0,0,0-2-1.93,2,2,0,0,0-2,1.95A2,2,0,0,0,12.6,20.55Z"/><path class="cls-2" d="M15.84,46.79a21.28,21.28,0,0,1-5.2-.64,28.41,28.41,0,0,1-6-2.15,5.67,5.67,0,0,1-1.74-1.19,1,1,0,0,1-.32-1.1,1,1,0,0,1,1.24-.49,11,11,0,0,1,2.63,1.19,8.31,8.31,0,0,0,2,.9A.51.51,0,0,0,9,43.13a.45.45,0,0,0,0-.54,1.73,1.73,0,0,0-.8-.69C7.15,41.32,6,41,4.84,40.47a6.2,6.2,0,0,1-2-1.22,1.29,1.29,0,0,1-.4-1.13.9.9,0,0,1,1.11-.73,10,10,0,0,1,3,1.28c1.12.61,2.18,1.35,3.34,1.89.19.09.42.33.64.08a.64.64,0,0,0,0-.83,3.51,3.51,0,0,0-1.08-1c-1.37-1-2.87-1.72-4.27-2.64a8.88,8.88,0,0,1-1.72-1.33,1.1,1.1,0,0,1-.15-1.6.89.89,0,0,1,.91-.35,6.22,6.22,0,0,1,2.17,1,29.23,29.23,0,0,1,4.31,3.37,4.45,4.45,0,0,0,1.25.89,3.1,3.1,0,0,0,.4.13.38.38,0,0,0,.42-.12.41.41,0,0,0,0-.47,4.49,4.49,0,0,0-.73-1.05c-.69-.8-1.46-1.52-2.19-2.28A20.34,20.34,0,0,1,8.3,32.5a2.67,2.67,0,0,1-.63-1.86c0-.77.51-1.13,1.25-.91A3.42,3.42,0,0,1,10.6,31a38.67,38.67,0,0,1,3.6,5.6,1.57,1.57,0,0,0,1.56,1,.8.8,0,0,0,.69-1.27,2.94,2.94,0,0,0-.74-.79A3.6,3.6,0,0,1,14.17,33a2.38,2.38,0,0,1,.64-2,.85.85,0,0,1,1.27,0,4.62,4.62,0,0,1,1,1.9,20.16,20.16,0,0,0,2.46,4.11c.59.78,1.36,1.41,1.93,2.21a3.9,3.9,0,0,1,.25,4.74,5,5,0,0,1-1.78,2,6.38,6.38,0,0,1-2.17.79A7.12,7.12,0,0,1,15.84,46.79Z"/><path class="cls-2" d="M37.76,46.79A8.91,8.91,0,0,1,34,46.22a5.3,5.3,0,0,1-2.78-2.9,3.88,3.88,0,0,1-.35-2.17,4.17,4.17,0,0,1,1-2.15,33,33,0,0,0,2.66-3.22,20.48,20.48,0,0,0,2-4,2.4,2.4,0,0,1,.57-.86,1,1,0,0,1,1.53.17,3.19,3.19,0,0,1-.23,3.56,5.33,5.33,0,0,1-1,1,2,2,0,0,0-.73,1,.76.76,0,0,0,.47.92,1.38,1.38,0,0,0,1.71-.61C39.47,36,40,35,40.57,34.07a21.61,21.61,0,0,1,2.61-3.62,2.61,2.61,0,0,1,1.18-.71.93.93,0,0,1,1.28.91,2.79,2.79,0,0,1-.79,2c-1,1.25-2.19,2.4-3.33,3.56a7.85,7.85,0,0,0-.93,1.14,1,1,0,0,0-.2.45.41.41,0,0,0,.51.46,3,3,0,0,0,1.4-.83A32.47,32.47,0,0,1,46.74,34a5.79,5.79,0,0,1,2.18-1,1,1,0,0,1,1.12.47,1.12,1.12,0,0,1-.13,1.27,8.86,8.86,0,0,1-2.24,1.75c-1.35.87-2.8,1.6-4.1,2.55a3.62,3.62,0,0,0-.92.95.57.57,0,0,0,.13.77c.16.2.36,0,.52-.05a22.7,22.7,0,0,0,2.3-1.31,25.17,25.17,0,0,1,3-1.6,3.17,3.17,0,0,1,1.43-.27.84.84,0,0,1,.79,1.06,2.07,2.07,0,0,1-.92,1.19,12.48,12.48,0,0,1-2.39,1.14A18.23,18.23,0,0,0,44.83,42a1.71,1.71,0,0,0-.52.48.51.51,0,0,0,0,.64.5.5,0,0,0,.57.16,10.91,10.91,0,0,0,2.4-1.11,8.93,8.93,0,0,1,2-.9,3.23,3.23,0,0,1,.76-.1.83.83,0,0,1,.65,1.27,4.14,4.14,0,0,1-1.51,1.28A25.12,25.12,0,0,1,43.38,46a24.37,24.37,0,0,1-4.34.78C38.55,46.77,38.06,46.77,37.76,46.79Z"/><path class="cls-2" d="M5.52,21.92V25a.27.27,0,0,1-.07-.23V22.15A.27.27,0,0,1,5.52,21.92Z"/><path class="cls-3" d="M21.77,30.86a8,8,0,0,1-2.94-4.35,7.32,7.32,0,0,1-.36-2.33c0-.77.34-1,1.09-.77,1,.34,1.86.87,2.8,1.29a9.31,9.31,0,0,0,4.55,1,11,11,0,0,0,3.76-1.12c.65-.3,1.29-.63,1.94-.93a3.23,3.23,0,0,1,.68-.24c.59-.15.88.08.91.69a6.77,6.77,0,0,1-.29,2.24,8.11,8.11,0,0,1-2.79,4.4,5.32,5.32,0,0,0-2.73-2.39c-.44-.17-.55-.14-.84.25a9.37,9.37,0,0,1-.68,1c-.29.31-.51.31-.76,0s-.39-.61-.59-.91c-.3-.47-.39-.49-.9-.29A5.45,5.45,0,0,0,21.77,30.86Z"/><path class="cls-4" d="M21.77,30.86a5.45,5.45,0,0,1,2.85-2.56c.51-.2.6-.18.9.29.2.3.38.62.59.91s.47.34.76,0a9.37,9.37,0,0,0,.68-1c.29-.39.4-.42.84-.25a5.32,5.32,0,0,1,2.73,2.39A5.84,5.84,0,0,1,28.52,32,8.12,8.12,0,0,1,22,31,1.92,1.92,0,0,1,21.77,30.86Z"/><path class="cls-3" d="M21.65,16.6a2.74,2.74,0,0,1-.24,1.1c-.2.47-.37.55-.87.39-.28-.09-.56-.21-.84-.3a.91.91,0,0,0-1.12.33c-.18.23-.35.48-.53.72-.41.51-.62.53-1.18.14a3,3,0,0,1,2.34-5.44A3.05,3.05,0,0,1,21.65,16.6Z"/><path class="cls-3" d="M30.75,16.56a3,3,0,1,1,4.62,2.52c-.43.26-.64.24-1-.16s-.38-.52-.58-.78a.91.91,0,0,0-1.17-.34c-.31.1-.61.23-.92.32s-.54,0-.71-.32A2.57,2.57,0,0,1,30.75,16.56Z"/><path class="cls-1" d="M40.71,20.55a1.9,1.9,0,0,1-2-1.95,2,2,0,0,1,3.95,0A1.93,1.93,0,0,1,40.71,20.55Z"/><path class="cls-1" d="M12.6,20.55a2,2,0,0,1-2-1.93,2,2,0,0,1,2-1.95,2,2,0,0,1,2,1.93A1.92,1.92,0,0,1,12.6,20.55Z"/></g></g></svg>