<svg xmlns="http://www.w3.org/2000/svg" viewBox="0 0 223.99 223.94"><defs><style>.cls-1{fill:#9f3625;}.cls-2{fill:#e4491a;}.cls-3{fill:#e75319;}.cls-4{fill:#312e2b;}.cls-5{fill:#f9e0c0;}</style></defs><g id="Layer_2" data-name="Layer 2"><g id="Layer_1-2" data-name="Layer 1"><path class="cls-1" d="M0,192V30.85a2.73,2.73,0,0,0,1.93-2C4.55,14.74,13.79,6.72,26.56,1.88,28,1.33,29.89,1.68,30.85,0H195c.18,1.83,1.75,1.63,2.94,2.08,15.79,6,25.63,18.7,25.76,35.36q.57,74.6.05,149.19a37.47,37.47,0,0,1-37.2,37.14q-74.59.39-149.19,0c-10.91,0-20.08-4.61-27.61-12.72C4.65,205.56,2.52,198.75,0,192ZM193.26,6.86a5.83,5.83,0,0,0-4.18-1.47c-1.82-.11-3.64-.32-5.45-.32q-29.85,0-59.69,0-42.52.08-85,.23a30.42,30.42,0,0,0-20.25,6.84C11.31,18,5.36,25.3,5.24,34.83q-.68,52,0,103.93c.12,11.25.73,22.46-.07,33.72a106.79,106.79,0,0,0,.33,15.38c1.34,18,16.85,31.21,36.11,31.08q70.62-.47,141.23,0c20.43.17,37-16,36.11-36.4-.39-9.43-.05-18.89-.07-28.34q-.11-33.32-.23-66.63l.1-47.89a3.72,3.72,0,0,0-.69-3.09C217.9,22.41,206.49,8.7,193.26,6.86Z"/><path class="cls-2" d="M218.6,87.59q.12,33.32.23,66.63c0,9.45-.32,18.91.07,28.34.84,20.45-15.68,36.57-36.11,36.4q-70.6-.59-141.23,0c-19.26.13-34.77-13.11-36.11-31.08a106.79,106.79,0,0,1-.33-15.38c.8-11.26.19-22.47.07-33.72q-.59-52,0-103.93c.12-9.53,6.07-16.87,13.4-22.7A30.42,30.42,0,0,1,38.89,5.29c1,2.13,3.06,1.64,4.81,1.65,7,0,13.92,0,20.88,0q27.11,0,54.2,0c1.26,0,2.91-.51,3.62.9s-1,2.22-1.66,3.25C117.48,16,112,18.61,108.4,23.07a4.16,4.16,0,0,1-3.12-1.75c1.44-.7,4-.06,3.76-2.79-.13-1.45-1.45-1.57-2.66-1.32-3,.63-1.51,2.51-1.09,4.09-6.13-2.62-12.63-.92-18.91-1.67-9-1.07-25.81,6.41-30.32,14-4.38,7.33-7.57,15.12-7.68,23.76-.06,4.4-2.07,6.77-5.75,8.74-8.5,4.56-12,12.55-14,21.48-2.14,1-2,2,0,3L29,94.12c.24.75-.81,2.13,1,2.12a8,8,0,0,1,1.91,4l.87,1.19.34.93c-.79.29-1.86.68-1.6,1.59,1.19,4.08-.46,7.51-2.54,10.68-3,4.64-5.37,9.62-9.19,13.92-3.55,4-9.26,7.68-7.79,14.58,1.22,5.74.84,11.53.95,17.32.07,3.29.82,6.56,4,8,3.55,1.64,4.13,4.19,4,7.61-.14,4.72,2.59,6.83,7,8.09,7.64,2.17,15.54-1.31,23.06,1.53a1.76,1.76,0,0,0,1.42-.31c3.74-2.92,8.13-2.29,12.41-2.35,2.53,0,4.66-1.06,6.95-2.16,5-2.4,10-5.17,15.77-5.74l-1.08,3a5.32,5.32,0,0,0-.15,5.85c3.48,9.07,5.86,10.3,17,8.76,1,2.65,2.29.45,3.45.17,4.22-1,10.24-1.36,11.66,1.64,2.14,4.5,3.85,3.93,7,2.46.36.56.71,1.12,1.07,1.66,3,4.5,7.2,6.26,12.37,5.14a10.24,10.24,0,0,0,8.37-8.73c1-5.3-.9-9.47-5.63-12-2-1.07-2.41-2.47-2.38-4.41,0-2.81.19-5.63,0-8.43-.18-3,.92-4.07,4-4,7.93.18,15.86.09,23.8.05,4.23,0,9-1.1,9.49,5.43,0,.38.57.79.95,1.07,4.23,3.11,8.93,2,13.1.54,3.49-1.23,5.46-4.62,5.78-8.6.69-8.36-4.24-12.71-14.23-12.51a10.6,10.6,0,0,1,4.86-4c4-1.8,7.22-5.47,9.45-8.67,3.22-4.62,4.58-10.68,6.84-16.06,2.1-5,4.53-6.21,9.09-6,1.46,0,3.53,1.47,4.28-.94.6-1.92.5-3.87-1.63-5.21-2.72-1.72-2.84-4.41-.73-6.28,2.83-2.51,2.43-5.49,2.7-8.59S215.49,90,218.6,87.59ZM26.83,100.87c.13-.07.32-.1.37-.2s-.06-.27-.09-.4l-.58.33Z"/><path class="cls-3" d="M108.4,23.07c3.64-4.46,9.08-7.07,12.34-11.93.69-1,2.44-1.72,1.66-3.25S120,7,118.78,7q-27.11,0-54.2,0c-7,0-13.92,0-20.88,0-1.75,0-3.76.48-4.81-1.65q42.52-.12,85.05-.23,29.84,0,59.69,0c1.81,0,3.63.21,5.45.31.92,1.82,2.59,1.53,4.18,1.48C206.49,8.7,217.9,22.41,218,36.61a4.34,4.34,0,0,0,.69,3.09q0,23.94-.1,47.89c-3.11,2.45-1.37,5.85-1.62,8.81s.13,6.08-2.7,8.59c-2.11,1.87-2,4.56.73,6.28,2.13,1.34,2.23,3.29,1.63,5.21-.75,2.41-2.82,1-4.28.94-4.56-.18-7,1-9.09,6-2.26,5.38-3.62,11.44-6.84,16.06-2.23,3.2-5.41,6.87-9.45,8.67a10.6,10.6,0,0,0-4.86,4c-1.27.77-3.18,1.23-3.72,2.35-3.67,7.61-10.48,5.62-16.6,5.73-4,.07-7.93,0-11.89,0-14.86,0-29.72-.07-44.58.13-3.73,0-5-1.15-4.72-4.84.31-4.1.15-8.24.2-12.37,1.48-9.18.3-18.42.65-27.63,1.69-.91,3.54-.72,5.35-.73,18.37-.12,36.75-.38,55.12-.24a30.44,30.44,0,0,0,16.88-4.88c12.48-7.86,15-19.6,9.32-33-3.06-7.25-9.38-10.73-15.94-13.91-2.13-1-3.85-2-4.83-4.49a34.33,34.33,0,0,0-12.92-16c-7.51-5.21-15.79-3.23-23.78-2.73-3.58.22-6-.24-8-3.1C118.82,31,113.84,26.81,108.4,23.07ZM131.54,7.8c-.25-.15-.5-.45-.73-.43-.53,0-.82.42-.5.92a.86.86,0,0,0,.8.2C131.31,8.41,131.4,8,131.54,7.8Z"/><path class="cls-2" d="M193.26,6.86c-1.59,0-3.26.34-4.18-1.48A5.88,5.88,0,0,1,193.26,6.86Z"/><path class="cls-4" d="M100.81,143.19c0,4.13.11,8.27-.2,12.37-.28,3.69,1,4.89,4.72,4.84,14.86-.2,29.72-.11,44.58-.13,4,0,7.92.06,11.89,0,6.12-.11,12.93,1.88,16.6-5.73.54-1.12,2.45-1.58,3.72-2.35,10-.2,14.92,4.15,14.23,12.51-.32,4-2.29,7.37-5.78,8.6-4.17,1.46-8.87,2.57-13.1-.54-.38-.28-.92-.69-.95-1.07-.49-6.53-5.26-5.44-9.49-5.43-7.94,0-15.87.13-23.8-.05-3.06-.06-4.16,1-4,4,.18,2.8,0,5.62,0,8.43,0,1.94.4,3.34,2.38,4.41,4.73,2.56,6.59,6.73,5.63,12a10.24,10.24,0,0,1-8.37,8.73c-5.17,1.12-9.4-.64-12.37-5.14-.36-.54-.71-1.1-1.07-1.66-.78-4.22-1-8.94,2.5-11.53,5.46-4,5.27-9.27,5.4-14.88.07-3.15-.87-4.45-4.18-4.38-8.25.17-16.5,0-24.75.08-1.39,0-3.16-.52-3.58,1.63a3.74,3.74,0,0,0,1.73,4.17c8.68,6.4,8.86,12.89.77,20.64-11.11,1.54-13.49.31-17-8.76.06-1,.11-2,.17-3,2.66-4.23,4.38-9.56,11.27-8.83-3.07-.85-2.18-3.49-3.13-5.06,0-2.91,0-5.83,0-8.75.07-.12.2-.25.18-.35a5,5,0,0,0-.24-.75l-.13-3c-1.25-1.38-2.68-.8-4.1-.39l-1.64,0-1.24-.09-23.74,0-1.1,0-6,.43c-2.51,1.29-3.37,3.84-4.68,6.06l-1.07.49a2,2,0,0,0-2.32,1.07l-4.88.37L37.29,159l-.64-.74-1.88-3.94-.55-2.08a2.78,2.78,0,0,0-.38-2.89c.11-2.12.29-3.92,2.23-5.61,6.14-5.37,11.53-5.7,18-.5a2.08,2.08,0,0,0,1.5,2.08l.05.12c.14.92-.72,2.27,1.06,2.5l2.92,0,1.09,0H89.57a6.16,6.16,0,0,0,4.15-.07,1.5,1.5,0,0,0,.86-.47c1.08-1.67.53-3.36.08-5.06V119.44c.78-.4.58-.71-.09-1,.63-3.88-2.19-3.3-4.4-3.29-10.26.06-20.54.51-30.79.18-10.55-.34-19.89-3.82-26.27-13l-.34-.93-.87-1.19a8,8,0,0,0-1.91-4,2.49,2.49,0,0,0-1-2.12c-.09-1.19-.19-2.37-.29-3.56l0-3c1.93-8.93,5.46-16.92,14-21.48,3.68-2,5.69-4.34,5.75-8.74.11-8.64,3.3-16.43,7.68-23.76,4.51-7.55,21.32-15,30.32-14,6.28.75,12.78-.95,18.91,1.67v0a4.16,4.16,0,0,0,3.12,1.75c5.44,3.74,10.42,8,14.22,13.44,2,2.86,4.46,3.32,8,3.1,8-.5,16.27-2.48,23.78,2.73a34.33,34.33,0,0,1,12.92,16c1,2.52,2.7,3.46,4.83,4.49,6.56,3.18,12.88,6.66,15.94,13.91,5.66,13.39,3.16,25.13-9.32,33a30.44,30.44,0,0,1-16.88,4.88c-18.37-.14-36.75.12-55.12.24-1.81,0-3.66-.18-5.35.73C99.7,124.73,100.94,134,100.81,143.19ZM185,88.69c-.05-6.61-2.25-11.29-7.2-15.66A32.74,32.74,0,0,0,167,67c-2.76-1-4.46-2.36-4.85-5.45-.44-3.57-2.58-6.38-4.88-9-7.8-9-17.69-9.64-28.18-6.64-4.22,1.21-6.59,1-9.13-3.27a38.66,38.66,0,0,0-18.49-15.95c-6.51-2.77-13.41-2-19.59-.84C63.23,29.24,54.57,40.52,54,60.58c-.11,4.35-1.35,6.51-5.28,8.6C40.83,73.41,34.48,79.6,35.89,89.6,37.1,98.14,40,106.12,50.3,107.87c.13,0,.21.27.35.33,3.12,1.39,6.37,3.2,9.77,2,3.11-1,6.16-.84,9.25-.87,11.43-.13,22.87-.13,34.3-.25,17.07-.17,34.18-1.23,51.18-.25,8.34.48,15.32-.62,22-5.13C182.43,100.17,185.47,95.32,185,88.69Z"/><path class="cls-3" d="M50.93,160.75l1.07-.49c3.09-.84,4-3.34,4.68-6.06l6-.43,1.11,0,23.74,0,1.24.09,1.64,0,4.1.39c0,1,.09,2,.13,3l.06,1.1c0,2.92,0,5.84,0,8.75-.13,4.66-4.46,5.64-7.08,8.12-5.74.57-10.73,3.34-15.77,5.74-2.29,1.1-4.42,2.13-6.95,2.16-4.28.06-8.67-.57-12.41,2.35a1.76,1.76,0,0,1-1.42.31c-7.52-2.84-15.42.64-23.06-1.53-4.44-1.26-7.17-3.37-7-8.09.1-3.42-.48-6-4-7.61-3.15-1.46-3.9-4.73-4-8-.11-5.79.27-11.58-.95-17.32-1.47-6.9,4.24-10.58,7.79-14.58,3.82-4.3,6.15-9.28,9.19-13.92,2.08-3.17,3.73-6.6,2.54-10.68-.26-.91.81-1.3,1.6-1.59,6.38,9.13,15.72,12.61,26.27,13,10.25.33,20.53-.12,30.79-.18,2.21,0,5-.59,4.4,3.29l.09,1q0,11.4,0,22.78c0,1.69,0,3.37-.08,5.06a1.5,1.5,0,0,1-.86.47,4.94,4.94,0,0,0-4.15.07H60.74l-1.09,0-2.92,0a2.8,2.8,0,0,0-1.06-2.5l-.05-.12a1.8,1.8,0,0,0-1.5-2.08c-6.52-5.2-11.91-4.87-18,.5-1.94,1.69-2.12,3.49-2.23,5.61-.47,1-1.2,2.12.38,2.89l.55,2.08c-1.27.87-2.29,2-1.53,3.58s2.24.38,3.41.36l.64.74c.52,3.56.52,3.56,6.44,3.24l4.88-.37A2,2,0,0,0,50.93,160.75Z"/><path class="cls-3" d="M103.33,192.74c8.09-7.75,7.91-14.24-.77-20.64a3.74,3.74,0,0,1-1.73-4.17c.42-2.15,2.19-1.62,3.58-1.63,8.25,0,16.5.09,24.75-.08,3.31-.07,4.25,1.23,4.18,4.38-.13,5.61.06,10.86-5.4,14.88-3.51,2.59-3.28,7.31-2.5,11.53-3.15,1.47-4.86,2-7-2.46-1.42-3-7.44-2.62-11.66-1.64C105.62,193.19,104.34,195.39,103.33,192.74Zm19.23-6-.41,0,.23.62c.1-.08.28-.15.3-.25S122.6,186.88,122.56,186.75Z"/><path class="cls-1" d="M87.59,175.17c2.62-2.48,7-3.46,7.08-8.12,1,1.57.06,4.21,3.13,5.06-6.89-.73-8.61,4.6-11.27,8.83,0-.94,0-1.87,0-2.81Z"/><path class="cls-3" d="M105.29,21.3c-.42-1.58-2-3.46,1.09-4.09,1.21-.25,2.53-.13,2.66,1.32.24,2.73-2.32,2.09-3.76,2.79Z"/><path class="cls-3" d="M28.67,87.57l0,3C26.64,89.58,26.53,88.58,28.67,87.57Z"/><path class="cls-3" d="M86.51,178.13c0,.94,0,1.87,0,2.81s-.11,2-.17,3A5.32,5.32,0,0,1,86.51,178.13Z"/><path class="cls-3" d="M26.83,100.87l-.3-.27.58-.33c0,.13.13.3.09.4S27,100.8,26.83,100.87Z"/><path class="cls-3" d="M29,94.12a2.49,2.49,0,0,1,1,2.12C28.17,96.25,29.22,94.87,29,94.12Z"/><path class="cls-3" d="M31.91,100.27l.87,1.19Z"/><path class="cls-2" d="M100.81,143.19c.13-9.21-1.11-18.46.65-27.63C101.11,124.77,102.29,134,100.81,143.19Z"/><path class="cls-2" d="M131.54,7.8c-.14.24-.23.61-.43.69a.86.86,0,0,1-.8-.2c-.32-.5,0-.88.5-.92C131,7.35,131.29,7.65,131.54,7.8Z"/><path class="cls-5" d="M185,88.69c.45,6.63-2.59,11.48-7.88,15.06-6.67,4.51-13.65,5.61-22,5.13-17-1-34.11.08-51.18.25-11.43.12-22.87.12-34.3.25-3.09,0-6.14-.18-9.25.87-3.4,1.15-6.65-.66-9.77-2-.14-.06-.22-.31-.35-.33C40,106.12,37.1,98.14,35.89,89.6c-1.41-10,4.94-16.19,12.87-20.42,3.93-2.09,5.17-4.25,5.28-8.6.53-20.06,9.19-31.34,27.88-34.73,6.18-1.12,13.08-1.93,19.59.84a38.66,38.66,0,0,1,18.49,16c2.54,4.26,4.91,4.48,9.13,3.27,10.49-3,20.38-2.36,28.18,6.64,2.3,2.66,4.44,5.47,4.88,9,.39,3.09,2.09,4.44,4.85,5.45a32.74,32.74,0,0,1,10.79,6C182.78,77.4,185,82.08,185,88.69Zm-33.1-9.44v-.34c1.28-2.42,3.53-1,5.3-1.21,1.62-.18,2.45-.57,2.4-2.3s-.86-2.23-2.5-2.21c-5,.07-9.94,0-14.91,0-2,0-3.13,1.09-3.1,3,.05,2.17,2,1.51,3,1.36,3.87-.56,4.81,1.12,4.58,4.72-.3,4.62-.11,9.28,0,13.92,0,1.51-.59,3.35,2.22,3.4s3.52-1.12,3-3.58h0ZM64.43,82.91l.86-.21c1.07,4.09,2.72,8.13,3,12.28.21,2.94,1.31,4.27,3.67,4.42,2.67.17,3.29-2,3.78-4.3.89-4.24,2.13-8.4,3.22-12.6l1,.13V99.26c3.6-.38,5-2,4.82-5.26-.22-5.29-.19-10.61,0-15.91.09-2.91-.42-4.86-3.86-4.89-3.25,0-4.62,1.61-5.25,4.67-.83,4-2.11,7.92-3.52,13.09-1.58-6-3-10.55-4-15.21-.94-4.3-4.18-2-6.4-2.44-2.77-.5-2.13,1.79-2.14,3.3q-.06,9.7,0,19.4c0,1.68-.64,3.74,2.46,3.63s2.36-2.14,2.38-3.84C64.46,91.51,64.43,87.21,64.43,82.91ZM110.5,96.2a15.57,15.57,0,0,0,2.07-17.33c-2.32-4.4-7.13-6.75-12.53-6.13-5.92.68-9.32,3.51-10.47,10.48C87.68,94.76,93.05,101.05,104,99.8c2.35-.27,4.45-.67,6.43,1.24,1.28,1.25,2.91.77,3.72-.8s-.41-2.29-1.73-2.81A12.21,12.21,0,0,1,110.5,96.2Zm15.87-23v0c-2,0-4-.12-6,0-1.55.13-3.94-1-3.89,2.21s2.46,2.24,4,2.11c3-.26,4.11.68,3.92,3.83a127.82,127.82,0,0,0,0,13.42c.09,1.86-1.61,5,2.68,4.86,4-.08,2.31-2.9,2.4-4.62a105,105,0,0,0,0-12.42c-.26-3.66.48-5.72,4.72-5.07,1.19.18,3.27.85,3.07-1.79-.14-1.81-1.14-2.59-2.95-2.55C131.68,73.27,129,73.23,126.37,73.23Z"/><path class="cls-1" d="M56.68,154.2c-.65,2.72-1.59,5.22-4.68,6.06C53.31,158,54.17,155.49,56.68,154.2Z"/><path class="cls-2" d="M36.65,158.21c-1.17,0-2.61,1.25-3.41-.36s.26-2.71,1.53-3.58C35.39,155.58,36,156.89,36.65,158.21Z"/><path class="cls-2" d="M43.73,162.19c-5.92.32-5.92.32-6.44-3.24Z"/><path class="cls-1" d="M94.58,147.28c0-1.69,0-3.37.08-5.06C95.11,143.92,95.66,145.61,94.58,147.28Z"/><path class="cls-1" d="M55.67,145.39a2.8,2.8,0,0,1,1.06,2.5C55,147.66,55.81,146.31,55.67,145.39Z"/><path class="cls-2" d="M34.22,152.19c-1.58-.77-.85-1.85-.38-2.89A2.78,2.78,0,0,1,34.22,152.19Z"/><path class="cls-1" d="M54.12,143.19a1.8,1.8,0,0,1,1.5,2.08A2.08,2.08,0,0,1,54.12,143.19Z"/><path class="cls-1" d="M89.57,147.82a4.94,4.94,0,0,1,4.15-.07A6.16,6.16,0,0,1,89.57,147.82Z"/><path class="cls-1" d="M94.47,154.22l-4.1-.39C91.79,153.42,93.22,152.84,94.47,154.22Z"/><path class="cls-1" d="M50.93,160.75a2,2,0,0,1-2.32,1.07A2,2,0,0,1,50.93,160.75Z"/><path class="cls-1" d="M94.67,119.44l-.09-1C95.25,118.73,95.45,119,94.67,119.44Z"/><path class="cls-1" d="M59.65,147.85l1.09,0Z"/><path class="cls-1" d="M63.75,153.74l-1.11,0Z"/><path class="cls-1" d="M88.73,153.85l-1.24-.09Z"/><path class="cls-1" d="M94.66,158.3l-.06-1.1a5,5,0,0,1,.24.75C94.86,158.05,94.73,158.18,94.66,158.3Z"/><path class="cls-2" d="M122.56,186.75c0,.13.15.28.12.39s-.2.17-.3.25l-.23-.62Z"/><path class="cls-4" d="M64.43,82.91c0,4.3,0,8.6,0,12.89,0,1.7.64,3.73-2.38,3.84s-2.45-2-2.46-3.63q-.06-9.7,0-19.4c0-1.51-.63-3.8,2.14-3.3,2.22.4,5.46-1.86,6.4,2.44,1,4.66,2.4,9.25,4,15.21,1.41-5.17,2.69-9.08,3.52-13.09.63-3.06,2-4.69,5.25-4.67,3.44,0,4,2,3.86,4.89-.17,5.3-.2,10.62,0,15.91.13,3.3-1.22,4.88-4.82,5.26V82.63l-1-.13c-1.09,4.2-2.33,8.36-3.22,12.6-.49,2.3-1.11,4.47-3.78,4.3-2.36-.15-3.46-1.48-3.67-4.42-.29-4.15-1.94-8.19-3-12.28Z"/><path class="cls-4" d="M110.5,96.2a12.21,12.21,0,0,0,1.91,1.23c1.32.52,2.57,1.19,1.73,2.81s-2.44,2.05-3.72.8c-2-1.91-4.08-1.51-6.43-1.24-10.94,1.25-16.31-5-14.42-16.58,1.15-7,4.55-9.8,10.47-10.48,5.4-.62,10.21,1.73,12.53,6.13A15.57,15.57,0,0,1,110.5,96.2Zm-8.29-.73c.44-1.4-2.72-1.74-.91-3.53,1.3-1.28,2.44-.68,3.52,0,2.62,1.78,3.16-.25,3.6-2a14.62,14.62,0,0,0-.19-7.82,7,7,0,0,0-10-4c-3.31,1.81-4.75,6.76-3.5,12C95.67,94.06,98,96,102.21,95.47Z"/><path class="cls-4" d="M151.92,96c.48,2.46-.23,3.64-3,3.58s-2.2-1.89-2.22-3.4c-.07-4.64-.26-9.3,0-13.92.23-3.6-.71-5.28-4.58-4.72-1.07.15-3,.81-3-1.36,0-1.91,1.11-3,3.1-3,5,0,9.94.06,14.91,0,1.64,0,2.45.49,2.5,2.21s-.78,2.12-2.4,2.3c-1.77.2-4-1.21-5.3,1.21l-.24.18.25.16V96Z"/><path class="cls-4" d="M126.37,73.23c2.66,0,5.31,0,8,0,1.81,0,2.81.74,2.95,2.55.2,2.64-1.88,2-3.07,1.79-4.24-.65-5,1.41-4.72,5.07a105,105,0,0,1,0,12.42c-.09,1.72,1.55,4.54-2.4,4.62-4.29.09-2.59-3-2.68-4.86a127.82,127.82,0,0,1,0-13.42c.19-3.15-.89-4.09-3.92-3.83-1.5.13-3.91,1-4-2.11s2.34-2.08,3.89-2.21c2-.16,4,0,6,0Z"/><path class="cls-1" d="M151.92,96h0Z"/><polygon class="cls-1" points="151.92 79.25 151.67 79.09 151.91 78.91 151.92 79.25"/><path class="cls-5" d="M102.21,95.47c-4.18.52-6.54-1.41-7.49-5.34-1.25-5.22.19-10.17,3.5-12a7,7,0,0,1,10,4,14.62,14.62,0,0,1,.19,7.82c-.44,1.75-1,3.78-3.6,2-1.08-.73-2.22-1.33-3.52,0C99.49,93.73,102.65,94.07,102.21,95.47Z"/></g></g></svg>