<svg id="Layer_1" data-name="Layer 1" xmlns="http://www.w3.org/2000/svg" viewBox="0 0 336.63 283.64"><defs><style>.cls-1{fill:#68e0fb;}.cls-2{fill:#010101;}.cls-3{fill:#fdfdfd;}</style></defs><path class="cls-1" d="M-304.6,498.48l-24.65,0c-1-4.06-4.36-3.77-7.48-4-22.54-1.54-40.59-11.33-53.52-29.9-26.18-37.58-9-90.05,34.21-105.15,10.43-3.64,21.22-4.27,32.11-3.86,4,.15,5.88-1.36,6.67-5.27A100.82,100.82,0,0,1-306.52,321a98.45,98.45,0,0,1,32.1-34.37c2.34-1.56,4.12-3.28,3.16-6.41a98.76,98.76,0,0,1,19.95-8.78c1.36-.42,2.87-1.77,4.44-.31-3,1.6-5.78,3.45-7.14,6.79-1.69,4.16-3.54,8.26-5.1,12.46-2.19,5.9-.28,11.14,5.07,14.5,4,2.5,4,4.18.06,6.69-5.54,3.53-7.36,8.7-5,14.83,1.49,4,3.13,7.88,4.84,11.76,2.58,5.88,7.77,8.41,14,7,4.55-1,5.82.21,4.81,4.68-1.44,6.4.9,11.32,6.9,14.05,4,1.8,8,3.51,12.08,5,5.9,2.19,11.18.26,14.55-5.05,2.54-4,4.17-4,6.63-.15,3.55,5.64,8.87,7.45,15.17,5q5.76-2.22,11.39-4.74c6.16-2.76,8.51-7.67,7-14.33-.95-4.24.38-5.52,4.67-4.53,6.4,1.47,11.39-.88,14.11-6.81,1.4-3.05,2.61-6.2,3.9-9.31,3.68-8.84,2.66-12.42-5.15-18.07-2.3-1.66-2.29-3.73.08-5.39a29.32,29.32,0,0,1,2.92-1.6c5.2,7.08,10.42,14.15,13.74,22.37-2.27,1.93-2.18,4.17-1.14,6.74a77.91,77.91,0,0,1,5.85,22.7c.37,4.31,2.15,6.83,5.93,9,19.08,10.85,30.88,27.13,34.47,48.86s-1.87,41.06-16.42,57.57c-13.19,15-30,22.65-49.9,23.47-2.89.12-5.16.8-6,3.9h-31.05c-.08-1.36-.22-2.72-.23-4.08,0-6,0-11.95,0-17.92,0-2.43-1.1-4.23-3.71-4.23s-3.64,1.8-3.72,4.22c0,1.12,0,2.24,0,3.36q-.12,9.31-.25,18.64l-16.86,0a64.3,64.3,0,0,0,.49-11.52c-.19-9.15-5.55-14.61-14.68-14.82-5.21-.13-10.44-.08-15.66,0-4.63.06-5.52,1.05-5.58,5.85q-.12,10.23-.26,20.48l-18.92.07c-.08-3.6-.14-7.19-.25-10.79-.29-9.55-5.86-15.21-15.42-15.59-2.61-.11-5.22-.09-7.83,0-10,.28-15.61,5.93-15.84,15.95C-304.43,491.54-304.52,495-304.6,498.48Zm-30.78-76.3c0,8,0,16,0,23.93,0,2.68,1,4.85,4,4.75s3.47-2.31,3.46-4.8c0-5.73.08-11.47,0-17.2-.05-2.24.61-3.15,3-3,3.23.16,6.47,0,9.71.05,5,0,7,1.92,7.15,7,.11,4.48.05,9,0,13.46,0,2.59.92,4.54,3.74,4.57s3.7-2.12,3.74-4.59c.06-3.74,0-7.48,0-11.22,0-4.29-.16-8.51-3.17-12a1.61,1.61,0,0,1,0-2.34c3.91-4.67,3.52-10.25,3-15.7-.73-7.36-5.82-12-13.19-12.2-5.23-.16-10.47-.08-15.7,0-4.61,0-5.64,1.08-5.66,5.83C-335.41,406.48-335.39,414.33-335.38,422.18Zm52.89-.48c0,8,0,15.95,0,23.93,0,4.28,1.07,5.33,5.3,5.35,7.35,0,14.71,0,22.06,0,2.83,0,5.65-.26,5.58-3.84-.06-3.26-2.73-3.7-5.43-3.69-5.74,0-11.47-.05-17.2,0-2,0-2.94-.48-2.86-2.71.16-4.11.18-8.23,0-12.34-.1-2.44,1-2.93,3.1-2.85,3.36.12,6.73,0,10.09,0,2.57,0,4.59-1,4.56-3.77s-2.07-3.74-4.62-3.74c-3.37,0-6.74-.1-10.1,0-2.21.09-3.13-.57-3-2.93.17-4,.2-8,0-12-.14-2.62,1-3.08,3.26-3,5.86.13,11.72.08,17.58,0,2.41,0,4.69-.66,4.7-3.61s-2.07-3.91-4.81-3.89c-7.6,0-15.2,0-22.81,0-4.19,0-5.34,1.17-5.36,5.34C-282.52,406-282.49,413.84-282.49,421.7ZM-219.2,451c8,0,13.35-2.88,15.71-8.47,2.85-6.74,1.32-15.92-3.49-20.56-3.4-3.28-7.67-3.77-12.14-3.76-5.06,0-8-1.72-8.6-5.44-1.24-8,.27-12.81,9.73-12.49,5.54.19,6.63.86,8.25,6.14.68,2.22,1.73,4.08,4.39,3.55s3.13-2.54,3-4.88a11.66,11.66,0,0,0-2.34-6.21c-5.55-7.84-20.41-8.64-26.93-1.38-5.21,5.81-5.09,12.74-2.59,19.34s8.15,9,15,8.94c8.15,0,11.87,5.61,8.91,13.3a6,6,0,0,1-5.24,4.21c-1.85.16-3.73.2-5.59.18-3.74,0-6.18-1.78-6.84-5.56-.47-2.72-1.69-4.61-4.7-3.93s-3,3.21-2.59,5.69C-233.9,447-228.3,451-219.2,451ZM-172,424.47c0,3.86,0,7.72,0,11.58,0,3.61,0,7.22,0,10.83.05,2.27,1.17,3.94,3.55,4,2.6.09,3.73-1.63,3.9-4.06.05-.87,0-1.74,0-2.62,0-13.44.09-26.89-.08-40.33,0-3,.9-3.93,3.79-3.67,2.46.22,5,0,7.46,0s4.6-.84,4.67-3.67-2-3.84-4.5-3.85q-15.12-.06-30.24,0c-2.52,0-4.52,1.07-4.45,3.91.06,2.61,1.94,3.57,4.34,3.6,2.86,0,5.74.15,8.59,0,2.31-.14,3,.71,2.95,3C-172.06,410.28-172,417.37-172,424.47Z" transform="translate(410.25 -246.68)"/><path class="cls-2" d="M-141.08,303.93a29.32,29.32,0,0,0-2.92,1.6c-2.37,1.66-2.38,3.73-.08,5.39,7.81,5.65,8.83,9.23,5.15,18.07-1.29,3.11-2.5,6.26-3.9,9.31-2.72,5.93-7.71,8.28-14.11,6.81-4.29-1-5.62.29-4.67,4.53,1.5,6.66-.85,11.57-7,14.33q-5.62,2.52-11.39,4.74c-6.3,2.43-11.62.62-15.17-5-2.46-3.9-4.09-3.87-6.63.15-3.37,5.31-8.65,7.24-14.55,5.05-4.08-1.52-8.11-3.23-12.08-5-6-2.73-8.34-7.65-6.9-14.05,1-4.47-.26-5.71-4.81-4.68-6.27,1.42-11.46-1.11-14-7-1.71-3.88-3.35-7.8-4.84-11.76-2.31-6.13-.49-11.3,5-14.83,3.92-2.51,3.9-4.19-.06-6.69-5.35-3.36-7.26-8.6-5.07-14.5,1.56-4.2,3.41-8.3,5.1-12.46,1.36-3.34,4.12-5.19,7.14-6.79a.24.24,0,0,0,.37-.05c2.4.33,4.8-.07,7.26.6,2.67.73,4.15-1.23,3.35-3.75,0-1.37.07-2.73.07-4.09a11.44,11.44,0,0,1,7.23-11.2c4-1.78,8-3.47,12.08-5,6.13-2.28,11.31-.4,14.77,5.15,2.34,3.75,4.19,3.79,6.48.14,3.7-5.89,8.88-7.64,15.41-5.11,3.71,1.45,7.4,3,11,4.57,6.35,2.8,8.72,7.7,7.17,14.56-.9,4,.5,5.44,4.44,4.5,6.77-1.62,11.75.78,14.57,7.11,1.41,3.19,2.53,6.51,4,9.65C-135.79,294.07-136.53,299.28-141.08,303.93Zm-18-24.54a10.36,10.36,0,0,1-10.06-13.51c1-3.62,0-5.7-3.45-7-3.27-1.2-6.47-2.61-9.67-4-3-1.29-5.11-.77-6.86,2.23-4.71,8.08-14,8-18.81-.06-1.66-2.78-3.68-3.47-6.56-2.25-3.56,1.5-7.14,2.94-10.7,4.44-2.71,1.14-3.59,3-2.84,6,2.38,9.42-3.89,15.67-13.44,13.43-2.94-.7-4.85.14-6,2.88-1.54,3.68-3,7.37-4.58,11.05-1.11,2.64-.25,4.5,2.1,6,8.57,5.47,8.59,13.79,0,19.16-2.39,1.5-3.21,3.37-2.15,6,1.51,3.7,3.06,7.37,4.59,11.05,1.21,2.94,3.25,3.66,6.32,2.87,9-2.33,15.53,4.32,13.14,13.45-.78,3,0,4.85,2.77,6,3.56,1.51,7.16,2.92,10.69,4.47,2.91,1.27,5.23.7,6.53-2.22,3.55-8,15.56-8.07,19.09.13,1.19,2.74,3.46,3.36,6.23,2.19,3.67-1.56,7.38-3,11-4.6,2.55-1.1,3.77-3.11,2.65-5.73-3.46-8.13,5.23-17,13.67-13.64,2.65,1.07,4.61-.14,5.7-2.69,1.57-3.67,3.07-7.37,4.6-11,1.14-2.75.37-4.69-2.2-6.27-8.34-5.14-8.35-14,0-19,2.63-1.57,3.33-3.53,2.23-6.25s-2.3-5.52-3.44-8.29c-2.49-6.05-2.49-6.05-9-5C-158,279.32-158.67,279.35-159,279.39Z" transform="translate(410.25 -246.68)"/><path class="cls-2" d="M-271.26,280.2c1,3.13-.82,4.85-3.16,6.41A98.45,98.45,0,0,0-306.52,321a100.82,100.82,0,0,0-10.74,29.38c-.79,3.91-2.69,5.42-6.67,5.27-10.89-.41-21.68.22-32.11,3.86-43.23,15.1-60.39,67.57-34.21,105.15,12.93,18.57,31,28.36,53.52,29.9,3.12.21,6.44-.08,7.48,4-1,3.46-3.59,3.77-6.75,3.63-47.61-2.11-82.08-45.81-72.71-92.28,7.22-35.85,38.61-61.28,76.21-61.77,8-.11,7.71-.19,10-7.89,7.55-25.63,22.47-45.87,44.9-60.51C-275.25,278.16-273.24,278.28-271.26,280.2Z" transform="translate(410.25 -246.68)"/><path class="cls-2" d="M-154.53,498.52c.82-3.1,3.09-3.78,6-3.9,19.9-.82,36.71-8.51,49.9-23.47,14.55-16.51,20-35.91,16.42-57.57s-15.39-38-34.47-48.86c-3.78-2.15-5.56-4.67-5.93-9a77.91,77.91,0,0,0-5.85-22.7c-1-2.57-1.13-4.81,1.14-6.74,3.09-.47,4.76.84,5.84,3.82,2.72,7.53,5.11,15.14,6.13,23.08a7.1,7.1,0,0,0,4,5.75C-83.16,375.8-69,407.3-75,439.85c-6.4,35-38.56,62-74.16,62.33C-151.79,502.2-154,501.65-154.53,498.52Z" transform="translate(410.25 -246.68)"/><path class="cls-2" d="M-304.6,498.48c.08-3.47.17-6.94.24-10.41.23-10,5.82-15.67,15.84-15.95,2.61-.08,5.22-.1,7.83,0,9.56.38,15.13,6,15.42,15.59.11,3.6.17,7.19.25,10.79l-.24,24.25c0,1.13.06,2.25,0,3.37-.19,2.35-1.2,4.27-3.81,4.18s-3.65-1.78-3.64-4.3c0-5.85-.15-11.71.07-17.56.11-2.87-.82-3.6-3.58-3.5-5.84.2-11.7.18-17.55,0-2.51-.08-3.16.77-3.1,3.16.16,5.73,0,11.46.07,17.19,0,2.68-.7,5-3.71,5s-3.78-2.35-3.81-4.95Zm20-18.74v-.13h-3c-6.62.08-9.21,2.67-9.31,9.34,0,2.11.05,4.23,0,6.35,0,1.54.47,2.27,2.14,2.25,6.6-.05,13.2,0,19.8,0,1.25,0,2.25-.22,2.21-1.8-.09-3.35.06-6.74-.32-10.06-.4-3.55-2.89-5.42-6.29-5.9A37.86,37.86,0,0,0-284.58,479.74Z" transform="translate(410.25 -246.68)"/><path class="cls-2" d="M-246.1,498.44q.14-10.24.26-20.48c.06-4.8,1-5.79,5.58-5.85,5.22-.06,10.45-.11,15.66,0,9.13.21,14.49,5.67,14.68,14.82a64.3,64.3,0,0,1-.49,11.52c-3,6.8-8,10.17-15.6,9.61-3.22-.24-6.47.07-9.7-.08-2.13-.1-2.81.65-2.76,2.76.13,4.85,0,9.71.05,14.56,0,2.67-.72,4.95-3.76,4.93s-3.75-2.3-3.75-5C-245.95,516.33-246,507.38-246.1,498.44Zm26.61.13c2.44-3.11,3.08-12.79,1-16a6.25,6.25,0,0,0-5.34-2.94c-4.11-.09-8.22,0-12.32-.08-1.58,0-2.25.51-2.21,2.15.14,5.59.18,11.18.26,16.77-.67,2.31,1,2,2.32,2,3.82,0,7.63,0,11.45,0A6.06,6.06,0,0,0-219.49,498.57Z" transform="translate(410.25 -246.68)"/><path class="cls-2" d="M-193.55,498.52q.12-9.31.25-18.64c0-1.12,0-2.24,0-3.36.08-2.42,1.12-4.23,3.72-4.22s3.69,1.8,3.71,4.23c0,6,0,12,0,17.92,0,1.36.15,2.72.23,4.08l-.24,24.56c0,1.11,0,2.24-.05,3.35-.19,2.26-1.33,3.86-3.71,3.84s-3.62-1.54-3.67-3.85c-.08-4,0-7.95-.06-11.92C-193.36,509.18-193.47,503.85-193.55,498.52Z" transform="translate(410.25 -246.68)"/><path class="cls-1" d="M-235.89,267.91c.8,2.52-.68,4.48-3.35,3.75-2.46-.67-4.86-.27-7.26-.6C-243.53,268.11-239.55,268.56-235.89,267.91Z" transform="translate(410.25 -246.68)"/><path class="cls-2" d="M-335.39,422.18c0-7.85,0-15.7,0-23.56,0-4.75,1.05-5.8,5.66-5.83,5.23,0,10.47-.11,15.7,0,7.37.23,12.46,4.84,13.19,12.2.55,5.45.94,11-3,15.7a1.61,1.61,0,0,0,0,2.34c3,3.47,3.21,7.69,3.17,12,0,3.74,0,7.48,0,11.22,0,2.47-.82,4.62-3.74,4.59s-3.76-2-3.74-4.57c0-4.49.08-9,0-13.46-.12-5-2.11-6.92-7.15-7-3.24,0-6.48.11-9.71-.05-2.35-.12-3,.79-3,3,.12,5.73,0,11.47,0,17.2,0,2.49-.55,4.71-3.46,4.8s-4-2.07-4-4.75C-335.4,438.14-335.38,430.16-335.39,422.18Zm7.48-13.13c0,2.24.08,4.49,0,6.72-.09,1.83.72,2.39,2.43,2.36,3.73-.07,7.46.09,11.19-.07s5.87-2,6.1-5.74c.56-9.1-.06-12.66-10.29-12-.25,0-.5,0-.75,0C-327.91,400.29-327.91,400.29-327.91,409.05Z" transform="translate(410.25 -246.68)"/><path class="cls-2" d="M-282.49,421.7c0-7.86,0-15.71,0-23.57,0-4.17,1.17-5.31,5.36-5.34,7.61,0,15.21,0,22.81,0,2.74,0,4.82.86,4.81,3.89s-2.29,3.59-4.7,3.61c-5.86.06-11.72.11-17.58,0-2.29-.05-3.4.41-3.26,3,.21,4,.18,8,0,12-.1,2.36.82,3,3,2.93,3.36-.14,6.73-.05,10.1,0,2.55,0,4.59.94,4.62,3.74s-2,3.77-4.56,3.77c-3.36,0-6.73.09-10.09,0-2.13-.08-3.2.41-3.1,2.85.18,4.11.16,8.23,0,12.34-.08,2.23.84,2.74,2.86,2.71,5.73-.09,11.46,0,17.2,0,2.7,0,5.37.43,5.43,3.69.07,3.58-2.75,3.85-5.58,3.84-7.35-.05-14.71,0-22.06,0-4.23,0-5.28-1.07-5.3-5.35C-282.52,437.65-282.49,429.68-282.49,421.7Z" transform="translate(410.25 -246.68)"/><path class="cls-2" d="M-219.2,451c-9.1,0-14.7-3.95-16-11.33-.44-2.48-.5-5,2.59-5.69s4.23,1.21,4.7,3.93c.66,3.78,3.1,5.53,6.84,5.56,1.86,0,3.74,0,5.59-.18a6,6,0,0,0,5.24-4.21c3-7.69-.76-13.32-8.91-13.3-6.89,0-12.57-2.44-15-8.94s-2.62-13.53,2.59-19.34c6.52-7.26,21.38-6.46,26.93,1.38a11.66,11.66,0,0,1,2.34,6.21c.12,2.34-.47,4.38-3,4.88s-3.71-1.33-4.39-3.55c-1.62-5.28-2.71-6-8.25-6.14-9.46-.32-11,4.51-9.73,12.49.57,3.72,3.54,5.45,8.6,5.44,4.47,0,8.74.48,12.14,3.76,4.81,4.64,6.34,13.82,3.49,20.56C-205.85,448.11-211.21,451-219.2,451Z" transform="translate(410.25 -246.68)"/><path class="cls-2" d="M-172,424.47c0-7.1-.08-14.19,0-21.29,0-2.26-.64-3.11-2.95-3-2.85.18-5.73.06-8.59,0-2.4,0-4.28-1-4.34-3.6-.07-2.84,1.93-3.9,4.45-3.91q15.12-.08,30.24,0c2.51,0,4.56,1,4.5,3.85s-2.14,3.68-4.67,3.67-5,.18-7.46,0c-2.89-.26-3.83.64-3.79,3.67.17,13.44.07,26.89.08,40.33,0,.88,0,1.75,0,2.62-.17,2.43-1.3,4.15-3.9,4.06-2.38-.07-3.5-1.74-3.55-4-.08-3.61,0-7.22,0-10.83C-172,432.19-172,428.33-172,424.47Z" transform="translate(410.25 -246.68)"/><path class="cls-3" d="M-159,279.39c.37,0,1-.07,1.61-.18,6.51-1.09,6.51-1.09,9,5,1.14,2.77,2.32,5.52,3.44,8.29s.4,4.68-2.23,6.25c-8.34,5-8.33,13.86,0,19,2.57,1.58,3.34,3.52,2.2,6.27-1.53,3.68-3,7.38-4.6,11-1.09,2.55-3,3.76-5.7,2.69-8.44-3.39-17.13,5.51-13.67,13.64,1.12,2.62-.1,4.63-2.65,5.73-3.66,1.57-7.37,3-11,4.6-2.77,1.17-5,.55-6.23-2.19-3.53-8.2-15.54-8.12-19.09-.13-1.3,2.92-3.62,3.49-6.53,2.22-3.53-1.55-7.13-3-10.69-4.47-2.72-1.15-3.55-3-2.77-6,2.39-9.13-4.11-15.78-13.14-13.45-3.07.79-5.11.07-6.32-2.87-1.53-3.68-3.08-7.35-4.59-11.05-1.06-2.61-.24-4.48,2.15-6,8.57-5.37,8.55-13.69,0-19.16-2.35-1.5-3.21-3.36-2.1-6,1.54-3.68,3-7.37,4.58-11.05,1.14-2.74,3-3.58,6-2.88,9.55,2.24,15.82-4,13.44-13.43-.75-3,.13-4.84,2.84-6,3.56-1.5,7.14-2.94,10.7-4.44,2.88-1.22,4.9-.53,6.56,2.25,4.82,8.09,14.1,8.14,18.81.06,1.75-3,3.88-3.52,6.86-2.23,3.2,1.38,6.4,2.79,9.67,4,3.46,1.28,4.46,3.36,3.45,7A10.36,10.36,0,0,0-159,279.39Zm-39.48,54.29A25.5,25.5,0,0,0-173,308.27a25.41,25.41,0,0,0-25.36-25.48,25.53,25.53,0,0,0-25.53,25.36A25.66,25.66,0,0,0-198.52,333.68Z" transform="translate(410.25 -246.68)"/><path class="cls-1" d="M-284.58,479.74a37.86,37.86,0,0,1,5.22,0c3.4.48,5.89,2.35,6.29,5.9.38,3.32.23,6.71.32,10.06,0,1.58-1,1.8-2.21,1.8-6.6,0-13.2,0-19.8,0-1.67,0-2.18-.71-2.14-2.25.07-2.12,0-4.24,0-6.35.1-6.67,2.69-9.26,9.31-9.34h3Z" transform="translate(410.25 -246.68)"/><path class="cls-1" d="M-238.09,498.51c-.08-5.59-.12-11.18-.26-16.77,0-1.64.63-2.18,2.21-2.15,4.1.08,8.21,0,12.32.08a6.25,6.25,0,0,1,5.34,2.94c2.07,3.17,1.43,12.85-1,15.95Z" transform="translate(410.25 -246.68)"/><path class="cls-3" d="M-238.09,498.51l18.6.05a6,6,0,0,1-4.83,2c-3.82,0-7.63,0-11.45,0C-237.1,500.55-238.76,500.82-238.09,498.51Z" transform="translate(410.25 -246.68)"/><path class="cls-1" d="M-327.91,409.05c0-8.76,0-8.76,8.65-8.76.25,0,.5,0,.75,0,10.23-.63,10.85,2.93,10.29,12-.23,3.71-2.35,5.59-6.1,5.74s-7.46,0-11.19.07c-1.71,0-2.52-.53-2.43-2.36C-327.83,413.54-327.91,411.29-327.91,409.05Z" transform="translate(410.25 -246.68)"/><path class="cls-2" d="M-198.52,333.68a25.66,25.66,0,0,1-25.42-25.53,25.53,25.53,0,0,1,25.53-25.36A25.41,25.41,0,0,1-173,308.27,25.5,25.5,0,0,1-198.52,333.68Zm.27-43.38a18,18,0,0,0-18.18,17.88,18.11,18.11,0,0,0,17.75,18,18,18,0,0,0,18.12-17.94A17.88,17.88,0,0,0-198.25,290.3Z" transform="translate(410.25 -246.68)"/><path class="cls-1" d="M-198.25,290.3a17.88,17.88,0,0,1,17.69,17.94,18,18,0,0,1-18.12,17.94,18.11,18.11,0,0,1-17.75-18A18,18,0,0,1-198.25,290.3Z" transform="translate(410.25 -246.68)"/></svg>