<svg xmlns="http://www.w3.org/2000/svg" viewBox="0 0 231.49 260.5"><defs><style>.cls-1{fill:#cd2227;}.cls-2{fill:#ef5756;}.cls-3{fill:#d22227;}.cls-4{fill:#ed2125;}.cls-5{fill:#da2126;}.cls-6{fill:#c32226;}.cls-7{fill:#e32126;}.cls-8{fill:#cc2227;}.cls-9{fill:#b22325;}.cls-10{fill:#b92225;}.cls-11{fill:#f16060;}</style></defs><g id="Layer_2" data-name="Layer 2"><g id="Layer_1-2" data-name="Layer 1"><path class="cls-1" d="M197.9,79.31c6.74,4,14.25,6.85,20.07,12.27,10.48,9.74,18,20.9,8.38,42.71-16,36.13-30.55,72.89-45.75,109.36a41.25,41.25,0,0,1-3.38,6.62c-6.27,9.68-15,10.7-23.2,2.66-11.82-11.63-23.67-23.23-35.23-35.12-2.77-2.85-4.08-2.32-6.5.13-11.35,11.5-22.85,22.87-34.35,34.22-9.66,9.53-20.14,7.89-25.59-4.58-9.51-21.78-18.47-43.81-27.65-65.73-7.19-17.21-14-34.57-21.65-51.6-7.49-16.75-.18-30.43,11.07-39.5A75.16,75.16,0,0,1,32.51,80.06c17.34-8.27,34.73-16.43,52-24.85,10-4.9,20.35-9.32,29.79-15.39l2.89,0c.3,1.86,2,2,3.29,2.64,13,6.36,25.93,12.77,39,19C172.24,67.51,184.78,74.05,197.9,79.31Z"/><path class="cls-2" d="M197.9,79.31c-13.12-5.26-25.66-11.8-38.43-17.85-13.06-6.18-26-12.59-39-19-1.26-.62-3-.78-3.29-2.64C128,33.46,139.69,28.66,150.93,23c13.89-7,28-13.55,42-20.31,2.4-1.15,4.77-2.36,7.49-2.52,4.66-.28,8.2,2.52,8.5,7.14a55.75,55.75,0,0,1-.69,13.87C204.68,40.54,201.33,59.93,197.9,79.31Z"/><path class="cls-2" d="M114.3,39.82c-9.44,6.07-19.75,10.49-29.79,15.39-17.27,8.42-34.66,16.58-52,24.85.76-5.39-1.16-10.47-2-15.63C28,49.28,25.1,34.22,22.31,19.12a42.59,42.59,0,0,1-.61-9.89C22.05,1.72,27.3-1.89,34.32,1c6.4,2.63,12.58,5.83,18.82,8.84q15.51,7.47,31,15C94.19,29.81,104.23,34.83,114.3,39.82Z"/><path class="cls-3" d="M205.23,86.12c8.23,2.13,13.91,7.68,19,14.09a7.36,7.36,0,0,0-3.81.89c-16.41,8.55-32.84,17-49.23,25.63-8.48,4.45-16.76,9.26-25.32,13.55-10,5-19.81,10.61-30.28,14.73,0-2.65,0-5.29,0-7.94,0-7.41-.65-8.48-8.1-9.95-9.64-1.9-19.37-3.35-29.07-5-17.31-3-34.59-6.07-51.94-8.82-8.74-1.39-17.28-4-26.22-4.14a28.44,28.44,0,0,1,8.74-21c.18,2.12,1.8,2.68,3.45,3,7.76,1.41,15.55,2.73,23.32,4.09,18,3.15,35.92,6.51,53.94,9.37,8.59,1.36,17,4,25.88,3.57,0,2.65-.09,5.3,0,7.93.28,6.24,2.2,7.42,7.76,4.59,10-5.06,19.91-10.26,29.85-15.42q24.14-12.52,48.25-25.09C203.16,89.26,205.22,88.65,205.23,86.12Z"/><path class="cls-4" d="M212,170l-22.41,54.4c-2.89,7-5.72,14.08-8.69,21.07a41.52,41.52,0,0,1-3.87,7.46c-6.27,9.06-14.8,9.94-22.57,2.24-12.46-12.35-24.77-24.84-37.14-37.26,1.41-.87,2.76-1.83,4.22-2.59,17.6-9.16,35.24-18.25,52.82-27.44,8.33-4.35,16.42-9.2,24.94-13.13C203.31,172.84,206.8,169,212,170Z"/><path class="cls-5" d="M115.54,155c10.47-4.12,20.25-9.7,30.28-14.73,8.56-4.29,16.84-9.1,25.32-13.55,16.39-8.59,32.82-17.08,49.23-25.63a7.36,7.36,0,0,1,3.81-.89c7,8.74,9.72,18.19,4.83,28.91-5.89.83-10.64,4.2-15.74,6.87-18.87,9.86-37.84,19.56-56.73,29.41-8.33,4.34-16.37,9.26-24.86,13.24-5.32,2.5-10,6.55-16.11,7.25q0-10.95,0-21.91C115.53,161,115.54,158,115.54,155Z"/><path class="cls-6" d="M115.53,164q0,11,0,21.91,0,7.47-.07,14.94c-4-1-7.92-2.37-12-2.9-18.39-2.39-36.46-6.54-54.73-9.47-7.77-1.24-15.42-3.32-23.33-3.6C20.29,172.26,14.36,160,10,147c5.19-.46,10.11,1,15.14,1.91,17.15,3,34.37,5.56,51.51,8.59C89.58,159.82,102.44,162.57,115.53,164Z"/><path class="cls-7" d="M115.5,200.83q0-7.47.07-14.94c6.13-.7,10.79-4.75,16.11-7.25,8.49-4,16.53-8.9,24.86-13.24,18.89-9.85,37.86-19.55,56.73-29.41,5.1-2.67,9.85-6,15.74-6.87-5.46,13.7-10.86,27.44-17,40.84-5.17-1-8.66,2.88-12.7,4.75-8.52,3.93-16.61,8.78-24.94,13.13-17.58,9.19-35.22,18.28-52.82,27.44-1.46.76-2.81,1.72-4.22,2.59-.54-.33-1.09-.65-1.64-1Z"/><path class="cls-8" d="M115.53,164c-13.09-1.41-25.95-4.16-38.9-6.45-17.14-3-34.36-5.6-51.51-8.59-5-.88-10-2.37-15.14-1.91C6.16,137.93.56,129.46.2,119.15c8.94.12,17.48,2.75,26.22,4.14,17.35,2.75,34.63,5.86,51.94,8.82,9.7,1.66,19.43,3.11,29.07,5,7.45,1.47,8.07,2.54,8.1,9.95,0,2.65,0,5.29,0,7.94C115.54,158,115.53,161,115.53,164Z"/><path class="cls-5" d="M115.53,118.15c-8.85.43-17.29-2.21-25.88-3.57-18-2.86-36-6.22-53.94-9.37-7.77-1.36-15.56-2.68-23.32-4.09-1.65-.3-3.27-.86-3.45-3,6.28-7.71,14.78-12.12,23.66-16l16.21-7.72C49.55,77.15,52,77,54,77.31c15,2.74,29.95,5.45,44.95,8,5.48.92,11,1.33,16.56,2q0,11,0,21.92C115.54,112.17,115.53,115.16,115.53,118.15Z"/><path class="cls-9" d="M110.4,221.7C98.61,233.5,87,245.54,74.94,257c-6.88,6.52-17.4,3.58-21.94-6.33C46.71,237,40.66,223.11,35.6,208.86c10.54,1.74,21.11,3.28,31.6,5.27C81.56,216.87,95.91,219.7,110.4,221.7Z"/><path class="cls-8" d="M182.68,75.14c5.61.86,10.08,4.58,15.41,6.15,2.07,2.06,5.81,1.67,7.14,4.83,0,2.53-2.07,3.14-3.81,4q-24.12,12.56-48.25,25.09c-9.94,5.16-19.87,10.36-29.85,15.42-5.56,2.83-7.48,1.65-7.76-4.59-.12-2.63,0-5.28,0-7.93,0-3,0-6,0-9a13.78,13.78,0,0,0,3.34-.74c14.76-7.5,29.52-15,44.21-22.63C169.69,82.4,176.15,78.71,182.68,75.14Z"/><path class="cls-10" d="M110.4,221.7c-14.49-2-28.84-4.83-43.2-7.57-10.49-2-21.06-3.53-31.6-5.27l-10.12-24c7.91.28,15.56,2.36,23.33,3.6,18.27,2.93,36.34,7.08,54.73,9.47,4,.53,8,1.91,12,2.9l.15,16.07Z"/><path class="cls-10" d="M114.9,42.58a.76.76,0,0,0-.23-.71h2.63c5.41,5,12.54,6.78,18.77,10.25,4.42,2.45,9,4.66,13.47,7-.07,2.45-2,3.2-3.74,4.12-5.4,2.83-10.67,5.91-16.19,8.48-4.56,2.11-8.56,5.76-14,5.62,0-4.1.1-8.19-.07-12.28C115.21,57.55,116.35,50,114.9,42.58Z"/><path class="cls-11" d="M156.33,22.78l-1.19.68Z"/><path class="cls-6" d="M115.58,77.31c5.47.14,9.47-3.51,14-5.62,5.52-2.57,10.79-5.65,16.19-8.48,1.77-.92,3.67-1.67,3.74-4.12a257.34,257.34,0,0,1,33.13,16c-6.52,3.57-13,7.26-19.58,10.68-14.69,7.63-29.45,15.13-44.21,22.63a13.78,13.78,0,0,1-3.34.74q0-11,0-21.92C115.53,84,115.55,80.63,115.58,77.31Z"/><path class="cls-7" d="M115.58,77.31c0,3.32,0,6.64-.08,10-5.52-.65-11.08-1.06-16.56-2-15-2.53-30-5.24-44.95-8-2-.36-4.44-.16-5.18-2.87L114.9,42.58c1.45,7.45.31,15,.61,22.45C115.68,69.12,115.56,73.21,115.58,77.31Z"/></g></g></svg>